<svg width="32" height="32" viewBox="0 0 32 32" fill="none" xmlns="http://www.w3.org/2000/svg">
  <path d="M15.7886 4H14.5254V5.26316H15.7886V4Z" fill="#F3D6AB" />
  <path d="M17.0523 4H15.7891V5.26316H17.0523V4Z" fill="#F3D6AB" />
  <path d="M13.2632 5.26318H12V6.52635H13.2632V5.26318Z" fill="#F3D6AB" />
  <path d="M14.5249 5.26318H13.2617V6.52635H14.5249V5.26318Z" fill="#F3D6AB" />
  <path d="M15.7886 5.26318H14.5254V6.52635H15.7886V5.26318Z" fill="#F3D6AB" />
  <path d="M17.0523 5.26318H15.7891V6.52635H17.0523V5.26318Z" fill="#F3D6AB" />
  <path d="M18.3159 5.26318H17.0527V6.52635H18.3159V5.26318Z" fill="#F3D6AB" />
  <path d="M19.5777 5.26318H18.3145V6.52635H19.5777V5.26318Z" fill="#F3D6AB" />
  <path d="M10.7359 6.52637H9.47266V7.78953H10.7359V6.52637Z" fill="#DFBB87" />
  <path d="M11.9995 6.52637H10.7363V7.78953H11.9995V6.52637Z" fill="#DFBB87" />
  <path d="M13.2632 6.52637H12V7.78953H13.2632V6.52637Z" fill="#F3D6AB" />
  <path d="M14.5249 6.52637H13.2617V7.78953H14.5249V6.52637Z" fill="#F3D6AB" />
  <path d="M15.7886 6.52637H14.5254V7.78953H15.7886V6.52637Z" fill="#F3D6AB" />
  <path d="M17.0523 6.52637H15.7891V7.78953H17.0523V6.52637Z" fill="#F3D6AB" />
  <path d="M18.3159 6.52637H17.0527V7.78953H18.3159V6.52637Z" fill="#F3D6AB" />
  <path d="M19.5777 6.52637H18.3145V7.78953H19.5777V6.52637Z" fill="#F3D6AB" />
  <path d="M20.8413 6.52637H19.5781V7.78953H20.8413V6.52637Z" fill="#DFBB87" />
  <path d="M22.105 6.52637H20.8418V7.78953H22.105V6.52637Z" fill="#DFBB87" />
  <path d="M8.21048 7.78955H6.94727V9.05271H8.21048V7.78955Z" fill="#F3D6AB" />
  <path d="M9.4722 7.78955H8.20898V9.05271H9.4722V7.78955Z" fill="#F3D6AB" />
  <path d="M10.7359 7.78955H9.47266V9.05271H10.7359V7.78955Z" fill="#DFBB87" />
  <path d="M11.9995 7.78955H10.7363V9.05271H11.9995V7.78955Z" fill="#DFBB87" />
  <path d="M13.2632 7.78955H12V9.05271H13.2632V7.78955Z" fill="#DFBB87" />
  <path d="M14.5249 7.78955H13.2617V9.05271H14.5249V7.78955Z" fill="#DFBB87" />
  <path d="M15.7886 7.78955H14.5254V9.05271H15.7886V7.78955Z" fill="#F3D6AB" />
  <path d="M17.0523 7.78955H15.7891V9.05271H17.0523V7.78955Z" fill="#F3D6AB" />
  <path d="M18.3159 7.78955H17.0527V9.05271H18.3159V7.78955Z" fill="#DFBB87" />
  <path d="M19.5777 7.78955H18.3145V9.05271H19.5777V7.78955Z" fill="#DFBB87" />
  <path d="M20.8413 7.78955H19.5781V9.05271H20.8413V7.78955Z" fill="#DFBB87" />
  <path d="M22.105 7.78955H20.8418V9.05271H22.105V7.78955Z" fill="#DFBB87" />
  <path d="M23.3667 7.78955H22.1035V9.05271H23.3667V7.78955Z" fill="#F3D6AB" />
  <path d="M24.6324 7.78955H23.3691V9.05271H24.6324V7.78955Z" fill="#F3D6AB" />
  <path d="M5.68314 9.05273H4.41992V10.3159H5.68314V9.05273Z" fill="#F3D6AB" />
  <path d="M6.94681 9.05273H5.68359V10.3159H6.94681V9.05273Z" fill="#F3D6AB" />
  <path d="M8.21048 9.05273H6.94727V10.3159H8.21048V9.05273Z" fill="#F3D6AB" />
  <path d="M9.4722 9.05273H8.20898V10.3159H9.4722V9.05273Z" fill="#F3D6AB" />
  <path d="M10.7359 9.05273H9.47266V10.3159H10.7359V9.05273Z" fill="#F3D6AB" />
  <path d="M11.9995 9.05273H10.7363V10.3159H11.9995V9.05273Z" fill="#F3D6AB" />
  <path d="M13.2632 9.05273H12V10.3159H13.2632V9.05273Z" fill="#DFBB87" />
  <path d="M14.5249 9.05273H13.2617V10.3159H14.5249V9.05273Z" fill="#DFBB87" />
  <path d="M15.7886 9.05273H14.5254V10.3159H15.7886V9.05273Z" fill="#DFBB87" />
  <path d="M17.0523 9.05273H15.7891V10.3159H17.0523V9.05273Z" fill="#DFBB87" />
  <path d="M18.3159 9.05273H17.0527V10.3159H18.3159V9.05273Z" fill="#DFBB87" />
  <path d="M19.5777 9.05273H18.3145V10.3159H19.5777V9.05273Z" fill="#DFBB87" />
  <path d="M20.8413 9.05273H19.5781V10.3159H20.8413V9.05273Z" fill="#F3D6AB" />
  <path d="M22.105 9.05273H20.8418V10.3159H22.105V9.05273Z" fill="#F3D6AB" />
  <path d="M23.3667 9.05273H22.1035V10.3159H23.3667V9.05273Z" fill="#F3D6AB" />
  <path d="M24.6324 9.05273H23.3691V10.3159H24.6324V9.05273Z" fill="#F3D6AB" />
  <path d="M25.8941 9.05273H24.6309V10.3159H25.8941V9.05273Z" fill="#F3D6AB" />
  <path d="M27.1577 9.05273H25.8945V10.3159H27.1577V9.05273Z" fill="#F3D6AB" />
  <path d="M5.68314 10.3159H4.41992V11.5791H5.68314V10.3159Z" fill="#B37954" />
  <path d="M6.94681 10.3159H5.68359V11.5791H6.94681V10.3159Z" fill="#B37954" />
  <path d="M8.21048 10.3159H6.94727V11.5791H8.21048V10.3159Z" fill="#F3D6AB" />
  <path d="M9.4722 10.3159H8.20898V11.5791H9.4722V10.3159Z" fill="#F3D6AB" />
  <path d="M10.7359 10.3159H9.47266V11.5791H10.7359V10.3159Z" fill="#DFBB87" />
  <path d="M11.9995 10.3159H10.7363V11.5791H11.9995V10.3159Z" fill="#DFBB87" />
  <path d="M13.2632 10.3159H12V11.5791H13.2632V10.3159Z" fill="#DFBB87" />
  <path d="M14.5249 10.3159H13.2617V11.5791H14.5249V10.3159Z" fill="#DFBB87" />
  <path d="M15.7886 10.3159H14.5254V11.5791H15.7886V10.3159Z" fill="#F3D6AB" />
  <path d="M17.0523 10.3159H15.7891V11.5791H17.0523V10.3159Z" fill="#F3D6AB" />
  <path d="M18.3159 10.3159H17.0527V11.5791H18.3159V10.3159Z" fill="#DFBB87" />
  <path d="M19.5777 10.3159H18.3145V11.5791H19.5777V10.3159Z" fill="#DFBB87" />
  <path d="M20.8413 10.3159H19.5781V11.5791H20.8413V10.3159Z" fill="#DFBB87" />
  <path d="M22.105 10.3159H20.8418V11.5791H22.105V10.3159Z" fill="#DFBB87" />
  <path d="M23.3667 10.3159H22.1035V11.5791H23.3667V10.3159Z" fill="#F3D6AB" />
  <path d="M24.6324 10.3159H23.3691V11.5791H24.6324V10.3159Z" fill="#F3D6AB" />
  <path d="M25.8941 10.3159H24.6309V11.5791H25.8941V10.3159Z" fill="#DFBB87" />
  <path d="M27.1577 10.3159H25.8945V11.5791H27.1577V10.3159Z" fill="#DFBB87" />
  <path d="M5.68314 11.5791H4.41992V12.8423H5.68314V11.5791Z" fill="#B37954" />
  <path d="M6.94681 11.5791H5.68359V12.8423H6.94681V11.5791Z" fill="#B37954" />
  <path d="M8.21048 11.5791H6.94727V12.8423H8.21048V11.5791Z" fill="#B37954" />
  <path d="M9.4722 11.5791H8.20898V12.8423H9.4722V11.5791Z" fill="#B37954" />
  <path d="M10.7359 11.5791H9.47266V12.8423H10.7359V11.5791Z" fill="#DFBB87" />
  <path d="M11.9995 11.5791H10.7363V12.8423H11.9995V11.5791Z" fill="#DFBB87" />
  <path d="M13.2632 11.5791H12V12.8423H13.2632V11.5791Z" fill="#DFBB87" />
  <path d="M14.5249 11.5791H13.2617V12.8423H14.5249V11.5791Z" fill="#F3D6AB" />
  <path d="M15.7886 11.5791H14.5254V12.8423H15.7886V11.5791Z" fill="#F3D6AB" />
  <path d="M17.0523 11.5791H15.7891V12.8423H17.0523V11.5791Z" fill="#F3D6AB" />
  <path d="M18.3159 11.5791H17.0527V12.8423H18.3159V11.5791Z" fill="#F3D6AB" />
  <path d="M19.5777 11.5791H18.3145V12.8423H19.5777V11.5791Z" fill="#F3D6AB" />
  <path d="M20.8413 11.5791H19.5781V12.8423H20.8413V11.5791Z" fill="#DFBB87" />
  <path d="M22.105 11.5791H20.8418V12.8423H22.105V11.5791Z" fill="#DFBB87" />
  <path d="M23.3667 11.5791H22.1035V12.8423H23.3667V11.5791Z" fill="#B37954" />
  <path d="M24.6324 11.5791H23.3691V12.8423H24.6324V11.5791Z" fill="#DFBB87" />
  <path d="M25.8941 11.5791H24.6309V12.8423H25.8941V11.5791Z" fill="#DFBB87" />
  <path d="M27.1577 11.5791H25.8945V12.8423H27.1577V11.5791Z" fill="#DFBB87" />
  <path d="M5.68314 12.8423H4.41992V14.1054H5.68314V12.8423Z" fill="#B37954" />
  <path d="M6.94681 12.8423H5.68359V14.1054H6.94681V12.8423Z" fill="#B37954" />
  <path d="M8.21048 12.8423H6.94727V14.1054H8.21048V12.8423Z" fill="#B37954" />
  <path d="M9.4722 12.8423H8.20898V14.1054H9.4722V12.8423Z" fill="#B37954" />
  <path d="M10.7359 12.8423H9.47266V14.1054H10.7359V12.8423Z" fill="#804648" />
  <path d="M11.9995 12.8423H10.7363V14.1054H11.9995V12.8423Z" fill="#804648" />
  <path d="M13.2632 12.8423H12V14.1054H13.2632V12.8423Z" fill="#F3D6AB" />
  <path d="M14.5249 12.8423H13.2617V14.1054H14.5249V12.8423Z" fill="#F3D6AB" />
  <path d="M15.7886 12.8423H14.5254V14.1054H15.7886V12.8423Z" fill="#F3D6AB" />
  <path d="M17.0523 12.8423H15.7891V14.1054H17.0523V12.8423Z" fill="#F3D6AB" />
  <path d="M18.3159 12.8423H17.0527V14.1054H18.3159V12.8423Z" fill="#F3D6AB" />
  <path d="M19.5777 12.8423H18.3145V14.1054H19.5777V12.8423Z" fill="#F3D6AB" />
  <path d="M20.8413 12.8423H19.5781V14.1054H20.8413V12.8423Z" fill="#DFBB87" />
  <path d="M22.105 12.8423H20.8418V14.1054H22.105V12.8423Z" fill="#B37954" />
  <path d="M23.3667 12.8423H22.1035V14.1054H23.3667V12.8423Z" fill="#B37954" />
  <path d="M24.6324 12.8423H23.3691V14.1054H24.6324V12.8423Z" fill="#DFBB87" />
  <path d="M25.8941 12.8423H24.6309V14.1054H25.8941V12.8423Z" fill="#DFBB87" />
  <path d="M27.1577 12.8423H25.8945V14.1054H27.1577V12.8423Z" fill="#DFBB87" />
  <path d="M5.68314 14.1055H4.41992V15.3686H5.68314V14.1055Z" fill="#B37954" />
  <path d="M6.94681 14.1055H5.68359V15.3686H6.94681V14.1055Z" fill="#B37954" />
  <path d="M8.21048 14.1055H6.94727V15.3686H8.21048V14.1055Z" fill="#B37954" />
  <path d="M9.4722 14.1055H8.20898V15.3686H9.4722V14.1055Z" fill="#B37954" />
  <path d="M10.7359 14.1055H9.47266V15.3686H10.7359V14.1055Z" fill="#804648" />
  <path d="M11.9995 14.1055H10.7363V15.3686H11.9995V14.1055Z" fill="#804648" />
  <path d="M13.2632 14.1055H12V15.3686H13.2632V14.1055Z" fill="#B37954" />
  <path d="M14.5249 14.1055H13.2617V15.3686H14.5249V14.1055Z" fill="#B37954" />
  <path d="M15.7886 14.1055H14.5254V15.3686H15.7886V14.1055Z" fill="#F3D6AB" />
  <path d="M17.0523 14.1055H15.7891V15.3686H17.0523V14.1055Z" fill="#F3D6AB" />
  <path d="M18.3159 14.1055H17.0527V15.3686H18.3159V14.1055Z" fill="#DFBB87" />
  <path d="M19.5777 14.1055H18.3145V15.3686H19.5777V14.1055Z" fill="#DFBB87" />
  <path d="M20.8413 14.1055H19.5781V15.3686H20.8413V14.1055Z" fill="#DFBB87" />
  <path d="M22.105 14.1055H20.8418V15.3686H22.105V14.1055Z" fill="#B37954" />
  <path d="M23.3667 14.1055H22.1035V15.3686H23.3667V14.1055Z" fill="#B37954" />
  <path d="M24.6324 14.1055H23.3691V15.3686H24.6324V14.1055Z" fill="#DFBB87" />
  <path d="M25.8941 14.1055H24.6309V15.3686H25.8941V14.1055Z" fill="#DFBB87" />
  <path d="M27.1577 14.1055H25.8945V15.3686H27.1577V14.1055Z" fill="#DFBB87" />
  <path d="M5.68314 15.3687H4.41992V16.6318H5.68314V15.3687Z" fill="#B37954" />
  <path d="M6.94681 15.3687H5.68359V16.6318H6.94681V15.3687Z" fill="#B37954" />
  <path d="M8.21048 15.3687H6.94727V16.6318H8.21048V15.3687Z" fill="#B37954" />
  <path d="M9.4722 15.3687H8.20898V16.6318H9.4722V15.3687Z" fill="#B37954" />
  <path d="M10.7359 15.3687H9.47266V16.6318H10.7359V15.3687Z" fill="#804648" />
  <path d="M11.9995 15.3687H10.7363V16.6318H11.9995V15.3687Z" fill="#804648" />
  <path d="M13.2632 15.3687H12V16.6318H13.2632V15.3687Z" fill="#B37954" />
  <path d="M14.5249 15.3687H13.2617V16.6318H14.5249V15.3687Z" fill="#B37954" />
  <path d="M15.7886 15.3687H14.5254V16.6318H15.7886V15.3687Z" fill="#B37954" />
  <path d="M17.0523 15.3687H15.7891V16.6318H17.0523V15.3687Z" fill="#F3D6AB" />
  <path d="M18.3159 15.3687H17.0527V16.6318H18.3159V15.3687Z" fill="#DFBB87" />
  <path d="M19.5777 15.3687H18.3145V16.6318H19.5777V15.3687Z" fill="#DFBB87" />
  <path d="M20.8413 15.3687H19.5781V16.6318H20.8413V15.3687Z" fill="#DFBB87" />
  <path d="M22.105 15.3687H20.8418V16.6318H22.105V15.3687Z" fill="#B37954" />
  <path d="M23.3667 15.3687H22.1035V16.6318H23.3667V15.3687Z" fill="#B37954" />
  <path d="M24.6324 15.3687H23.3691V16.6318H24.6324V15.3687Z" fill="#DFBB87" />
  <path d="M25.8941 15.3687H24.6309V16.6318H25.8941V15.3687Z" fill="#DFBB87" />
  <path d="M27.1577 15.3687H25.8945V16.6318H27.1577V15.3687Z" fill="#DFBB87" />
  <path d="M5.68314 16.6318H4.41992V17.895H5.68314V16.6318Z" fill="#B37954" />
  <path d="M6.94681 16.6313H5.68359V17.8945H6.94681V16.6313Z" fill="#B37954" />
  <path d="M8.21048 16.6313H6.94727V17.8945H8.21048V16.6313Z" fill="#B37954" />
  <path d="M9.4722 16.6318H8.20898V17.895H9.4722V16.6318Z" fill="#B37954" />
  <path d="M10.7359 16.6313H9.47266V17.8945H10.7359V16.6313Z" fill="#804648" />
  <path d="M11.9995 16.6313H10.7363V17.8945H11.9995V16.6313Z" fill="#804648" />
  <path d="M13.2632 16.6318H12V17.895H13.2632V16.6318Z" fill="#B37954" />
  <path d="M14.5249 16.6313H13.2617V17.8945H14.5249V16.6313Z" fill="#B37954" />
  <path d="M15.7886 16.6313H14.5254V17.8945H15.7886V16.6313Z" fill="#B37954" />
  <path d="M17.0523 16.6313H15.7891V17.8945H17.0523V16.6313Z" fill="#F3D6AB" />
  <path d="M18.3159 16.6313H17.0527V17.8945H18.3159V16.6313Z" fill="#DFBB87" />
  <path d="M19.5777 16.6313H18.3145V17.8945H19.5777V16.6313Z" fill="#DFBB87" />
  <path d="M20.8413 16.6313H19.5781V17.8945H20.8413V16.6313Z" fill="#DFBB87" />
  <path d="M22.105 16.6318H20.8418V17.895H22.105V16.6318Z" fill="#B37954" />
  <path d="M23.3667 16.6313H22.1035V17.8945H23.3667V16.6313Z" fill="#B37954" />
  <path d="M24.6324 16.6313H23.3691V17.8945H24.6324V16.6313Z" fill="#DFBB87" />
  <path d="M25.8941 16.6318H24.6309V17.895H25.8941V16.6318Z" fill="#DFBB87" />
  <path d="M27.1577 16.6313H25.8945V17.8945H27.1577V16.6313Z" fill="#DFBB87" />
  <path d="M5.68314 17.895H4.41992V19.1582H5.68314V17.895Z" fill="#B37954" />
  <path d="M6.94681 17.895H5.68359V19.1582H6.94681V17.895Z" fill="#B37954" />
  <path d="M8.21048 17.895H6.94727V19.1582H8.21048V17.895Z" fill="#B37954" />
  <path d="M9.4722 17.895H8.20898V19.1582H9.4722V17.895Z" fill="#B37954" />
  <path d="M10.7359 17.895H9.47266V19.1582H10.7359V17.895Z" fill="#804648" />
  <path d="M11.9995 17.895H10.7363V19.1582H11.9995V17.895Z" fill="#804648" />
  <path d="M13.2632 17.895H12V19.1582H13.2632V17.895Z" fill="#B37954" />
  <path d="M14.5249 17.895H13.2617V19.1582H14.5249V17.895Z" fill="#B37954" />
  <path d="M15.7886 17.895H14.5254V19.1582H15.7886V17.895Z" fill="#B37954" />
  <path d="M17.0523 17.895H15.7891V19.1582H17.0523V17.895Z" fill="#F3D6AB" />
  <path d="M18.3159 17.895H17.0527V19.1582H18.3159V17.895Z" fill="#DFBB87" />
  <path d="M19.5777 17.895H18.3145V19.1582H19.5777V17.895Z" fill="#DFBB87" />
  <path d="M20.8413 17.895H19.5781V19.1582H20.8413V17.895Z" fill="#DFBB87" />
  <path d="M22.105 17.895H20.8418V19.1582H22.105V17.895Z" fill="#B37954" />
  <path d="M23.3667 17.895H22.1035V19.1582H23.3667V17.895Z" fill="#B37954" />
  <path d="M24.6324 17.895H23.3691V19.1582H24.6324V17.895Z" fill="#DFBB87" />
  <path d="M25.8941 17.895H24.6309V19.1582H25.8941V17.895Z" fill="#DFBB87" />
  <path d="M27.1577 17.895H25.8945V19.1582H27.1577V17.895Z" fill="#DFBB87" />
  <path d="M5.68314 19.1577H4.41992V20.4209H5.68314V19.1577Z" fill="#B37954" />
  <path d="M6.94681 19.1577H5.68359V20.4209H6.94681V19.1577Z" fill="#B37954" />
  <path d="M8.21048 19.1577H6.94727V20.4209H8.21048V19.1577Z" fill="#B37954" />
  <path d="M9.4722 19.1577H8.20898V20.4209H9.4722V19.1577Z" fill="#B37954" />
  <path d="M10.7359 19.1577H9.47266V20.4209H10.7359V19.1577Z" fill="#804648" />
  <path d="M11.9995 19.1577H10.7363V20.4209H11.9995V19.1577Z" fill="#804648" />
  <path d="M13.2632 19.1577H12V20.4209H13.2632V19.1577Z" fill="#B37954" />
  <path d="M14.5249 19.1577H13.2617V20.4209H14.5249V19.1577Z" fill="#B37954" />
  <path d="M15.7886 19.1577H14.5254V20.4209H15.7886V19.1577Z" fill="#B37954" />
  <path d="M17.0523 19.1577H15.7891V20.4209H17.0523V19.1577Z" fill="#F3D6AB" />
  <path d="M18.3159 19.1577H17.0527V20.4209H18.3159V19.1577Z" fill="#DFBB87" />
  <path d="M19.5777 19.1577H18.3145V20.4209H19.5777V19.1577Z" fill="#DFBB87" />
  <path d="M20.8413 19.1577H19.5781V20.4209H20.8413V19.1577Z" fill="#DFBB87" />
  <path d="M22.105 19.1577H20.8418V20.4209H22.105V19.1577Z" fill="#B37954" />
  <path d="M23.3667 19.1577H22.1035V20.4209H23.3667V19.1577Z" fill="#B37954" />
  <path d="M24.6324 19.1577H23.3691V20.4209H24.6324V19.1577Z" fill="#DFBB87" />
  <path d="M25.8941 19.1577H24.6309V20.4209H25.8941V19.1577Z" fill="#DFBB87" />
  <path d="M27.1577 19.1577H25.8945V20.4209H27.1577V19.1577Z" fill="#DFBB87" />
  <path d="M5.68314 20.4209H4.41992V21.6841H5.68314V20.4209Z" fill="#B37954" />
  <path d="M6.94681 20.4209H5.68359V21.6841H6.94681V20.4209Z" fill="#B37954" />
  <path d="M8.21048 20.4209H6.94727V21.6841H8.21048V20.4209Z" fill="#B37954" />
  <path d="M9.4722 20.4209H8.20898V21.6841H9.4722V20.4209Z" fill="#B37954" />
  <path d="M10.7359 20.4209H9.47266V21.6841H10.7359V20.4209Z" fill="#804648" />
  <path d="M11.9995 20.4209H10.7363V21.6841H11.9995V20.4209Z" fill="#804648" />
  <path d="M13.2632 20.4209H12V21.6841H13.2632V20.4209Z" fill="#B37954" />
  <path d="M14.5249 20.4209H13.2617V21.6841H14.5249V20.4209Z" fill="#B37954" />
  <path d="M15.7886 20.4209H14.5254V21.6841H15.7886V20.4209Z" fill="#B37954" />
  <path d="M17.0523 20.4209H15.7891V21.6841H17.0523V20.4209Z" fill="#F3D6AB" />
  <path d="M18.3159 20.4209H17.0527V21.6841H18.3159V20.4209Z" fill="#DFBB87" />
  <path d="M19.5777 20.4209H18.3145V21.6841H19.5777V20.4209Z" fill="#DFBB87" />
  <path d="M20.8413 20.4209H19.5781V21.6841H20.8413V20.4209Z" fill="#DFBB87" />
  <path d="M22.105 20.4209H20.8418V21.6841H22.105V20.4209Z" fill="#B37954" />
  <path d="M23.3667 20.4209H22.1035V21.6841H23.3667V20.4209Z" fill="#B37954" />
  <path d="M24.6324 20.4209H23.3691V21.6841H24.6324V20.4209Z" fill="#DFBB87" />
  <path d="M25.8941 20.4209H24.6309V21.6841H25.8941V20.4209Z" fill="#DFBB87" />
  <path d="M27.1577 20.4209H25.8945V21.6841H27.1577V20.4209Z" fill="#DFBB87" />
  <path d="M5.68314 21.6841H4.41992V22.9472H5.68314V21.6841Z" fill="#804648" />
  <path d="M6.94681 21.6841H5.68359V22.9472H6.94681V21.6841Z" fill="#804648" />
  <path d="M8.21048 21.6841H6.94727V22.9472H8.21048V21.6841Z" fill="#B37954" />
  <path d="M9.4722 21.6841H8.20898V22.9472H9.4722V21.6841Z" fill="#B37954" />
  <path d="M10.7359 21.6841H9.47266V22.9472H10.7359V21.6841Z" fill="#804648" />
  <path d="M11.9995 21.6841H10.7363V22.9472H11.9995V21.6841Z" fill="#804648" />
  <path d="M13.2632 21.6841H12V22.9472H13.2632V21.6841Z" fill="#B37954" />
  <path d="M14.5249 21.6841H13.2617V22.9472H14.5249V21.6841Z" fill="#B37954" />
  <path d="M15.7886 21.6841H14.5254V22.9472H15.7886V21.6841Z" fill="#B37954" />
  <path d="M17.0523 21.6841H15.7891V22.9472H17.0523V21.6841Z" fill="#F3D6AB" />
  <path d="M18.3159 21.6841H17.0527V22.9472H18.3159V21.6841Z" fill="#DFBB87" />
  <path d="M19.5777 21.6841H18.3145V22.9472H19.5777V21.6841Z" fill="#DFBB87" />
  <path d="M20.8413 21.6841H19.5781V22.9472H20.8413V21.6841Z" fill="#DFBB87" />
  <path d="M22.105 21.6841H20.8418V22.9472H22.105V21.6841Z" fill="#B37954" />
  <path d="M23.3667 21.6841H22.1035V22.9472H23.3667V21.6841Z" fill="#B37954" />
  <path d="M24.6324 21.6841H23.3691V22.9472H24.6324V21.6841Z" fill="#DFBB87" />
  <path d="M25.8941 21.6841H24.6309V22.9472H25.8941V21.6841Z" fill="#B37954" />
  <path d="M27.1577 21.6841H25.8945V22.9472H27.1577V21.6841Z" fill="#B37954" />
  <path d="M8.21048 22.9473H6.94727V24.2104H8.21048V22.9473Z" fill="#804648" />
  <path d="M9.4722 22.9473H8.20898V24.2104H9.4722V22.9473Z" fill="#804648" />
  <path d="M10.7359 22.9473H9.47266V24.2104H10.7359V22.9473Z" fill="#804648" />
  <path d="M11.9995 22.9473H10.7363V24.2104H11.9995V22.9473Z" fill="#804648" />
  <path d="M13.2632 22.9473H12V24.2104H13.2632V22.9473Z" fill="#B37954" />
  <path d="M14.5249 22.9473H13.2617V24.2104H14.5249V22.9473Z" fill="#B37954" />
  <path d="M15.7886 22.9473H14.5254V24.2104H15.7886V22.9473Z" fill="#B37954" />
  <path d="M17.0523 22.9473H15.7891V24.2104H17.0523V22.9473Z" fill="#F3D6AB" />
  <path d="M18.3159 22.9473H17.0527V24.2104H18.3159V22.9473Z" fill="#DFBB87" />
  <path d="M19.5777 22.9473H18.3145V24.2104H19.5777V22.9473Z" fill="#DFBB87" />
  <path d="M20.8413 22.9473H19.5781V24.2104H20.8413V22.9473Z" fill="#DFBB87" />
  <path d="M22.105 22.9473H20.8418V24.2104H22.105V22.9473Z" fill="#B37954" />
  <path d="M23.3667 22.9473H22.1035V24.2104H23.3667V22.9473Z" fill="#B37954" />
  <path d="M24.6324 22.9473H23.3691V24.2104H24.6324V22.9473Z" fill="#B37954" />
  <path d="M10.7359 24.2104H9.47266V25.4736H10.7359V24.2104Z" fill="#804648" />
  <path d="M11.9995 24.2104H10.7363V25.4736H11.9995V24.2104Z" fill="#804648" />
  <path d="M13.2632 24.2104H12V25.4736H13.2632V24.2104Z" fill="#B37954" />
  <path d="M14.5249 24.2104H13.2617V25.4736H14.5249V24.2104Z" fill="#B37954" />
  <path d="M15.7886 24.2104H14.5254V25.4736H15.7886V24.2104Z" fill="#B37954" />
  <path d="M17.0523 24.2104H15.7891V25.4736H17.0523V24.2104Z" fill="#F3D6AB" />
  <path d="M18.3159 24.2104H17.0527V25.4736H18.3159V24.2104Z" fill="#DFBB87" />
  <path d="M19.5777 24.2104H18.3145V25.4736H19.5777V24.2104Z" fill="#DFBB87" />
  <path d="M20.8413 24.2104H19.5781V25.4736H20.8413V24.2104Z" fill="#B37954" />
  <path d="M22.105 24.2104H20.8418V25.4736H22.105V24.2104Z" fill="#B37954" />
  <path d="M13.2632 25.4736H12V26.7368H13.2632V25.4736Z" fill="#804648" />
  <path d="M14.5249 25.4736H13.2617V26.7368H14.5249V25.4736Z" fill="#804648" />
  <path d="M15.7886 25.4736H14.5254V26.7368H15.7886V25.4736Z" fill="#B37954" />
  <path d="M17.0523 25.4736H15.7891V26.7368H17.0523V25.4736Z" fill="#F3D6AB" />
  <path d="M18.3159 25.4736H17.0527V26.7368H18.3159V25.4736Z" fill="#B37954" />
  <path d="M19.5777 25.4736H18.3145V26.7368H19.5777V25.4736Z" fill="#B37954" />
  <path d="M15.7886 26.7368H14.5254V28H15.7886V26.7368Z" fill="#804648" />
  <path d="M17.0523 26.7368H15.7891V28H17.0523V26.7368Z" fill="#B37954" />
</svg>