<svg width="32" height="32" viewBox="0 0 32 32" fill="none" xmlns="http://www.w3.org/2000/svg">
  <g clip-path="url(#clip0_510_26667)">
    <path d="M16.9982 4H15.498V5.50015H16.9982V4Z" fill="#514B74" />
    <path d="M15.5001 5.50049H14V7.00064H15.5001V5.50049Z" fill="#514B74" />
    <path d="M16.9982 5.50049H15.498V7.00064H16.9982V5.50049Z" fill="#BBC9E2" />
    <path d="M18.5001 5.50049H17V7.00064H18.5001V5.50049Z" fill="#514B74" />
    <path d="M15.5001 7H14V8.50015H15.5001V7Z" fill="#514B74" />
    <path d="M16.9982 7H15.498V8.50015H16.9982V7Z" fill="#BBC9E2" />
    <path d="M18.5001 7H17V8.50015H18.5001V7Z" fill="#514B74" />
    <path d="M14.0001 8.5H12.5V10.0001H14.0001V8.5Z" fill="#514B74" />
    <path d="M15.5001 8.5H14V10.0001H15.5001V8.5Z" fill="#768DBA" />
    <path d="M16.9982 8.5H15.498V10.0001H16.9982V8.5Z" fill="#BBC9E2" />
    <path d="M18.5001 8.5H17V10.0001H18.5001V8.5Z" fill="#768DBA" />
    <path d="M19.9982 8.5H18.498V10.0001H19.9982V8.5Z" fill="#514B74" />
    <path d="M14.0001 10H12.5V11.5001H14.0001V10Z" fill="#514B74" />
    <path d="M15.5001 10H14V11.5001H15.5001V10Z" fill="#514B74" />
    <path d="M16.9982 10H15.498V11.5001H16.9982V10Z" fill="#514B74" />
    <path d="M18.5001 10H17V11.5001H18.5001V10Z" fill="#514B74" />
    <path d="M19.9982 10H18.498V11.5001H19.9982V10Z" fill="#514B74" />
    <path d="M14.0001 11.5H12.5V13.0001H14.0001V11.5Z" fill="#514B74" />
    <path d="M15.5001 11.5H14V13.0001H15.5001V11.5Z" fill="#768DBA" />
    <path d="M16.9982 11.5H15.498V13.0001H16.9982V11.5Z" fill="#E7E7E7" />
    <path d="M18.5001 11.5H17V13.0001H18.5001V11.5Z" fill="#768DBA" />
    <path d="M19.9982 11.5H18.498V13.0001H19.9982V11.5Z" fill="#514B74" />
    <path d="M14.0001 13H12.5V14.5001H14.0001V13Z" fill="#514B74" />
    <path d="M15.5001 13H14V14.5001H15.5001V13Z" fill="#768DBA" />
    <path d="M16.9982 13H15.498V14.5001H16.9982V13Z" fill="#E7E7E7" />
    <path d="M18.5001 13H17V14.5001H18.5001V13Z" fill="#768DBA" />
    <path d="M19.9982 13H18.498V14.5001H19.9982V13Z" fill="#514B74" />
    <path d="M12.4982 14.5H10.998V16.0001H12.4982V14.5Z" fill="#514B74" />
    <path d="M14.0001 14.5H12.5V16.0001H14.0001V14.5Z" fill="#768DBA" />
    <path d="M15.5001 14.5H14V16.0001H15.5001V14.5Z" fill="#768DBA" />
    <path d="M16.9982 14.5H15.498V16.0001H16.9982V14.5Z" fill="#E7E7E7" />
    <path d="M18.5001 14.5H17V16.0001H18.5001V14.5Z" fill="#768DBA" />
    <path d="M19.9982 14.5H18.498V16.0001H19.9982V14.5Z" fill="#768DBA" />
    <path d="M21.5001 14.5H20V16.0001H21.5001V14.5Z" fill="#514B74" />
    <path d="M11.0001 16H9.5V17.5001H11.0001V16Z" fill="#514B74" />
    <path d="M12.4982 16H10.998V17.5001H12.4982V16Z" fill="#BBC9E2" />
    <path d="M14.0001 16H12.5V17.5001H14.0001V16Z" fill="#768DBA" />
    <path d="M15.5001 16H14V17.5001H15.5001V16Z" fill="#768DBA" />
    <path d="M16.9982 16H15.498V17.5001H16.9982V16Z" fill="#BBC9E2" />
    <path d="M18.5001 16H17V17.5001H18.5001V16Z" fill="#768DBA" />
    <path d="M19.9982 16H18.498V17.5001H19.9982V16Z" fill="#768DBA" />
    <path d="M21.5001 16H20V17.5001H21.5001V16Z" fill="#BBC9E2" />
    <path d="M23.0002 16H21.5V17.5001H23.0002V16Z" fill="#514B74" />
    <path d="M8.00015 17.5H6.5V19.0001H8.00015V17.5Z" fill="#514B74" />
    <path d="M9.50015 17.5H8V19.0001H9.50015V17.5Z" fill="#514B74" />
    <path d="M11.0001 17.5H9.5V19.0001H11.0001V17.5Z" fill="#BBC9E2" />
    <path d="M12.4982 17.5H10.998V19.0001H12.4982V17.5Z" fill="#BBC9E2" />
    <path d="M14.0001 17.5H12.5V19.0001H14.0001V17.5Z" fill="#768DBA" />
    <path d="M15.5001 17.5H14V19.0001H15.5001V17.5Z" fill="#768DBA" />
    <path d="M16.9982 17.5H15.498V19.0001H16.9982V17.5Z" fill="#E7E7E7" />
    <path d="M18.5001 17.5H17V19.0001H18.5001V17.5Z" fill="#768DBA" />
    <path d="M19.9982 17.5H18.498V19.0001H19.9982V17.5Z" fill="#768DBA" />
    <path d="M21.5001 17.5H20V19.0001H21.5001V17.5Z" fill="#BBC9E2" />
    <path d="M23.0002 17.5H21.5V19.0001H23.0002V17.5Z" fill="#BBC9E2" />
    <path d="M24.4982 17.5H22.998V19.0001H24.4982V17.5Z" fill="#514B74" />
    <path d="M26.0001 17.5H24.5V19.0001H26.0001V17.5Z" fill="#514B74" />
    <path d="M6.50015 19H5V20.5001H6.50015V19Z" fill="#514B74" />
    <path d="M8.00015 19H6.5V20.5001H8.00015V19Z" fill="#67A1D2" />
    <path d="M9.50015 19H8V20.5001H9.50015V19Z" fill="#67A1D2" />
    <path d="M11.0001 19H9.5V20.5001H11.0001V19Z" fill="#ACDAE1" />
    <path d="M12.4982 19H10.998V20.5001H12.4982V19Z" fill="#67A1D2" />
    <path d="M14.0001 19H12.5V20.5001H14.0001V19Z" fill="#768DBA" />
    <path d="M15.5001 19H14V20.5001H15.5001V19Z" fill="#768DBA" />
    <path d="M16.9982 19H15.498V20.5001H16.9982V19Z" fill="#BBC9E2" />
    <path d="M18.5001 19H17V20.5001H18.5001V19Z" fill="#768DBA" />
    <path d="M19.9982 19H18.498V20.5001H19.9982V19Z" fill="#768DBA" />
    <path d="M21.5001 19H20V20.5001H21.5001V19Z" fill="#67A1D2" />
    <path d="M23.0002 19H21.5V20.5001H23.0002V19Z" fill="#ACDAE1" />
    <path d="M24.4982 19H22.998V20.5001H24.4982V19Z" fill="#67A1D2" />
    <path d="M26.0001 19H24.5V20.5001H26.0001V19Z" fill="#67A1D2" />
    <path d="M27.4982 19H25.998V20.5001H27.4982V19Z" fill="#514B74" />
    <path d="M6.50015 20.5H5V22.0001H6.50015V20.5Z" fill="#514B74" />
    <path d="M8.00015 20.5H6.5V22.0001H8.00015V20.5Z" fill="#514B74" />
    <path d="M9.50015 20.5H8V22.0001H9.50015V20.5Z" fill="#514B74" />
    <path d="M11.0001 20.5H9.5V22.0001H11.0001V20.5Z" fill="#514B74" />
    <path d="M12.4982 20.5H10.998V22.0001H12.4982V20.5Z" fill="#514B74" />
    <path d="M14.0001 20.5H12.5V22.0001H14.0001V20.5Z" fill="#768DBA" />
    <path d="M15.5001 20.5H14V22.0001H15.5001V20.5Z" fill="#768DBA" />
    <path d="M16.9982 20.5H15.498V22.0001H16.9982V20.5Z" fill="#BBC9E2" />
    <path d="M18.5001 20.5H17V22.0001H18.5001V20.5Z" fill="#768DBA" />
    <path d="M19.9982 20.5H18.498V22.0001H19.9982V20.5Z" fill="#768DBA" />
    <path d="M21.5001 20.5H20V22.0001H21.5001V20.5Z" fill="#514B74" />
    <path d="M23.0002 20.5H21.5V22.0001H23.0002V20.5Z" fill="#514B74" />
    <path d="M24.4982 20.5H22.998V22.0001H24.4982V20.5Z" fill="#514B74" />
    <path d="M26.0001 20.5H24.5V22.0001H26.0001V20.5Z" fill="#514B74" />
    <path d="M27.4982 20.5H25.998V22.0001H27.4982V20.5Z" fill="#514B74" />
    <path d="M14.0001 22H12.5V23.5001H14.0001V22Z" fill="#514B74" />
    <path d="M15.5001 22H14V23.5001H15.5001V22Z" fill="#768DBA" />
    <path d="M16.9982 22H15.498V23.5001H16.9982V22Z" fill="#BBC9E2" />
    <path d="M18.5001 22H17V23.5001H18.5001V22Z" fill="#768DBA" />
    <path d="M19.9982 22H18.498V23.5001H19.9982V22Z" fill="#514B74" />
    <path d="M14.0001 23.5H12.5V25.0001H14.0001V23.5Z" fill="#514B74" />
    <path d="M15.5001 23.5H14V25.0001H15.5001V23.5Z" fill="#768DBA" />
    <path d="M16.9982 23.5H15.498V25.0001H16.9982V23.5Z" fill="#BBC9E2" />
    <path d="M18.5001 23.5H17V25.0001H18.5001V23.5Z" fill="#768DBA" />
    <path d="M19.9982 23.5H18.498V25.0001H19.9982V23.5Z" fill="#514B74" />
    <path d="M12.4982 25H10.998V26.5001H12.4982V25Z" fill="#514B74" />
    <path d="M14.0001 25H12.5V26.5001H14.0001V25Z" fill="#67A1D2" />
    <path d="M15.5001 25H14V26.5001H15.5001V25Z" fill="#67A1D2" />
    <path d="M16.9982 25H15.498V26.5001H16.9982V25Z" fill="#ACDAE1" />
    <path d="M18.5001 25H17V26.5001H18.5001V25Z" fill="#67A1D2" />
    <path d="M19.9982 25H18.498V26.5001H19.9982V25Z" fill="#67A1D2" />
    <path d="M21.5001 25H20V26.5001H21.5001V25Z" fill="#514B74" />
    <path d="M12.4982 26.5H10.998V28.0001H12.4982V26.5Z" fill="#514B74" />
    <path d="M14.0001 26.5H12.5V28.0001H14.0001V26.5Z" fill="#514B74" />
    <path d="M15.5001 26.5H14V28.0001H15.5001V26.5Z" fill="#514B74" />
    <path d="M16.9982 26.5H15.498V28.0001H16.9982V26.5Z" fill="#514B74" />
    <path d="M18.5001 26.5H17V28.0001H18.5001V26.5Z" fill="#514B74" />
    <path d="M19.9982 26.5H18.498V28.0001H19.9982V26.5Z" fill="#514B74" />
    <path d="M21.5001 26.5H20V28.0001H21.5001V26.5Z" fill="#514B74" />
  </g>
  <defs>
    <clipPath id="clip0_510_26667">
      <rect width="22.4999" height="24" fill="white" transform="translate(5 4)" />
    </clipPath>
  </defs>
</svg>