<svg width="34" height="32" viewBox="0 0 34 32" fill="none" xmlns="http://www.w3.org/2000/svg">
  <path d="M16.7905 4H15.5273V5.26316H16.7905V4Z" fill="#562F3B" />
  <path d="M18.0522 4H16.7891V5.26316H18.0522V4Z" fill="#B37954" />
  <path d="M14.2631 5.26318H13V6.52634H14.2631V5.26318Z" fill="#562F3B" />
  <path d="M15.5268 5.26318H14.2637V6.52634H15.5268V5.26318Z" fill="#562F3B" />
  <path d="M16.7905 5.26318H15.5273V6.52634H16.7905V5.26318Z" fill="#562F3B" />
  <path d="M18.0522 5.26318H16.7891V6.52634H18.0522V5.26318Z" fill="#B37954" />
  <path d="M19.3159 5.26318H18.0527V6.52634H19.3159V5.26318Z" fill="#B37954" />
  <path d="M20.5796 5.26318H19.3164V6.52634H20.5796V5.26318Z" fill="#B37954" />
  <path d="M11.7378 6.52637H10.4746V7.78953H11.7378V6.52637Z" fill="#562F3B" />
  <path d="M13.0014 6.52637H11.7383V7.78953H13.0014V6.52637Z" fill="#562F3B" />
  <path d="M14.2631 6.52637H13V7.78953H14.2631V6.52637Z" fill="#562F3B" />
  <path d="M15.5268 6.52637H14.2637V7.78953H15.5268V6.52637Z" fill="#562F3B" />
  <path d="M16.7905 6.52637H15.5273V7.78953H16.7905V6.52637Z" fill="#562F3B" />
  <path d="M18.0522 6.52637H16.7891V7.78953H18.0522V6.52637Z" fill="#B37954" />
  <path d="M19.3159 6.52637H18.0527V7.78953H19.3159V6.52637Z" fill="#B37954" />
  <path d="M20.5796 6.52637H19.3164V7.78953H20.5796V6.52637Z" fill="#B37954" />
  <path d="M21.8432 6.52637H20.5801V7.78953H21.8432V6.52637Z" fill="#B37954" />
  <path d="M23.1049 6.52637H21.8418V7.78953H23.1049V6.52637Z" fill="#B37954" />
  <path d="M9.21041 7.78955H7.94727V9.05271H9.21041V7.78955Z" fill="#562F3B" />
  <path d="M10.4741 7.78955H9.21094V9.05271H10.4741V7.78955Z" fill="#562F3B" />
  <path d="M11.7378 7.78955H10.4746V9.05271H11.7378V7.78955Z" fill="#562F3B" />
  <path d="M13.0014 7.78955H11.7383V9.05271H13.0014V7.78955Z" fill="#562F3B" />
  <path d="M14.2631 7.78955H13V9.05271H14.2631V7.78955Z" fill="#562F3B" />
  <path d="M15.5268 7.78955H14.2637V9.05271H15.5268V7.78955Z" fill="#562F3B" />
  <path d="M16.7905 7.78955H15.5273V9.05271H16.7905V7.78955Z" fill="#562F3B" />
  <path d="M18.0522 7.78955H16.7891V9.05271H18.0522V7.78955Z" fill="#B37954" />
  <path d="M19.3159 7.78955H18.0527V9.05271H19.3159V7.78955Z" fill="#B37954" />
  <path d="M20.5796 7.78955H19.3164V9.05271H20.5796V7.78955Z" fill="#B37954" />
  <path d="M21.8432 7.78955H20.5801V9.05271H21.8432V7.78955Z" fill="#B37954" />
  <path d="M23.1049 7.78955H21.8418V9.05271H23.1049V7.78955Z" fill="#B37954" />
  <path d="M24.3686 7.78955H23.1055V9.05271H24.3686V7.78955Z" fill="#B37954" />
  <path d="M25.6323 7.78955H24.3691V9.05271H25.6323V7.78955Z" fill="#B37954" />
  <path d="M6.68502 9.05273H5.42188V10.3159H6.68502V9.05273Z" fill="#562F3B" />
  <path d="M7.94869 9.05273H6.68555V10.3159H7.94869V9.05273Z" fill="#562F3B" />
  <path d="M9.21041 9.05273H7.94727V10.3159H9.21041V9.05273Z" fill="#562F3B" />
  <path d="M10.4741 9.05273H9.21094V10.3159H10.4741V9.05273Z" fill="#562F3B" />
  <path d="M11.7378 9.05273H10.4746V10.3159H11.7378V9.05273Z" fill="#562F3B" />
  <path d="M13.0014 9.05273H11.7383V10.3159H13.0014V9.05273Z" fill="#562F3B" />
  <path d="M14.2631 9.05273H13V10.3159H14.2631V9.05273Z" fill="#562F3B" />
  <path d="M15.5268 9.05273H14.2637V10.3159H15.5268V9.05273Z" fill="#562F3B" />
  <path d="M16.7905 9.05273H15.5273V10.3159H16.7905V9.05273Z" fill="#562F3B" />
  <path d="M18.0522 9.05273H16.7891V10.3159H18.0522V9.05273Z" fill="#B37954" />
  <path d="M19.3159 9.05273H18.0527V10.3159H19.3159V9.05273Z" fill="#B37954" />
  <path d="M20.5796 9.05273H19.3164V10.3159H20.5796V9.05273Z" fill="#B37954" />
  <path d="M21.8432 9.05273H20.5801V10.3159H21.8432V9.05273Z" fill="#B37954" />
  <path d="M23.1049 9.05273H21.8418V10.3159H23.1049V9.05273Z" fill="#B37954" />
  <path d="M24.3686 9.05273H23.1055V10.3159H24.3686V9.05273Z" fill="#B37954" />
  <path d="M25.6323 9.05273H24.3691V10.3159H25.6323V9.05273Z" fill="#B37954" />
  <path d="M26.894 9.05273H25.6309V10.3159H26.894V9.05273Z" fill="#B37954" />
  <path d="M28.1596 9.05273H26.8965V10.3159H28.1596V9.05273Z" fill="#B37954" />
  <path d="M5.42135 10.3159H4.1582V11.5791H5.42135V10.3159Z" fill="#DFBB87" />
  <path d="M6.68502 10.3159H5.42188V11.5791H6.68502V10.3159Z" fill="#F3D6AB" />
  <path d="M7.94869 10.3159H6.68555V11.5791H7.94869V10.3159Z" fill="#F3D6AB" />
  <path d="M9.21041 10.3159H7.94727V11.5791H9.21041V10.3159Z" fill="#562F3B" />
  <path d="M10.4741 10.3159H9.21094V11.5791H10.4741V10.3159Z" fill="#562F3B" />
  <path d="M11.7378 10.3159H10.4746V11.5791H11.7378V10.3159Z" fill="#562F3B" />
  <path d="M13.0014 10.3159H11.7383V11.5791H13.0014V10.3159Z" fill="#562F3B" />
  <path d="M14.2631 10.3159H13V11.5791H14.2631V10.3159Z" fill="#562F3B" />
  <path d="M15.5268 10.3159H14.2637V11.5791H15.5268V10.3159Z" fill="#562F3B" />
  <path d="M16.7905 10.3159H15.5273V11.5791H16.7905V10.3159Z" fill="#562F3B" />
  <path d="M18.0522 10.3159H16.7891V11.5791H18.0522V10.3159Z" fill="#B37954" />
  <path d="M19.3159 10.3159H18.0527V11.5791H19.3159V10.3159Z" fill="#B37954" />
  <path d="M20.5796 10.3159H19.3164V11.5791H20.5796V10.3159Z" fill="#B37954" />
  <path d="M21.8432 10.3159H20.5801V11.5791H21.8432V10.3159Z" fill="#B37954" />
  <path d="M23.1049 10.3159H21.8418V11.5791H23.1049V10.3159Z" fill="#B37954" />
  <path d="M24.3686 10.3159H23.1055V11.5791H24.3686V10.3159Z" fill="#B37954" />
  <path d="M25.6323 10.3159H24.3691V11.5791H25.6323V10.3159Z" fill="#B37954" />
  <path d="M26.894 10.3159H25.6309V11.5791H26.894V10.3159Z" fill="#F3D6AB" />
  <path d="M28.1596 10.3159H26.8965V11.5791H28.1596V10.3159Z" fill="#F3D6AB" />
  <path d="M29.4213 10.3159H28.1582V11.5791H29.4213V10.3159Z" fill="#F3D6AB" />
  <path d="M4.15963 11.5791H2.89648V12.8423H4.15963V11.5791Z" fill="#DFBB87" />
  <path d="M5.42135 11.5791H4.1582V12.8423H5.42135V11.5791Z" fill="#DFBB87" />
  <path d="M6.68502 11.5791H5.42188V12.8423H6.68502V11.5791Z" fill="#DFBB87" />
  <path d="M7.94869 11.5791H6.68555V12.8423H7.94869V11.5791Z" fill="#DFBB87" />
  <path d="M9.21041 11.5791H7.94727V12.8423H9.21041V11.5791Z" fill="#F3D6AB" />
  <path d="M10.4741 11.5791H9.21094V12.8423H10.4741V11.5791Z" fill="#F3D6AB" />
  <path d="M11.7378 11.5791H10.4746V12.8423H11.7378V11.5791Z" fill="#562F3B" />
  <path d="M13.0014 11.5791H11.7383V12.8423H13.0014V11.5791Z" fill="#562F3B" />
  <path d="M14.2631 11.5791H13V12.8423H14.2631V11.5791Z" fill="#562F3B" />
  <path d="M15.5268 11.5791H14.2637V12.8423H15.5268V11.5791Z" fill="#562F3B" />
  <path d="M16.7905 11.5791H15.5273V12.8423H16.7905V11.5791Z" fill="#562F3B" />
  <path d="M18.0522 11.5791H16.7891V12.8423H18.0522V11.5791Z" fill="#B37954" />
  <path d="M19.3159 11.5791H18.0527V12.8423H19.3159V11.5791Z" fill="#B37954" />
  <path d="M20.5796 11.5791H19.3164V12.8423H20.5796V11.5791Z" fill="#B37954" />
  <path d="M21.8432 11.5791H20.5801V12.8423H21.8432V11.5791Z" fill="#B37954" />
  <path d="M23.1049 11.5791H21.8418V12.8423H23.1049V11.5791Z" fill="#B37954" />
  <path d="M24.3686 11.5791H23.1055V12.8423H24.3686V11.5791Z" fill="#F3D6AB" />
  <path d="M25.6323 11.5791H24.3691V12.8423H25.6323V11.5791Z" fill="#F3D6AB" />
  <path d="M26.894 11.5791H25.6309V12.8423H26.894V11.5791Z" fill="#F3D6AB" />
  <path d="M28.1596 11.5791H26.8965V12.8423H28.1596V11.5791Z" fill="#F3D6AB" />
  <path d="M29.4213 11.5791H28.1582V12.8423H29.4213V11.5791Z" fill="#F3D6AB" />
  <path d="M30.685 11.5791H29.4219V12.8423H30.685V11.5791Z" fill="#F3D6AB" />
  <path d="M2.89401 12.8423H1.63086V14.1054H2.89401V12.8423Z" fill="#DFBB87" />
  <path d="M4.15963 12.8423H2.89648V14.1054H4.15963V12.8423Z" fill="#DFBB87" />
  <path d="M5.42135 12.8423H4.1582V14.1054H5.42135V12.8423Z" fill="#DFBB87" />
  <path d="M6.68502 12.8423H5.42188V14.1054H6.68502V12.8423Z" fill="#DFBB87" />
  <path d="M7.94869 12.8423H6.68555V14.1054H7.94869V12.8423Z" fill="#DFBB87" />
  <path d="M9.21041 12.8423H7.94727V14.1054H9.21041V12.8423Z" fill="#DFBB87" />
  <path d="M10.4741 12.8423H9.21094V14.1054H10.4741V12.8423Z" fill="#DFBB87" />
  <path d="M11.7378 12.8423H10.4746V14.1054H11.7378V12.8423Z" fill="#F3D6AB" />
  <path d="M13.0014 12.8423H11.7383V14.1054H13.0014V12.8423Z" fill="#F3D6AB" />
  <path d="M14.2631 12.8423H13V14.1054H14.2631V12.8423Z" fill="#562F3B" />
  <path d="M15.5268 12.8423H14.2637V14.1054H15.5268V12.8423Z" fill="#562F3B" />
  <path d="M16.7905 12.8423H15.5273V14.1054H16.7905V12.8423Z" fill="#562F3B" />
  <path d="M18.0522 12.8423H16.7891V14.1054H18.0522V12.8423Z" fill="#B37954" />
  <path d="M19.3159 12.8423H18.0527V14.1054H19.3159V12.8423Z" fill="#B37954" />
  <path d="M20.5796 12.8423H19.3164V14.1054H20.5796V12.8423Z" fill="#B37954" />
  <path d="M21.8432 12.8423H20.5801V14.1054H21.8432V12.8423Z" fill="#F3D6AB" />
  <path d="M23.1049 12.8423H21.8418V14.1054H23.1049V12.8423Z" fill="#F3D6AB" />
  <path d="M24.3686 12.8423H23.1055V14.1054H24.3686V12.8423Z" fill="#F3D6AB" />
  <path d="M25.6323 12.8423H24.3691V14.1054H25.6323V12.8423Z" fill="#F3D6AB" />
  <path d="M26.894 12.8423H25.6309V14.1054H26.894V12.8423Z" fill="#F3D6AB" />
  <path d="M28.1596 12.8423H26.8965V14.1054H28.1596V12.8423Z" fill="#F3D6AB" />
  <path d="M29.4213 12.8423H28.1582V14.1054H29.4213V12.8423Z" fill="#F3D6AB" />
  <path d="M30.685 12.8423H29.4219V14.1054H30.685V12.8423Z" fill="#F3D6AB" />
  <path d="M31.9487 12.8423H30.6855V14.1054H31.9487V12.8423Z" fill="#F3D6AB" />
  <path d="M1.63229 14.1055H0.369141V15.3686H1.63229V14.1055Z" fill="#DFBB87" />
  <path d="M2.89401 14.1055H1.63086V15.3686H2.89401V14.1055Z" fill="#DFBB87" />
  <path d="M4.15963 14.1055H2.89648V15.3686H4.15963V14.1055Z" fill="#DFBB87" />
  <path d="M5.42135 14.1055H4.1582V15.3686H5.42135V14.1055Z" fill="#DFBB87" />
  <path d="M6.68502 14.1055H5.42188V15.3686H6.68502V14.1055Z" fill="#DFBB87" />
  <path d="M7.94869 14.1055H6.68555V15.3686H7.94869V14.1055Z" fill="#DFBB87" />
  <path d="M9.21041 14.1055H7.94727V15.3686H9.21041V14.1055Z" fill="#DFBB87" />
  <path d="M10.4741 14.1055H9.21094V15.3686H10.4741V14.1055Z" fill="#DFBB87" />
  <path d="M11.7378 14.1055H10.4746V15.3686H11.7378V14.1055Z" fill="#DFBB87" />
  <path d="M13.0014 14.1055H11.7383V15.3686H13.0014V14.1055Z" fill="#DFBB87" />
  <path d="M14.2631 14.1055H13V15.3686H14.2631V14.1055Z" fill="#F3D6AB" />
  <path d="M15.5268 14.1055H14.2637V15.3686H15.5268V14.1055Z" fill="#F3D6AB" />
  <path d="M16.7905 14.1055H15.5273V15.3686H16.7905V14.1055Z" fill="#562F3B" />
  <path d="M18.0522 14.1055H16.7891V15.3686H18.0522V14.1055Z" fill="#B37954" />
  <path d="M19.3159 14.1055H18.0527V15.3686H19.3159V14.1055Z" fill="#F3D6AB" />
  <path d="M20.5796 14.1055H19.3164V15.3686H20.5796V14.1055Z" fill="#F3D6AB" />
  <path d="M21.8432 14.1055H20.5801V15.3686H21.8432V14.1055Z" fill="#F3D6AB" />
  <path d="M23.1049 14.1055H21.8418V15.3686H23.1049V14.1055Z" fill="#F3D6AB" />
  <path d="M24.3686 14.1055H23.1055V15.3686H24.3686V14.1055Z" fill="#F3D6AB" />
  <path d="M25.6323 14.1055H24.3691V15.3686H25.6323V14.1055Z" fill="#F3D6AB" />
  <path d="M26.894 14.1055H25.6309V15.3686H26.894V14.1055Z" fill="#F3D6AB" />
  <path d="M28.1596 14.1055H26.8965V15.3686H28.1596V14.1055Z" fill="#F3D6AB" />
  <path d="M29.4213 14.1055H28.1582V15.3686H29.4213V14.1055Z" fill="#F3D6AB" />
  <path d="M30.685 14.1055H29.4219V15.3686H30.685V14.1055Z" fill="#F3D6AB" />
  <path d="M31.9487 14.1055H30.6855V15.3686H31.9487V14.1055Z" fill="#F3D6AB" />
  <path d="M33.2104 14.1055H31.9473V15.3686H33.2104V14.1055Z" fill="#F3D6AB" />
  <path d="M4.15963 15.3687H2.89648V16.6318H4.15963V15.3687Z" fill="#DFBB87" />
  <path d="M5.42135 15.3687H4.1582V16.6318H5.42135V15.3687Z" fill="#DFBB87" />
  <path d="M6.68502 15.3687H5.42188V16.6318H6.68502V15.3687Z" fill="#DFBB87" />
  <path d="M7.94869 15.3687H6.68555V16.6318H7.94869V15.3687Z" fill="#DFBB87" />
  <path d="M9.21041 15.3687H7.94727V16.6318H9.21041V15.3687Z" fill="#DFBB87" />
  <path d="M10.4741 15.3687H9.21094V16.6318H10.4741V15.3687Z" fill="#DFBB87" />
  <path d="M11.7378 15.3687H10.4746V16.6318H11.7378V15.3687Z" fill="#DFBB87" />
  <path d="M13.0014 15.3687H11.7383V16.6318H13.0014V15.3687Z" fill="#DFBB87" />
  <path d="M14.2631 15.3687H13V16.6318H14.2631V15.3687Z" fill="#DFBB87" />
  <path d="M15.5268 15.3687H14.2637V16.6318H15.5268V15.3687Z" fill="#DFBB87" />
  <path d="M16.7905 15.3687H15.5273V16.6318H16.7905V15.3687Z" fill="#B37954" />
  <path d="M18.0522 15.3687H16.7891V16.6318H18.0522V15.3687Z" fill="#F3D6AB" />
  <path d="M19.3159 15.3687H18.0527V16.6318H19.3159V15.3687Z" fill="#F3D6AB" />
  <path d="M20.5796 15.3687H19.3164V16.6318H20.5796V15.3687Z" fill="#F3D6AB" />
  <path d="M21.8432 15.3687H20.5801V16.6318H21.8432V15.3687Z" fill="#F3D6AB" />
  <path d="M23.1049 15.3687H21.8418V16.6318H23.1049V15.3687Z" fill="#F3D6AB" />
  <path d="M24.3686 15.3687H23.1055V16.6318H24.3686V15.3687Z" fill="#F3D6AB" />
  <path d="M25.6323 15.3687H24.3691V16.6318H25.6323V15.3687Z" fill="#F3D6AB" />
  <path d="M26.894 15.3687H25.6309V16.6318H26.894V15.3687Z" fill="#F3D6AB" />
  <path d="M28.1596 15.3687H26.8965V16.6318H28.1596V15.3687Z" fill="#F3D6AB" />
  <path d="M29.4213 15.3687H28.1582V16.6318H29.4213V15.3687Z" fill="#F3D6AB" />
  <path d="M30.685 15.3687H29.4219V16.6318H30.685V15.3687Z" fill="#F3D6AB" />
  <path d="M6.68502 16.6313H5.42188V17.8945H6.68502V16.6313Z" fill="#DFBB87" />
  <path d="M7.94869 16.6313H6.68555V17.8945H7.94869V16.6313Z" fill="#DFBB87" />
  <path d="M9.21041 16.6313H7.94727V17.8945H9.21041V16.6313Z" fill="#DFBB87" />
  <path d="M10.4741 16.6313H9.21094V17.8945H10.4741V16.6313Z" fill="#DFBB87" />
  <path d="M11.7378 16.6313H10.4746V17.8945H11.7378V16.6313Z" fill="#DFBB87" />
  <path d="M13.0014 16.6313H11.7383V17.8945H13.0014V16.6313Z" fill="#DFBB87" />
  <path d="M14.2631 16.6313H13V17.8945H14.2631V16.6313Z" fill="#DFBB87" />
  <path d="M15.5268 16.6313H14.2637V17.8945H15.5268V16.6313Z" fill="#B37954" />
  <path d="M16.7905 16.6313H15.5273V17.8945H16.7905V16.6313Z" fill="#B37954" />
  <path d="M18.0522 16.6313H16.7891V17.8945H18.0522V16.6313Z" fill="#F3D6AB" />
  <path d="M19.3159 16.6313H18.0527V17.8945H19.3159V16.6313Z" fill="#DFBB87" />
  <path d="M20.5796 16.6313H19.3164V17.8945H20.5796V16.6313Z" fill="#F3D6AB" />
  <path d="M21.8432 16.6313H20.5801V17.8945H21.8432V16.6313Z" fill="#F3D6AB" />
  <path d="M23.1049 16.6313H21.8418V17.8945H23.1049V16.6313Z" fill="#F3D6AB" />
  <path d="M24.3686 16.6313H23.1055V17.8945H24.3686V16.6313Z" fill="#F3D6AB" />
  <path d="M25.6323 16.6313H24.3691V17.8945H25.6323V16.6313Z" fill="#F3D6AB" />
  <path d="M26.894 16.6313H25.6309V17.8945H26.894V16.6313Z" fill="#F3D6AB" />
  <path d="M28.1596 16.6313H26.8965V17.8945H28.1596V16.6313Z" fill="#F3D6AB" />
  <path d="M6.68502 17.8945H5.42188V19.1577H6.68502V17.8945Z" fill="#B37954" />
  <path d="M7.94869 17.8945H6.68555V19.1577H7.94869V17.8945Z" fill="#B37954" />
  <path d="M9.21041 17.8945H7.94727V19.1577H9.21041V17.8945Z" fill="#DFBB87" />
  <path d="M10.4741 17.8945H9.21094V19.1577H10.4741V17.8945Z" fill="#DFBB87" />
  <path d="M11.7378 17.8945H10.4746V19.1577H11.7378V17.8945Z" fill="#DFBB87" />
  <path d="M13.0014 17.8945H11.7383V19.1577H13.0014V17.8945Z" fill="#DFBB87" />
  <path d="M14.2631 17.8945H13V19.1577H14.2631V17.8945Z" fill="#B37954" />
  <path d="M15.5268 17.8945H14.2637V19.1577H15.5268V17.8945Z" fill="#B37954" />
  <path d="M16.7905 17.8945H15.5273V19.1577H16.7905V17.8945Z" fill="#B37954" />
  <path d="M18.0522 17.8945H16.7891V19.1577H18.0522V17.8945Z" fill="#F3D6AB" />
  <path d="M19.3159 17.8945H18.0527V19.1577H19.3159V17.8945Z" fill="#DFBB87" />
  <path d="M20.5796 17.8945H19.3164V19.1577H20.5796V17.8945Z" fill="#DFBB87" />
  <path d="M21.8432 17.8945H20.5801V19.1577H21.8432V17.8945Z" fill="#F3D6AB" />
  <path d="M23.1049 17.8945H21.8418V19.1577H23.1049V17.8945Z" fill="#F3D6AB" />
  <path d="M24.3686 17.8945H23.1055V19.1577H24.3686V17.8945Z" fill="#F3D6AB" />
  <path d="M25.6323 17.8945H24.3691V19.1577H25.6323V17.8945Z" fill="#F3D6AB" />
  <path d="M26.894 17.8945H25.6309V19.1577H26.894V17.8945Z" fill="#DFBB87" />
  <path d="M28.1596 17.8945H26.8965V19.1577H28.1596V17.8945Z" fill="#DFBB87" />
  <path d="M6.68502 19.1577H5.42188V20.4209H6.68502V19.1577Z" fill="#B37954" />
  <path d="M7.94869 19.1577H6.68555V20.4209H7.94869V19.1577Z" fill="#B37954" />
  <path d="M9.21041 19.1577H7.94727V20.4209H9.21041V19.1577Z" fill="#B37954" />
  <path d="M10.4741 19.1577H9.21094V20.4209H10.4741V19.1577Z" fill="#B37954" />
  <path d="M11.7378 19.1577H10.4746V20.4209H11.7378V19.1577Z" fill="#DFBB87" />
  <path d="M13.0014 19.1577H11.7383V20.4209H13.0014V19.1577Z" fill="#B37954" />
  <path d="M14.2631 19.1577H13V20.4209H14.2631V19.1577Z" fill="#B37954" />
  <path d="M15.5268 19.1577H14.2637V20.4209H15.5268V19.1577Z" fill="#B37954" />
  <path d="M16.7905 19.1577H15.5273V20.4209H16.7905V19.1577Z" fill="#B37954" />
  <path d="M18.0522 19.1577H16.7891V20.4209H18.0522V19.1577Z" fill="#F3D6AB" />
  <path d="M19.3159 19.1577H18.0527V20.4209H19.3159V19.1577Z" fill="#DFBB87" />
  <path d="M20.5796 19.1577H19.3164V20.4209H20.5796V19.1577Z" fill="#DFBB87" />
  <path d="M21.8432 19.1577H20.5801V20.4209H21.8432V19.1577Z" fill="#DFBB87" />
  <path d="M23.1049 19.1577H21.8418V20.4209H23.1049V19.1577Z" fill="#F3D6AB" />
  <path d="M24.3686 19.1577H23.1055V20.4209H24.3686V19.1577Z" fill="#DFBB87" />
  <path d="M25.6323 19.1577H24.3691V20.4209H25.6323V19.1577Z" fill="#DFBB87" />
  <path d="M26.894 19.1577H25.6309V20.4209H26.894V19.1577Z" fill="#DFBB87" />
  <path d="M28.1596 19.1577H26.8965V20.4209H28.1596V19.1577Z" fill="#DFBB87" />
  <path d="M6.68502 20.4209H5.42188V21.6841H6.68502V20.4209Z" fill="#B37954" />
  <path d="M7.94869 20.4209H6.68555V21.6841H7.94869V20.4209Z" fill="#B37954" />
  <path d="M9.21041 20.4209H7.94727V21.6841H9.21041V20.4209Z" fill="#B37954" />
  <path d="M10.4741 20.4209H9.21094V21.6841H10.4741V20.4209Z" fill="#B37954" />
  <path d="M11.7378 20.4209H10.4746V21.6841H11.7378V20.4209Z" fill="#B37954" />
  <path d="M13.0014 20.4209H11.7383V21.6841H13.0014V20.4209Z" fill="#B37954" />
  <path d="M14.2631 20.4209H13V21.6841H14.2631V20.4209Z" fill="#B37954" />
  <path d="M15.5268 20.4209H14.2637V21.6841H15.5268V20.4209Z" fill="#B37954" />
  <path d="M16.7905 20.4209H15.5273V21.6841H16.7905V20.4209Z" fill="#B37954" />
  <path d="M18.0522 20.4209H16.7891V21.6841H18.0522V20.4209Z" fill="#F3D6AB" />
  <path d="M19.3159 20.4209H18.0527V21.6841H19.3159V20.4209Z" fill="#DFBB87" />
  <path d="M20.5796 20.4209H19.3164V21.6841H20.5796V20.4209Z" fill="#DFBB87" />
  <path d="M21.8432 20.4209H20.5801V21.6841H21.8432V20.4209Z" fill="#DFBB87" />
  <path d="M23.1049 20.4209H21.8418V21.6841H23.1049V20.4209Z" fill="#DFBB87" />
  <path d="M24.3686 20.4209H23.1055V21.6841H24.3686V20.4209Z" fill="#DFBB87" />
  <path d="M25.6323 20.4209H24.3691V21.6841H25.6323V20.4209Z" fill="#DFBB87" />
  <path d="M26.894 20.4209H25.6309V21.6841H26.894V20.4209Z" fill="#DFBB87" />
  <path d="M28.1596 20.4209H26.8965V21.6841H28.1596V20.4209Z" fill="#DFBB87" />
  <path d="M6.68502 21.6841H5.42188V22.9472H6.68502V21.6841Z" fill="#804648" />
  <path d="M7.94869 21.6841H6.68555V22.9472H7.94869V21.6841Z" fill="#804648" />
  <path d="M9.21041 21.6841H7.94727V22.9472H9.21041V21.6841Z" fill="#B37954" />
  <path d="M10.4741 21.6841H9.21094V22.9472H10.4741V21.6841Z" fill="#B37954" />
  <path d="M11.7378 21.6841H10.4746V22.9472H11.7378V21.6841Z" fill="#B37954" />
  <path d="M13.0014 21.6841H11.7383V22.9472H13.0014V21.6841Z" fill="#B37954" />
  <path d="M14.2631 21.6841H13V22.9472H14.2631V21.6841Z" fill="#B37954" />
  <path d="M15.5268 21.6841H14.2637V22.9472H15.5268V21.6841Z" fill="#B37954" />
  <path d="M16.7905 21.6841H15.5273V22.9472H16.7905V21.6841Z" fill="#B37954" />
  <path d="M18.0522 21.6841H16.7891V22.9472H18.0522V21.6841Z" fill="#F3D6AB" />
  <path d="M19.3159 21.6841H18.0527V22.9472H19.3159V21.6841Z" fill="#DFBB87" />
  <path d="M20.5796 21.6841H19.3164V22.9472H20.5796V21.6841Z" fill="#DFBB87" />
  <path d="M21.8432 21.6841H20.5801V22.9472H21.8432V21.6841Z" fill="#DFBB87" />
  <path d="M23.1049 21.6841H21.8418V22.9472H23.1049V21.6841Z" fill="#DFBB87" />
  <path d="M24.3686 21.6841H23.1055V22.9472H24.3686V21.6841Z" fill="#DFBB87" />
  <path d="M25.6323 21.6841H24.3691V22.9472H25.6323V21.6841Z" fill="#DFBB87" />
  <path d="M26.894 21.6841H25.6309V22.9472H26.894V21.6841Z" fill="#B37954" />
  <path d="M28.1596 21.6841H26.8965V22.9472H28.1596V21.6841Z" fill="#B37954" />
  <path d="M9.21041 22.9473H7.94727V24.2104H9.21041V22.9473Z" fill="#804648" />
  <path d="M10.4741 22.9473H9.21094V24.2104H10.4741V22.9473Z" fill="#804648" />
  <path d="M11.7378 22.9473H10.4746V24.2104H11.7378V22.9473Z" fill="#B37954" />
  <path d="M13.0014 22.9473H11.7383V24.2104H13.0014V22.9473Z" fill="#B37954" />
  <path d="M14.2631 22.9473H13V24.2104H14.2631V22.9473Z" fill="#B37954" />
  <path d="M15.5268 22.9473H14.2637V24.2104H15.5268V22.9473Z" fill="#B37954" />
  <path d="M16.7905 22.9473H15.5273V24.2104H16.7905V22.9473Z" fill="#B37954" />
  <path d="M18.0522 22.9473H16.7891V24.2104H18.0522V22.9473Z" fill="#F3D6AB" />
  <path d="M19.3159 22.9473H18.0527V24.2104H19.3159V22.9473Z" fill="#DFBB87" />
  <path d="M20.5796 22.9473H19.3164V24.2104H20.5796V22.9473Z" fill="#DFBB87" />
  <path d="M21.8432 22.9473H20.5801V24.2104H21.8432V22.9473Z" fill="#DFBB87" />
  <path d="M23.1049 22.9473H21.8418V24.2104H23.1049V22.9473Z" fill="#DFBB87" />
  <path d="M24.3686 22.9473H23.1055V24.2104H24.3686V22.9473Z" fill="#B37954" />
  <path d="M25.6323 22.9473H24.3691V24.2104H25.6323V22.9473Z" fill="#B37954" />
  <path d="M11.7378 24.2104H10.4746V25.4736H11.7378V24.2104Z" fill="#804648" />
  <path d="M13.0014 24.2104H11.7383V25.4736H13.0014V24.2104Z" fill="#804648" />
  <path d="M14.2631 24.2104H13V25.4736H14.2631V24.2104Z" fill="#B37954" />
  <path d="M15.5268 24.2104H14.2637V25.4736H15.5268V24.2104Z" fill="#B37954" />
  <path d="M16.7905 24.2104H15.5273V25.4736H16.7905V24.2104Z" fill="#B37954" />
  <path d="M18.0522 24.2104H16.7891V25.4736H18.0522V24.2104Z" fill="#F3D6AB" />
  <path d="M19.3159 24.2104H18.0527V25.4736H19.3159V24.2104Z" fill="#DFBB87" />
  <path d="M20.5796 24.2104H19.3164V25.4736H20.5796V24.2104Z" fill="#DFBB87" />
  <path d="M21.8432 24.2104H20.5801V25.4736H21.8432V24.2104Z" fill="#B37954" />
  <path d="M23.1049 24.2104H21.8418V25.4736H23.1049V24.2104Z" fill="#B37954" />
  <path d="M14.2631 25.4736H13V26.7368H14.2631V25.4736Z" fill="#804648" />
  <path d="M15.5268 25.4736H14.2637V26.7368H15.5268V25.4736Z" fill="#804648" />
  <path d="M16.7905 25.4736H15.5273V26.7368H16.7905V25.4736Z" fill="#B37954" />
  <path d="M18.0522 25.4736H16.7891V26.7368H18.0522V25.4736Z" fill="#F3D6AB" />
  <path d="M19.3159 25.4736H18.0527V26.7368H19.3159V25.4736Z" fill="#B37954" />
  <path d="M20.5796 25.4736H19.3164V26.7368H20.5796V25.4736Z" fill="#B37954" />
  <path d="M16.7905 26.7368H15.5273V28H16.7905V26.7368Z" fill="#804648" />
  <path d="M18.0522 26.7368H16.7891V28H18.0522V26.7368Z" fill="#B37954" />
</svg>