<svg width="32" height="32" viewBox="0 0 32 32" fill="none" xmlns="http://www.w3.org/2000/svg">
  <g clip-path="url(#clip0_510_132638)">
    <path d="M12.4009 4H10.8008V5.60017H12.4009V4Z" fill="#514B74" />
    <path d="M22.0006 4H20.4004V5.60017H22.0006V4Z" fill="#514B74" />
    <path d="M23.6002 4H22V5.60017H23.6002V4Z" fill="#514B74" />
    <path d="M25.1998 4H23.5996V5.60017H25.1998V4Z" fill="#514B74" />
    <path d="M10.8013 5.6001H9.20117V7.20027H10.8013V5.6001Z" fill="#514B74" />
    <path d="M12.4009 5.6001H10.8008V7.20027H12.4009V5.6001Z" fill="#BBC9E2" />
    <path d="M14.0006 5.6001H12.4004V7.20027H14.0006V5.6001Z" fill="#514B74" />
    <path d="M22.0006 5.6001H20.4004V7.20027H22.0006V5.6001Z" fill="#514B74" />
    <path d="M23.6002 5.6001H22V7.20027H23.6002V5.6001Z" fill="#67A1D2" />
    <path d="M25.1998 5.6001H23.5996V7.20027H25.1998V5.6001Z" fill="#514B74" />
    <path d="M9.19978 7.19971H7.59961V8.79988H9.19978V7.19971Z" fill="#514B74" />
    <path d="M10.8013 7.19971H9.20117V8.79988H10.8013V7.19971Z" fill="#BBC9E2" />
    <path d="M12.4009 7.19971H10.8008V8.79988H12.4009V7.19971Z" fill="#768DBA" />
    <path d="M14.0006 7.19971H12.4004V8.79988H14.0006V7.19971Z" fill="#E7E7E7" />
    <path d="M15.6002 7.19971H14V8.79988H15.6002V7.19971Z" fill="#514B74" />
    <path d="M22.0006 7.19971H20.4004V8.79988H22.0006V7.19971Z" fill="#514B74" />
    <path d="M23.6002 7.19971H22V8.79988H23.6002V7.19971Z" fill="#514B74" />
    <path d="M25.1998 7.19971H23.5996V8.79988H25.1998V7.19971Z" fill="#514B74" />
    <path d="M9.19978 8.7998H7.59961V10.4H9.19978V8.7998Z" fill="#514B74" />
    <path d="M10.8013 8.7998H9.20117V10.4H10.8013V8.7998Z" fill="#BBC9E2" />
    <path d="M12.4009 8.7998H10.8008V10.4H12.4009V8.7998Z" fill="#BBC9E2" />
    <path d="M14.0006 8.7998H12.4004V10.4H14.0006V8.7998Z" fill="#BBC9E2" />
    <path d="M15.6002 8.7998H14V10.4H15.6002V8.7998Z" fill="#E7E7E7" />
    <path d="M17.1998 8.7998H15.5996V10.4H17.1998V8.7998Z" fill="#514B74" />
    <path d="M20.4009 8.7998H18.8008V10.4H20.4009V8.7998Z" fill="#514B74" />
    <path d="M9.19978 10.3999H7.59961V12.0001H9.19978V10.3999Z" fill="#514B74" />
    <path d="M10.8013 10.3999H9.20117V12.0001H10.8013V10.3999Z" fill="#BBC9E2" />
    <path d="M12.4009 10.3999H10.8008V12.0001H12.4009V10.3999Z" fill="#E7E7E7" />
    <path d="M14.0006 10.3999H12.4004V12.0001H14.0006V10.3999Z" fill="#BBC9E2" />
    <path d="M15.6002 10.3999H14V12.0001H15.6002V10.3999Z" fill="#768DBA" />
    <path d="M17.1998 10.3999H15.5996V12.0001H17.1998V10.3999Z" fill="#BBC9E2" />
    <path d="M18.7994 10.3999H17.1992V12.0001H18.7994V10.3999Z" fill="#514B74" />
    <path d="M9.19978 12H7.59961V13.6002H9.19978V12Z" fill="#514B74" />
    <path d="M10.8013 12H9.20117V13.6002H10.8013V12Z" fill="#BBC9E2" />
    <path d="M12.4009 12H10.8008V13.6002H12.4009V12Z" fill="#BBC9E2" />
    <path d="M14.0006 12H12.4004V13.6002H14.0006V12Z" fill="#BBC9E2" />
    <path d="M15.6002 12H14V13.6002H15.6002V12Z" fill="#BBC9E2" />
    <path d="M17.1998 12H15.5996V13.6002H17.1998V12Z" fill="#768DBA" />
    <path d="M18.7994 12H17.1992V13.6002H18.7994V12Z" fill="#E7E7E7" />
    <path d="M20.4009 12H18.8008V13.6002H20.4009V12Z" fill="#514B74" />
    <path d="M9.19978 13.6001H7.59961V15.2003H9.19978V13.6001Z" fill="#514B74" />
    <path d="M10.8013 13.6001H9.20117V15.2003H10.8013V13.6001Z" fill="#768DBA" />
    <path d="M12.4009 13.6001H10.8008V15.2003H12.4009V13.6001Z" fill="#BBC9E2" />
    <path d="M14.0006 13.6001H12.4004V15.2003H14.0006V13.6001Z" fill="#BBC9E2" />
    <path d="M15.6002 13.6001H14V15.2003H15.6002V13.6001Z" fill="#BBC9E2" />
    <path d="M17.1998 13.6001H15.5996V15.2003H17.1998V13.6001Z" fill="#BBC9E2" />
    <path d="M18.7994 13.6001H17.1992V15.2003H18.7994V13.6001Z" fill="#768DBA" />
    <path d="M20.4009 13.6001H18.8008V15.2003H20.4009V13.6001Z" fill="#BBC9E2" />
    <path d="M22.0006 13.6001H20.4004V15.2003H22.0006V13.6001Z" fill="#514B74" />
    <path d="M10.8013 15.1997H9.20117V16.7999H10.8013V15.1997Z" fill="#514B74" />
    <path d="M12.4009 15.1997H10.8008V16.7999H12.4009V15.1997Z" fill="#768DBA" />
    <path d="M14.0006 15.1997H12.4004V16.7999H14.0006V15.1997Z" fill="#BBC9E2" />
    <path d="M15.6002 15.1997H14V16.7999H15.6002V15.1997Z" fill="#BBC9E2" />
    <path d="M17.1998 15.1997H15.5996V16.7999H17.1998V15.1997Z" fill="#BBC9E2" />
    <path d="M18.7994 15.1997H17.1992V16.7999H18.7994V15.1997Z" fill="#BBC9E2" />
    <path d="M20.4009 15.1997H18.8008V16.7999H20.4009V15.1997Z" fill="#768DBA" />
    <path d="M22.0006 15.1997H20.4004V16.7999H22.0006V15.1997Z" fill="#768DBA" />
    <path d="M23.6002 15.1997H22V16.7999H23.6002V15.1997Z" fill="#514B74" />
    <path d="M12.4009 16.7998H10.8008V18.4H12.4009V16.7998Z" fill="#514B74" />
    <path d="M14.0006 16.7998H12.4004V18.4H14.0006V16.7998Z" fill="#768DBA" />
    <path d="M15.6002 16.7998H14V18.4H15.6002V16.7998Z" fill="#768DBA" />
    <path d="M17.1998 16.7998H15.5996V18.4H17.1998V16.7998Z" fill="#768DBA" />
    <path d="M18.7994 16.7998H17.1992V18.4H18.7994V16.7998Z" fill="#768DBA" />
    <path d="M20.4009 16.7998H18.8008V18.4H20.4009V16.7998Z" fill="#768DBA" />
    <path d="M22.0006 16.7998H20.4004V18.4H22.0006V16.7998Z" fill="#768DBA" />
    <path d="M23.6002 16.7998H22V18.4H23.6002V16.7998Z" fill="#768DBA" />
    <path d="M25.1998 16.7998H23.5996V18.4H25.1998V16.7998Z" fill="#514B74" />
    <path d="M10.8013 18.3999H9.20117V20.0001H10.8013V18.3999Z" fill="#514B74" />
    <path d="M12.4009 18.3999H10.8008V20.0001H12.4009V18.3999Z" fill="#67A1D2" />
    <path d="M14.0006 18.3999H12.4004V20.0001H14.0006V18.3999Z" fill="#514B74" />
    <path d="M15.6002 18.3999H14V20.0001H15.6002V18.3999Z" fill="#768DBA" />
    <path d="M17.1998 18.3999H15.5996V20.0001H17.1998V18.3999Z" fill="#768DBA" />
    <path d="M18.7994 18.3999H17.1992V20.0001H18.7994V18.3999Z" fill="#768DBA" />
    <path d="M20.4009 18.3999H18.8008V20.0001H20.4009V18.3999Z" fill="#768DBA" />
    <path d="M22.0006 18.3999H20.4004V20.0001H22.0006V18.3999Z" fill="#768DBA" />
    <path d="M23.6002 18.3999H22V20.0001H23.6002V18.3999Z" fill="#514B74" />
    <path d="M12.4009 20H10.8008V21.6002H12.4009V20Z" fill="#514B74" />
    <path d="M15.6002 20H14V21.6002H15.6002V20Z" fill="#514B74" />
    <path d="M17.1998 20H15.5996V21.6002H17.1998V20Z" fill="#514B74" />
    <path d="M18.7994 20H17.1992V21.6002H18.7994V20Z" fill="#514B74" />
    <path d="M20.4009 20H18.8008V21.6002H20.4009V20Z" fill="#514B74" />
    <path d="M22.0006 20H20.4004V21.6002H22.0006V20Z" fill="#514B74" />
    <path d="M10.8013 21.6001H9.20117V23.2003H10.8013V21.6001Z" fill="#514B74" />
    <path d="M12.4009 21.6001H10.8008V23.2003H12.4009V21.6001Z" fill="#768DBA" />
    <path d="M14.0006 21.6001H12.4004V23.2003H14.0006V21.6001Z" fill="#514B74" />
    <path d="M9.19978 23.1997H7.59961V24.7999H9.19978V23.1997Z" fill="#514B74" />
    <path d="M10.8013 23.1997H9.20117V24.7999H10.8013V23.1997Z" fill="#768DBA" />
    <path d="M12.4009 23.1997H10.8008V24.7999H12.4009V23.1997Z" fill="#768DBA" />
    <path d="M14.0006 23.1997H12.4004V24.7999H14.0006V23.1997Z" fill="#BBC9E2" />
    <path d="M15.6002 23.1997H14V24.7999H15.6002V23.1997Z" fill="#514B74" />
    <path d="M7.60017 24.7998H6V26.4H7.60017V24.7998Z" fill="#514B74" />
    <path d="M9.19978 24.7998H7.59961V26.4H9.19978V24.7998Z" fill="#768DBA" />
    <path d="M10.8013 24.7998H9.20117V26.4H10.8013V24.7998Z" fill="#768DBA" />
    <path d="M12.4009 24.7998H10.8008V26.4H12.4009V24.7998Z" fill="#BBC9E2" />
    <path d="M14.0006 24.7998H12.4004V26.4H14.0006V24.7998Z" fill="#BBC9E2" />
    <path d="M15.6002 24.7998H14V26.4H15.6002V24.7998Z" fill="#BBC9E2" />
    <path d="M17.1998 24.7998H15.5996V26.4H17.1998V24.7998Z" fill="#514B74" />
    <path d="M7.60017 26.3999H6V28.0001H7.60017V26.3999Z" fill="#514B74" />
    <path d="M9.19978 26.3999H7.59961V28.0001H9.19978V26.3999Z" fill="#514B74" />
    <path d="M10.8013 26.3999H9.20117V28.0001H10.8013V26.3999Z" fill="#514B74" />
    <path d="M12.4009 26.3999H10.8008V28.0001H12.4009V26.3999Z" fill="#514B74" />
    <path d="M14.0006 26.3999H12.4004V28.0001H14.0006V26.3999Z" fill="#514B74" />
    <path d="M15.6002 26.3999H14V28.0001H15.6002V26.3999Z" fill="#514B74" />
    <path d="M17.1998 26.3999H15.5996V28.0001H17.1998V26.3999Z" fill="#514B74" />
  </g>
  <defs>
    <clipPath id="clip0_510_132638">
      <rect width="19.1999" height="24" fill="white" transform="translate(6 4)" />
    </clipPath>
  </defs>
</svg>