<svg width="32" height="32" viewBox="0 0 32 32" fill="none" xmlns="http://www.w3.org/2000/svg">
  <g clip-path="url(#clip0_450_76938)">
    <path d="M21.3686 4.44995H19.6543V6.1643H21.3686V4.44995Z" fill="#5C0074" />
    <path d="M23.0835 4.44995H21.3691V6.1643H23.0835V4.44995Z" fill="#5C0074" />
    <path d="M17.939 6.16431H16.2246V7.87865H17.939V6.16431Z" fill="#5C0074" />
    <path d="M19.6538 6.16431H17.9395V7.87865H19.6538V6.16431Z" fill="#5C0074" />
    <path d="M21.3686 6.16431H19.6543V7.87865H21.3686V6.16431Z" fill="#CEE0E9" />
    <path d="M23.0835 6.16431H21.3691V7.87865H23.0835V6.16431Z" fill="#91A1C6" />
    <path d="M24.7964 6.16431H23.082V7.87865H24.7964V6.16431Z" fill="#5C0074" />
    <path d="M14.5112 7.87866H12.7969V9.59301H14.5112V7.87866Z" fill="#5C0074" />
    <path d="M16.2261 7.87866H14.5117V9.59301H16.2261V7.87866Z" fill="#5C0074" />
    <path d="M17.939 7.87866H16.2246V9.59301H17.939V7.87866Z" fill="#91A1C6" />
    <path d="M19.6538 7.87866H17.9395V9.59301H19.6538V7.87866Z" fill="#AEC4DA" />
    <path d="M21.3686 7.87866H19.6543V9.59301H21.3686V7.87866Z" fill="#AEC4DA" />
    <path d="M23.0835 7.87866H21.3691V9.59301H23.0835V7.87866Z" fill="#CEE0E9" />
    <path d="M24.7964 7.87866H23.082V9.59301H24.7964V7.87866Z" fill="#91A1C6" />
    <path d="M26.5112 7.87866H24.7969V9.59301H26.5112V7.87866Z" fill="#5C0074" />
    <path d="M11.0815 9.59302H9.36719V11.3074H11.0815V9.59302Z" fill="#5C0074" />
    <path d="M12.7964 9.59302H11.082V11.3074H12.7964V9.59302Z" fill="#5C0074" />
    <path d="M14.5112 9.59302H12.7969V11.3074H14.5112V9.59302Z" fill="#91A1C6" />
    <path d="M16.2261 9.59302H14.5117V11.3074H16.2261V9.59302Z" fill="#AEC4DA" />
    <path d="M17.939 9.59302H16.2246V11.3074H17.939V9.59302Z" fill="#AEC4DA" />
    <path d="M19.6538 9.59302H17.9395V11.3074H19.6538V9.59302Z" fill="#AEC4DA" />
    <path d="M21.3686 9.59302H19.6543V11.3074H21.3686V9.59302Z" fill="#AEC4DA" />
    <path d="M23.0835 9.59302H21.3691V11.3074H23.0835V9.59302Z" fill="#AEC4DA" />
    <path d="M24.7964 9.59302H23.082V11.3074H24.7964V9.59302Z" fill="#AEC4DA" />
    <path d="M26.5112 9.59302H24.7969V11.3074H26.5112V9.59302Z" fill="#F0F0F0" />
    <path d="M28.2261 9.59302H26.5117V11.3074H28.2261V9.59302Z" fill="#5C0074" />
    <path d="M7.6538 11.3069H5.93945V13.0212H7.6538V11.3069Z" fill="#5C0074" />
    <path d="M9.36864 11.3069H7.6543V13.0212H9.36864V11.3069Z" fill="#5C0074" />
    <path d="M11.0815 11.3069H9.36719V13.0212H11.0815V11.3069Z" fill="#91A1C6" />
    <path d="M12.7964 11.3069H11.082V13.0212H12.7964V11.3069Z" fill="#AEC4DA" />
    <path d="M14.5112 11.3069H12.7969V13.0212H14.5112V11.3069Z" fill="#91A1C6" />
    <path d="M16.2261 11.3069H14.5117V13.0212H16.2261V11.3069Z" fill="#91A1C6" />
    <path d="M17.939 11.3069H16.2246V13.0212H17.939V11.3069Z" fill="#91A1C6" />
    <path d="M19.6538 11.3069H17.9395V13.0212H19.6538V11.3069Z" fill="#91A1C6" />
    <path d="M21.3686 11.3069H19.6543V13.0212H21.3686V11.3069Z" fill="#AEC4DA" />
    <path d="M23.0835 11.3069H21.3691V13.0212H23.0835V11.3069Z" fill="#AEC4DA" />
    <path d="M24.7964 11.3069H23.082V13.0212H24.7964V11.3069Z" fill="#CEE0E9" />
    <path d="M26.5112 11.3069H24.7969V13.0212H26.5112V11.3069Z" fill="#F0F0F0" />
    <path d="M28.2261 11.3069H26.5117V13.0212H28.2261V11.3069Z" fill="#F0F0F0" />
    <path d="M29.939 11.3069H28.2246V13.0212H29.939V11.3069Z" fill="#5C0074" />
    <path d="M4.22606 13.0212H2.51172V14.7356H4.22606V13.0212Z" fill="#5C0074" />
    <path d="M5.93895 13.0212H4.22461V14.7356H5.93895V13.0212Z" fill="#5C0074" />
    <path d="M7.6538 13.0212H5.93945V14.7356H7.6538V13.0212Z" fill="#AEC4DA" />
    <path d="M9.36864 13.0212H7.6543V14.7356H9.36864V13.0212Z" fill="#AEC4DA" />
    <path d="M11.0815 13.0212H9.36719V14.7356H11.0815V13.0212Z" fill="#91A1C6" />
    <path d="M12.7964 13.0212H11.082V14.7356H12.7964V13.0212Z" fill="#91A1C6" />
    <path d="M14.5112 13.0212H12.7969V14.7356H14.5112V13.0212Z" fill="#91A1C6" />
    <path d="M16.2261 13.0212H14.5117V14.7356H16.2261V13.0212Z" fill="#91A1C6" />
    <path d="M17.939 13.0212H16.2246V14.7356H17.939V13.0212Z" fill="#91A1C6" />
    <path d="M19.6538 13.0212H17.9395V14.7356H19.6538V13.0212Z" fill="#91A1C6" />
    <path d="M21.3686 13.0212H19.6543V14.7356H21.3686V13.0212Z" fill="#91A1C6" />
    <path d="M23.0835 13.0212H21.3691V14.7356H23.0835V13.0212Z" fill="#CEE0E9" />
    <path d="M24.7964 13.0212H23.082V14.7356H24.7964V13.0212Z" fill="#F0F0F0" />
    <path d="M26.5112 13.0212H24.7969V14.7356H26.5112V13.0212Z" fill="#F0F0F0" />
    <path d="M28.2261 13.0212H26.5117V14.7356H28.2261V13.0212Z" fill="#7B7AAE" />
    <path d="M29.939 13.0212H28.2246V14.7356H29.939V13.0212Z" fill="#5C0074" />
    <path d="M4.22606 14.7356H2.51172V16.4499H4.22606V14.7356Z" fill="#5C0074" />
    <path d="M5.93895 14.7356H4.22461V16.4499H5.93895V14.7356Z" fill="#7B7AAE" />
    <path d="M7.6538 14.7356H5.93945V16.4499H7.6538V14.7356Z" fill="#CEE0E9" />
    <path d="M9.36864 14.7356H7.6543V16.4499H9.36864V14.7356Z" fill="#AEC4DA" />
    <path d="M11.0815 14.7356H9.36719V16.4499H11.0815V14.7356Z" fill="#91A1C6" />
    <path d="M12.7964 14.7356H11.082V16.4499H12.7964V14.7356Z" fill="#91A1C6" />
    <path d="M14.5112 14.7356H12.7969V16.4499H14.5112V14.7356Z" fill="#91A1C6" />
    <path d="M16.2261 14.7356H14.5117V16.4499H16.2261V14.7356Z" fill="#91A1C6" />
    <path d="M17.939 14.7356H16.2246V16.4499H17.939V14.7356Z" fill="#91A1C6" />
    <path d="M19.6538 14.7356H17.9395V16.4499H19.6538V14.7356Z" fill="#91A1C6" />
    <path d="M21.3686 14.7356H19.6543V16.4499H21.3686V14.7356Z" fill="#CEE0E9" />
    <path d="M23.0835 14.7356H21.3691V16.4499H23.0835V14.7356Z" fill="#F0F0F0" />
    <path d="M24.7964 14.7356H23.082V16.4499H24.7964V14.7356Z" fill="#7B7AAE" />
    <path d="M26.5112 14.7356H24.7969V16.4499H26.5112V14.7356Z" fill="#7B7AAE" />
    <path d="M28.2261 14.7356H26.5117V16.4499H28.2261V14.7356Z" fill="#7B7AAE" />
    <path d="M29.939 14.7356H28.2246V16.4499H29.939V14.7356Z" fill="#5C0074" />
    <path d="M4.22606 16.45H2.51172V18.1643H4.22606V16.45Z" fill="#5C0074" />
    <path d="M5.93895 16.45H4.22461V18.1643H5.93895V16.45Z" fill="#7B7AAE" />
    <path d="M7.6538 16.45H5.93945V18.1643H7.6538V16.45Z" fill="#7B7AAE" />
    <path d="M9.36864 16.45H7.6543V18.1643H9.36864V16.45Z" fill="#AEC4DA" />
    <path d="M11.0815 16.45H9.36719V18.1643H11.0815V16.45Z" fill="#AEC4DA" />
    <path d="M12.7964 16.45H11.082V18.1643H12.7964V16.45Z" fill="#91A1C6" />
    <path d="M14.5112 16.45H12.7969V18.1643H14.5112V16.45Z" fill="#91A1C6" />
    <path d="M16.2261 16.45H14.5117V18.1643H16.2261V16.45Z" fill="#91A1C6" />
    <path d="M17.939 16.45H16.2246V18.1643H17.939V16.45Z" fill="#91A1C6" />
    <path d="M19.6538 16.45H17.9395V18.1643H19.6538V16.45Z" fill="#AEC4DA" />
    <path d="M21.3686 16.45H19.6543V18.1643H21.3686V16.45Z" fill="#7B7AAE" />
    <path d="M23.0835 16.45H21.3691V18.1643H23.0835V16.45Z" fill="#7B7AAE" />
    <path d="M24.7964 16.45H23.082V18.1643H24.7964V16.45Z" fill="#91A1C6" />
    <path d="M26.5112 16.45H24.7969V18.1643H26.5112V16.45Z" fill="#91A1C6" />
    <path d="M28.2261 16.45H26.5117V18.1643H28.2261V16.45Z" fill="#7B7AAE" />
    <path d="M29.939 16.45H28.2246V18.1643H29.939V16.45Z" fill="#5C0074" />
    <path d="M4.22606 18.1643H2.51172V19.8787H4.22606V18.1643Z" fill="#5C0074" />
    <path d="M5.93895 18.1643H4.22461V19.8787H5.93895V18.1643Z" fill="#7B7AAE" />
    <path d="M7.6538 18.1643H5.93945V19.8787H7.6538V18.1643Z" fill="#91A1C6" />
    <path d="M9.36864 18.1643H7.6543V19.8787H9.36864V18.1643Z" fill="#7B7AAE" />
    <path d="M11.0815 18.1643H9.36719V19.8787H11.0815V18.1643Z" fill="#F0F0F0" />
    <path d="M12.7964 18.1643H11.082V19.8787H12.7964V18.1643Z" fill="#F0F0F0" />
    <path d="M14.5112 18.1643H12.7969V19.8787H14.5112V18.1643Z" fill="#CEE0E9" />
    <path d="M16.2261 18.1643H14.5117V19.8787H16.2261V18.1643Z" fill="#AEC4DA" />
    <path d="M17.939 18.1643H16.2246V19.8787H17.939V18.1643Z" fill="#7B7AAE" />
    <path d="M19.6538 18.1643H17.9395V19.8787H19.6538V18.1643Z" fill="#7B7AAE" />
    <path d="M21.3686 18.1643H19.6543V19.8787H21.3686V18.1643Z" fill="#91A1C6" />
    <path d="M23.0835 18.1643H21.3691V19.8787H23.0835V18.1643Z" fill="#91A1C6" />
    <path d="M24.7964 18.1643H23.082V19.8787H24.7964V18.1643Z" fill="#91A1C6" />
    <path d="M26.5112 18.1643H24.7969V19.8787H26.5112V18.1643Z" fill="#7B7AAE" />
    <path d="M28.2261 18.1643H26.5117V19.8787H28.2261V18.1643Z" fill="#5C0074" />
    <path d="M29.939 18.1643H28.2246V19.8787H29.939V18.1643Z" fill="#5C0074" />
    <path d="M4.22606 19.8787H2.51172V21.593H4.22606V19.8787Z" fill="#5C0074" />
    <path d="M5.93895 19.8787H4.22461V21.593H5.93895V19.8787Z" fill="#91A1C6" />
    <path d="M7.6538 19.8787H5.93945V21.593H7.6538V19.8787Z" fill="#91A1C6" />
    <path d="M9.36864 19.8787H7.6543V21.593H9.36864V19.8787Z" fill="#91A1C6" />
    <path d="M11.0815 19.8787H9.36719V21.593H11.0815V19.8787Z" fill="#AEC4DA" />
    <path d="M12.7964 19.8787H11.082V21.593H12.7964V19.8787Z" fill="#F0F0F0" />
    <path d="M14.5112 19.8787H12.7969V21.593H14.5112V19.8787Z" fill="#F0F0F0" />
    <path d="M16.2261 19.8787H14.5117V21.593H16.2261V19.8787Z" fill="#7B7AAE" />
    <path d="M17.939 19.8787H16.2246V21.593H17.939V19.8787Z" fill="#91A1C6" />
    <path d="M19.6538 19.8787H17.9395V21.593H19.6538V19.8787Z" fill="#91A1C6" />
    <path d="M21.3686 19.8787H19.6543V21.593H21.3686V19.8787Z" fill="#91A1C6" />
    <path d="M23.0835 19.8787H21.3691V21.593H23.0835V19.8787Z" fill="#AEC4DA" />
    <path d="M24.7964 19.8787H23.082V21.593H24.7964V19.8787Z" fill="#5C0074" />
    <path d="M26.5112 19.8787H24.7969V21.593H26.5112V19.8787Z" fill="#5C0074" />
    <path d="M5.93895 21.5925H4.22461V23.3069H5.93895V21.5925Z" fill="#5C0074" />
    <path d="M7.6538 21.5925H5.93945V23.3069H7.6538V21.5925Z" fill="#AEC4DA" />
    <path d="M9.36864 21.5925H7.6543V23.3069H9.36864V21.5925Z" fill="#91A1C6" />
    <path d="M11.0815 21.5925H9.36719V23.3069H11.0815V21.5925Z" fill="#91A1C6" />
    <path d="M12.7964 21.5925H11.082V23.3069H12.7964V21.5925Z" fill="#F0F0F0" />
    <path d="M14.5112 21.5925H12.7969V23.3069H14.5112V21.5925Z" fill="#AEC4DA" />
    <path d="M16.2261 21.5925H14.5117V23.3069H16.2261V21.5925Z" fill="#91A1C6" />
    <path d="M17.939 21.5925H16.2246V23.3069H17.939V21.5925Z" fill="#AEC4DA" />
    <path d="M19.6538 21.5925H17.9395V23.3069H19.6538V21.5925Z" fill="#AEC4DA" />
    <path d="M21.3686 21.5925H19.6543V23.3069H21.3686V21.5925Z" fill="#5C0074" />
    <path d="M23.0835 21.5925H21.3691V23.3069H23.0835V21.5925Z" fill="#5C0074" />
    <path d="M7.6538 23.3069H5.93945V25.0212H7.6538V23.3069Z" fill="#5C0074" />
    <path d="M9.36864 23.3069H7.6543V25.0212H9.36864V23.3069Z" fill="#AEC4DA" />
    <path d="M11.0815 23.3069H9.36719V25.0212H11.0815V23.3069Z" fill="#91A1C6" />
    <path d="M12.7964 23.3069H11.082V25.0212H12.7964V23.3069Z" fill="#AEC4DA" />
    <path d="M14.5112 23.3069H12.7969V25.0212H14.5112V23.3069Z" fill="#AEC4DA" />
    <path d="M16.2261 23.3069H14.5117V25.0212H16.2261V23.3069Z" fill="#AEC4DA" />
    <path d="M17.939 23.3069H16.2246V25.0212H17.939V23.3069Z" fill="#5C0074" />
    <path d="M19.6538 23.3069H17.9395V25.0212H19.6538V23.3069Z" fill="#5C0074" />
    <path d="M9.36864 25.0212H7.6543V26.7356H9.36864V25.0212Z" fill="#5C0074" />
    <path d="M11.0815 25.0212H9.36719V26.7356H11.0815V25.0212Z" fill="#CEE0E9" />
    <path d="M12.7964 25.0212H11.082V26.7356H12.7964V25.0212Z" fill="#CEE0E9" />
    <path d="M14.5112 25.0212H12.7969V26.7356H14.5112V25.0212Z" fill="#5C0074" />
    <path d="M16.2261 25.0212H14.5117V26.7356H16.2261V25.0212Z" fill="#5C0074" />
    <path d="M11.0815 26.7356H9.36719V28.4499H11.0815V26.7356Z" fill="#5C0074" />
    <path d="M12.7964 26.7356H11.082V28.4499H12.7964V26.7356Z" fill="#5C0074" />
  </g>
  <defs>
    <clipPath id="clip0_450_76938">
      <rect width="27.4282" height="24" fill="white" transform="translate(2.50977 4.44995)" />
    </clipPath>
  </defs>
</svg>