<svg width="32" height="32" viewBox="0 0 32 32" fill="none" xmlns="http://www.w3.org/2000/svg">
  <g clip-path="url(#clip0_450_118476)">
    <path d="M18.2331 3.86011H16.3867V5.70652H18.2331V3.86011Z" fill="#6B001E" />
    <path d="M20.0788 3.86011H18.2324V5.70652H20.0788V3.86011Z" fill="#6B001E" />
    <path d="M21.9245 3.86011H20.0781V5.70652H21.9245V3.86011Z" fill="#6B001E" />
    <path d="M23.7702 3.86011H21.9238V5.70652H23.7702V3.86011Z" fill="#6B001E" />
    <path d="M16.3855 5.7063H14.5391V7.55271H16.3855V5.7063Z" fill="#6B001E" />
    <path d="M18.2331 5.7063H16.3867V7.55271H18.2331V5.7063Z" fill="#ECD15D" />
    <path d="M20.0788 5.7063H18.2324V7.55271H20.0788V5.7063Z" fill="#ECD15D" />
    <path d="M21.9245 5.7063H20.0781V7.55271H21.9245V5.7063Z" fill="#ECD15D" />
    <path d="M23.7702 5.7063H21.9238V7.55271H23.7702V5.7063Z" fill="#FAFFC8" />
    <path d="M25.6159 5.7063H23.7695V7.55271H25.6159V5.7063Z" fill="#6B001E" />
    <path d="M9.00071 7.55225H7.1543V9.39866H9.00071V7.55225Z" fill="#6B001E" />
    <path d="M10.8484 7.55225H9.00195V9.39866H10.8484V7.55225Z" fill="#6B001E" />
    <path d="M12.6941 7.55225H10.8477V9.39866H12.6941V7.55225Z" fill="#6B001E" />
    <path d="M16.3855 7.55225H14.5391V9.39866H16.3855V7.55225Z" fill="#6B001E" />
    <path d="M18.2331 7.55225H16.3867V9.39866H18.2331V7.55225Z" fill="#F7EFA2" />
    <path d="M20.0788 7.55225H18.2324V9.39866H20.0788V7.55225Z" fill="#FAFFC8" />
    <path d="M21.9245 7.55225H20.0781V9.39866H21.9245V7.55225Z" fill="#FAFFC8" />
    <path d="M23.7702 7.55225H21.9238V9.39866H23.7702V7.55225Z" fill="#E0A828" />
    <path d="M25.6159 7.55225H23.7695V9.39866H25.6159V7.55225Z" fill="#E0A828" />
    <path d="M27.4636 7.55225H25.6172V9.39866H27.4636V7.55225Z" fill="#6B001E" />
    <path d="M7.155 9.39868H5.30859V11.2451H7.155V9.39868Z" fill="#6B001E" />
    <path d="M9.00071 9.39868H7.1543V11.2451H9.00071V9.39868Z" fill="#ECD15D" />
    <path d="M10.8484 9.39868H9.00195V11.2451H10.8484V9.39868Z" fill="#ECD15D" />
    <path d="M12.6941 9.39868H10.8477V11.2451H12.6941V9.39868Z" fill="#F7EFA2" />
    <path d="M14.5398 9.39868H12.6934V11.2451H14.5398V9.39868Z" fill="#6B001E" />
    <path d="M18.2331 9.39868H16.3867V11.2451H18.2331V9.39868Z" fill="#6B001E" />
    <path d="M20.0788 9.39868H18.2324V11.2451H20.0788V9.39868Z" fill="#6B001E" />
    <path d="M21.9245 9.39868H20.0781V11.2451H21.9245V9.39868Z" fill="#6B001E" />
    <path d="M23.7702 9.39868H21.9238V11.2451H23.7702V9.39868Z" fill="#6B001E" />
    <path d="M25.6159 9.39868H23.7695V11.2451H25.6159V9.39868Z" fill="#ECD15D" />
    <path d="M27.4636 9.39868H25.6172V11.2451H27.4636V9.39868Z" fill="#6B001E" />
    <path d="M5.3093 11.2446H3.46289V13.091H5.3093V11.2446Z" fill="#6B001E" />
    <path d="M7.155 11.2446H5.30859V13.091H7.155V11.2446Z" fill="#ECD15D" />
    <path d="M9.00071 11.2446H7.1543V13.091H9.00071V11.2446Z" fill="#ECD15D" />
    <path d="M10.8484 11.2446H9.00195V13.091H10.8484V11.2446Z" fill="#F7EFA2" />
    <path d="M12.6941 11.2446H10.8477V13.091H12.6941V11.2446Z" fill="#ECD15D" />
    <path d="M14.5398 11.2446H12.6934V13.091H14.5398V11.2446Z" fill="#ECD15D" />
    <path d="M16.3855 11.2446H14.5391V13.091H16.3855V11.2446Z" fill="#6B001E" />
    <path d="M25.6159 11.2446H23.7695V13.091H25.6159V11.2446Z" fill="#6B001E" />
    <path d="M27.4636 11.2446H25.6172V13.091H27.4636V11.2446Z" fill="#6B001E" />
    <path d="M5.3093 13.0908H3.46289V14.9372H5.3093V13.0908Z" fill="#6B001E" />
    <path d="M7.155 13.0908H5.30859V14.9372H7.155V13.0908Z" fill="#ECD15D" />
    <path d="M9.00071 13.0908H7.1543V14.9372H9.00071V13.0908Z" fill="#ECD15D" />
    <path d="M10.8484 13.0908H9.00195V14.9372H10.8484V13.0908Z" fill="#ECD15D" />
    <path d="M12.6941 13.0908H10.8477V14.9372H12.6941V13.0908Z" fill="#ECD15D" />
    <path d="M14.5398 13.0908H12.6934V14.9372H14.5398V13.0908Z" fill="#ECD15D" />
    <path d="M16.3855 13.0908H14.5391V14.9372H16.3855V13.0908Z" fill="#F7EFA2" />
    <path d="M18.2331 13.0908H16.3867V14.9372H18.2331V13.0908Z" fill="#6B001E" />
    <path d="M20.0788 13.0908H18.2324V14.9372H20.0788V13.0908Z" fill="#6B001E" />
    <path d="M21.9245 13.0908H20.0781V14.9372H21.9245V13.0908Z" fill="#6B001E" />
    <path d="M23.7702 13.0908H21.9238V14.9372H23.7702V13.0908Z" fill="#6B001E" />
    <path d="M5.3093 14.9368H3.46289V16.7832H5.3093V14.9368Z" fill="#6B001E" />
    <path d="M7.155 14.9368H5.30859V16.7832H7.155V14.9368Z" fill="#F7EFA2" />
    <path d="M9.00071 14.9368H7.1543V16.7832H9.00071V14.9368Z" fill="#ECD15D" />
    <path d="M10.8484 14.9368H9.00195V16.7832H10.8484V14.9368Z" fill="#ECD15D" />
    <path d="M12.6941 14.9368H10.8477V16.7832H12.6941V14.9368Z" fill="#ECD15D" />
    <path d="M14.5398 14.9368H12.6934V16.7832H14.5398V14.9368Z" fill="#FAFFC8" />
    <path d="M16.3855 14.9368H14.5391V16.7832H16.3855V14.9368Z" fill="#CF6D19" />
    <path d="M18.2331 14.9368H16.3867V16.7832H18.2331V14.9368Z" fill="#CF6D19" />
    <path d="M20.0788 14.9368H18.2324V16.7832H20.0788V14.9368Z" fill="#F7EFA2" />
    <path d="M21.9245 14.9368H20.0781V16.7832H21.9245V14.9368Z" fill="#ECD15D" />
    <path d="M23.7702 14.9368H21.9238V16.7832H23.7702V14.9368Z" fill="#ECD15D" />
    <path d="M25.6159 14.9368H23.7695V16.7832H25.6159V14.9368Z" fill="#6B001E" />
    <path d="M5.3093 16.7832H3.46289V18.6296H5.3093V16.7832Z" fill="#6B001E" />
    <path d="M7.155 16.7832H5.30859V18.6296H7.155V16.7832Z" fill="#CF6D19" />
    <path d="M9.00071 16.7832H7.1543V18.6296H9.00071V16.7832Z" fill="#F7EFA2" />
    <path d="M10.8484 16.7832H9.00195V18.6296H10.8484V16.7832Z" fill="#FAFFC8" />
    <path d="M12.6941 16.7832H10.8477V18.6296H12.6941V16.7832Z" fill="#FAFFC8" />
    <path d="M14.5398 16.7832H12.6934V18.6296H14.5398V16.7832Z" fill="#CF6D19" />
    <path d="M16.3855 16.7832H14.5391V18.6296H16.3855V16.7832Z" fill="#CF6D19" />
    <path d="M18.2331 16.7832H16.3867V18.6296H18.2331V16.7832Z" fill="#CF6D19" />
    <path d="M20.0788 16.7832H18.2324V18.6296H20.0788V16.7832Z" fill="#FAFFC8" />
    <path d="M21.9245 16.7832H20.0781V18.6296H21.9245V16.7832Z" fill="#ECD15D" />
    <path d="M23.7702 16.7832H21.9238V18.6296H23.7702V16.7832Z" fill="#ECD15D" />
    <path d="M25.6159 16.7832H23.7695V18.6296H25.6159V16.7832Z" fill="#F7EFA2" />
    <path d="M27.4636 16.7832H25.6172V18.6296H27.4636V16.7832Z" fill="#6B001E" />
    <path d="M5.3093 18.6292H3.46289V20.4756H5.3093V18.6292Z" fill="#6B001E" />
    <path d="M7.155 18.6292H5.30859V20.4756H7.155V18.6292Z" fill="#CF6D19" />
    <path d="M9.00071 18.6292H7.1543V20.4756H9.00071V18.6292Z" fill="#CF6D19" />
    <path d="M10.8484 18.6292H9.00195V20.4756H10.8484V18.6292Z" fill="#E0A828" />
    <path d="M12.6941 18.6292H10.8477V20.4756H12.6941V18.6292Z" fill="#CF6D19" />
    <path d="M14.5398 18.6292H12.6934V20.4756H14.5398V18.6292Z" fill="#CF6D19" />
    <path d="M16.3855 18.6292H14.5391V20.4756H16.3855V18.6292Z" fill="#CF6D19" />
    <path d="M18.2331 18.6292H16.3867V20.4756H18.2331V18.6292Z" fill="#E0A828" />
    <path d="M20.0788 18.6292H18.2324V20.4756H20.0788V18.6292Z" fill="#CF6D19" />
    <path d="M21.9245 18.6292H20.0781V20.4756H21.9245V18.6292Z" fill="#FAFFC8" />
    <path d="M23.7702 18.6292H21.9238V20.4756H23.7702V18.6292Z" fill="#F7EFA2" />
    <path d="M25.6159 18.6292H23.7695V20.4756H25.6159V18.6292Z" fill="#CF6D19" />
    <path d="M27.4636 18.6292H25.6172V20.4756H27.4636V18.6292Z" fill="#CF6D19" />
    <path d="M29.3093 18.6292H27.4629V20.4756H29.3093V18.6292Z" fill="#6B001E" />
    <path d="M7.155 20.4753H5.30859V22.3218H7.155V20.4753Z" fill="#6B001E" />
    <path d="M9.00071 20.4753H7.1543V22.3218H9.00071V20.4753Z" fill="#ECD15D" />
    <path d="M10.8484 20.4756H9.00195V22.322H10.8484V20.4756Z" fill="#ECD15D" />
    <path d="M12.6941 20.4753H10.8477V22.3218H12.6941V20.4753Z" fill="#E0A828" />
    <path d="M14.5398 20.4753H12.6934V22.3218H14.5398V20.4753Z" fill="#E0A828" />
    <path d="M16.3855 20.4756H14.5391V22.322H16.3855V20.4756Z" fill="#CF6D19" />
    <path d="M18.2331 20.4753H16.3867V22.3218H18.2331V20.4753Z" fill="#E0A828" />
    <path d="M20.0788 20.4753H18.2324V22.3218H20.0788V20.4753Z" fill="#E0A828" />
    <path d="M21.9245 20.4756H20.0781V22.322H21.9245V20.4756Z" fill="#CF6D19" />
    <path d="M23.7702 20.4753H21.9238V22.3218H23.7702V20.4753Z" fill="#CF6D19" />
    <path d="M25.6159 20.4753H23.7695V22.3218H25.6159V20.4753Z" fill="#CF6D19" />
    <path d="M27.4636 20.4756H25.6172V22.322H27.4636V20.4756Z" fill="#CF6D19" />
    <path d="M29.3093 20.4753H27.4629V22.3218H29.3093V20.4753Z" fill="#6B001E" />
    <path d="M7.155 22.3213H5.30859V24.1677H7.155V22.3213Z" fill="#6B001E" />
    <path d="M9.00071 22.3213H7.1543V24.1677H9.00071V22.3213Z" fill="#ECD15D" />
    <path d="M10.8484 22.3213H9.00195V24.1677H10.8484V22.3213Z" fill="#ECD15D" />
    <path d="M12.6941 22.3213H10.8477V24.1677H12.6941V22.3213Z" fill="#ECD15D" />
    <path d="M14.5398 22.3213H12.6934V24.1677H14.5398V22.3213Z" fill="#E0A828" />
    <path d="M16.3855 22.3213H14.5391V24.1677H16.3855V22.3213Z" fill="#CF6D19" />
    <path d="M18.2331 22.3213H16.3867V24.1677H18.2331V22.3213Z" fill="#CF6D19" />
    <path d="M20.0788 22.3213H18.2324V24.1677H20.0788V22.3213Z" fill="#E0A828" />
    <path d="M21.9245 22.3213H20.0781V24.1677H21.9245V22.3213Z" fill="#E0A828" />
    <path d="M23.7702 22.3213H21.9238V24.1677H23.7702V22.3213Z" fill="#E0A828" />
    <path d="M25.6159 22.3213H23.7695V24.1677H25.6159V22.3213Z" fill="#CF6D19" />
    <path d="M27.4636 22.3213H25.6172V24.1677H27.4636V22.3213Z" fill="#6B001E" />
    <path d="M9.00071 24.1677H7.1543V26.0141H9.00071V24.1677Z" fill="#6B001E" />
    <path d="M10.8484 24.1677H9.00195V26.0141H10.8484V24.1677Z" fill="#ECD15D" />
    <path d="M12.6941 24.1677H10.8477V26.0141H12.6941V24.1677Z" fill="#E0A828" />
    <path d="M14.5398 24.1677H12.6934V26.0141H14.5398V24.1677Z" fill="#ECD15D" />
    <path d="M16.3855 24.1677H14.5391V26.0141H16.3855V24.1677Z" fill="#E0A828" />
    <path d="M18.2331 24.1677H16.3867V26.0141H18.2331V24.1677Z" fill="#CF6D19" />
    <path d="M20.0788 24.1677H18.2324V26.0141H20.0788V24.1677Z" fill="#CF6D19" />
    <path d="M21.9245 24.1677H20.0781V26.0141H21.9245V24.1677Z" fill="#CF6D19" />
    <path d="M23.7702 24.1677H21.9238V26.0141H23.7702V24.1677Z" fill="#6B001E" />
    <path d="M25.6159 24.1677H23.7695V26.0141H25.6159V24.1677Z" fill="#6B001E" />
    <path d="M10.8484 26.0137H9.00195V27.8601H10.8484V26.0137Z" fill="#6B001E" />
    <path d="M12.6941 26.0137H10.8477V27.8601H12.6941V26.0137Z" fill="#6B001E" />
    <path d="M14.5398 26.0137H12.6934V27.8601H14.5398V26.0137Z" fill="#6B001E" />
    <path d="M16.3855 26.0137H14.5391V27.8601H16.3855V26.0137Z" fill="#6B001E" />
    <path d="M18.2331 26.0137H16.3867V27.8601H18.2331V26.0137Z" fill="#6B001E" />
    <path d="M20.0788 26.0137H18.2324V27.8601H20.0788V26.0137Z" fill="#6B001E" />
    <path d="M21.9245 26.0137H20.0781V27.8601H21.9245V26.0137Z" fill="#6B001E" />
  </g>
  <defs>
    <clipPath id="clip0_450_118476">
      <rect width="25.8458" height="24" fill="white" transform="translate(3.46094 3.85986)" />
    </clipPath>
  </defs>
</svg>