<svg width="32" height="32" viewBox="0 0 32 32" fill="none" xmlns="http://www.w3.org/2000/svg">
  <g clip-path="url(#clip0_450_89953)">
    <path d="M11.5739 4.38501H9.85938V6.09955H11.5739V4.38501Z" fill="#3C5077" />
    <path d="M13.2888 4.38501H11.5742V6.09955H13.2888V4.38501Z" fill="#3C5077" />
    <path d="M15.0036 4.38501H13.2891V6.09955H15.0036V4.38501Z" fill="#3C5077" />
    <path d="M16.7165 4.38501H15.002V6.09955H16.7165V4.38501Z" fill="#3C5077" />
    <path d="M18.4313 4.38501H16.7168V6.09955H18.4313V4.38501Z" fill="#3C5077" />
    <path d="M20.1462 4.38501H18.4316V6.09955H20.1462V4.38501Z" fill="#3C5077" />
    <path d="M21.861 4.38501H20.1465V6.09955H21.861V4.38501Z" fill="#3C5077" />
    <path d="M9.85908 6.09961H8.14453V7.81415H9.85908V6.09961Z" fill="#3C5077" />
    <path d="M11.5739 6.09961H9.85938V7.81415H11.5739V6.09961Z" fill="#98CB9F" />
    <path d="M13.2888 6.09961H11.5742V7.81415H13.2888V6.09961Z" fill="#98CB9F" />
    <path d="M15.0036 6.09961H13.2891V7.81415H15.0036V6.09961Z" fill="#C7E5A6" />
    <path d="M16.7165 6.09961H15.002V7.81415H16.7165V6.09961Z" fill="#C7E5A6" />
    <path d="M18.4313 6.09961H16.7168V7.81415H18.4313V6.09961Z" fill="#98CB9F" />
    <path d="M20.1462 6.09961H18.4316V7.81415H20.1462V6.09961Z" fill="#98CB9F" />
    <path d="M21.861 6.09961H20.1465V7.81415H21.861V6.09961Z" fill="#98CB9F" />
    <path d="M23.5739 6.09961H21.8594V7.81415H23.5739V6.09961Z" fill="#3C5077" />
    <path d="M8.14619 7.81348H6.43164V9.52802H8.14619V7.81348Z" fill="#3C5077" />
    <path d="M9.85908 7.81348H8.14453V9.52802H9.85908V7.81348Z" fill="#98CB9F" />
    <path d="M11.5739 7.81348H9.85938V9.52802H11.5739V7.81348Z" fill="#98CB9F" />
    <path d="M13.2888 7.81348H11.5742V9.52802H13.2888V7.81348Z" fill="#C7E5A6" />
    <path d="M15.0036 7.81348H13.2891V9.52802H15.0036V7.81348Z" fill="#98CB9F" />
    <path d="M16.7165 7.81348H15.002V9.52802H16.7165V7.81348Z" fill="#98CB9F" />
    <path d="M18.4313 7.81348H16.7168V9.52802H18.4313V7.81348Z" fill="#98CB9F" />
    <path d="M20.1462 7.81348H18.4316V9.52802H20.1462V7.81348Z" fill="#98CB9F" />
    <path d="M21.861 7.81348H20.1465V9.52802H21.861V7.81348Z" fill="#C7E5A6" />
    <path d="M23.5739 7.81348H21.8594V9.52802H23.5739V7.81348Z" fill="#538F92" />
    <path d="M25.2888 7.81348H23.5742V9.52802H25.2888V7.81348Z" fill="#3C5077" />
    <path d="M6.43134 9.52808H4.7168V11.2426H6.43134V9.52808Z" fill="#3C5077" />
    <path d="M8.14619 9.52808H6.43164V11.2426H8.14619V9.52808Z" fill="#98CB9F" />
    <path d="M9.85908 9.52808H8.14453V11.2426H9.85908V9.52808Z" fill="#FAFFB1" />
    <path d="M11.5739 9.52808H9.85938V11.2426H11.5739V9.52808Z" fill="#98CB9F" />
    <path d="M13.2888 9.52808H11.5742V11.2426H13.2888V9.52808Z" fill="#98CB9F" />
    <path d="M15.0036 9.52808H13.2891V11.2426H15.0036V9.52808Z" fill="#98CB9F" />
    <path d="M16.7165 9.52808H15.002V11.2426H16.7165V9.52808Z" fill="#98CB9F" />
    <path d="M18.4313 9.52808H16.7168V11.2426H18.4313V9.52808Z" fill="#98CB9F" />
    <path d="M20.1462 9.52808H18.4316V11.2426H20.1462V9.52808Z" fill="#FAFFB1" />
    <path d="M21.861 9.52808H20.1465V11.2426H21.861V9.52808Z" fill="#71AD99" />
    <path d="M23.5739 9.52808H21.8594V11.2426H23.5739V9.52808Z" fill="#98CB9F" />
    <path d="M25.2888 9.52808H23.5742V11.2426H25.2888V9.52808Z" fill="#71AD99" />
    <path d="M27.0036 9.52808H25.2891V11.2426H27.0036V9.52808Z" fill="#3C5077" />
    <path d="M6.43134 11.2422H4.7168V12.9567H6.43134V11.2422Z" fill="#3C5077" />
    <path d="M8.14619 11.2422H6.43164V12.9567H8.14619V11.2422Z" fill="#538F92" />
    <path d="M9.85908 11.2422H8.14453V12.9567H9.85908V11.2422Z" fill="#71AD99" />
    <path d="M11.5739 11.2422H9.85938V12.9567H11.5739V11.2422Z" fill="#C7E5A6" />
    <path d="M13.2888 11.2422H11.5742V12.9567H13.2888V11.2422Z" fill="#FAFFB1" />
    <path d="M15.0036 11.2422H13.2891V12.9567H15.0036V11.2422Z" fill="#FAFFB1" />
    <path d="M16.7165 11.2422H15.002V12.9567H16.7165V11.2422Z" fill="#FAFFB1" />
    <path d="M18.4313 11.2422H16.7168V12.9567H18.4313V11.2422Z" fill="#C7E5A6" />
    <path d="M20.1462 11.2422H18.4316V12.9567H20.1462V11.2422Z" fill="#538F92" />
    <path d="M21.861 11.2422H20.1465V12.9567H21.861V11.2422Z" fill="#71AD99" />
    <path d="M23.5739 11.2422H21.8594V12.9567H23.5739V11.2422Z" fill="#98CB9F" />
    <path d="M25.2888 11.2422H23.5742V12.9567H25.2888V11.2422Z" fill="#98CB9F" />
    <path d="M27.0036 11.2422H25.2891V12.9567H27.0036V11.2422Z" fill="#3C5077" />
    <path d="M6.43134 12.9568H4.7168V14.6713H6.43134V12.9568Z" fill="#3C5077" />
    <path d="M8.14619 12.9568H6.43164V14.6713H8.14619V12.9568Z" fill="#71AD99" />
    <path d="M9.85908 12.9568H8.14453V14.6713H9.85908V12.9568Z" fill="#71AD99" />
    <path d="M11.5739 12.9568H9.85938V14.6713H11.5739V12.9568Z" fill="#538F92" />
    <path d="M13.2888 12.9568H11.5742V14.6713H13.2888V12.9568Z" fill="#538F92" />
    <path d="M15.0036 12.9568H13.2891V14.6713H15.0036V12.9568Z" fill="#538F92" />
    <path d="M16.7165 12.9568H15.002V14.6713H16.7165V12.9568Z" fill="#538F92" />
    <path d="M18.4313 12.9568H16.7168V14.6713H18.4313V12.9568Z" fill="#538F92" />
    <path d="M20.1462 12.9568H18.4316V14.6713H20.1462V12.9568Z" fill="#538F92" />
    <path d="M21.861 12.9568H20.1465V14.6713H21.861V12.9568Z" fill="#71AD99" />
    <path d="M23.5739 12.9568H21.8594V14.6713H23.5739V12.9568Z" fill="#3C5077" />
    <path d="M25.2888 12.9568H23.5742V14.6713H25.2888V12.9568Z" fill="#3C5077" />
    <path d="M27.0036 12.9568H25.2891V14.6713H27.0036V12.9568Z" fill="#3C5077" />
    <path d="M6.43134 14.6707H4.7168V16.3852H6.43134V14.6707Z" fill="#3C5077" />
    <path d="M8.14619 14.6707H6.43164V16.3852H8.14619V14.6707Z" fill="#98CB9F" />
    <path d="M9.85908 14.6707H8.14453V16.3852H9.85908V14.6707Z" fill="#98CB9F" />
    <path d="M11.5739 14.6707H9.85938V16.3852H11.5739V14.6707Z" fill="#98CB9F" />
    <path d="M13.2888 14.6707H11.5742V16.3852H13.2888V14.6707Z" fill="#538F92" />
    <path d="M15.0036 14.6707H13.2891V16.3852H15.0036V14.6707Z" fill="#538F92" />
    <path d="M16.7165 14.6707H15.002V16.3852H16.7165V14.6707Z" fill="#538F92" />
    <path d="M18.4313 14.6707H16.7168V16.3852H18.4313V14.6707Z" fill="#538F92" />
    <path d="M20.1462 14.6707H18.4316V16.3852H20.1462V14.6707Z" fill="#71AD99" />
    <path d="M21.861 14.6707H20.1465V16.3852H21.861V14.6707Z" fill="#3C5077" />
    <path d="M8.14619 16.3853H6.43164V18.0998H8.14619V16.3853Z" fill="#3C5077" />
    <path d="M9.85908 16.3853H8.14453V18.0998H9.85908V16.3853Z" fill="#3C5077" />
    <path d="M11.5739 16.3853H9.85938V18.0998H11.5739V16.3853Z" fill="#71AD99" />
    <path d="M13.2888 16.3853H11.5742V18.0998H13.2888V16.3853Z" fill="#71AD99" />
    <path d="M15.0036 16.3853H13.2891V18.0998H15.0036V16.3853Z" fill="#538F92" />
    <path d="M16.7165 16.3853H15.002V18.0998H16.7165V16.3853Z" fill="#538F92" />
    <path d="M18.4313 16.3853H16.7168V18.0998H18.4313V16.3853Z" fill="#71AD99" />
    <path d="M20.1462 16.3853H18.4316V18.0998H20.1462V16.3853Z" fill="#3C5077" />
    <path d="M23.5739 16.3853H21.8594V18.0998H23.5739V16.3853Z" fill="#3C5077" />
    <path d="M25.2888 16.3853H23.5742V18.0998H25.2888V16.3853Z" fill="#3C5077" />
    <path d="M27.0036 16.3853H25.2891V18.0998H27.0036V16.3853Z" fill="#3C5077" />
    <path d="M11.5739 18.0994H9.85938V19.8139H11.5739V18.0994Z" fill="#3C5077" />
    <path d="M13.2888 18.0994H11.5742V19.8139H13.2888V18.0994Z" fill="#3C5077" />
    <path d="M15.0036 18.0994H13.2891V19.8139H15.0036V18.0994Z" fill="#3C5077" />
    <path d="M16.7165 18.0994H15.002V19.8139H16.7165V18.0994Z" fill="#3C5077" />
    <path d="M18.4313 18.0994H16.7168V19.8139H18.4313V18.0994Z" fill="#3C5077" />
    <path d="M21.861 18.0994H20.1465V19.8139H21.861V18.0994Z" fill="#3C5077" />
    <path d="M23.5739 18.0994H21.8594V19.8139H23.5739V18.0994Z" fill="#FAFFB1" />
    <path d="M25.2888 18.0994H23.5742V19.8139H25.2888V18.0994Z" fill="#98CB9F" />
    <path d="M27.0036 18.0994H25.2891V19.8139H27.0036V18.0994Z" fill="#3C5077" />
    <path d="M8.14619 19.8137H6.43164V21.5283H8.14619V19.8137Z" fill="#3C5077" />
    <path d="M9.85908 19.8137H8.14453V21.5283H9.85908V19.8137Z" fill="#3C5077" />
    <path d="M20.1462 19.8137H18.4316V21.5283H20.1462V19.8137Z" fill="#3C5077" />
    <path d="M21.861 19.8137H20.1465V21.5283H21.861V19.8137Z" fill="#98CB9F" />
    <path d="M23.5739 19.8137H21.8594V21.5283H23.5739V19.8137Z" fill="#98CB9F" />
    <path d="M25.2888 19.8137H23.5742V21.5283H25.2888V19.8137Z" fill="#3C5077" />
    <path d="M8.14619 21.5278H6.43164V23.2424H8.14619V21.5278Z" fill="#3C5077" />
    <path d="M9.85908 21.5278H8.14453V23.2424H9.85908V21.5278Z" fill="#98CB9F" />
    <path d="M11.5739 21.5278H9.85938V23.2424H11.5739V21.5278Z" fill="#3C5077" />
    <path d="M13.2888 21.5278H11.5742V23.2424H13.2888V21.5278Z" fill="#3C5077" />
    <path d="M15.0036 21.5278H13.2891V23.2424H15.0036V21.5278Z" fill="#3C5077" />
    <path d="M16.7165 21.5278H15.002V23.2424H16.7165V21.5278Z" fill="#3C5077" />
    <path d="M20.1462 21.5278H18.4316V23.2424H20.1462V21.5278Z" fill="#3C5077" />
    <path d="M21.861 21.5278H20.1465V23.2424H21.861V21.5278Z" fill="#3C5077" />
    <path d="M23.5739 21.5278H21.8594V23.2424H23.5739V21.5278Z" fill="#3C5077" />
    <path d="M8.14619 23.2424H6.43164V24.957H8.14619V23.2424Z" fill="#3C5077" />
    <path d="M9.85908 23.2424H8.14453V24.957H9.85908V23.2424Z" fill="#98CB9F" />
    <path d="M11.5739 23.2424H9.85938V24.957H11.5739V23.2424Z" fill="#FAFFB1" />
    <path d="M13.2888 23.2424H11.5742V24.957H13.2888V23.2424Z" fill="#FAFFB1" />
    <path d="M15.0036 23.2424H13.2891V24.957H15.0036V23.2424Z" fill="#C7E5A6" />
    <path d="M16.7165 23.2424H15.002V24.957H16.7165V23.2424Z" fill="#71AD99" />
    <path d="M18.4313 23.2424H16.7168V24.957H18.4313V23.2424Z" fill="#3C5077" />
    <path d="M9.85908 24.9565H8.14453V26.6711H9.85908V24.9565Z" fill="#3C5077" />
    <path d="M11.5739 24.9565H9.85938V26.6711H11.5739V24.9565Z" fill="#98CB9F" />
    <path d="M13.2888 24.9565H11.5742V26.6711H13.2888V24.9565Z" fill="#98CB9F" />
    <path d="M15.0036 24.9565H13.2891V26.6711H15.0036V24.9565Z" fill="#71AD99" />
    <path d="M16.7165 24.9565H15.002V26.6711H16.7165V24.9565Z" fill="#71AD99" />
    <path d="M18.4313 24.9565H16.7168V26.6711H18.4313V24.9565Z" fill="#71AD99" />
    <path d="M20.1462 24.9565H18.4316V26.6711H20.1462V24.9565Z" fill="#3C5077" />
    <path d="M11.5739 26.6709H9.85938V28.3854H11.5739V26.6709Z" fill="#3C5077" />
    <path d="M13.2888 26.6709H11.5742V28.3854H13.2888V26.6709Z" fill="#3C5077" />
    <path d="M15.0036 26.6709H13.2891V28.3854H15.0036V26.6709Z" fill="#3C5077" />
    <path d="M16.7165 26.6709H15.002V28.3854H16.7165V26.6709Z" fill="#3C5077" />
    <path d="M18.4313 26.6709H16.7168V28.3854H18.4313V26.6709Z" fill="#3C5077" />
    <path d="M20.1462 26.6709H18.4316V28.3854H20.1462V26.6709Z" fill="#3C5077" />
  </g>
  <defs>
    <clipPath id="clip0_450_89953">
      <rect width="22.286" height="24" fill="white" transform="translate(4.7168 4.38501)" />
    </clipPath>
  </defs>
</svg>