<svg width="32" height="32" viewBox="0 0 32 32" fill="none" xmlns="http://www.w3.org/2000/svg">
  <g clip-path="url(#clip0_450_80812)">
    <path d="M20.853 4H19.1387V5.71435H20.853V4Z" fill="#6B001E" />
    <path d="M22.5698 4H20.8555V5.71435H22.5698V4Z" fill="#6B001E" />
    <path d="M17.4252 5.71436H15.7109V7.4287H17.4252V5.71436Z" fill="#6B001E" />
    <path d="M19.1401 5.71436H17.4258V7.4287H19.1401V5.71436Z" fill="#6B001E" />
    <path d="M20.853 5.71436H19.1387V7.4287H20.853V5.71436Z" fill="#F7EFA2" />
    <path d="M22.5698 5.71436H20.8555V7.4287H22.5698V5.71436Z" fill="#E0A828" />
    <path d="M24.2827 5.71436H22.5684V7.4287H24.2827V5.71436Z" fill="#6B001E" />
    <path d="M13.9975 7.42871H12.2832V9.14306H13.9975V7.42871Z" fill="#6B001E" />
    <path d="M15.7124 7.42871H13.998V9.14306H15.7124V7.42871Z" fill="#6B001E" />
    <path d="M17.4252 7.42871H15.7109V9.14306H17.4252V7.42871Z" fill="#E0A828" />
    <path d="M19.1401 7.42871H17.4258V9.14306H19.1401V7.42871Z" fill="#ECD15D" />
    <path d="M20.853 7.42871H19.1387V9.14306H20.853V7.42871Z" fill="#ECD15D" />
    <path d="M22.5698 7.42871H20.8555V9.14306H22.5698V7.42871Z" fill="#F7EFA2" />
    <path d="M24.2827 7.42871H22.5684V9.14306H24.2827V7.42871Z" fill="#E0A828" />
    <path d="M25.9975 7.42871H24.2832V9.14306H25.9975V7.42871Z" fill="#6B001E" />
    <path d="M10.5698 9.14258H8.85547V10.8569H10.5698V9.14258Z" fill="#6B001E" />
    <path d="M12.2827 9.14258H10.5684V10.8569H12.2827V9.14258Z" fill="#6B001E" />
    <path d="M13.9975 9.14258H12.2832V10.8569H13.9975V9.14258Z" fill="#E0A828" />
    <path d="M15.7124 9.14258H13.998V10.8569H15.7124V9.14258Z" fill="#ECD15D" />
    <path d="M17.4252 9.14258H15.7109V10.8569H17.4252V9.14258Z" fill="#ECD15D" />
    <path d="M19.1401 9.14258H17.4258V10.8569H19.1401V9.14258Z" fill="#ECD15D" />
    <path d="M20.853 9.14258H19.1387V10.8569H20.853V9.14258Z" fill="#ECD15D" />
    <path d="M22.5698 9.14258H20.8555V10.8569H22.5698V9.14258Z" fill="#ECD15D" />
    <path d="M24.2827 9.14258H22.5684V10.8569H24.2827V9.14258Z" fill="#ECD15D" />
    <path d="M25.9975 9.14258H24.2832V10.8569H25.9975V9.14258Z" fill="#FAFFC8" />
    <path d="M27.7124 9.14258H25.998V10.8569H27.7124V9.14258Z" fill="#6B001E" />
    <path d="M7.14009 10.8569H5.42578V12.5713H7.14009V10.8569Z" fill="#6B001E" />
    <path d="M8.85494 10.8569H7.14062V12.5713H8.85494V10.8569Z" fill="#6B001E" />
    <path d="M10.5698 10.8569H8.85547V12.5713H10.5698V10.8569Z" fill="#E0A828" />
    <path d="M12.2827 10.8569H10.5684V12.5713H12.2827V10.8569Z" fill="#ECD15D" />
    <path d="M13.9975 10.8569H12.2832V12.5713H13.9975V10.8569Z" fill="#E0A828" />
    <path d="M15.7124 10.8569H13.998V12.5713H15.7124V10.8569Z" fill="#E0A828" />
    <path d="M17.4252 10.8569H15.7109V12.5713H17.4252V10.8569Z" fill="#E0A828" />
    <path d="M19.1401 10.8569H17.4258V12.5713H19.1401V10.8569Z" fill="#E0A828" />
    <path d="M20.853 10.8569H19.1387V12.5713H20.853V10.8569Z" fill="#ECD15D" />
    <path d="M22.5698 10.8569H20.8555V12.5713H22.5698V10.8569Z" fill="#ECD15D" />
    <path d="M24.2827 10.8569H22.5684V12.5713H24.2827V10.8569Z" fill="#F7EFA2" />
    <path d="M25.9975 10.8569H24.2832V12.5713H25.9975V10.8569Z" fill="#FAFFC8" />
    <path d="M27.7124 10.8569H25.998V12.5713H27.7124V10.8569Z" fill="#FAFFC8" />
    <path d="M29.4253 10.8569H27.7109V12.5713H29.4253V10.8569Z" fill="#6B001E" />
    <path d="M3.71236 12.5713H1.99805V14.2856H3.71236V12.5713Z" fill="#6B001E" />
    <path d="M5.4272 12.5713H3.71289V14.2856H5.4272V12.5713Z" fill="#6B001E" />
    <path d="M7.14009 12.5713H5.42578V14.2856H7.14009V12.5713Z" fill="#ECD15D" />
    <path d="M8.85494 12.5713H7.14062V14.2856H8.85494V12.5713Z" fill="#ECD15D" />
    <path d="M10.5698 12.5713H8.85547V14.2856H10.5698V12.5713Z" fill="#E0A828" />
    <path d="M12.2827 12.5713H10.5684V14.2856H12.2827V12.5713Z" fill="#E0A828" />
    <path d="M13.9975 12.5713H12.2832V14.2856H13.9975V12.5713Z" fill="#E0A828" />
    <path d="M15.7124 12.5713H13.998V14.2856H15.7124V12.5713Z" fill="#E0A828" />
    <path d="M17.4252 12.5713H15.7109V14.2856H17.4252V12.5713Z" fill="#E0A828" />
    <path d="M19.1401 12.5713H17.4258V14.2856H19.1401V12.5713Z" fill="#E0A828" />
    <path d="M20.853 12.5713H19.1387V14.2856H20.853V12.5713Z" fill="#E0A828" />
    <path d="M22.5698 12.5713H20.8555V14.2856H22.5698V12.5713Z" fill="#F7EFA2" />
    <path d="M24.2827 12.5713H22.5684V14.2856H24.2827V12.5713Z" fill="#FAFFC8" />
    <path d="M25.9975 12.5713H24.2832V14.2856H25.9975V12.5713Z" fill="#FAFFC8" />
    <path d="M27.7124 12.5713H25.998V14.2856H27.7124V12.5713Z" fill="#CF6D19" />
    <path d="M29.4253 12.5713H27.7109V14.2856H29.4253V12.5713Z" fill="#6B001E" />
    <path d="M3.71236 14.2856H1.99805V16H3.71236V14.2856Z" fill="#6B001E" />
    <path d="M5.4272 14.2856H3.71289V16H5.4272V14.2856Z" fill="#CF6D19" />
    <path d="M7.14009 14.2856H5.42578V16H7.14009V14.2856Z" fill="#F7EFA2" />
    <path d="M8.85494 14.2856H7.14062V16H8.85494V14.2856Z" fill="#ECD15D" />
    <path d="M10.5698 14.2856H8.85547V16H10.5698V14.2856Z" fill="#E0A828" />
    <path d="M12.2827 14.2856H10.5684V16H12.2827V14.2856Z" fill="#E0A828" />
    <path d="M13.9975 14.2856H12.2832V16H13.9975V14.2856Z" fill="#E0A828" />
    <path d="M15.7124 14.2856H13.998V16H15.7124V14.2856Z" fill="#E0A828" />
    <path d="M17.4252 14.2856H15.7109V16H17.4252V14.2856Z" fill="#E0A828" />
    <path d="M19.1401 14.2856H17.4258V16H19.1401V14.2856Z" fill="#E0A828" />
    <path d="M20.853 14.2856H19.1387V16H20.853V14.2856Z" fill="#F7EFA2" />
    <path d="M22.5698 14.2856H20.8555V16H22.5698V14.2856Z" fill="#FAFFC8" />
    <path d="M24.2827 14.2856H22.5684V16H24.2827V14.2856Z" fill="#CF6D19" />
    <path d="M25.9975 14.2856H24.2832V16H25.9975V14.2856Z" fill="#CF6D19" />
    <path d="M27.7124 14.2856H25.998V16H27.7124V14.2856Z" fill="#CF6D19" />
    <path d="M29.4253 14.2856H27.7109V16H29.4253V14.2856Z" fill="#6B001E" />
    <path d="M3.71236 16H1.99805V17.7143H3.71236V16Z" fill="#6B001E" />
    <path d="M5.4272 16H3.71289V17.7143H5.4272V16Z" fill="#CF6D19" />
    <path d="M7.14009 16H5.42578V17.7143H7.14009V16Z" fill="#CF6D19" />
    <path d="M8.85494 16H7.14062V17.7143H8.85494V16Z" fill="#ECD15D" />
    <path d="M10.5698 16H8.85547V17.7143H10.5698V16Z" fill="#ECD15D" />
    <path d="M12.2827 16H10.5684V17.7143H12.2827V16Z" fill="#E0A828" />
    <path d="M13.9975 16H12.2832V17.7143H13.9975V16Z" fill="#E0A828" />
    <path d="M15.7124 16H13.998V17.7143H15.7124V16Z" fill="#E0A828" />
    <path d="M17.4252 16H15.7109V17.7143H17.4252V16Z" fill="#E0A828" />
    <path d="M19.1401 16H17.4258V17.7143H19.1401V16Z" fill="#ECD15D" />
    <path d="M20.853 16H19.1387V17.7143H20.853V16Z" fill="#CF6D19" />
    <path d="M22.5698 16H20.8555V17.7143H22.5698V16Z" fill="#CF6D19" />
    <path d="M24.2827 16H22.5684V17.7143H24.2827V16Z" fill="#E0A828" />
    <path d="M25.9975 16H24.2832V17.7143H25.9975V16Z" fill="#E0A828" />
    <path d="M27.7124 16H25.998V17.7143H27.7124V16Z" fill="#CF6D19" />
    <path d="M29.4253 16H27.7109V17.7143H29.4253V16Z" fill="#6B001E" />
    <path d="M3.71236 17.7144H1.99805V19.4287H3.71236V17.7144Z" fill="#6B001E" />
    <path d="M5.4272 17.7144H3.71289V19.4287H5.4272V17.7144Z" fill="#CF6D19" />
    <path d="M7.14009 17.7144H5.42578V19.4287H7.14009V17.7144Z" fill="#E0A828" />
    <path d="M8.85494 17.7144H7.14062V19.4287H8.85494V17.7144Z" fill="#CF6D19" />
    <path d="M10.5698 17.7144H8.85547V19.4287H10.5698V17.7144Z" fill="#FAFFC8" />
    <path d="M12.2827 17.7144H10.5684V19.4287H12.2827V17.7144Z" fill="#FAFFC8" />
    <path d="M13.9975 17.7144H12.2832V19.4287H13.9975V17.7144Z" fill="#F7EFA2" />
    <path d="M15.7124 17.7144H13.998V19.4287H15.7124V17.7144Z" fill="#ECD15D" />
    <path d="M17.4252 17.7144H15.7109V19.4287H17.4252V17.7144Z" fill="#CF6D19" />
    <path d="M19.1401 17.7144H17.4258V19.4287H19.1401V17.7144Z" fill="#CF6D19" />
    <path d="M20.853 17.7144H19.1387V19.4287H20.853V17.7144Z" fill="#E0A828" />
    <path d="M22.5698 17.7144H20.8555V19.4287H22.5698V17.7144Z" fill="#E0A828" />
    <path d="M24.2827 17.7144H22.5684V19.4287H24.2827V17.7144Z" fill="#E0A828" />
    <path d="M25.9975 17.7144H24.2832V19.4287H25.9975V17.7144Z" fill="#CF6D19" />
    <path d="M27.7124 17.7144H25.998V19.4287H27.7124V17.7144Z" fill="#6B001E" />
    <path d="M29.4253 17.7144H27.7109V19.4287H29.4253V17.7144Z" fill="#6B001E" />
    <path d="M3.71236 19.4282H1.99805V21.1426H3.71236V19.4282Z" fill="#6B001E" />
    <path d="M5.4272 19.4282H3.71289V21.1426H5.4272V19.4282Z" fill="#E0A828" />
    <path d="M7.14009 19.4282H5.42578V21.1426H7.14009V19.4282Z" fill="#E0A828" />
    <path d="M8.85494 19.4282H7.14062V21.1426H8.85494V19.4282Z" fill="#E0A828" />
    <path d="M10.5698 19.4282H8.85547V21.1426H10.5698V19.4282Z" fill="#ECD15D" />
    <path d="M12.2827 19.4282H10.5684V21.1426H12.2827V19.4282Z" fill="#FAFFC8" />
    <path d="M13.9975 19.4282H12.2832V21.1426H13.9975V19.4282Z" fill="#FAFFC8" />
    <path d="M15.7124 19.4282H13.998V21.1426H15.7124V19.4282Z" fill="#CF6D19" />
    <path d="M17.4252 19.4282H15.7109V21.1426H17.4252V19.4282Z" fill="#E0A828" />
    <path d="M19.1401 19.4282H17.4258V21.1426H19.1401V19.4282Z" fill="#E0A828" />
    <path d="M20.853 19.4282H19.1387V21.1426H20.853V19.4282Z" fill="#E0A828" />
    <path d="M22.5698 19.4282H20.8555V21.1426H22.5698V19.4282Z" fill="#ECD15D" />
    <path d="M24.2827 19.4282H22.5684V21.1426H24.2827V19.4282Z" fill="#6B001E" />
    <path d="M25.9975 19.4282H24.2832V21.1426H25.9975V19.4282Z" fill="#6B001E" />
    <path d="M5.4272 21.1426H3.71289V22.8569H5.4272V21.1426Z" fill="#6B001E" />
    <path d="M7.14009 21.1426H5.42578V22.8569H7.14009V21.1426Z" fill="#ECD15D" />
    <path d="M8.85494 21.1426H7.14062V22.8569H8.85494V21.1426Z" fill="#E0A828" />
    <path d="M10.5698 21.1426H8.85547V22.8569H10.5698V21.1426Z" fill="#E0A828" />
    <path d="M12.2827 21.1426H10.5684V22.8569H12.2827V21.1426Z" fill="#FAFFC8" />
    <path d="M13.9975 21.1426H12.2832V22.8569H13.9975V21.1426Z" fill="#ECD15D" />
    <path d="M15.7124 21.1426H13.998V22.8569H15.7124V21.1426Z" fill="#E0A828" />
    <path d="M17.4252 21.1426H15.7109V22.8569H17.4252V21.1426Z" fill="#ECD15D" />
    <path d="M19.1401 21.1426H17.4258V22.8569H19.1401V21.1426Z" fill="#ECD15D" />
    <path d="M20.853 21.1426H19.1387V22.8569H20.853V21.1426Z" fill="#6B001E" />
    <path d="M22.5698 21.1426H20.8555V22.8569H22.5698V21.1426Z" fill="#6B001E" />
    <path d="M7.14009 22.8569H5.42578V24.5713H7.14009V22.8569Z" fill="#6B001E" />
    <path d="M8.85494 22.8569H7.14062V24.5713H8.85494V22.8569Z" fill="#ECD15D" />
    <path d="M10.5698 22.8569H8.85547V24.5713H10.5698V22.8569Z" fill="#E0A828" />
    <path d="M12.2827 22.8569H10.5684V24.5713H12.2827V22.8569Z" fill="#ECD15D" />
    <path d="M13.9975 22.8569H12.2832V24.5713H13.9975V22.8569Z" fill="#ECD15D" />
    <path d="M15.7124 22.8569H13.998V24.5713H15.7124V22.8569Z" fill="#ECD15D" />
    <path d="M17.4252 22.8569H15.7109V24.5713H17.4252V22.8569Z" fill="#6B001E" />
    <path d="M19.1401 22.8569H17.4258V24.5713H19.1401V22.8569Z" fill="#6B001E" />
    <path d="M8.85494 24.5713H7.14062V26.2856H8.85494V24.5713Z" fill="#6B001E" />
    <path d="M10.5698 24.5713H8.85547V26.2856H10.5698V24.5713Z" fill="#F7EFA2" />
    <path d="M12.2827 24.5713H10.5684V26.2856H12.2827V24.5713Z" fill="#F7EFA2" />
    <path d="M13.9975 24.5713H12.2832V26.2856H13.9975V24.5713Z" fill="#6B001E" />
    <path d="M15.7124 24.5713H13.998V26.2856H15.7124V24.5713Z" fill="#6B001E" />
    <path d="M10.5698 26.2856H8.85547V28H10.5698V26.2856Z" fill="#6B001E" />
    <path d="M12.2827 26.2856H10.5684V28H12.2827V26.2856Z" fill="#6B001E" />
  </g>
  <defs>
    <clipPath id="clip0_450_80812">
      <rect width="27.4277" height="24" fill="white" transform="translate(2 4)" />
    </clipPath>
  </defs>
</svg>