<svg width="32" height="32" viewBox="0 0 32 32" fill="none" xmlns="http://www.w3.org/2000/svg">
  <g clip-path="url(#clip0_450_89647)">
    <path d="M12.3851 4.33008H10.3848V6.33038H12.3851V4.33008Z" fill="#5C0074" />
    <path d="M14.3851 4.33008H12.3848V6.33038H14.3851V4.33008Z" fill="#5C0074" />
    <path d="M16.3851 4.33008H14.3848V6.33038H16.3851V4.33008Z" fill="#5C0074" />
    <path d="M18.3851 4.33008H16.3848V6.33038H18.3851V4.33008Z" fill="#5C0074" />
    <path d="M8.38507 6.33032H6.38477V8.33062H8.38507V6.33032Z" fill="#5C0074" />
    <path d="M10.3851 6.33032H8.38477V8.33062H10.3851V6.33032Z" fill="#5C0074" />
    <path d="M12.3851 6.33032H10.3848V8.33062H12.3851V6.33032Z" fill="#91A1C6" />
    <path d="M14.3851 6.33032H12.3848V8.33062H14.3851V6.33032Z" fill="#91A1C6" />
    <path d="M16.3851 6.33032H14.3848V8.33062H16.3851V6.33032Z" fill="#91A1C6" />
    <path d="M18.3851 6.33032H16.3848V8.33062H18.3851V6.33032Z" fill="#91A1C6" />
    <path d="M20.3851 6.33032H18.3848V8.33062H20.3851V6.33032Z" fill="#5C0074" />
    <path d="M22.3851 6.33032H20.3848V8.33062H22.3851V6.33032Z" fill="#5C0074" />
    <path d="M24.3851 6.33032H22.3848V8.33062H24.3851V6.33032Z" fill="#5C0074" />
    <path d="M26.3851 6.33032H24.3848V8.33062H26.3851V6.33032Z" fill="#5C0074" />
    <path d="M6.38507 8.33008H4.38477V10.3304H6.38507V8.33008Z" fill="#5C0074" />
    <path d="M8.38507 8.33008H6.38477V10.3304H8.38507V8.33008Z" fill="#91A1C6" />
    <path d="M10.3851 8.33008H8.38477V10.3304H10.3851V8.33008Z" fill="#91A1C6" />
    <path d="M12.3851 8.33008H10.3848V10.3304H12.3851V8.33008Z" fill="#AEC4DA" />
    <path d="M14.3851 8.33008H12.3848V10.3304H14.3851V8.33008Z" fill="#AEC4DA" />
    <path d="M16.3851 8.33008H14.3848V10.3304H16.3851V8.33008Z" fill="#AEC4DA" />
    <path d="M18.3851 8.33008H16.3848V10.3304H18.3851V8.33008Z" fill="#AEC4DA" />
    <path d="M20.3851 8.33008H18.3848V10.3304H20.3851V8.33008Z" fill="#AEC4DA" />
    <path d="M22.3851 8.33008H20.3848V10.3304H22.3851V8.33008Z" fill="#CEE0E9" />
    <path d="M24.3851 8.33008H22.3848V10.3304H24.3851V8.33008Z" fill="#694F91" />
    <path d="M26.3851 8.33008H24.3848V10.3304H26.3851V8.33008Z" fill="#7B7AAE" />
    <path d="M28.3851 8.33008H26.3848V10.3304H28.3851V8.33008Z" fill="#5C0074" />
    <path d="M4.38507 10.3303H2.38477V12.3306H4.38507V10.3303Z" fill="#5C0074" />
    <path d="M6.38507 10.3303H4.38477V12.3306H6.38507V10.3303Z" fill="#91A1C6" />
    <path d="M8.38507 10.3303H6.38477V12.3306H8.38507V10.3303Z" fill="#AEC4DA" />
    <path d="M10.3851 10.3303H8.38477V12.3306H10.3851V10.3303Z" fill="#AEC4DA" />
    <path d="M12.3851 10.3303H10.3848V12.3306H12.3851V10.3303Z" fill="#AEC4DA" />
    <path d="M14.3851 10.3303H12.3848V12.3306H14.3851V10.3303Z" fill="#CEE0E9" />
    <path d="M16.3851 10.3303H14.3848V12.3306H16.3851V10.3303Z" fill="#CEE0E9" />
    <path d="M18.3851 10.3303H16.3848V12.3306H18.3851V10.3303Z" fill="#AEC4DA" />
    <path d="M20.3851 10.3303H18.3848V12.3306H20.3851V10.3303Z" fill="#AEC4DA" />
    <path d="M22.3851 10.3303H20.3848V12.3306H22.3851V10.3303Z" fill="#CEE0E9" />
    <path d="M24.3851 10.3303H22.3848V12.3306H24.3851V10.3303Z" fill="#694F91" />
    <path d="M26.3851 10.3303H24.3848V12.3306H26.3851V10.3303Z" fill="#7B7AAE" />
    <path d="M28.3851 10.3303H26.3848V12.3306H28.3851V10.3303Z" fill="#5C0074" />
    <path d="M4.38507 12.3301H2.38477V14.3304H4.38507V12.3301Z" fill="#5C0074" />
    <path d="M6.38507 12.3301H4.38477V14.3304H6.38507V12.3301Z" fill="#CEE0E9" />
    <path d="M8.38507 12.3301H6.38477V14.3304H8.38507V12.3301Z" fill="#AEC4DA" />
    <path d="M10.3851 12.3301H8.38477V14.3304H10.3851V12.3301Z" fill="#CEE0E9" />
    <path d="M12.3851 12.3301H10.3848V14.3304H12.3851V12.3301Z" fill="#AEC4DA" />
    <path d="M14.3851 12.3301H12.3848V14.3304H14.3851V12.3301Z" fill="#AEC4DA" />
    <path d="M16.3851 12.3301H14.3848V14.3304H16.3851V12.3301Z" fill="#AEC4DA" />
    <path d="M18.3851 12.3301H16.3848V14.3304H18.3851V12.3301Z" fill="#AEC4DA" />
    <path d="M20.3851 12.3301H18.3848V14.3304H20.3851V12.3301Z" fill="#CEE0E9" />
    <path d="M22.3851 12.3301H20.3848V14.3304H22.3851V12.3301Z" fill="#694F91" />
    <path d="M24.3851 12.3301H22.3848V14.3304H24.3851V12.3301Z" fill="#7B7AAE" />
    <path d="M26.3851 12.3301H24.3848V14.3304H26.3851V12.3301Z" fill="#5C0074" />
    <path d="M28.3851 12.3301H26.3848V14.3304H28.3851V12.3301Z" fill="#5C0074" />
    <path d="M4.38507 14.3303H2.38477V16.3306H4.38507V14.3303Z" fill="#5C0074" />
    <path d="M6.38507 14.3303H4.38477V16.3306H6.38507V14.3303Z" fill="#694F91" />
    <path d="M8.38507 14.3303H6.38477V16.3306H8.38507V14.3303Z" fill="#CEE0E9" />
    <path d="M10.3851 14.3303H8.38477V16.3306H10.3851V14.3303Z" fill="#AEC4DA" />
    <path d="M12.3851 14.3303H10.3848V16.3306H12.3851V14.3303Z" fill="#AEC4DA" />
    <path d="M14.3851 14.3303H12.3848V16.3306H14.3851V14.3303Z" fill="#AEC4DA" />
    <path d="M16.3851 14.3303H14.3848V16.3306H16.3851V14.3303Z" fill="#CEE0E9" />
    <path d="M18.3851 14.3303H16.3848V16.3306H18.3851V14.3303Z" fill="#CEE0E9" />
    <path d="M20.3851 14.3303H18.3848V16.3306H20.3851V14.3303Z" fill="#694F91" />
    <path d="M22.3851 14.3303H20.3848V16.3306H22.3851V14.3303Z" fill="#5C0074" />
    <path d="M24.3851 14.3303H22.3848V16.3306H24.3851V14.3303Z" fill="#5C0074" />
    <path d="M4.38507 16.3301H2.38477V18.3304H4.38507V16.3301Z" fill="#5C0074" />
    <path d="M6.38507 16.3301H4.38477V18.3304H6.38507V16.3301Z" fill="#91A1C6" />
    <path d="M8.38507 16.3301H6.38477V18.3304H8.38507V16.3301Z" fill="#694F91" />
    <path d="M10.3851 16.3301H8.38477V18.3304H10.3851V16.3301Z" fill="#CEE0E9" />
    <path d="M12.3851 16.3301H10.3848V18.3304H12.3851V16.3301Z" fill="#F0F0F0" />
    <path d="M14.3851 16.3301H12.3848V18.3304H14.3851V16.3301Z" fill="#F0F0F0" />
    <path d="M16.3851 16.3301H14.3848V18.3304H16.3851V16.3301Z" fill="#694F91" />
    <path d="M18.3851 16.3301H16.3848V18.3304H18.3851V16.3301Z" fill="#694F91" />
    <path d="M20.3851 16.3301H18.3848V18.3304H20.3851V16.3301Z" fill="#5C0074" />
    <path d="M26.3851 16.3301H24.3848V18.3304H26.3851V16.3301Z" fill="#5C0074" />
    <path d="M28.3851 16.3301H26.3848V18.3304H28.3851V16.3301Z" fill="#5C0074" />
    <path d="M30.3851 16.3301H28.3848V18.3304H30.3851V16.3301Z" fill="#5C0074" />
    <path d="M6.38507 18.3303H4.38477V20.3306H6.38507V18.3303Z" fill="#5C0074" />
    <path d="M8.38507 18.3303H6.38477V20.3306H8.38507V18.3303Z" fill="#7B7AAE" />
    <path d="M10.3851 18.3303H8.38477V20.3306H10.3851V18.3303Z" fill="#694F91" />
    <path d="M12.3851 18.3303H10.3848V20.3306H12.3851V18.3303Z" fill="#694F91" />
    <path d="M14.3851 18.3303H12.3848V20.3306H14.3851V18.3303Z" fill="#694F91" />
    <path d="M16.3851 18.3303H14.3848V20.3306H16.3851V18.3303Z" fill="#7B7AAE" />
    <path d="M18.3851 18.3303H16.3848V20.3306H18.3851V18.3303Z" fill="#5C0074" />
    <path d="M22.3851 18.3303H20.3848V20.3306H22.3851V18.3303Z" fill="#5C0074" />
    <path d="M24.3851 18.3303H22.3848V20.3306H24.3851V18.3303Z" fill="#5C0074" />
    <path d="M26.3851 18.3303H24.3848V20.3306H26.3851V18.3303Z" fill="#CEE0E9" />
    <path d="M28.3851 18.3303H26.3848V20.3306H28.3851V18.3303Z" fill="#AEC4DA" />
    <path d="M30.3851 18.3303H28.3848V20.3306H30.3851V18.3303Z" fill="#5C0074" />
    <path d="M6.38507 20.3301H4.38477V22.3304H6.38507V20.3301Z" fill="#5C0074" />
    <path d="M8.38507 20.3301H6.38477V22.3304H8.38507V20.3301Z" fill="#7B7AAE" />
    <path d="M10.3851 20.3301H8.38477V22.3304H10.3851V20.3301Z" fill="#7B7AAE" />
    <path d="M12.3851 20.3301H10.3848V22.3304H12.3851V20.3301Z" fill="#7B7AAE" />
    <path d="M14.3851 20.3301H12.3848V22.3304H14.3851V20.3301Z" fill="#91A1C6" />
    <path d="M16.3851 20.3301H14.3848V22.3304H16.3851V20.3301Z" fill="#5C0074" />
    <path d="M20.3851 20.3301H18.3848V22.3304H20.3851V20.3301Z" fill="#5C0074" />
    <path d="M22.3851 20.3301H20.3848V22.3304H22.3851V20.3301Z" fill="#7B7AAE" />
    <path d="M24.3851 20.3301H22.3848V22.3304H24.3851V20.3301Z" fill="#AEC4DA" />
    <path d="M26.3851 20.3301H24.3848V22.3304H26.3851V20.3301Z" fill="#91A1C6" />
    <path d="M28.3851 20.3301H26.3848V22.3304H28.3851V20.3301Z" fill="#91A1C6" />
    <path d="M30.3851 20.3301H28.3848V22.3304H30.3851V20.3301Z" fill="#5C0074" />
    <path d="M8.38507 22.3303H6.38477V24.3306H8.38507V22.3303Z" fill="#5C0074" />
    <path d="M10.3851 22.3303H8.38477V24.3306H10.3851V22.3303Z" fill="#7B7AAE" />
    <path d="M12.3851 22.3303H10.3848V24.3306H12.3851V22.3303Z" fill="#91A1C6" />
    <path d="M14.3851 22.3303H12.3848V24.3306H14.3851V22.3303Z" fill="#91A1C6" />
    <path d="M16.3851 22.3303H14.3848V24.3306H16.3851V22.3303Z" fill="#5C0074" />
    <path d="M20.3851 22.3303H18.3848V24.3306H20.3851V22.3303Z" fill="#5C0074" />
    <path d="M22.3851 22.3303H20.3848V24.3306H22.3851V22.3303Z" fill="#694F91" />
    <path d="M24.3851 22.3303H22.3848V24.3306H24.3851V22.3303Z" fill="#7B7AAE" />
    <path d="M26.3851 22.3303H24.3848V24.3306H26.3851V22.3303Z" fill="#7B7AAE" />
    <path d="M28.3851 22.3303H26.3848V24.3306H28.3851V22.3303Z" fill="#5C0074" />
    <path d="M10.3851 24.3301H8.38477V26.3304H10.3851V24.3301Z" fill="#5C0074" />
    <path d="M12.3851 24.3301H10.3848V26.3304H12.3851V24.3301Z" fill="#91A1C6" />
    <path d="M14.3851 24.3301H12.3848V26.3304H14.3851V24.3301Z" fill="#7B7AAE" />
    <path d="M16.3851 24.3301H14.3848V26.3304H16.3851V24.3301Z" fill="#5C0074" />
    <path d="M22.3851 24.3301H20.3848V26.3304H22.3851V24.3301Z" fill="#5C0074" />
    <path d="M24.3851 24.3301H22.3848V26.3304H24.3851V24.3301Z" fill="#5C0074" />
    <path d="M26.3851 24.3301H24.3848V26.3304H26.3851V24.3301Z" fill="#5C0074" />
    <path d="M12.3851 26.3303H10.3848V28.3306H12.3851V26.3303Z" fill="#5C0074" />
    <path d="M14.3851 26.3303H12.3848V28.3306H14.3851V26.3303Z" fill="#5C0074" />
  </g>
  <defs>
    <clipPath id="clip0_450_89647">
      <rect width="28" height="24" fill="white" transform="translate(2.38477 4.33008)" />
    </clipPath>
  </defs>
</svg>