<svg width="32" height="33" viewBox="0 0 32 33" fill="none" xmlns="http://www.w3.org/2000/svg">
<path d="M14 4H13V5H14V4Z" fill="black"/>
<path d="M13 5H12V6H13V5Z" fill="black"/>
<path d="M14 5H13V6H14V5Z" fill="black"/>
<path d="M15 5H14V6H15V5Z" fill="black"/>
<path d="M12 6H11V7H12V6Z" fill="black"/>
<path d="M13 6H12V7H13V6Z" fill="black"/>
<path d="M14 6H13V7H14V6Z" fill="#263238"/>
<path d="M15 6H14V7H15V6Z" fill="black"/>
<path d="M16 6H15V7H16V6Z" fill="black"/>
<path d="M11 7H10V8H11V7Z" fill="black"/>
<path d="M12 7H11V8H12V7Z" fill="black"/>
<path d="M13 7H12V8H13V7Z" fill="black"/>
<path d="M14 7H13V8H14V7Z" fill="#263238"/>
<path d="M15 7H14V8H15V7Z" fill="#263238"/>
<path d="M16 7H15V8H16V7Z" fill="black"/>
<path d="M17 7H16V8H17V7Z" fill="black"/>
<path d="M10 8H9V9H10V8Z" fill="black"/>
<path d="M11 8H10V9H11V8Z" fill="black"/>
<path d="M12 8H11V9H12V8Z" fill="black"/>
<path d="M13 8H12V9H13V8Z" fill="black"/>
<path d="M14 8H13V9H14V8Z" fill="#263238"/>
<path d="M15 8H14V9H15V8Z" fill="#263238"/>
<path d="M16 8H15V9H16V8Z" fill="#263238"/>
<path d="M17 8H16V9H17V8Z" fill="black"/>
<path d="M18 8H17V9H18V8Z" fill="black"/>
<path d="M9 9H8V10H9V9Z" fill="black"/>
<path d="M10 9H9V10H10V9Z" fill="black"/>
<path d="M11 9H10V10H11V9Z" fill="black"/>
<path d="M12 9H11V10H12V9Z" fill="black"/>
<path d="M13 9H12V10H13V9Z" fill="black"/>
<path d="M14 9H13V10H14V9Z" fill="#263238"/>
<path d="M15 9H14V10H15V9Z" fill="#263238"/>
<path d="M16 9H15V10H16V9Z" fill="#263238"/>
<path d="M17 9H16V10H17V9Z" fill="#263238"/>
<path d="M18 9H17V10H18V9Z" fill="black"/>
<path d="M19 9H18V10H19V9Z" fill="black"/>
<path d="M9 10H8V11H9V10Z" fill="black"/>
<path d="M10 10H9V11H10V10Z" fill="black"/>
<path d="M11 10H10V11H11V10Z" fill="black"/>
<path d="M12 10H11V11H12V10Z" fill="black"/>
<path d="M13 10H12V11H13V10Z" fill="black"/>
<path d="M14 10H13V11H14V10Z" fill="black"/>
<path d="M15 10H14V11H15V10Z" fill="#263238"/>
<path d="M16 10H15V11H16V10Z" fill="#263238"/>
<path d="M17 10H16V11H17V10Z" fill="#263238"/>
<path d="M18 10H17V11H18V10Z" fill="#455A64"/>
<path d="M19 10H18V11H19V10Z" fill="black"/>
<path d="M20 10H19V11H20V10Z" fill="black"/>
<path d="M10 11H9V12H10V11Z" fill="black"/>
<path d="M11 11H10V12H11V11Z" fill="black"/>
<path d="M12 11H11V12H12V11Z" fill="black"/>
<path d="M13 11H12V12H13V11Z" fill="black"/>
<path d="M14 11H13V12H14V11Z" fill="black"/>
<path d="M15 11H14V12H15V11Z" fill="black"/>
<path d="M16 11H15V12H16V11Z" fill="#263238"/>
<path d="M17 11H16V12H17V11Z" fill="#263238"/>
<path d="M18 11H17V12H18V11Z" fill="#455A64"/>
<path d="M19 11H18V12H19V11Z" fill="#455A64"/>
<path d="M20 11H19V12H20V11Z" fill="black"/>
<path d="M21 11H20V12H21V11Z" fill="black"/>
<path d="M11 12H10V13H11V12Z" fill="black"/>
<path d="M12 12H11V13H12V12Z" fill="black"/>
<path d="M13 12H12V13H13V12Z" fill="black"/>
<path d="M14 12H13V13H14V12Z" fill="black"/>
<path d="M15 12H14V13H15V12Z" fill="black"/>
<path d="M16 12H15V13H16V12Z" fill="black"/>
<path d="M17 12H16V13H17V12Z" fill="#263238"/>
<path d="M18 12H17V13H18V12Z" fill="#263238"/>
<path d="M19 12H18V13H19V12Z" fill="#455A64"/>
<path d="M20 12H19V13H20V12Z" fill="#455A64"/>
<path d="M21 12H20V13H21V12Z" fill="black"/>
<path d="M22 12H21V13H22V12Z" fill="black"/>
<path d="M12 13H11V14H12V13Z" fill="black"/>
<path d="M13 13H12V14H13V13Z" fill="black"/>
<path d="M14 13H13V14H14V13Z" fill="black"/>
<path d="M15 13H14V14H15V13Z" fill="black"/>
<path d="M16 13H15V14H16V13Z" fill="black"/>
<path d="M17 13H16V14H17V13Z" fill="#263238"/>
<path d="M18 13H17V14H18V13Z" fill="#263238"/>
<path d="M19 13H18V14H19V13Z" fill="#455A64"/>
<path d="M20 13H19V14H20V13Z" fill="#455A64"/>
<path d="M21 13H20V14H21V13Z" fill="#78909C"/>
<path d="M22 13H21V14H22V13Z" fill="black"/>
<path d="M23 13H22V14H23V13Z" fill="black"/>
<path d="M12 14H11V15H12V14Z" fill="#3E2723"/>
<path d="M13 14H12V15H13V14Z" fill="black"/>
<path d="M14 14H13V15H14V14Z" fill="black"/>
<path d="M15 14H14V15H15V14Z" fill="black"/>
<path d="M16 14H15V15H16V14Z" fill="black"/>
<path d="M17 14H16V15H17V14Z" fill="black"/>
<path d="M18 14H17V15H18V14Z" fill="#263238"/>
<path d="M19 14H18V15H19V14Z" fill="#263238"/>
<path d="M20 14H19V15H20V14Z" fill="#455A64"/>
<path d="M21 14H20V15H21V14Z" fill="#78909C"/>
<path d="M22 14H21V15H22V14Z" fill="#78909C"/>
<path d="M23 14H22V15H23V14Z" fill="black"/>
<path d="M24 14H23V15H24V14Z" fill="black"/>
<path d="M11 15H10V16H11V15Z" fill="#3E2723"/>
<path d="M12 15H11V16H12V15Z" fill="#3E2723"/>
<path d="M13 15H12V16H13V15Z" fill="#4E342E"/>
<path d="M14 15H13V16H14V15Z" fill="black"/>
<path d="M15 15H14V16H15V15Z" fill="black"/>
<path d="M16 15H15V16H16V15Z" fill="black"/>
<path d="M17 15H16V16H17V15Z" fill="black"/>
<path d="M18 15H17V16H18V15Z" fill="black"/>
<path d="M19 15H18V16H19V15Z" fill="#263238"/>
<path d="M20 15H19V16H20V15Z" fill="#263238"/>
<path d="M21 15H20V16H21V15Z" fill="#263238"/>
<path d="M22 15H21V16H22V15Z" fill="black"/>
<path d="M23 15H22V16H23V15Z" fill="black"/>
<path d="M10 16H9V17H10V16Z" fill="#3E2723"/>
<path d="M11 16H10V17H11V16Z" fill="#3E2723"/>
<path d="M12 16H11V17H12V16Z" fill="#4E342E"/>
<path d="M13 16H12V17H13V16Z" fill="#4E342E"/>
<path d="M14 16H13V17H14V16Z" fill="#3E2723"/>
<path d="M15 16H14V17H15V16Z" fill="black"/>
<path d="M16 16H15V17H16V16Z" fill="black"/>
<path d="M17 16H16V17H17V16Z" fill="black"/>
<path d="M18 16H17V17H18V16Z" fill="black"/>
<path d="M19 16H18V17H19V16Z" fill="black"/>
<path d="M20 16H19V17H20V16Z" fill="black"/>
<path d="M21 16H20V17H21V16Z" fill="black"/>
<path d="M22 16H21V17H22V16Z" fill="black"/>
<path d="M9 17H8V18H9V17Z" fill="#3E2723"/>
<path d="M10 17H9V18H10V17Z" fill="#3E2723"/>
<path d="M11 17H10V18H11V17Z" fill="#4E342E"/>
<path d="M12 17H11V18H12V17Z" fill="#4E342E"/>
<path d="M13 17H12V18H13V17Z" fill="#3E2723"/>
<path d="M16 17H15V18H16V17Z" fill="black"/>
<path d="M17 17H16V18H17V17Z" fill="black"/>
<path d="M18 17H17V18H18V17Z" fill="black"/>
<path d="M19 17H18V18H19V17Z" fill="black"/>
<path d="M20 17H19V18H20V17Z" fill="black"/>
<path d="M21 17H20V18H21V17Z" fill="black"/>
<path d="M8 18H7V19H8V18Z" fill="#3E2723"/>
<path d="M9 18H8V19H9V18Z" fill="#3E2723"/>
<path d="M10 18H9V19H10V18Z" fill="#4E342E"/>
<path d="M11 18H10V19H11V18Z" fill="#4E342E"/>
<path d="M12 18H11V19H12V18Z" fill="#3E2723"/>
<path d="M17 18H16V19H17V18Z" fill="black"/>
<path d="M18 18H17V19H18V18Z" fill="black"/>
<path d="M19 18H18V19H19V18Z" fill="black"/>
<path d="M20 18H19V19H20V18Z" fill="black"/>
<path d="M7 19H6V20H7V19Z" fill="#3E2723"/>
<path d="M8 19H7V20H8V19Z" fill="#3E2723"/>
<path d="M9 19H8V20H9V19Z" fill="#4E342E"/>
<path d="M10 19H9V20H10V19Z" fill="#4E342E"/>
<path d="M11 19H10V20H11V19Z" fill="#3E2723"/>
<path d="M18 19H17V20H18V19Z" fill="black"/>
<path d="M19 19H18V20H19V19Z" fill="black"/>
<path d="M24 19H23V20H24V19Z" fill="#01579B"/>
<path d="M25 19H24V20H25V19Z" fill="#01579B"/>
<path d="M26 19H25V20H26V19Z" fill="#01579B"/>
<path d="M6 20H5V21H6V20Z" fill="#3E2723"/>
<path d="M7 20H6V21H7V20Z" fill="#3E2723"/>
<path d="M8 20H7V21H8V20Z" fill="#4E342E"/>
<path d="M9 20H8V21H9V20Z" fill="#4E342E"/>
<path d="M10 20H9V21H10V20Z" fill="#3E2723"/>
<path d="M23 20H22V21H23V20Z" fill="#01579B"/>
<path d="M24 20H23V21H24V20Z" fill="#0277BD"/>
<path d="M25 20H24V21H25V20Z" fill="#81D4FA"/>
<path d="M26 20H25V21H26V20Z" fill="#0277BD"/>
<path d="M27 20H26V21H27V20Z" fill="#01579B"/>
<path d="M5 21H4V22H5V21Z" fill="#3E2723"/>
<path d="M6 21H5V22H6V21Z" fill="#3E2723"/>
<path d="M7 21H6V22H7V21Z" fill="#4E342E"/>
<path d="M8 21H7V22H8V21Z" fill="#4E342E"/>
<path d="M9 21H8V22H9V21Z" fill="#3E2723"/>
<path d="M10 21H9V22H10V21Z" fill="#01579B"/>
<path d="M11 21H10V22H11V21Z" fill="#01579B"/>
<path d="M12 21H11V22H12V21Z" fill="#01579B"/>
<path d="M13 21H12V22H13V21Z" fill="#01579B"/>
<path d="M14 21H13V22H14V21Z" fill="#01579B"/>
<path d="M15 21H14V22H15V21Z" fill="#01579B"/>
<path d="M16 21H15V22H16V21Z" fill="#01579B"/>
<path d="M17 21H16V22H17V21Z" fill="#01579B"/>
<path d="M18 21H17V22H18V21Z" fill="#01579B"/>
<path d="M19 21H18V22H19V21Z" fill="#01579B"/>
<path d="M20 21H19V22H20V21Z" fill="#01579B"/>
<path d="M21 21H20V22H21V21Z" fill="#01579B"/>
<path d="M22 21H21V22H22V21Z" fill="#01579B"/>
<path d="M23 21H22V22H23V21Z" fill="#0277BD"/>
<path d="M24 21H23V22H24V21Z" fill="#01579B"/>
<path d="M25 21H24V22H25V21Z" fill="#01579B"/>
<path d="M26 21H25V22H26V21Z" fill="#01579B"/>
<path d="M27 21H26V22H27V21Z" fill="#0277BD"/>
<path d="M28 21H27V22H28V21Z" fill="#01579B"/>
<path d="M5 22H4V23H5V22Z" fill="#3E2723"/>
<path d="M6 22H5V23H6V22Z" fill="#4E342E"/>
<path d="M7 22H6V23H7V22Z" fill="#4E342E"/>
<path d="M8 22H7V23H8V22Z" fill="#3E2723"/>
<path d="M9 22H8V23H9V22Z" fill="#0288D1"/>
<path d="M10 22H9V23H10V22Z" fill="#0288D1"/>
<path d="M11 22H10V23H11V22Z" fill="#81D4FA"/>
<path d="M12 22H11V23H12V22Z" fill="#0288D1"/>
<path d="M13 22H12V23H13V22Z" fill="#0288D1"/>
<path d="M14 22H13V23H14V22Z" fill="#0288D1"/>
<path d="M15 22H14V23H15V22Z" fill="#81D4FA"/>
<path d="M16 22H15V23H16V22Z" fill="#0288D1"/>
<path d="M17 22H16V23H17V22Z" fill="#0288D1"/>
<path d="M18 22H17V23H18V22Z" fill="#0288D1"/>
<path d="M19 22H18V23H19V22Z" fill="#81D4FA"/>
<path d="M20 22H19V23H20V22Z" fill="#0288D1"/>
<path d="M21 22H20V23H21V22Z" fill="#0288D1"/>
<path d="M22 22H21V23H22V22Z" fill="#01579B"/>
<path d="M23 22H22V23H23V22Z" fill="#81D4FA"/>
<path d="M24 22H23V23H24V22Z" fill="#01579B"/>
<path d="M25 22H24V23H25V22Z" fill="#81D4FA"/>
<path d="M26 22H25V23H26V22Z" fill="#01579B"/>
<path d="M27 22H26V23H27V22Z" fill="#81D4FA"/>
<path d="M28 22H27V23H28V22Z" fill="#01579B"/>
<path d="M6 23H5V24H6V23Z" fill="#3E2723"/>
<path d="M7 23H6V24H7V23Z" fill="#3E2723"/>
<path d="M8 23H7V24H8V23Z" fill="#81D4FA"/>
<path d="M9 23H8V24H9V23Z" fill="#81D4FA"/>
<path d="M10 23H9V24H10V23Z" fill="#81D4FA"/>
<path d="M11 23H10V24H11V23Z" fill="#81D4FA"/>
<path d="M12 23H11V24H12V23Z" fill="#81D4FA"/>
<path d="M13 23H12V24H13V23Z" fill="#81D4FA"/>
<path d="M14 23H13V24H14V23Z" fill="#81D4FA"/>
<path d="M15 23H14V24H15V23Z" fill="#81D4FA"/>
<path d="M16 23H15V24H16V23Z" fill="#81D4FA"/>
<path d="M17 23H16V24H17V23Z" fill="#81D4FA"/>
<path d="M18 23H17V24H18V23Z" fill="#81D4FA"/>
<path d="M19 23H18V24H19V23Z" fill="#81D4FA"/>
<path d="M20 23H19V24H20V23Z" fill="#81D4FA"/>
<path d="M21 23H20V24H21V23Z" fill="#81D4FA"/>
<path d="M22 23H21V24H22V23Z" fill="#01579B"/>
<path d="M23 23H22V24H23V23Z" fill="#0277BD"/>
<path d="M24 23H23V24H24V23Z" fill="#01579B"/>
<path d="M25 23H24V24H25V23Z" fill="#01579B"/>
<path d="M26 23H25V24H26V23Z" fill="#01579B"/>
<path d="M27 23H26V24H27V23Z" fill="#0277BD"/>
<path d="M28 23H27V24H28V23Z" fill="#01579B"/>
<path d="M6 24H5V25H6V24Z" fill="#01579B"/>
<path d="M7 24H6V25H7V24Z" fill="#81D4FA"/>
<path d="M8 24H7V25H8V24Z" fill="#0288D1"/>
<path d="M9 24H8V25H9V24Z" fill="#0288D1"/>
<path d="M10 24H9V25H10V24Z" fill="#0288D1"/>
<path d="M11 24H10V25H11V24Z" fill="#81D4FA"/>
<path d="M12 24H11V25H12V24Z" fill="#0288D1"/>
<path d="M13 24H12V25H13V24Z" fill="#0288D1"/>
<path d="M14 24H13V25H14V24Z" fill="#0288D1"/>
<path d="M15 24H14V25H15V24Z" fill="#81D4FA"/>
<path d="M16 24H15V25H16V24Z" fill="#0288D1"/>
<path d="M17 24H16V25H17V24Z" fill="#0288D1"/>
<path d="M18 24H17V25H18V24Z" fill="#0288D1"/>
<path d="M19 24H18V25H19V24Z" fill="#81D4FA"/>
<path d="M20 24H19V25H20V24Z" fill="#0288D1"/>
<path d="M21 24H20V25H21V24Z" fill="#0288D1"/>
<path d="M22 24H21V25H22V24Z" fill="#81D4FA"/>
<path d="M23 24H22V25H23V24Z" fill="#01579B"/>
<path d="M24 24H23V25H24V24Z" fill="#0277BD"/>
<path d="M25 24H24V25H25V24Z" fill="#81D4FA"/>
<path d="M26 24H25V25H26V24Z" fill="#0277BD"/>
<path d="M27 24H26V25H27V24Z" fill="#01579B"/>
<path d="M6 25H5V26H6V25Z" fill="#01579B"/>
<path d="M7 25H6V26H7V25Z" fill="#01579B"/>
<path d="M8 25H7V26H8V25Z" fill="#01579B"/>
<path d="M9 25H8V26H9V25Z" fill="#01579B"/>
<path d="M10 25H9V26H10V25Z" fill="#01579B"/>
<path d="M11 25H10V26H11V25Z" fill="#01579B"/>
<path d="M12 25H11V26H12V25Z" fill="#01579B"/>
<path d="M13 25H12V26H13V25Z" fill="#01579B"/>
<path d="M14 25H13V26H14V25Z" fill="#01579B"/>
<path d="M15 25H14V26H15V25Z" fill="#01579B"/>
<path d="M16 25H15V26H16V25Z" fill="#01579B"/>
<path d="M17 25H16V26H17V25Z" fill="#01579B"/>
<path d="M18 25H17V26H18V25Z" fill="#01579B"/>
<path d="M19 25H18V26H19V25Z" fill="#01579B"/>
<path d="M20 25H19V26H20V25Z" fill="#01579B"/>
<path d="M21 25H20V26H21V25Z" fill="#01579B"/>
<path d="M22 25H21V26H22V25Z" fill="#01579B"/>
<path d="M23 25H22V26H23V25Z" fill="#01579B"/>
<path d="M24 25H23V26H24V25Z" fill="#01579B"/>
<path d="M25 25H24V26H25V25Z" fill="#01579B"/>
<path d="M26 25H25V26H26V25Z" fill="#01579B"/>
</svg>
  