<svg width="32" height="32" viewBox="0 0 32 32" fill="none" xmlns="http://www.w3.org/2000/svg">
<g clip-path="url(#clip0_78_14025)">
<path d="M21.3334 0H19.2002V2.13318H21.3334V0Z" fill="#2D2F4A"/>
<path d="M23.4662 0H21.333V2.13318H23.4662V0Z" fill="#2D2F4A"/>
<path d="M25.6 0H23.4668V2.13318H25.6V0Z" fill="#2D2F4A"/>
<path d="M19.2006 2.13318H17.0674V4.26635H19.2006V2.13318Z" fill="#2D2F4A"/>
<path d="M21.3334 2.13318H19.2002V4.26635H21.3334V2.13318Z" fill="#ACDAE1"/>
<path d="M23.4662 2.13318H21.333V4.26635H23.4662V2.13318Z" fill="#ACDAE1"/>
<path d="M25.6 2.13318H23.4668V4.26635H25.6V2.13318Z" fill="#2D2F4A"/>
<path d="M17.0668 4.26636H14.9336V6.39953H17.0668V4.26636Z" fill="#2D2F4A"/>
<path d="M19.2006 4.26636H17.0674V6.39953H19.2006V4.26636Z" fill="#ACDAE1"/>
<path d="M21.3334 4.26636H19.2002V6.39953H21.3334V4.26636Z" fill="#8AA8AB"/>
<path d="M23.4662 4.26636H21.333V6.39953H23.4662V4.26636Z" fill="#2D2F4A"/>
<path d="M17.0668 6.40015H14.9336V8.53332H17.0668V6.40015Z" fill="#2D2F4A"/>
<path d="M19.2006 6.40015H17.0674V8.53332H19.2006V6.40015Z" fill="#ACDAE1"/>
<path d="M21.3334 6.40015H19.2002V8.53332H21.3334V6.40015Z" fill="#8AA8AB"/>
<path d="M23.4662 6.40015H21.333V8.53332H23.4662V6.40015Z" fill="#2D2F4A"/>
<path d="M29.8666 6.40015H27.7334V8.53332H29.8666V6.40015Z" fill="#2D2F4A"/>
<path d="M32.0004 6.40015H29.8672V8.53332H32.0004V6.40015Z" fill="#2D2F4A"/>
<path d="M17.0668 8.53333H14.9336V10.6665H17.0668V8.53333Z" fill="#2D2F4A"/>
<path d="M19.2006 8.53333H17.0674V10.6665H19.2006V8.53333Z" fill="#ACDAE1"/>
<path d="M21.3334 8.53333H19.2002V10.6665H21.3334V8.53333Z" fill="#8AA8AB"/>
<path d="M23.4662 8.53333H21.333V10.6665H23.4662V8.53333Z" fill="#8AA8AB"/>
<path d="M25.6 8.53333H23.4668V10.6665H25.6V8.53333Z" fill="#2D2F4A"/>
<path d="M27.7338 8.53333H25.6006V10.6665H27.7338V8.53333Z" fill="#2D2F4A"/>
<path d="M29.8666 8.53333H27.7334V10.6665H29.8666V8.53333Z" fill="#8AA8AB"/>
<path d="M32.0004 8.53333H29.8672V10.6665H32.0004V8.53333Z" fill="#2D2F4A"/>
<path d="M14.933 10.6665H12.7998V12.7997H14.933V10.6665Z" fill="#2D2F4A"/>
<path d="M17.0668 10.6665H14.9336V12.7997H17.0668V10.6665Z" fill="#2D2F4A"/>
<path d="M19.2006 10.6665H17.0674V12.7997H19.2006V10.6665Z" fill="#4C5A72"/>
<path d="M21.3334 10.6665H19.2002V12.7997H21.3334V10.6665Z" fill="#8AA8AB"/>
<path d="M23.4662 10.6665H21.333V12.7997H23.4662V10.6665Z" fill="#8AA8AB"/>
<path d="M25.6 10.6665H23.4668V12.7997H25.6V10.6665Z" fill="#8AA8AB"/>
<path d="M27.7338 10.6665H25.6006V12.7997H27.7338V10.6665Z" fill="#8AA8AB"/>
<path d="M29.8666 10.6665H27.7334V12.7997H29.8666V10.6665Z" fill="#8AA8AB"/>
<path d="M32.0004 10.6665H29.8672V12.7997H32.0004V10.6665Z" fill="#2D2F4A"/>
<path d="M12.8002 12.7997H10.667V14.9329H12.8002V12.7997Z" fill="#2D2F4A"/>
<path d="M14.933 12.7997H12.7998V14.9329H14.933V12.7997Z" fill="#4C5A72"/>
<path d="M17.0668 12.7997H14.9336V14.9329H17.0668V12.7997Z" fill="#8AA8AB"/>
<path d="M19.2006 12.7997H17.0674V14.9329H19.2006V12.7997Z" fill="#2D2F4A"/>
<path d="M21.3334 12.7997H19.2002V14.9329H21.3334V12.7997Z" fill="#4C5A72"/>
<path d="M23.4662 12.7997H21.333V14.9329H23.4662V12.7997Z" fill="#8AA8AB"/>
<path d="M25.6 12.7997H23.4668V14.9329H25.6V12.7997Z" fill="#8AA8AB"/>
<path d="M27.7338 12.7997H25.6006V14.9329H27.7338V12.7997Z" fill="#8AA8AB"/>
<path d="M29.8666 12.7997H27.7334V14.9329H29.8666V12.7997Z" fill="#2D2F4A"/>
<path d="M10.6674 14.9335H8.53418V17.0666H10.6674V14.9335Z" fill="#2D2F4A"/>
<path d="M12.8002 14.9335H10.667V17.0666H12.8002V14.9335Z" fill="#4C5A72"/>
<path d="M14.933 14.9335H12.7998V17.0666H14.933V14.9335Z" fill="#ACDAE1"/>
<path d="M17.0668 14.9335H14.9336V17.0666H17.0668V14.9335Z" fill="#8AA8AB"/>
<path d="M19.2006 14.9335H17.0674V17.0666H19.2006V14.9335Z" fill="#8AA8AB"/>
<path d="M21.3334 14.9335H19.2002V17.0666H21.3334V14.9335Z" fill="#2D2F4A"/>
<path d="M23.4662 14.9335H21.333V17.0666H23.4662V14.9335Z" fill="#2D2F4A"/>
<path d="M25.6 14.9335H23.4668V17.0666H25.6V14.9335Z" fill="#2D2F4A"/>
<path d="M27.7338 14.9335H25.6006V17.0666H27.7338V14.9335Z" fill="#2D2F4A"/>
<path d="M8.53357 17.0665H6.40039V19.1997H8.53357V17.0665Z" fill="#2D2F4A"/>
<path d="M10.6674 17.0665H8.53418V19.1997H10.6674V17.0665Z" fill="#4C5A72"/>
<path d="M12.8002 17.0665H10.667V19.1997H12.8002V17.0665Z" fill="#ACDAE1"/>
<path d="M14.933 17.0665H12.7998V19.1997H14.933V17.0665Z" fill="#8AA8AB"/>
<path d="M17.0668 17.0665H14.9336V19.1997H17.0668V17.0665Z" fill="#8AA8AB"/>
<path d="M19.2006 17.0665H17.0674V19.1997H19.2006V17.0665Z" fill="#4C5A72"/>
<path d="M21.3334 17.0665H19.2002V19.1997H21.3334V17.0665Z" fill="#2D2F4A"/>
<path d="M6.39978 19.1997H4.2666V21.3329H6.39978V19.1997Z" fill="#2D2F4A"/>
<path d="M8.53357 19.1997H6.40039V21.3329H8.53357V19.1997Z" fill="#4C5A72"/>
<path d="M10.6674 19.1997H8.53418V21.3329H10.6674V19.1997Z" fill="#ACDAE1"/>
<path d="M12.8002 19.1997H10.667V21.3329H12.8002V19.1997Z" fill="#8AA8AB"/>
<path d="M14.933 19.1997H12.7998V21.3329H14.933V19.1997Z" fill="#8AA8AB"/>
<path d="M17.0668 19.1997H14.9336V21.3329H17.0668V19.1997Z" fill="#4C5A72"/>
<path d="M19.2006 19.1997H17.0674V21.3329H19.2006V19.1997Z" fill="#2D2F4A"/>
<path d="M4.26697 21.3329H2.13379V23.4661H4.26697V21.3329Z" fill="#2D2F4A"/>
<path d="M6.39978 21.3329H4.2666V23.4661H6.39978V21.3329Z" fill="#4C5A72"/>
<path d="M8.53357 21.3329H6.40039V23.4661H8.53357V21.3329Z" fill="#ACDAE1"/>
<path d="M10.6674 21.3329H8.53418V23.4661H10.6674V21.3329Z" fill="#8AA8AB"/>
<path d="M12.8002 21.3329H10.667V23.4661H12.8002V21.3329Z" fill="#8AA8AB"/>
<path d="M14.933 21.3329H12.7998V23.4661H14.933V21.3329Z" fill="#4C5A72"/>
<path d="M17.0668 21.3329H14.9336V23.4661H17.0668V21.3329Z" fill="#2D2F4A"/>
<path d="M2.13318 23.4667H0V25.5998H2.13318V23.4667Z" fill="#2D2F4A"/>
<path d="M4.26697 23.4667H2.13379V25.5998H4.26697V23.4667Z" fill="#4C5A72"/>
<path d="M6.39978 23.4667H4.2666V25.5998H6.39978V23.4667Z" fill="#8AA8AB"/>
<path d="M8.53357 23.4667H6.40039V25.5998H8.53357V23.4667Z" fill="#8AA8AB"/>
<path d="M10.6674 23.4667H8.53418V25.5998H10.6674V23.4667Z" fill="#8AA8AB"/>
<path d="M12.8002 23.4667H10.667V25.5998H12.8002V23.4667Z" fill="#4C5A72"/>
<path d="M14.933 23.4667H12.7998V25.5998H14.933V23.4667Z" fill="#2D2F4A"/>
<path d="M2.13318 25.5999H0V27.733H2.13318V25.5999Z" fill="#2D2F4A"/>
<path d="M4.26697 25.5999H2.13379V27.733H4.26697V25.5999Z" fill="#4C5A72"/>
<path d="M6.39978 25.5999H4.2666V27.733H6.39978V25.5999Z" fill="#2D2F4A"/>
<path d="M8.53357 25.5999H6.40039V27.733H8.53357V25.5999Z" fill="#8AA8AB"/>
<path d="M10.6674 25.5999H8.53418V27.733H10.6674V25.5999Z" fill="#4C5A72"/>
<path d="M12.8002 25.5999H10.667V27.733H12.8002V25.5999Z" fill="#2D2F4A"/>
<path d="M2.13318 27.733H0V29.8662H2.13318V27.733Z" fill="#2D2F4A"/>
<path d="M4.26697 27.733H2.13379V29.8662H4.26697V27.733Z" fill="#4C5A72"/>
<path d="M6.39978 27.733H4.2666V29.8662H6.39978V27.733Z" fill="#4C5A72"/>
<path d="M8.53357 27.733H6.40039V29.8662H8.53357V27.733Z" fill="#4C5A72"/>
<path d="M10.6674 27.733H8.53418V29.8662H10.6674V27.733Z" fill="#2D2F4A"/>
<path d="M4.26697 29.8662H2.13379V31.9994H4.26697V29.8662Z" fill="#2D2F4A"/>
<path d="M6.39978 29.8662H4.2666V31.9994H6.39978V29.8662Z" fill="#2D2F4A"/>
<path d="M8.53357 29.8662H6.40039V31.9994H8.53357V29.8662Z" fill="#2D2F4A"/>
</g>
<defs>
<clipPath id="clip0_78_14025">
<rect width="32" height="32" fill="white"/>
</clipPath>
</defs>
</svg>
