<svg width="33" height="33" viewBox="0 0 33 33" fill="none" xmlns="http://www.w3.org/2000/svg">
<path d="M7.5 6H6.5V7H7.5V6Z" fill="#90A4AE"/>
<path d="M8.5 6H7.5V7H8.5V6Z" fill="#90A4AE"/>
<path d="M9.5 6H8.5V7H9.5V6Z" fill="#90A4AE"/>
<path d="M10.5 6H9.5V7H10.5V6Z" fill="#90A4AE"/>
<path d="M11.5 6H10.5V7H11.5V6Z" fill="#90A4AE"/>
<path d="M12.5 6H11.5V7H12.5V6Z" fill="#90A4AE"/>
<path d="M13.5 6H12.5V7H13.5V6Z" fill="#263238"/>
<path d="M14.5 6H13.5V7H14.5V6Z" fill="#263238"/>
<path d="M15.5 6H14.5V7H15.5V6Z" fill="#263238"/>
<path d="M16.5 6H15.5V7H16.5V6Z" fill="#263238"/>
<path d="M17.5 6H16.5V7H17.5V6Z" fill="#263238"/>
<path d="M18.5 6H17.5V7H18.5V6Z" fill="#263238"/>
<path d="M19.5 6H18.5V7H19.5V6Z" fill="#263238"/>
<path d="M20.5 6H19.5V7H20.5V6Z" fill="#263238"/>
<path d="M21.5 6H20.5V7H21.5V6Z" fill="#90A4AE"/>
<path d="M22.5 6H21.5V7H22.5V6Z" fill="#90A4AE"/>
<path d="M23.5 6H22.5V7H23.5V6Z" fill="#90A4AE"/>
<path d="M24.5 6H23.5V7H24.5V6Z" fill="#90A4AE"/>
<path d="M25.5 6H24.5V7H25.5V6Z" fill="#90A4AE"/>
<path d="M26.5 6H25.5V7H26.5V6Z" fill="#90A4AE"/>
<path d="M7.5 7H6.5V8H7.5V7Z" fill="#90A4AE"/>
<path d="M8.5 7H7.5V8H8.5V7Z" fill="#90A4AE"/>
<path d="M9.5 7H8.5V8H9.5V7Z" fill="#90A4AE"/>
<path d="M10.5 7H9.5V8H10.5V7Z" fill="#90A4AE"/>
<path d="M11.5 7H10.5V8H11.5V7Z" fill="#90A4AE"/>
<path d="M12.5 7H11.5V8H12.5V7Z" fill="#90A4AE"/>
<path d="M13.5 7H12.5V8H13.5V7Z" fill="#263238"/>
<path d="M14.5 7H13.5V8H14.5V7Z" fill="#263238"/>
<path d="M15.5 7H14.5V8H15.5V7Z" fill="#263238"/>
<path d="M16.5 7H15.5V8H16.5V7Z" fill="#263238"/>
<path d="M17.5 7H16.5V8H17.5V7Z" fill="#263238"/>
<path d="M18.5 7H17.5V8H18.5V7Z" fill="#263238"/>
<path d="M19.5 7H18.5V8H19.5V7Z" fill="#263238"/>
<path d="M20.5 7H19.5V8H20.5V7Z" fill="#263238"/>
<path d="M21.5 7H20.5V8H21.5V7Z" fill="#90A4AE"/>
<path d="M22.5 7H21.5V8H22.5V7Z" fill="#90A4AE"/>
<path d="M23.5 7H22.5V8H23.5V7Z" fill="#90A4AE"/>
<path d="M24.5 7H23.5V8H24.5V7Z" fill="#90A4AE"/>
<path d="M25.5 7H24.5V8H25.5V7Z" fill="#90A4AE"/>
<path d="M26.5 7H25.5V8H26.5V7Z" fill="#90A4AE"/>
<path d="M7.5 8H6.5V9H7.5V8Z" fill="#90A4AE"/>
<path d="M8.5 8H7.5V9H8.5V8Z" fill="#90A4AE"/>
<path d="M9.5 8H8.5V9H9.5V8Z" fill="#263238"/>
<path d="M10.5 8H9.5V9H10.5V8Z" fill="#263238"/>
<path d="M11.5 8H10.5V9H11.5V8Z" fill="#263238"/>
<path d="M12.5 8H11.5V9H12.5V8Z" fill="#263238"/>
<path d="M13.5 8H12.5V9H13.5V8Z" fill="#263238"/>
<path d="M14.5 8H13.5V9H14.5V8Z" fill="#263238"/>
<path d="M15.5 8H14.5V9H15.5V8Z" fill="#263238"/>
<path d="M16.5 8H15.5V9H16.5V8Z" fill="#263238"/>
<path d="M17.5 8H16.5V9H17.5V8Z" fill="#263238"/>
<path d="M18.5 8H17.5V9H18.5V8Z" fill="#263238"/>
<path d="M19.5 8H18.5V9H19.5V8Z" fill="#263238"/>
<path d="M20.5 8H19.5V9H20.5V8Z" fill="#263238"/>
<path d="M21.5 8H20.5V9H21.5V8Z" fill="#263238"/>
<path d="M22.5 8H21.5V9H22.5V8Z" fill="#263238"/>
<path d="M23.5 8H22.5V9H23.5V8Z" fill="#263238"/>
<path d="M24.5 8H23.5V9H24.5V8Z" fill="#263238"/>
<path d="M25.5 8H24.5V9H25.5V8Z" fill="#90A4AE"/>
<path d="M26.5 8H25.5V9H26.5V8Z" fill="#90A4AE"/>
<path d="M7.5 9H6.5V10H7.5V9Z" fill="#90A4AE"/>
<path d="M8.5 9H7.5V10H8.5V9Z" fill="#90A4AE"/>
<path d="M9.5 9H8.5V10H9.5V9Z" fill="#263238"/>
<path d="M10.5 9H9.5V10H10.5V9Z" fill="#263238"/>
<path d="M11.5 9H10.5V10H11.5V9Z" fill="#263238"/>
<path d="M12.5 9H11.5V10H12.5V9Z" fill="#263238"/>
<path d="M13.5 9H12.5V10H13.5V9Z" fill="#263238"/>
<path d="M14.5 9H13.5V10H14.5V9Z" fill="#263238"/>
<path d="M15.5 9H14.5V10H15.5V9Z" fill="#263238"/>
<path d="M16.5 9H15.5V10H16.5V9Z" fill="#263238"/>
<path d="M17.5 9H16.5V10H17.5V9Z" fill="#263238"/>
<path d="M18.5 9H17.5V10H18.5V9Z" fill="#263238"/>
<path d="M19.5 9H18.5V10H19.5V9Z" fill="#263238"/>
<path d="M20.5 9H19.5V10H20.5V9Z" fill="#263238"/>
<path d="M21.5 9H20.5V10H21.5V9Z" fill="#263238"/>
<path d="M22.5 9H21.5V10H22.5V9Z" fill="#263238"/>
<path d="M23.5 9H22.5V10H23.5V9Z" fill="#263238"/>
<path d="M24.5 9H23.5V10H24.5V9Z" fill="#263238"/>
<path d="M25.5 9H24.5V10H25.5V9Z" fill="#90A4AE"/>
<path d="M26.5 9H25.5V10H26.5V9Z" fill="#90A4AE"/>
<path d="M7.5 10H6.5V11H7.5V10Z" fill="#90A4AE"/>
<path d="M8.5 10H7.5V11H8.5V10Z" fill="#90A4AE"/>
<path d="M9.5 10H8.5V11H9.5V10Z" fill="#263238"/>
<path d="M10.5 10H9.5V11H10.5V10Z" fill="#263238"/>
<path d="M11.5 10H10.5V11H11.5V10Z" fill="#263238"/>
<path d="M12.5 10H11.5V11H12.5V10Z" fill="#263238"/>
<path d="M13.5 10H12.5V11H13.5V10Z" fill="#263238"/>
<path d="M14.5 10H13.5V11H14.5V10Z" fill="#263238"/>
<path d="M15.5 10H14.5V11H15.5V10Z" fill="#263238"/>
<path d="M16.5 10H15.5V11H16.5V10Z" fill="#263238"/>
<path d="M17.5 10H16.5V11H17.5V10Z" fill="#263238"/>
<path d="M18.5 10H17.5V11H18.5V10Z" fill="#263238"/>
<path d="M19.5 10H18.5V11H19.5V10Z" fill="#263238"/>
<path d="M20.5 10H19.5V11H20.5V10Z" fill="#263238"/>
<path d="M21.5 10H20.5V11H21.5V10Z" fill="#263238"/>
<path d="M22.5 10H21.5V11H22.5V10Z" fill="#263238"/>
<path d="M23.5 10H22.5V11H23.5V10Z" fill="#263238"/>
<path d="M24.5 10H23.5V11H24.5V10Z" fill="#263238"/>
<path d="M25.5 10H24.5V11H25.5V10Z" fill="#90A4AE"/>
<path d="M26.5 10H25.5V11H26.5V10Z" fill="#90A4AE"/>
<path d="M7.5 11H6.5V12H7.5V11Z" fill="#90A4AE"/>
<path d="M8.5 11H7.5V12H8.5V11Z" fill="#90A4AE"/>
<path d="M9.5 11H8.5V12H9.5V11Z" fill="#263238"/>
<path d="M10.5 11H9.5V12H10.5V11Z" fill="#263238"/>
<path d="M11.5 11H10.5V12H11.5V11Z" fill="#263238"/>
<path d="M12.5 11H11.5V12H12.5V11Z" fill="#263238"/>
<path d="M13.5 11H12.5V12H13.5V11Z" fill="#263238"/>
<path d="M14.5 11H13.5V12H14.5V11Z" fill="white"/>
<path d="M15.5 11H14.5V12H15.5V11Z" fill="white"/>
<path d="M16.5 11H15.5V12H16.5V11Z" fill="white"/>
<path d="M17.5 11H16.5V12H17.5V11Z" fill="white"/>
<path d="M18.5 11H17.5V12H18.5V11Z" fill="white"/>
<path d="M19.5 11H18.5V12H19.5V11Z" fill="#263238"/>
<path d="M20.5 11H19.5V12H20.5V11Z" fill="#263238"/>
<path d="M21.5 11H20.5V12H21.5V11Z" fill="#263238"/>
<path d="M22.5 11H21.5V12H22.5V11Z" fill="#263238"/>
<path d="M23.5 11H22.5V12H23.5V11Z" fill="#263238"/>
<path d="M24.5 11H23.5V12H24.5V11Z" fill="#263238"/>
<path d="M25.5 11H24.5V12H25.5V11Z" fill="#90A4AE"/>
<path d="M26.5 11H25.5V12H26.5V11Z" fill="#90A4AE"/>
<path d="M7.5 12H6.5V13H7.5V12Z" fill="#263238"/>
<path d="M8.5 12H7.5V13H8.5V12Z" fill="#263238"/>
<path d="M9.5 12H8.5V13H9.5V12Z" fill="#263238"/>
<path d="M10.5 12H9.5V13H10.5V12Z" fill="#263238"/>
<path d="M11.5 12H10.5V13H11.5V12Z" fill="#263238"/>
<path d="M12.5 12H11.5V13H12.5V12Z" fill="#263238"/>
<path d="M13.5 12H12.5V13H13.5V12Z" fill="white"/>
<path d="M14.5 12H13.5V13H14.5V12Z" fill="white"/>
<path d="M15.5 12H14.5V13H15.5V12Z" fill="white"/>
<path d="M16.5 12H15.5V13H16.5V12Z" fill="white"/>
<path d="M17.5 12H16.5V13H17.5V12Z" fill="white"/>
<path d="M18.5 12H17.5V13H18.5V12Z" fill="white"/>
<path d="M19.5 12H18.5V13H19.5V12Z" fill="white"/>
<path d="M20.5 12H19.5V13H20.5V12Z" fill="#263238"/>
<path d="M21.5 12H20.5V13H21.5V12Z" fill="#263238"/>
<path d="M22.5 12H21.5V13H22.5V12Z" fill="#263238"/>
<path d="M23.5 12H22.5V13H23.5V12Z" fill="#263238"/>
<path d="M24.5 12H23.5V13H24.5V12Z" fill="#263238"/>
<path d="M25.5 12H24.5V13H25.5V12Z" fill="#263238"/>
<path d="M26.5 12H25.5V13H26.5V12Z" fill="#263238"/>
<path d="M7.5 13H6.5V14H7.5V13Z" fill="#263238"/>
<path d="M8.5 13H7.5V14H8.5V13Z" fill="#263238"/>
<path d="M9.5 13H8.5V14H9.5V13Z" fill="#263238"/>
<path d="M10.5 13H9.5V14H10.5V13Z" fill="#263238"/>
<path d="M11.5 13H10.5V14H11.5V13Z" fill="#263238"/>
<path d="M12.5 13H11.5V14H12.5V13Z" fill="#263238"/>
<path d="M13.5 13H12.5V14H13.5V13Z" fill="white"/>
<path d="M14.5 13H13.5V14H14.5V13Z" fill="white"/>
<path d="M15.5 13H14.5V14H15.5V13Z" fill="#263238"/>
<path d="M16.5 13H15.5V14H16.5V13Z" fill="#263238"/>
<path d="M17.5 13H16.5V14H17.5V13Z" fill="#263238"/>
<path d="M18.5 13H17.5V14H18.5V13Z" fill="white"/>
<path d="M19.5 13H18.5V14H19.5V13Z" fill="white"/>
<path d="M20.5 13H19.5V14H20.5V13Z" fill="#263238"/>
<path d="M21.5 13H20.5V14H21.5V13Z" fill="#263238"/>
<path d="M22.5 13H21.5V14H22.5V13Z" fill="#263238"/>
<path d="M23.5 13H22.5V14H23.5V13Z" fill="#263238"/>
<path d="M24.5 13H23.5V14H24.5V13Z" fill="#263238"/>
<path d="M25.5 13H24.5V14H25.5V13Z" fill="#263238"/>
<path d="M26.5 13H25.5V14H26.5V13Z" fill="#263238"/>
<path d="M7.5 14H6.5V15H7.5V14Z" fill="#263238"/>
<path d="M8.5 14H7.5V15H8.5V14Z" fill="#263238"/>
<path d="M9.5 14H8.5V15H9.5V14Z" fill="#263238"/>
<path d="M10.5 14H9.5V15H10.5V14Z" fill="#263238"/>
<path d="M11.5 14H10.5V15H11.5V14Z" fill="#263238"/>
<path d="M12.5 14H11.5V15H12.5V14Z" fill="#263238"/>
<path d="M13.5 14H12.5V15H13.5V14Z" fill="white"/>
<path d="M14.5 14H13.5V15H14.5V14Z" fill="white"/>
<path d="M15.5 14H14.5V15H15.5V14Z" fill="#263238"/>
<path d="M16.5 14H15.5V15H16.5V14Z" fill="#263238"/>
<path d="M17.5 14H16.5V15H17.5V14Z" fill="#263238"/>
<path d="M18.5 14H17.5V15H18.5V14Z" fill="white"/>
<path d="M19.5 14H18.5V15H19.5V14Z" fill="white"/>
<path d="M20.5 14H19.5V15H20.5V14Z" fill="#263238"/>
<path d="M21.5 14H20.5V15H21.5V14Z" fill="#263238"/>
<path d="M22.5 14H21.5V15H22.5V14Z" fill="#263238"/>
<path d="M23.5 14H22.5V15H23.5V14Z" fill="#263238"/>
<path d="M24.5 14H23.5V15H24.5V14Z" fill="#263238"/>
<path d="M25.5 14H24.5V15H25.5V14Z" fill="#263238"/>
<path d="M26.5 14H25.5V15H26.5V14Z" fill="#263238"/>
<path d="M7.5 15H6.5V16H7.5V15Z" fill="#263238"/>
<path d="M8.5 15H7.5V16H8.5V15Z" fill="#263238"/>
<path d="M9.5 15H8.5V16H9.5V15Z" fill="#263238"/>
<path d="M10.5 15H9.5V16H10.5V15Z" fill="#263238"/>
<path d="M11.5 15H10.5V16H11.5V15Z" fill="#263238"/>
<path d="M12.5 15H11.5V16H12.5V15Z" fill="#263238"/>
<path d="M13.5 15H12.5V16H13.5V15Z" fill="#263238"/>
<path d="M14.5 15H13.5V16H14.5V15Z" fill="#263238"/>
<path d="M15.5 15H14.5V16H15.5V15Z" fill="#263238"/>
<path d="M16.5 15H15.5V16H16.5V15Z" fill="#263238"/>
<path d="M17.5 15H16.5V16H17.5V15Z" fill="white"/>
<path d="M18.5 15H17.5V16H18.5V15Z" fill="white"/>
<path d="M19.5 15H18.5V16H19.5V15Z" fill="white"/>
<path d="M20.5 15H19.5V16H20.5V15Z" fill="#263238"/>
<path d="M21.5 15H20.5V16H21.5V15Z" fill="#263238"/>
<path d="M22.5 15H21.5V16H22.5V15Z" fill="#263238"/>
<path d="M23.5 15H22.5V16H23.5V15Z" fill="#263238"/>
<path d="M24.5 15H23.5V16H24.5V15Z" fill="#263238"/>
<path d="M25.5 15H24.5V16H25.5V15Z" fill="#263238"/>
<path d="M26.5 15H25.5V16H26.5V15Z" fill="#263238"/>
<path d="M7.5 16H6.5V17H7.5V16Z" fill="#263238"/>
<path d="M8.5 16H7.5V17H8.5V16Z" fill="#263238"/>
<path d="M9.5 16H8.5V17H9.5V16Z" fill="#263238"/>
<path d="M10.5 16H9.5V17H10.5V16Z" fill="#263238"/>
<path d="M11.5 16H10.5V17H11.5V16Z" fill="#263238"/>
<path d="M12.5 16H11.5V17H12.5V16Z" fill="#263238"/>
<path d="M13.5 16H12.5V17H13.5V16Z" fill="#263238"/>
<path d="M14.5 16H13.5V17H14.5V16Z" fill="#263238"/>
<path d="M15.5 16H14.5V17H15.5V16Z" fill="#263238"/>
<path d="M16.5 16H15.5V17H16.5V16Z" fill="white"/>
<path d="M17.5 16H16.5V17H17.5V16Z" fill="white"/>
<path d="M18.5 16H17.5V17H18.5V16Z" fill="white"/>
<path d="M19.5 16H18.5V17H19.5V16Z" fill="#263238"/>
<path d="M20.5 16H19.5V17H20.5V16Z" fill="#263238"/>
<path d="M21.5 16H20.5V17H21.5V16Z" fill="#263238"/>
<path d="M22.5 16H21.5V17H22.5V16Z" fill="#263238"/>
<path d="M23.5 16H22.5V17H23.5V16Z" fill="#263238"/>
<path d="M24.5 16H23.5V17H24.5V16Z" fill="#263238"/>
<path d="M25.5 16H24.5V17H25.5V16Z" fill="#263238"/>
<path d="M26.5 16H25.5V17H26.5V16Z" fill="#263238"/>
<path d="M7.5 17H6.5V18H7.5V17Z" fill="#263238"/>
<path d="M8.5 17H7.5V18H8.5V17Z" fill="#263238"/>
<path d="M9.5 17H8.5V18H9.5V17Z" fill="#263238"/>
<path d="M10.5 17H9.5V18H10.5V17Z" fill="#263238"/>
<path d="M11.5 17H10.5V18H11.5V17Z" fill="#263238"/>
<path d="M12.5 17H11.5V18H12.5V17Z" fill="#263238"/>
<path d="M13.5 17H12.5V18H13.5V17Z" fill="#263238"/>
<path d="M14.5 17H13.5V18H14.5V17Z" fill="#263238"/>
<path d="M15.5 17H14.5V18H15.5V17Z" fill="#263238"/>
<path d="M16.5 17H15.5V18H16.5V17Z" fill="white"/>
<path d="M17.5 17H16.5V18H17.5V17Z" fill="white"/>
<path d="M18.5 17H17.5V18H18.5V17Z" fill="#263238"/>
<path d="M19.5 17H18.5V18H19.5V17Z" fill="#263238"/>
<path d="M20.5 17H19.5V18H20.5V17Z" fill="#263238"/>
<path d="M21.5 17H20.5V18H21.5V17Z" fill="#263238"/>
<path d="M22.5 17H21.5V18H22.5V17Z" fill="#263238"/>
<path d="M23.5 17H22.5V18H23.5V17Z" fill="#263238"/>
<path d="M24.5 17H23.5V18H24.5V17Z" fill="#263238"/>
<path d="M25.5 17H24.5V18H25.5V17Z" fill="#263238"/>
<path d="M26.5 17H25.5V18H26.5V17Z" fill="#263238"/>
<path d="M7.5 18H6.5V19H7.5V18Z" fill="#263238"/>
<path d="M8.5 18H7.5V19H8.5V18Z" fill="#263238"/>
<path d="M9.5 18H8.5V19H9.5V18Z" fill="#263238"/>
<path d="M10.5 18H9.5V19H10.5V18Z" fill="#263238"/>
<path d="M11.5 18H10.5V19H11.5V18Z" fill="#263238"/>
<path d="M12.5 18H11.5V19H12.5V18Z" fill="#263238"/>
<path d="M13.5 18H12.5V19H13.5V18Z" fill="#263238"/>
<path d="M14.5 18H13.5V19H14.5V18Z" fill="#263238"/>
<path d="M15.5 18H14.5V19H15.5V18Z" fill="#263238"/>
<path d="M16.5 18H15.5V19H16.5V18Z" fill="white"/>
<path d="M17.5 18H16.5V19H17.5V18Z" fill="white"/>
<path d="M18.5 18H17.5V19H18.5V18Z" fill="#263238"/>
<path d="M19.5 18H18.5V19H19.5V18Z" fill="#263238"/>
<path d="M20.5 18H19.5V19H20.5V18Z" fill="#263238"/>
<path d="M21.5 18H20.5V19H21.5V18Z" fill="#263238"/>
<path d="M22.5 18H21.5V19H22.5V18Z" fill="#263238"/>
<path d="M23.5 18H22.5V19H23.5V18Z" fill="#263238"/>
<path d="M24.5 18H23.5V19H24.5V18Z" fill="#263238"/>
<path d="M25.5 18H24.5V19H25.5V18Z" fill="#263238"/>
<path d="M26.5 18H25.5V19H26.5V18Z" fill="#263238"/>
<path d="M7.5 19H6.5V20H7.5V19Z" fill="#263238"/>
<path d="M8.5 19H7.5V20H8.5V19Z" fill="#263238"/>
<path d="M9.5 19H8.5V20H9.5V19Z" fill="#263238"/>
<path d="M10.5 19H9.5V20H10.5V19Z" fill="#263238"/>
<path d="M11.5 19H10.5V20H11.5V19Z" fill="#263238"/>
<path d="M12.5 19H11.5V20H12.5V19Z" fill="#263238"/>
<path d="M13.5 19H12.5V20H13.5V19Z" fill="#263238"/>
<path d="M14.5 19H13.5V20H14.5V19Z" fill="#263238"/>
<path d="M15.5 19H14.5V20H15.5V19Z" fill="#263238"/>
<path d="M16.5 19H15.5V20H16.5V19Z" fill="#263238"/>
<path d="M17.5 19H16.5V20H17.5V19Z" fill="#263238"/>
<path d="M18.5 19H17.5V20H18.5V19Z" fill="#263238"/>
<path d="M19.5 19H18.5V20H19.5V19Z" fill="#263238"/>
<path d="M20.5 19H19.5V20H20.5V19Z" fill="#263238"/>
<path d="M21.5 19H20.5V20H21.5V19Z" fill="#263238"/>
<path d="M22.5 19H21.5V20H22.5V19Z" fill="#263238"/>
<path d="M23.5 19H22.5V20H23.5V19Z" fill="#263238"/>
<path d="M24.5 19H23.5V20H24.5V19Z" fill="#263238"/>
<path d="M25.5 19H24.5V20H25.5V19Z" fill="#263238"/>
<path d="M26.5 19H25.5V20H26.5V19Z" fill="#263238"/>
<path d="M7.5 20H6.5V21H7.5V20Z" fill="#90A4AE"/>
<path d="M8.5 20H7.5V21H8.5V20Z" fill="#90A4AE"/>
<path d="M9.5 20H8.5V21H9.5V20Z" fill="#263238"/>
<path d="M10.5 20H9.5V21H10.5V20Z" fill="#263238"/>
<path d="M11.5 20H10.5V21H11.5V20Z" fill="#263238"/>
<path d="M12.5 20H11.5V21H12.5V20Z" fill="#263238"/>
<path d="M13.5 20H12.5V21H13.5V20Z" fill="#263238"/>
<path d="M14.5 20H13.5V21H14.5V20Z" fill="#263238"/>
<path d="M15.5 20H14.5V21H15.5V20Z" fill="#263238"/>
<path d="M16.5 20H15.5V21H16.5V20Z" fill="#263238"/>
<path d="M17.5 20H16.5V21H17.5V20Z" fill="#263238"/>
<path d="M18.5 20H17.5V21H18.5V20Z" fill="#263238"/>
<path d="M19.5 20H18.5V21H19.5V20Z" fill="#263238"/>
<path d="M20.5 20H19.5V21H20.5V20Z" fill="#263238"/>
<path d="M21.5 20H20.5V21H21.5V20Z" fill="#263238"/>
<path d="M22.5 20H21.5V21H22.5V20Z" fill="#263238"/>
<path d="M23.5 20H22.5V21H23.5V20Z" fill="#263238"/>
<path d="M24.5 20H23.5V21H24.5V20Z" fill="#263238"/>
<path d="M25.5 20H24.5V21H25.5V20Z" fill="#90A4AE"/>
<path d="M26.5 20H25.5V21H26.5V20Z" fill="#90A4AE"/>
<path d="M7.5 21H6.5V22H7.5V21Z" fill="#90A4AE"/>
<path d="M8.5 21H7.5V22H8.5V21Z" fill="#90A4AE"/>
<path d="M9.5 21H8.5V22H9.5V21Z" fill="#263238"/>
<path d="M10.5 21H9.5V22H10.5V21Z" fill="#263238"/>
<path d="M11.5 21H10.5V22H11.5V21Z" fill="#263238"/>
<path d="M12.5 21H11.5V22H12.5V21Z" fill="#263238"/>
<path d="M13.5 21H12.5V22H13.5V21Z" fill="#263238"/>
<path d="M14.5 21H13.5V22H14.5V21Z" fill="#263238"/>
<path d="M15.5 21H14.5V22H15.5V21Z" fill="#263238"/>
<path d="M16.5 21H15.5V22H16.5V21Z" fill="white"/>
<path d="M17.5 21H16.5V22H17.5V21Z" fill="white"/>
<path d="M18.5 21H17.5V22H18.5V21Z" fill="#263238"/>
<path d="M19.5 21H18.5V22H19.5V21Z" fill="#263238"/>
<path d="M20.5 21H19.5V22H20.5V21Z" fill="#263238"/>
<path d="M21.5 21H20.5V22H21.5V21Z" fill="#263238"/>
<path d="M22.5 21H21.5V22H22.5V21Z" fill="#263238"/>
<path d="M23.5 21H22.5V22H23.5V21Z" fill="#263238"/>
<path d="M24.5 21H23.5V22H24.5V21Z" fill="#263238"/>
<path d="M25.5 21H24.5V22H25.5V21Z" fill="#90A4AE"/>
<path d="M26.5 21H25.5V22H26.5V21Z" fill="#90A4AE"/>
<path d="M7.5 22H6.5V23H7.5V22Z" fill="#90A4AE"/>
<path d="M8.5 22H7.5V23H8.5V22Z" fill="#90A4AE"/>
<path d="M9.5 22H8.5V23H9.5V22Z" fill="#263238"/>
<path d="M10.5 22H9.5V23H10.5V22Z" fill="#263238"/>
<path d="M11.5 22H10.5V23H11.5V22Z" fill="#263238"/>
<path d="M12.5 22H11.5V23H12.5V22Z" fill="#263238"/>
<path d="M13.5 22H12.5V23H13.5V22Z" fill="#263238"/>
<path d="M14.5 22H13.5V23H14.5V22Z" fill="#263238"/>
<path d="M15.5 22H14.5V23H15.5V22Z" fill="#263238"/>
<path d="M16.5 22H15.5V23H16.5V22Z" fill="white"/>
<path d="M17.5 22H16.5V23H17.5V22Z" fill="white"/>
<path d="M18.5 22H17.5V23H18.5V22Z" fill="#263238"/>
<path d="M19.5 22H18.5V23H19.5V22Z" fill="#263238"/>
<path d="M20.5 22H19.5V23H20.5V22Z" fill="#263238"/>
<path d="M21.5 22H20.5V23H21.5V22Z" fill="#263238"/>
<path d="M22.5 22H21.5V23H22.5V22Z" fill="#263238"/>
<path d="M23.5 22H22.5V23H23.5V22Z" fill="#263238"/>
<path d="M24.5 22H23.5V23H24.5V22Z" fill="#263238"/>
<path d="M25.5 22H24.5V23H25.5V22Z" fill="#90A4AE"/>
<path d="M26.5 22H25.5V23H26.5V22Z" fill="#90A4AE"/>
<path d="M7.5 23H6.5V24H7.5V23Z" fill="#90A4AE"/>
<path d="M8.5 23H7.5V24H8.5V23Z" fill="#90A4AE"/>
<path d="M9.5 23H8.5V24H9.5V23Z" fill="#263238"/>
<path d="M10.5 23H9.5V24H10.5V23Z" fill="#263238"/>
<path d="M11.5 23H10.5V24H11.5V23Z" fill="#263238"/>
<path d="M12.5 23H11.5V24H12.5V23Z" fill="#263238"/>
<path d="M13.5 23H12.5V24H13.5V23Z" fill="#263238"/>
<path d="M14.5 23H13.5V24H14.5V23Z" fill="#263238"/>
<path d="M15.5 23H14.5V24H15.5V23Z" fill="#263238"/>
<path d="M16.5 23H15.5V24H16.5V23Z" fill="#263238"/>
<path d="M17.5 23H16.5V24H17.5V23Z" fill="#263238"/>
<path d="M18.5 23H17.5V24H18.5V23Z" fill="#263238"/>
<path d="M19.5 23H18.5V24H19.5V23Z" fill="#263238"/>
<path d="M20.5 23H19.5V24H20.5V23Z" fill="#263238"/>
<path d="M21.5 23H20.5V24H21.5V23Z" fill="#263238"/>
<path d="M22.5 23H21.5V24H22.5V23Z" fill="#263238"/>
<path d="M23.5 23H22.5V24H23.5V23Z" fill="#263238"/>
<path d="M24.5 23H23.5V24H24.5V23Z" fill="#263238"/>
<path d="M25.5 23H24.5V24H25.5V23Z" fill="#90A4AE"/>
<path d="M26.5 23H25.5V24H26.5V23Z" fill="#90A4AE"/>
<path d="M7.5 24H6.5V25H7.5V24Z" fill="#90A4AE"/>
<path d="M8.5 24H7.5V25H8.5V24Z" fill="#90A4AE"/>
<path d="M9.5 24H8.5V25H9.5V24Z" fill="#90A4AE"/>
<path d="M10.5 24H9.5V25H10.5V24Z" fill="#90A4AE"/>
<path d="M11.5 24H10.5V25H11.5V24Z" fill="#90A4AE"/>
<path d="M12.5 24H11.5V25H12.5V24Z" fill="#90A4AE"/>
<path d="M13.5 24H12.5V25H13.5V24Z" fill="#90A4AE"/>
<path d="M14.5 24H13.5V25H14.5V24Z" fill="#263238"/>
<path d="M15.5 24H14.5V25H15.5V24Z" fill="#263238"/>
<path d="M16.5 24H15.5V25H16.5V24Z" fill="#263238"/>
<path d="M17.5 24H16.5V25H17.5V24Z" fill="#263238"/>
<path d="M18.5 24H17.5V25H18.5V24Z" fill="#263238"/>
<path d="M19.5 24H18.5V25H19.5V24Z" fill="#263238"/>
<path d="M20.5 24H19.5V25H20.5V24Z" fill="#263238"/>
<path d="M21.5 24H20.5V25H21.5V24Z" fill="#90A4AE"/>
<path d="M22.5 24H21.5V25H22.5V24Z" fill="#90A4AE"/>
<path d="M23.5 24H22.5V25H23.5V24Z" fill="#90A4AE"/>
<path d="M24.5 24H23.5V25H24.5V24Z" fill="#90A4AE"/>
<path d="M25.5 24H24.5V25H25.5V24Z" fill="#90A4AE"/>
<path d="M26.5 24H25.5V25H26.5V24Z" fill="#90A4AE"/>
<path d="M7.5 25H6.5V26H7.5V25Z" fill="#90A4AE"/>
<path d="M8.5 25H7.5V26H8.5V25Z" fill="#90A4AE"/>
<path d="M9.5 25H8.5V26H9.5V25Z" fill="#90A4AE"/>
<path d="M10.5 25H9.5V26H10.5V25Z" fill="#90A4AE"/>
<path d="M11.5 25H10.5V26H11.5V25Z" fill="#90A4AE"/>
<path d="M12.5 25H11.5V26H12.5V25Z" fill="#90A4AE"/>
<path d="M13.5 25H12.5V26H13.5V25Z" fill="#90A4AE"/>
<path d="M14.5 25H13.5V26H14.5V25Z" fill="#263238"/>
<path d="M15.5 25H14.5V26H15.5V25Z" fill="#263238"/>
<path d="M16.5 25H15.5V26H16.5V25Z" fill="#263238"/>
<path d="M17.5 25H16.5V26H17.5V25Z" fill="#263238"/>
<path d="M18.5 25H17.5V26H18.5V25Z" fill="#263238"/>
<path d="M19.5 25H18.5V26H19.5V25Z" fill="#263238"/>
<path d="M20.5 25H19.5V26H20.5V25Z" fill="#263238"/>
<path d="M21.5 25H20.5V26H21.5V25Z" fill="#90A4AE"/>
<path d="M22.5 25H21.5V26H22.5V25Z" fill="#90A4AE"/>
<path d="M23.5 25H22.5V26H23.5V25Z" fill="#90A4AE"/>
<path d="M24.5 25H23.5V26H24.5V25Z" fill="#90A4AE"/>
<path d="M25.5 25H24.5V26H25.5V25Z" fill="#90A4AE"/>
<path d="M26.5 25H25.5V26H26.5V25Z" fill="#90A4AE"/>
</svg>