<svg width="21" height="20" viewBox="0 0 21 20" fill="none" xmlns="http://www.w3.org/2000/svg">
<g clip-path="url(#clip0_895_497674)">
<path d="M1.61033 0.400146H0.599609V1.41086H1.61033V0.400146Z" fill="#414162"/>
<path d="M2.62205 0.400146H1.61133V1.41086H2.62205V0.400146Z" fill="#414162"/>
<path d="M3.63181 0.400146H2.62109V1.41086H3.63181V0.400146Z" fill="#414162"/>
<path d="M4.64158 0.400146H3.63086V1.41086H4.64158V0.400146Z" fill="#414162"/>
<path d="M5.6533 0.400146H4.64258V1.41086H5.6533V0.400146Z" fill="#414162"/>
<path d="M8.68455 0.400146H7.67383V1.41086H8.68455V0.400146Z" fill="#414162"/>
<path d="M9.69431 0.400146H8.68359V1.41086H9.69431V0.400146Z" fill="#414162"/>
<path d="M10.7041 0.400146H9.69336V1.41086H10.7041V0.400146Z" fill="#414162"/>
<path d="M17.7783 0.400146H16.7676V1.41086H17.7783V0.400146Z" fill="#414162"/>
<path d="M1.61033 1.41089H0.599609V2.42161H1.61033V1.41089Z" fill="#414162"/>
<path d="M2.62205 1.41089H1.61133V2.42161H2.62205V1.41089Z" fill="#9FA8CA"/>
<path d="M3.63181 1.41089H2.62109V2.42161H3.63181V1.41089Z" fill="#9FA8CA"/>
<path d="M4.64158 1.41089H3.63086V2.42161H4.64158V1.41089Z" fill="#9FA8CA"/>
<path d="M5.6533 1.41089H4.64258V2.42161H5.6533V1.41089Z" fill="#414162"/>
<path d="M7.67283 1.41089H6.66211V2.42161H7.67283V1.41089Z" fill="#414162"/>
<path d="M8.68455 1.41089H7.67383V2.42161H8.68455V1.41089Z" fill="#DBE4F2"/>
<path d="M9.69431 1.41089H8.68359V2.42161H9.69431V1.41089Z" fill="#DBE4F2"/>
<path d="M10.7041 1.41089H9.69336V2.42161H10.7041V1.41089Z" fill="#9FA8CA"/>
<path d="M11.7158 1.41089H10.7051V2.42161H11.7158V1.41089Z" fill="#414162"/>
<path d="M16.7685 1.41089H15.7578V2.42161H16.7685V1.41089Z" fill="#414162"/>
<path d="M17.7783 1.41089H16.7676V2.42161H17.7783V1.41089Z" fill="#D05D60"/>
<path d="M18.7881 1.41089H17.7773V2.42161H18.7881V1.41089Z" fill="#414162"/>
<path d="M1.61033 2.42139H0.599609V3.4321H1.61033V2.42139Z" fill="#414162"/>
<path d="M2.62205 2.42139H1.61133V3.4321H2.62205V2.42139Z" fill="#414162"/>
<path d="M3.63181 2.42139H2.62109V3.4321H3.63181V2.42139Z" fill="#414162"/>
<path d="M4.64158 2.42139H3.63086V3.4321H4.64158V2.42139Z" fill="#414162"/>
<path d="M5.6533 2.42139H4.64258V3.4321H5.6533V2.42139Z" fill="#414162"/>
<path d="M7.67283 2.42139H6.66211V3.4321H7.67283V2.42139Z" fill="#414162"/>
<path d="M8.68455 2.42139H7.67383V3.4321H8.68455V2.42139Z" fill="#DBE4F2"/>
<path d="M9.69431 2.42139H8.68359V3.4321H9.69431V2.42139Z" fill="#D05D60"/>
<path d="M10.7041 2.42139H9.69336V3.4321H10.7041V2.42139Z" fill="#9FA8CA"/>
<path d="M11.7158 2.42139H10.7051V3.4321H11.7158V2.42139Z" fill="#414162"/>
<path d="M15.7568 2.42139H14.7461V3.4321H15.7568V2.42139Z" fill="#414162"/>
<path d="M16.7685 2.42139H15.7578V3.4321H16.7685V2.42139Z" fill="#D05D60"/>
<path d="M17.7783 2.42139H16.7676V3.4321H17.7783V2.42139Z" fill="#D05D60"/>
<path d="M18.7881 2.42139H17.7773V3.4321H18.7881V2.42139Z" fill="#D05D60"/>
<path d="M19.7998 2.42139H18.7891V3.4321H19.7998V2.42139Z" fill="#414162"/>
<path d="M7.67283 3.43213H6.66211V4.44285H7.67283V3.43213Z" fill="#414162"/>
<path d="M8.68455 3.43213H7.67383V4.44285H8.68455V3.43213Z" fill="#DBE4F2"/>
<path d="M9.69431 3.43213H8.68359V4.44285H9.69431V3.43213Z" fill="#D05D60"/>
<path d="M10.7041 3.43213H9.69336V4.44285H10.7041V3.43213Z" fill="#9FA8CA"/>
<path d="M11.7158 3.43213H10.7051V4.44285H11.7158V3.43213Z" fill="#414162"/>
<path d="M14.747 3.43213H13.7363V4.44285H14.747V3.43213Z" fill="#414162"/>
<path d="M15.7568 3.43213H14.7461V4.44285H15.7568V3.43213Z" fill="#AF3C55"/>
<path d="M16.7685 3.43213H15.7578V4.44285H16.7685V3.43213Z" fill="#AF3C55"/>
<path d="M17.7783 3.43213H16.7676V4.44285H17.7783V3.43213Z" fill="#D05D60"/>
<path d="M18.7881 3.43213H17.7773V4.44285H18.7881V3.43213Z" fill="#AF3C55"/>
<path d="M19.7998 3.43213H18.7891V4.44285H19.7998V3.43213Z" fill="#AF3C55"/>
<path d="M20.8115 3.43213H19.8008V4.44285H20.8115V3.43213Z" fill="#414162"/>
<path d="M2.62205 4.44214H1.61133V5.45286H2.62205V4.44214Z" fill="#414162"/>
<path d="M3.63181 4.44214H2.62109V5.45286H3.63181V4.44214Z" fill="#414162"/>
<path d="M4.64158 4.44214H3.63086V5.45286H4.64158V4.44214Z" fill="#414162"/>
<path d="M5.6533 4.44214H4.64258V5.45286H5.6533V4.44214Z" fill="#414162"/>
<path d="M7.67283 4.44214H6.66211V5.45286H7.67283V4.44214Z" fill="#414162"/>
<path d="M8.68455 4.44214H7.67383V5.45286H8.68455V4.44214Z" fill="#DBE4F2"/>
<path d="M9.69431 4.44214H8.68359V5.45286H9.69431V4.44214Z" fill="#D05D60"/>
<path d="M10.7041 4.44214H9.69336V5.45286H10.7041V4.44214Z" fill="#9FA8CA"/>
<path d="M11.7158 4.44214H10.7051V5.45286H11.7158V4.44214Z" fill="#414162"/>
<path d="M14.747 4.44214H13.7363V5.45286H14.747V4.44214Z" fill="#414162"/>
<path d="M15.7568 4.44214H14.7461V5.45286H15.7568V4.44214Z" fill="#414162"/>
<path d="M16.7685 4.44214H15.7578V5.45286H16.7685V4.44214Z" fill="#414162"/>
<path d="M17.7783 4.44214H16.7676V5.45286H17.7783V4.44214Z" fill="#D05D60"/>
<path d="M18.7881 4.44214H17.7773V5.45286H18.7881V4.44214Z" fill="#414162"/>
<path d="M19.7998 4.44214H18.7891V5.45286H19.7998V4.44214Z" fill="#414162"/>
<path d="M20.8115 4.44214H19.8008V5.45286H20.8115V4.44214Z" fill="#414162"/>
<path d="M2.62205 5.45288H1.61133V6.4636H2.62205V5.45288Z" fill="#414162"/>
<path d="M3.63181 5.45288H2.62109V6.4636H3.63181V5.45288Z" fill="#9FA8CA"/>
<path d="M4.64158 5.45288H3.63086V6.4636H4.64158V5.45288Z" fill="#9FA8CA"/>
<path d="M5.6533 5.45288H4.64258V6.4636H5.6533V5.45288Z" fill="#414162"/>
<path d="M7.67283 5.45288H6.66211V6.4636H7.67283V5.45288Z" fill="#414162"/>
<path d="M8.68455 5.45288H7.67383V6.4636H8.68455V5.45288Z" fill="#DBE4F2"/>
<path d="M9.69431 5.45288H8.68359V6.4636H9.69431V5.45288Z" fill="#D05D60"/>
<path d="M10.7041 5.45288H9.69336V6.4636H10.7041V5.45288Z" fill="#9FA8CA"/>
<path d="M11.7158 5.45288H10.7051V6.4636H11.7158V5.45288Z" fill="#414162"/>
<path d="M16.7685 5.45288H15.7578V6.4636H16.7685V5.45288Z" fill="#414162"/>
<path d="M17.7783 5.45288H16.7676V6.4636H17.7783V5.45288Z" fill="#D05D60"/>
<path d="M18.7881 5.45288H17.7773V6.4636H18.7881V5.45288Z" fill="#414162"/>
<path d="M2.62205 6.46338H1.61133V7.4741H2.62205V6.46338Z" fill="#414162"/>
<path d="M3.63181 6.46338H2.62109V7.4741H3.63181V6.46338Z" fill="#414162"/>
<path d="M4.64158 6.46338H3.63086V7.4741H4.64158V6.46338Z" fill="#414162"/>
<path d="M5.6533 6.46338H4.64258V7.4741H5.6533V6.46338Z" fill="#414162"/>
<path d="M7.67283 6.46338H6.66211V7.4741H7.67283V6.46338Z" fill="#414162"/>
<path d="M8.68455 6.46338H7.67383V7.4741H8.68455V6.46338Z" fill="#DBE4F2"/>
<path d="M9.69431 6.46338H8.68359V7.4741H9.69431V6.46338Z" fill="#D05D60"/>
<path d="M10.7041 6.46338H9.69336V7.4741H10.7041V6.46338Z" fill="#9FA8CA"/>
<path d="M11.7158 6.46338H10.7051V7.4741H11.7158V6.46338Z" fill="#414162"/>
<path d="M16.7685 6.46338H15.7578V7.4741H16.7685V6.46338Z" fill="#414162"/>
<path d="M17.7783 6.46338H16.7676V7.4741H17.7783V6.46338Z" fill="#D05D60"/>
<path d="M18.7881 6.46338H17.7773V7.4741H18.7881V6.46338Z" fill="#414162"/>
<path d="M7.67283 7.47412H6.66211V8.48484H7.67283V7.47412Z" fill="#414162"/>
<path d="M8.68455 7.47412H7.67383V8.48484H8.68455V7.47412Z" fill="#DBE4F2"/>
<path d="M9.69431 7.47412H8.68359V8.48484H9.69431V7.47412Z" fill="#D05D60"/>
<path d="M10.7041 7.47412H9.69336V8.48484H10.7041V7.47412Z" fill="#9FA8CA"/>
<path d="M11.7158 7.47412H10.7051V8.48484H11.7158V7.47412Z" fill="#414162"/>
<path d="M16.7685 7.47412H15.7578V8.48484H16.7685V7.47412Z" fill="#414162"/>
<path d="M17.7783 7.47412H16.7676V8.48484H17.7783V7.47412Z" fill="#D05D60"/>
<path d="M18.7881 7.47412H17.7773V8.48484H18.7881V7.47412Z" fill="#414162"/>
<path d="M1.61033 8.48438H0.599609V9.49509H1.61033V8.48438Z" fill="#414162"/>
<path d="M2.62205 8.48438H1.61133V9.49509H2.62205V8.48438Z" fill="#414162"/>
<path d="M3.63181 8.48438H2.62109V9.49509H3.63181V8.48438Z" fill="#414162"/>
<path d="M4.64158 8.48438H3.63086V9.49509H4.64158V8.48438Z" fill="#414162"/>
<path d="M5.6533 8.48438H4.64258V9.49509H5.6533V8.48438Z" fill="#414162"/>
<path d="M7.67283 8.48438H6.66211V9.49509H7.67283V8.48438Z" fill="#414162"/>
<path d="M8.68455 8.48438H7.67383V9.49509H8.68455V8.48438Z" fill="#DBE4F2"/>
<path d="M9.69431 8.48438H8.68359V9.49509H9.69431V8.48438Z" fill="#D05D60"/>
<path d="M10.7041 8.48438H9.69336V9.49509H10.7041V8.48438Z" fill="#9FA8CA"/>
<path d="M11.7158 8.48438H10.7051V9.49509H11.7158V8.48438Z" fill="#414162"/>
<path d="M16.7685 8.48438H15.7578V9.49509H16.7685V8.48438Z" fill="#414162"/>
<path d="M17.7783 8.48438H16.7676V9.49509H17.7783V8.48438Z" fill="#D05D60"/>
<path d="M18.7881 8.48438H17.7773V9.49509H18.7881V8.48438Z" fill="#414162"/>
<path d="M1.61033 9.49512H0.599609V10.5058H1.61033V9.49512Z" fill="#414162"/>
<path d="M2.62205 9.49512H1.61133V10.5058H2.62205V9.49512Z" fill="#9FA8CA"/>
<path d="M3.63181 9.49512H2.62109V10.5058H3.63181V9.49512Z" fill="#9FA8CA"/>
<path d="M4.64158 9.49512H3.63086V10.5058H4.64158V9.49512Z" fill="#9FA8CA"/>
<path d="M5.6533 9.49512H4.64258V10.5058H5.6533V9.49512Z" fill="#414162"/>
<path d="M7.67283 9.49512H6.66211V10.5058H7.67283V9.49512Z" fill="#414162"/>
<path d="M8.68455 9.49512H7.67383V10.5058H8.68455V9.49512Z" fill="#DBE4F2"/>
<path d="M9.69431 9.49512H8.68359V10.5058H9.69431V9.49512Z" fill="#D05D60"/>
<path d="M10.7041 9.49512H9.69336V10.5058H10.7041V9.49512Z" fill="#9FA8CA"/>
<path d="M11.7158 9.49512H10.7051V10.5058H11.7158V9.49512Z" fill="#414162"/>
<path d="M16.7685 9.49512H15.7578V10.5058H16.7685V9.49512Z" fill="#414162"/>
<path d="M17.7783 9.49512H16.7676V10.5058H17.7783V9.49512Z" fill="#D05D60"/>
<path d="M18.7881 9.49512H17.7773V10.5058H18.7881V9.49512Z" fill="#414162"/>
<path d="M1.61033 10.5054H0.599609V11.5161H1.61033V10.5054Z" fill="#414162"/>
<path d="M2.62205 10.5054H1.61133V11.5161H2.62205V10.5054Z" fill="#414162"/>
<path d="M3.63181 10.5054H2.62109V11.5161H3.63181V10.5054Z" fill="#414162"/>
<path d="M4.64158 10.5054H3.63086V11.5161H4.64158V10.5054Z" fill="#414162"/>
<path d="M5.6533 10.5054H4.64258V11.5161H5.6533V10.5054Z" fill="#414162"/>
<path d="M7.67283 10.5054H6.66211V11.5161H7.67283V10.5054Z" fill="#414162"/>
<path d="M8.68455 10.5054H7.67383V11.5161H8.68455V10.5054Z" fill="#DBE4F2"/>
<path d="M9.69431 10.5054H8.68359V11.5161H9.69431V10.5054Z" fill="#D05D60"/>
<path d="M10.7041 10.5054H9.69336V11.5161H10.7041V10.5054Z" fill="#9FA8CA"/>
<path d="M11.7158 10.5054H10.7051V11.5161H11.7158V10.5054Z" fill="#414162"/>
<path d="M16.7685 10.5054H15.7578V11.5161H16.7685V10.5054Z" fill="#414162"/>
<path d="M17.7783 10.5054H16.7676V11.5161H17.7783V10.5054Z" fill="#D05D60"/>
<path d="M18.7881 10.5054H17.7773V11.5161H18.7881V10.5054Z" fill="#414162"/>
<path d="M7.67283 11.5161H6.66211V12.5268H7.67283V11.5161Z" fill="#414162"/>
<path d="M8.68455 11.5161H7.67383V12.5268H8.68455V11.5161Z" fill="#DBE4F2"/>
<path d="M9.69431 11.5161H8.68359V12.5268H9.69431V11.5161Z" fill="#D05D60"/>
<path d="M10.7041 11.5161H9.69336V12.5268H10.7041V11.5161Z" fill="#9FA8CA"/>
<path d="M11.7158 11.5161H10.7051V12.5268H11.7158V11.5161Z" fill="#414162"/>
<path d="M16.7685 11.5161H15.7578V12.5268H16.7685V11.5161Z" fill="#414162"/>
<path d="M17.7783 11.5161H16.7676V12.5268H17.7783V11.5161Z" fill="#AF3C55"/>
<path d="M18.7881 11.5161H17.7773V12.5268H18.7881V11.5161Z" fill="#414162"/>
<path d="M6.66306 12.5264H5.65234V13.5371H6.66306V12.5264Z" fill="#414162"/>
<path d="M7.67283 12.5264H6.66211V13.5371H7.67283V12.5264Z" fill="#DBE4F2"/>
<path d="M8.68455 12.5264H7.67383V13.5371H8.68455V12.5264Z" fill="#D05D60"/>
<path d="M9.69431 12.5264H8.68359V13.5371H9.69431V12.5264Z" fill="#D05D60"/>
<path d="M10.7041 12.5264H9.69336V13.5371H10.7041V12.5264Z" fill="#AF3C55"/>
<path d="M11.7158 12.5264H10.7051V13.5371H11.7158V12.5264Z" fill="#9FA8CA"/>
<path d="M12.7256 12.5264H11.7148V13.5371H12.7256V12.5264Z" fill="#414162"/>
<path d="M16.7685 12.5264H15.7578V13.5371H16.7685V12.5264Z" fill="#414162"/>
<path d="M17.7783 12.5264H16.7676V13.5371H17.7783V12.5264Z" fill="#414162"/>
<path d="M18.7881 12.5264H17.7773V13.5371H18.7881V12.5264Z" fill="#414162"/>
<path d="M5.6533 13.5371H4.64258V14.5478H5.6533V13.5371Z" fill="#414162"/>
<path d="M6.66306 13.5371H5.65234V14.5478H6.66306V13.5371Z" fill="#DBE4F2"/>
<path d="M7.67283 13.5371H6.66211V14.5478H7.67283V13.5371Z" fill="#D05D60"/>
<path d="M8.68455 13.5371H7.67383V14.5478H8.68455V13.5371Z" fill="#D05D60"/>
<path d="M9.69431 13.5371H8.68359V14.5478H9.69431V13.5371Z" fill="#D05D60"/>
<path d="M10.7041 13.5371H9.69336V14.5478H10.7041V13.5371Z" fill="#D05D60"/>
<path d="M11.7158 13.5371H10.7051V14.5478H11.7158V13.5371Z" fill="#AF3C55"/>
<path d="M12.7256 13.5371H11.7148V14.5478H12.7256V13.5371Z" fill="#9FA8CA"/>
<path d="M13.7353 13.5371H12.7246V14.5478H13.7353V13.5371Z" fill="#414162"/>
<path d="M5.6533 14.5476H4.64258V15.5583H5.6533V14.5476Z" fill="#414162"/>
<path d="M6.66306 14.5476H5.65234V15.5583H6.66306V14.5476Z" fill="#DBE4F2"/>
<path d="M7.67283 14.5476H6.66211V15.5583H7.67283V14.5476Z" fill="#D05D60"/>
<path d="M8.68455 14.5476H7.67383V15.5583H8.68455V14.5476Z" fill="#FFFDFF"/>
<path d="M9.69431 14.5476H8.68359V15.5583H9.69431V14.5476Z" fill="#D05D60"/>
<path d="M10.7041 14.5476H9.69336V15.5583H10.7041V14.5476Z" fill="#D05D60"/>
<path d="M11.7158 14.5476H10.7051V15.5583H11.7158V14.5476Z" fill="#AF3C55"/>
<path d="M12.7256 14.5476H11.7148V15.5583H12.7256V14.5476Z" fill="#9FA8CA"/>
<path d="M13.7353 14.5476H12.7246V15.5583H13.7353V14.5476Z" fill="#414162"/>
<path d="M5.6533 15.5583H4.64258V16.5691H5.6533V15.5583Z" fill="#414162"/>
<path d="M6.66306 15.5583H5.65234V16.5691H6.66306V15.5583Z" fill="#DBE4F2"/>
<path d="M7.67283 15.5583H6.66211V16.5691H7.67283V15.5583Z" fill="#AF3C55"/>
<path d="M8.68455 15.5583H7.67383V16.5691H8.68455V15.5583Z" fill="#D05D60"/>
<path d="M9.69431 15.5583H8.68359V16.5691H9.69431V15.5583Z" fill="#D05D60"/>
<path d="M10.7041 15.5583H9.69336V16.5691H10.7041V15.5583Z" fill="#AF3C55"/>
<path d="M11.7158 15.5583H10.7051V16.5691H11.7158V15.5583Z" fill="#AF3C55"/>
<path d="M12.7256 15.5583H11.7148V16.5691H12.7256V15.5583Z" fill="#9FA8CA"/>
<path d="M13.7353 15.5583H12.7246V16.5691H13.7353V15.5583Z" fill="#414162"/>
<path d="M6.66306 16.5684H5.65234V17.5791H6.66306V16.5684Z" fill="#414162"/>
<path d="M7.67283 16.5684H6.66211V17.5791H7.67283V16.5684Z" fill="#DBE4F2"/>
<path d="M8.68455 16.5684H7.67383V17.5791H8.68455V16.5684Z" fill="#AF3C55"/>
<path d="M9.69431 16.5684H8.68359V17.5791H9.69431V16.5684Z" fill="#AF3C55"/>
<path d="M10.7041 16.5684H9.69336V17.5791H10.7041V16.5684Z" fill="#AF3C55"/>
<path d="M11.7158 16.5684H10.7051V17.5791H11.7158V16.5684Z" fill="#9FA8CA"/>
<path d="M12.7256 16.5684H11.7148V17.5791H12.7256V16.5684Z" fill="#414162"/>
<path d="M7.67283 17.5791H6.66211V18.5898H7.67283V17.5791Z" fill="#414162"/>
<path d="M8.68455 17.5791H7.67383V18.5898H8.68455V17.5791Z" fill="#9FA8CA"/>
<path d="M9.69431 17.5791H8.68359V18.5898H9.69431V17.5791Z" fill="#9FA8CA"/>
<path d="M10.7041 17.5791H9.69336V18.5898H10.7041V17.5791Z" fill="#9FA8CA"/>
<path d="M11.7158 17.5791H10.7051V18.5898H11.7158V17.5791Z" fill="#414162"/>
<path d="M8.68455 18.5896H7.67383V19.6003H8.68455V18.5896Z" fill="#414162"/>
<path d="M9.69431 18.5896H8.68359V19.6003H9.69431V18.5896Z" fill="#414162"/>
<path d="M10.7041 18.5896H9.69336V19.6003H10.7041V18.5896Z" fill="#414162"/>
</g>
<defs>
<clipPath id="clip0_895_497674">
<rect width="20.2103" height="19.2" fill="white" transform="translate(0.599609 0.400146)"/>
</clipPath>
</defs>
</svg>
