<svg width="32" height="32" viewBox="0 0 32 32" fill="none" xmlns="http://www.w3.org/2000/svg">
<g clip-path="url(#clip0_1320_197083)">
<g clip-path="url(#clip1_1320_197083)">
</g>
<g clip-path="url(#clip2_1320_197083)">
<path d="M12.2043 7.31542C12.2043 7.23217 12.2043 7.14892 12.2043 7.06567C12.2043 7.05639 12.2111 7.05138 12.2265 7.04883C12.2795 7.10596 12.2473 7.18621 12.2819 7.25212C12.3391 7.29381 12.4079 7.27869 12.4726 7.27869C14.5424 7.27952 16.6123 7.27936 18.6822 7.27936C19.045 7.27936 19.408 7.27891 19.7708 7.27974C19.8258 7.27986 19.8826 7.27296 19.9329 7.30503C19.9909 7.38978 19.9708 7.48059 19.9534 7.57107C19.8927 7.64482 19.7973 7.58986 19.7212 7.63498C19.6844 7.70434 19.7102 7.77981 19.7205 7.85478C19.7183 7.93704 19.7552 8.02524 19.6839 8.09682C19.604 8.05052 19.6684 7.95721 19.6126 7.89408C19.5692 7.86901 19.5164 7.88057 19.4627 7.88885C19.4137 7.96905 19.4435 8.04741 19.454 8.1251C19.4514 8.20641 19.489 8.29422 19.4155 8.3638C19.3391 8.31573 19.4001 8.22347 19.3522 8.16617C19.3013 8.15139 19.247 8.15076 19.1893 8.16429C19.1482 8.24265 19.1794 8.32423 19.1905 8.40559C19.1965 8.45378 19.1958 8.50196 19.1958 8.55009C19.1959 10.5014 19.1959 12.4527 19.1958 14.404C19.1958 14.4373 19.1974 14.4707 19.1925 14.5037C19.1867 14.596 19.2168 14.6921 19.1634 14.7794C19.1016 14.7792 19.1111 14.7282 19.1063 14.6928C19.0982 14.6315 19.1023 14.5693 19.1047 14.5075C19.0992 14.4632 19.1014 14.4187 19.1014 14.3743C19.1013 12.4603 19.1014 10.5464 19.101 8.6324C19.101 8.57015 19.1101 8.50646 19.0851 8.447C18.9938 8.40926 13.2027 8.40382 13.0845 8.44138C13.0516 8.49841 13.0631 8.56265 13.0631 8.62445C13.0624 10.5162 13.0627 12.408 13.0622 14.2997C13.0622 14.366 13.0691 14.433 13.0503 14.4984C13.0417 14.5202 13.0303 14.5389 13.003 14.5386C12.9923 14.5278 12.9845 14.5152 12.9797 14.5008C12.966 14.4577 12.9683 14.413 12.9683 14.3686C12.968 12.4031 12.9679 10.4377 12.9682 8.47217C12.9682 8.45 12.968 8.42777 12.9706 8.40593C12.9672 8.32679 12.9855 8.24576 12.9564 8.16984C12.9084 8.13967 12.8632 8.143 12.8166 8.16173C12.7613 8.22725 12.8251 8.32579 12.7538 8.38614C12.6676 8.31289 12.7163 8.21469 12.7056 8.12766C12.699 8.05213 12.7205 7.97405 12.6891 7.9008C12.6418 7.87251 12.5963 7.87663 12.5503 7.89469C12.4937 7.96032 12.5594 8.05969 12.4862 8.1196C12.4006 8.04591 12.4497 7.94793 12.4389 7.8609C12.4343 7.78509 12.4498 7.70745 12.4265 7.63643C12.3746 7.60614 12.3291 7.60981 12.2837 7.62826C12.2267 7.69395 12.2942 7.79421 12.218 7.8529C12.1355 7.77392 12.1825 7.67311 12.1718 7.58202C12.1768 7.49238 12.147 7.39851 12.2042 7.31526L12.2043 7.31542Z" fill="#949AC7"/>
<path d="M21.8037 16.9131C21.8037 16.8298 21.8037 16.7466 21.8037 16.6633C21.8037 16.654 21.8105 16.649 21.8259 16.6465C21.8784 16.7037 21.8476 16.7836 21.8798 16.8487C21.9385 16.8915 22.0072 16.8763 22.0719 16.8764C24.1418 16.8772 26.2117 16.8771 28.2816 16.8771C28.6444 16.8771 29.0073 16.8766 29.3702 16.8775C29.4252 16.8776 29.482 16.8707 29.5323 16.9027C29.5902 16.9875 29.5702 17.0783 29.5528 17.1688C29.4922 17.2429 29.3966 17.1871 29.3204 17.233C29.2838 17.3021 29.3096 17.3775 29.3199 17.4525C29.3177 17.5347 29.3546 17.6229 29.2833 17.6945C29.2035 17.6482 29.267 17.5552 29.2148 17.4938C29.1686 17.4683 29.116 17.474 29.0594 17.4911C29.0131 17.5668 29.043 17.6451 29.0535 17.7228C29.0508 17.8041 29.0884 17.8919 29.015 17.9615C28.9385 17.9134 28.9995 17.8212 28.9487 17.7603C28.9 17.7363 28.8477 17.7397 28.7895 17.7607C28.7477 17.8404 28.7789 17.922 28.79 18.0034C28.796 18.0515 28.7953 18.0997 28.7953 18.1479C28.7954 20.0992 28.7954 22.0504 28.7953 24.0017C28.7953 24.035 28.7969 24.0684 28.792 24.1015C28.7861 24.1938 28.8163 24.2899 28.7629 24.3772C28.7011 24.3769 28.7106 24.326 28.7058 24.2906C28.6977 24.2293 28.7018 24.1671 28.7042 24.1052C28.6988 24.0609 28.701 24.0165 28.701 23.9721C28.7008 22.0544 28.701 20.1368 28.7007 18.2192C28.7007 18.1605 28.707 18.1008 28.6862 18.0455C28.5937 18.0072 22.8031 18.0015 22.6841 18.0391C22.6512 18.0961 22.6626 18.1603 22.6626 18.2221C22.662 20.1138 22.6622 22.0056 22.6618 23.8973C22.6618 23.9637 22.6687 24.0308 22.6499 24.0962C22.6413 24.118 22.6299 24.1367 22.6026 24.1365C22.5919 24.1257 22.5841 24.1131 22.5793 24.0987C22.5656 24.0555 22.5679 24.0109 22.5679 23.9666C22.5676 22.0011 22.5675 20.0356 22.5678 18.0701C22.5678 18.0479 22.5676 18.0257 22.5702 18.0039C22.5669 17.9247 22.5851 17.8437 22.556 17.7678C22.5081 17.7375 22.4628 17.7409 22.4162 17.7597C22.3609 17.8252 22.4247 17.9237 22.3534 17.9841C22.2672 17.9108 22.3159 17.8126 22.3052 17.7256C22.2986 17.6501 22.3202 17.572 22.2887 17.4987C22.2415 17.4704 22.1959 17.4746 22.1499 17.4926C22.0933 17.5583 22.159 17.6576 22.0858 17.7175C22.0003 17.6438 22.0493 17.5459 22.0385 17.4588C22.0322 17.3832 22.0531 17.3051 22.0219 17.2305C21.9742 17.2035 21.9286 17.211 21.8867 17.2224C21.8264 17.2919 21.8938 17.3922 21.8176 17.4509C21.7351 17.3719 21.7821 17.2711 21.7714 17.18C21.7763 17.0904 21.7466 16.9965 21.8038 16.9132L21.8037 16.9131Z" fill="#949AC7"/>
<path d="M12.2042 16.9131C12.2042 16.8298 12.2042 16.7466 12.2042 16.6633C12.2042 16.654 12.211 16.649 12.2264 16.6465C12.2789 16.7037 12.2482 16.7836 12.2803 16.8487C12.3391 16.8915 12.4078 16.8763 12.4725 16.8764C14.5498 16.8772 16.627 16.8771 18.7043 16.8771C19.0598 16.8771 19.4152 16.8766 19.7707 16.8775C19.8257 16.8776 19.8825 16.8707 19.9328 16.9027C19.9908 16.9875 19.9707 17.0783 19.9533 17.1688C19.8927 17.2429 19.7971 17.1871 19.7208 17.233C19.6842 17.3021 19.7101 17.3775 19.7203 17.4525C19.7181 17.5347 19.755 17.6229 19.6837 17.6945C19.6039 17.6482 19.6674 17.5552 19.6152 17.4937C19.569 17.4682 19.5164 17.4739 19.4598 17.491C19.4135 17.5667 19.4434 17.6451 19.4539 17.7228C19.4512 17.8041 19.4888 17.8919 19.4153 17.9615C19.339 17.9133 19.3999 17.8211 19.3489 17.7602C19.3004 17.7362 19.2481 17.7395 19.1899 17.7606C19.1481 17.8403 19.1793 17.9219 19.1904 18.0033C19.1964 18.0514 19.1957 18.0996 19.1957 18.1477C19.1958 20.0991 19.1958 22.0503 19.1957 24.0016C19.1957 24.0349 19.1973 24.0683 19.1924 24.1014C19.1865 24.1936 19.2167 24.2898 19.1633 24.377C19.1015 24.3768 19.111 24.3258 19.1062 24.2905C19.0981 24.2292 19.1022 24.167 19.1046 24.1051C19.0992 24.0608 19.1013 24.0164 19.1013 23.972C19.1013 22.058 19.1013 20.1441 19.1009 18.2301C19.1009 18.1679 19.11 18.1042 19.0851 18.0447C18.9941 18.007 13.2035 18.0013 13.0845 18.0389C13.0516 18.0959 13.063 18.1601 13.063 18.2219C13.0624 20.1137 13.0626 22.0054 13.0622 23.8971C13.0622 23.9635 13.0691 24.0305 13.0503 24.0959C13.0417 24.1178 13.0303 24.1365 13.003 24.1362C12.9923 24.1255 12.9845 24.1128 12.9797 24.0984C12.966 24.0553 12.9683 24.0106 12.9683 23.9663C12.968 22.0009 12.9679 20.0354 12.9682 18.0699C12.9682 18.0477 12.968 18.0255 12.9706 18.0036C12.9687 17.9244 12.9827 17.8437 12.9591 17.7693C12.9084 17.7374 12.8632 17.7408 12.8166 17.7594C12.7613 17.825 12.8251 17.9235 12.7538 17.9839C12.6676 17.9106 12.7163 17.8124 12.7056 17.7254C12.699 17.6498 12.7205 17.5718 12.6891 17.4985C12.6418 17.4703 12.5963 17.4743 12.5503 17.4924C12.4937 17.558 12.5594 17.6574 12.4862 17.7173C12.4006 17.6436 12.4497 17.5456 12.4389 17.4586C12.4343 17.3828 12.4498 17.3052 12.4265 17.2341C12.3746 17.2039 12.3291 17.2075 12.2837 17.226C12.2267 17.2917 12.2942 17.3919 12.218 17.4506C12.1355 17.3716 12.1825 17.2708 12.1718 17.1797C12.1768 17.0901 12.147 16.9962 12.2042 16.913L12.2042 16.9131Z" fill="#949AC7"/>
<path d="M2.60446 16.9131C2.60446 16.8298 2.60446 16.7466 2.60446 16.6633C2.60446 16.654 2.61124 16.649 2.62664 16.6465C2.67966 16.7036 2.64742 16.7839 2.6821 16.8498C2.73929 16.8915 2.80804 16.8763 2.87273 16.8763C4.9426 16.8772 7.01248 16.877 9.08235 16.877C9.44521 16.877 9.80812 16.8766 10.171 16.8774C10.2259 16.8775 10.2827 16.8706 10.333 16.9027C10.3911 16.9874 10.371 17.0783 10.3536 17.1687C10.2929 17.2425 10.1975 17.1875 10.1213 17.2326C10.0846 17.302 10.1104 17.3775 10.1207 17.4524C10.1185 17.5347 10.1554 17.6229 10.0841 17.6945C10.0042 17.6482 10.0677 17.5551 10.0155 17.4937C9.96929 17.4682 9.91672 17.4739 9.86009 17.491C9.81385 17.5666 9.84369 17.645 9.8542 17.7227C9.85153 17.804 9.88921 17.8918 9.81568 17.9614C9.73938 17.9133 9.80023 17.8211 9.74927 17.7601C9.70075 17.7361 9.64845 17.7395 9.59021 17.7606C9.54842 17.8402 9.57959 17.9218 9.59071 18.0032C9.59671 18.0514 9.59599 18.0996 9.59599 18.1477C9.5961 20.099 9.5961 22.0503 9.59599 24.0016C9.59599 24.0349 9.5976 24.0683 9.59271 24.1013C9.58687 24.1936 9.61705 24.2897 9.56364 24.377C9.50184 24.3768 9.51129 24.3258 9.50657 24.2904C9.4984 24.2291 9.50251 24.1669 9.50496 24.1051C9.49979 24.0645 9.50168 24.0237 9.50168 23.983C9.50168 22.0654 9.50168 20.1477 9.5014 18.2301C9.5014 18.1677 9.50835 18.1043 9.48723 18.0454C9.39441 18.007 3.60378 18.0013 3.4849 18.0389C3.45194 18.0959 3.46339 18.1602 3.46339 18.2219C3.46278 20.1137 3.463 22.0054 3.46256 23.8971C3.46256 23.9635 3.46945 24.0306 3.45066 24.096C3.44205 24.1178 3.43071 24.1365 3.40337 24.1362C3.39264 24.1255 3.38492 24.1128 3.38008 24.0984C3.36641 24.0553 3.36869 24.0106 3.36869 23.9663C3.36836 22.0009 3.3683 20.0354 3.36858 18.0699C3.36858 18.0477 3.36841 18.0255 3.37097 18.0036C3.36763 17.9245 3.38586 17.8435 3.35674 17.7676C3.30883 17.7373 3.2636 17.7407 3.21697 17.7594C3.16173 17.825 3.22547 17.9235 3.15422 17.9839C3.06797 17.9106 3.11671 17.8124 3.10598 17.7254C3.10109 17.6497 3.1176 17.572 3.0927 17.5005C3.04218 17.4703 2.99666 17.4743 2.95065 17.4924C2.89413 17.558 2.95976 17.6574 2.88657 17.7173C2.80104 17.6436 2.85005 17.5456 2.83933 17.4586C2.83294 17.383 2.85389 17.3048 2.82343 17.2321C2.77497 17.2038 2.72945 17.2075 2.6841 17.226C2.62714 17.2917 2.69455 17.3919 2.61836 17.4506C2.53588 17.3716 2.5829 17.2708 2.57217 17.1797C2.57718 17.0901 2.54739 16.9962 2.60458 16.913L2.60446 16.9131Z" fill="#949AC7"/>
<path d="M2.60342 17.1788C2.60342 17.262 2.60342 17.3453 2.60342 17.4285C2.60342 17.4378 2.6102 17.4428 2.6256 17.4454C2.70707 17.397 2.78855 17.397 2.87002 17.4454C2.87002 17.5286 2.87002 17.6119 2.87002 17.6951C2.87002 17.7044 2.8768 17.7094 2.8922 17.712C2.97367 17.6635 3.05515 17.6635 3.13662 17.712C3.13662 17.7952 3.13662 17.8785 3.13662 17.9617C3.13662 17.971 3.1434 17.976 3.1588 17.9785C3.24027 17.9301 3.32175 17.9301 3.40322 17.9785V24.1106C3.3417 24.1657 3.25739 24.1214 3.18942 24.1597C3.14774 24.2208 3.18247 24.2972 3.15468 24.3621C3.14974 24.3732 3.14218 24.3822 3.13223 24.3892C3.06559 24.4256 2.98562 24.3883 2.91826 24.4264C2.88303 24.4912 2.91493 24.5657 2.88708 24.6308C2.88192 24.6418 2.87414 24.6505 2.86391 24.6571C2.79927 24.6895 2.7248 24.6592 2.65378 24.6905C2.61337 24.7529 2.64989 24.8328 2.61926 24.8999C2.61365 24.9109 2.60543 24.9193 2.59475 24.9254C2.53746 24.9531 2.47038 24.9291 2.41347 24.9573C2.36511 25.0245 2.41641 25.1146 2.35867 25.1771C2.35039 25.1796 2.34338 25.1774 2.34033 25.1695C2.33788 25.1632 2.33666 25.1561 2.3366 25.1494C2.33638 25.0697 2.33644 24.9901 2.33644 24.9105C2.28859 24.8534 2.3007 24.7843 2.30065 24.7188C2.29981 23.8493 2.30009 22.9797 2.30009 22.1102C2.30009 20.534 2.29987 18.9577 2.3007 17.3814C2.3007 17.3125 2.28647 17.2395 2.33644 17.1787C2.33644 17.0955 2.33644 17.0122 2.33644 16.9289C2.33644 16.9197 2.34322 16.9147 2.35861 16.9121C2.41358 16.9731 2.37201 17.0566 2.4078 17.1247C2.46471 17.1683 2.54801 17.1247 2.60304 17.1787L2.60342 17.1788Z" fill="#4F5899"/>
<path d="M13.0047 8.38095V14.513C12.9431 14.5678 12.8591 14.5245 12.7917 14.561C12.7493 14.6233 12.784 14.6996 12.7562 14.7645C12.7512 14.7756 12.7437 14.7846 12.7337 14.7916C12.6671 14.828 12.5871 14.7907 12.5198 14.8288C12.4845 14.8936 12.5164 14.9681 12.4886 15.0332C12.4834 15.0442 12.4756 15.0529 12.4654 15.0595C12.4007 15.0911 12.3266 15.0631 12.2566 15.0909C12.2149 15.1553 12.2514 15.2352 12.2208 15.3023C12.2152 15.3133 12.207 15.3217 12.1963 15.3278C12.139 15.3555 12.0719 15.3316 12.015 15.3597C11.9667 15.4269 12.018 15.517 11.9602 15.5795C11.9519 15.582 11.9449 15.5798 11.9419 15.5719C11.9394 15.5656 11.9382 15.5585 11.9382 15.5518C11.9379 15.4721 11.938 15.3925 11.938 15.3129C11.8901 15.2558 11.9023 15.1867 11.9022 15.1212C11.9014 14.2554 11.9017 13.3895 11.9017 12.5237C11.9017 10.9438 11.9014 9.3638 11.9023 7.78384C11.9023 7.71493 11.888 7.6419 11.938 7.58105C11.938 7.4978 11.938 7.41454 11.938 7.33129C11.938 7.32201 11.9448 7.31701 11.9602 7.31445C12.0151 7.37548 11.9736 7.45895 12.0094 7.52703C12.0663 7.5706 12.1496 7.52703 12.2046 7.58105C12.2046 7.6643 12.2046 7.74755 12.2046 7.83081C12.2046 7.84009 12.2114 7.84509 12.2268 7.84764C12.3082 7.79924 12.3897 7.79924 12.4712 7.84764C12.4712 7.9309 12.4712 8.01415 12.4712 8.0974C12.4712 8.10668 12.478 8.11168 12.4934 8.11424C12.5748 8.06583 12.6563 8.06583 12.7378 8.11424C12.7378 8.19749 12.7378 8.28075 12.7378 8.364C12.7378 8.37328 12.7446 8.37828 12.76 8.38084C12.8414 8.33243 12.9229 8.33243 13.0044 8.38084L13.0047 8.38095Z" fill="#4F5899"/>
<path d="M12.4696 17.4454C12.4696 17.5287 12.4696 17.6119 12.4696 17.6952C12.4696 17.7045 12.4764 17.7095 12.4918 17.712C12.5733 17.6636 12.6548 17.6636 12.7362 17.712C12.7362 17.7953 12.7362 17.8785 12.7362 17.9618C12.7362 17.971 12.743 17.976 12.7584 17.9786C12.8399 17.9302 12.9214 17.9302 13.0028 17.9786V24.1107C12.9413 24.1658 12.857 24.1215 12.789 24.1598C12.7473 24.2209 12.7821 24.2973 12.7543 24.3622C12.7493 24.3733 12.7418 24.3823 12.7318 24.3893C12.6652 24.4256 12.5852 24.3884 12.5179 24.4265C12.4826 24.4912 12.5145 24.5658 12.4867 24.6308C12.4815 24.6419 12.4737 24.6506 12.4635 24.6571C12.3989 24.6896 12.3244 24.6592 12.2534 24.6905C12.213 24.753 12.2495 24.8328 12.2189 24.9C12.2133 24.911 12.205 24.9194 12.1944 24.9255C12.1371 24.9531 12.07 24.9292 12.0131 24.9573C11.9647 25.0245 12.016 25.1146 11.9583 25.1771C11.95 25.1796 11.943 25.1774 11.9399 25.1695C11.9375 25.1632 11.9363 25.1561 11.9362 25.1494C11.936 25.0697 11.936 24.9901 11.936 24.9105C11.8882 24.8534 11.9003 24.7843 11.9003 24.7188C11.8994 23.8493 11.8997 22.9797 11.8997 22.1102C11.8997 20.534 11.8995 18.9577 11.9003 17.3814C11.9003 17.3125 11.8861 17.2395 11.936 17.1787C11.936 17.0955 11.936 17.0122 11.936 16.9289C11.936 16.9197 11.9428 16.9147 11.9582 16.9121C12.0132 16.9731 11.9716 17.0566 12.0074 17.1247C12.0643 17.1683 12.1476 17.1247 12.2026 17.1787C12.2026 17.262 12.2026 17.3452 12.2026 17.4285C12.2026 17.4377 12.2094 17.4427 12.2248 17.4453C12.3063 17.3969 12.3878 17.3969 12.4692 17.4453L12.4696 17.4454Z" fill="#4F5899"/>
<path d="M22.3358 17.712C22.3358 17.7952 22.3358 17.8785 22.3358 17.9617C22.3358 17.971 22.3426 17.976 22.358 17.9785C22.4394 17.9301 22.5209 17.9301 22.6024 17.9785V24.1106C22.5409 24.1657 22.4566 24.1214 22.3886 24.1597C22.3469 24.2208 22.3816 24.2972 22.3538 24.3621C22.3489 24.3732 22.3413 24.3822 22.3314 24.3892C22.2648 24.4256 22.1848 24.3883 22.1174 24.4264C22.0822 24.4912 22.1141 24.5657 22.0862 24.6308C22.0811 24.6418 22.0733 24.6505 22.0631 24.6571C21.9984 24.6895 21.924 24.6592 21.8529 24.6905C21.8125 24.7529 21.849 24.8328 21.8184 24.8999C21.8128 24.9109 21.8046 24.9193 21.7939 24.9254C21.7366 24.953 21.6695 24.9292 21.6127 24.9573C21.5643 25.0245 21.6156 25.1146 21.5579 25.1771C21.5496 25.1796 21.5426 25.1774 21.5395 25.1695C21.5371 25.1632 21.5359 25.1561 21.5358 25.1494C21.5356 25.0697 21.5357 24.9901 21.5357 24.9105C21.4879 24.8534 21.4999 24.7843 21.4999 24.7188C21.499 23.8493 21.4993 22.9797 21.4993 22.1102C21.4993 20.534 21.4991 18.9577 21.4999 17.3814C21.4999 17.3125 21.4857 17.2395 21.5357 17.1787C21.5357 17.0955 21.5357 17.0122 21.5357 16.9289C21.5357 16.9197 21.5424 16.9147 21.5578 16.9121C21.6128 16.9731 21.5712 17.0566 21.607 17.1247C21.6639 17.1683 21.7472 17.1247 21.8023 17.1787C21.8023 17.262 21.8023 17.3452 21.8023 17.4285C21.8023 17.4377 21.809 17.4427 21.8244 17.4453C21.9059 17.3969 21.9874 17.3969 22.0689 17.4453C22.0689 17.5286 22.0689 17.6118 22.0689 17.6951C22.0689 17.7043 22.0756 17.7093 22.091 17.7119C22.1725 17.6635 22.254 17.6635 22.3355 17.7119L22.3358 17.712Z" fill="#4F5899"/>
<path d="M19.1369 14.512C19.1369 14.5953 19.1369 14.6785 19.1369 14.7618C19.1369 14.7711 19.1436 14.7761 19.159 14.7786C19.231 14.73 19.3084 14.7453 19.3857 14.7592C19.3974 14.764 19.4071 14.7716 19.4147 14.7817C19.4512 14.8485 19.4166 14.9283 19.4499 14.9953C19.5169 15.0326 19.5919 15 19.6572 15.028C19.6682 15.0332 19.6769 15.0411 19.6835 15.0513C19.7153 15.1164 19.6866 15.1912 19.7142 15.2581C19.7808 15.3036 19.8622 15.2631 19.9293 15.2976C19.9408 15.3045 19.949 15.314 19.9547 15.326C19.9718 15.4119 19.9881 15.4976 19.9368 15.5785C19.8796 15.6262 19.8105 15.614 19.745 15.614C18.7604 15.6148 17.7759 15.6145 16.7913 15.6146C15.3515 15.6146 13.9116 15.6145 12.4718 15.615C12.4098 15.615 12.3458 15.6048 12.2865 15.6362C12.2417 15.6991 12.282 15.7864 12.2258 15.8451C12.2175 15.8476 12.2105 15.8455 12.2075 15.8375C12.205 15.8312 12.2038 15.8241 12.2037 15.8174C12.2035 15.7377 12.2036 15.6581 12.2036 15.5785C12.1535 15.4897 12.1535 15.4008 12.2036 15.3119C12.2645 15.2571 12.348 15.2983 12.416 15.2624C12.4624 15.1983 12.4121 15.1076 12.4702 15.0453C12.5312 14.9905 12.6146 15.0317 12.6827 14.9958C12.7291 14.9317 12.6787 14.841 12.7369 14.7787C12.798 14.7237 12.8817 14.7655 12.9488 14.7297C12.9948 14.6728 12.9472 14.5886 13.0035 14.5344C13.0213 14.5315 13.0229 14.5299 13.0258 14.5121C13.0866 14.4622 13.1596 14.4765 13.2285 14.4765C14.6678 14.4756 16.1072 14.4758 17.5465 14.4758C18.0164 14.4758 18.4863 14.4754 18.9562 14.4763C19.0182 14.4765 19.0833 14.4666 19.1368 14.5121L19.1369 14.512Z" fill="#3E4579"/>
<path d="M22.6031 24.134C22.6209 24.1311 22.6225 24.1295 22.6254 24.1117C22.6862 24.0618 22.7592 24.0761 22.8281 24.0761C24.2564 24.0752 25.6846 24.0755 27.1128 24.0755C27.5938 24.0755 28.0748 24.075 28.5558 24.076C28.6178 24.0761 28.6829 24.0662 28.7364 24.1117C28.7364 24.195 28.7364 24.2783 28.7364 24.3615C28.7364 24.3708 28.7432 24.3758 28.7586 24.3783C28.8306 24.3297 28.908 24.345 28.9852 24.3589C28.9969 24.3637 29.0067 24.3713 29.0143 24.3814C29.0519 24.448 29.0141 24.5284 29.0519 24.5964C29.1165 24.6323 29.1915 24.5996 29.2568 24.6278C29.2678 24.6329 29.2765 24.6408 29.2831 24.6511C29.315 24.7161 29.2862 24.7909 29.3138 24.8577C29.3804 24.9033 29.4617 24.8627 29.5289 24.8973C29.5404 24.9042 29.5487 24.9136 29.5543 24.9257C29.5714 25.0115 29.5877 25.0972 29.5364 25.1781C29.4792 25.2259 29.4101 25.2136 29.3446 25.2137C28.36 25.2145 27.3755 25.2143 26.3909 25.2143C24.9511 25.2143 23.5113 25.2141 22.0714 25.2147C22.0094 25.2147 21.9454 25.2044 21.8862 25.2359C21.8413 25.2988 21.8817 25.3861 21.8254 25.4448C21.8171 25.4473 21.8101 25.4451 21.8071 25.4372C21.8046 25.4309 21.8034 25.4238 21.8033 25.4171C21.8031 25.3374 21.8032 25.2578 21.8032 25.1782C21.7531 25.0893 21.7531 25.0005 21.8032 24.9116C21.8643 24.8574 21.9473 24.8968 22.0144 24.8638C22.062 24.7979 22.0116 24.7073 22.0698 24.645C22.1309 24.5906 22.214 24.6304 22.2813 24.5968C22.3287 24.5313 22.2784 24.4407 22.3365 24.3783C22.3976 24.3233 22.4813 24.3651 22.5485 24.3293C22.5944 24.2724 22.5468 24.1882 22.6031 24.134Z" fill="#3E4579"/>
<path d="M19.1369 24.1117C19.1369 24.195 19.1369 24.2783 19.1369 24.3615C19.1369 24.3708 19.1436 24.3758 19.159 24.3783C19.231 24.3297 19.3084 24.345 19.3857 24.3589C19.3974 24.3637 19.4071 24.3713 19.4147 24.3814C19.4523 24.448 19.4145 24.5284 19.4523 24.5964C19.5169 24.6323 19.5919 24.5997 19.6572 24.6278C19.6682 24.6329 19.6769 24.6408 19.6835 24.6511C19.7162 24.716 19.6848 24.7912 19.7163 24.8592C19.7808 24.9033 19.8622 24.8627 19.9293 24.8973C19.9408 24.9042 19.949 24.9136 19.9547 24.9257C19.9718 25.0115 19.9881 25.0972 19.9368 25.1781C19.8796 25.2259 19.8105 25.2136 19.745 25.2137C18.7604 25.2145 17.7759 25.2143 16.7913 25.2143C15.3515 25.2143 13.9116 25.2141 12.4718 25.2147C12.4098 25.2147 12.3458 25.2044 12.2865 25.2359C12.2417 25.2988 12.282 25.3861 12.2258 25.4448C12.2175 25.4473 12.2105 25.4451 12.2075 25.4372C12.205 25.4309 12.2038 25.4238 12.2037 25.4171C12.2035 25.3374 12.2036 25.2578 12.2036 25.1782C12.1535 25.0893 12.1535 25.0005 12.2036 24.9116C12.2647 24.8574 12.3477 24.8968 12.4148 24.8638C12.4624 24.7979 12.412 24.7074 12.4702 24.645C12.5313 24.5906 12.6144 24.6304 12.6817 24.5968C12.729 24.5313 12.6787 24.4407 12.7369 24.3783C12.798 24.3233 12.8817 24.3651 12.9488 24.3293C12.9948 24.2724 12.9472 24.1882 13.0035 24.134C13.0213 24.1311 13.0228 24.1295 13.0258 24.1117C13.0866 24.0618 13.1596 24.0761 13.2285 24.0761C14.6604 24.0752 16.0923 24.0755 17.5243 24.0755C18.0016 24.0755 18.4789 24.075 18.9562 24.076C19.0182 24.0761 19.0833 24.0662 19.1368 24.1117H19.1369Z" fill="#3E4579"/>
<path d="M3.40398 24.134C3.42171 24.1311 3.42326 24.1295 3.42621 24.1117C3.48701 24.0618 3.56004 24.0761 3.62895 24.0761C5.06826 24.0752 6.50762 24.0755 7.94693 24.0755C8.41683 24.0755 8.88672 24.075 9.35668 24.076C9.41864 24.0761 9.48378 24.0662 9.53724 24.1117C9.53724 24.195 9.53724 24.2783 9.53724 24.3615C9.53724 24.3708 9.54402 24.3758 9.55942 24.3783C9.63139 24.3297 9.70881 24.345 9.78606 24.3589C9.79778 24.3637 9.80751 24.3713 9.81518 24.3814C9.85269 24.448 9.81496 24.5284 9.85275 24.5964C9.91733 24.6323 9.99235 24.5997 10.0576 24.6278C10.0687 24.6329 10.0774 24.6408 10.0839 24.6511C10.1166 24.716 10.0852 24.7912 10.1168 24.8592C10.1812 24.9033 10.2626 24.8627 10.3298 24.8973C10.3412 24.9042 10.3495 24.9136 10.3552 24.9257C10.3722 25.0115 10.3885 25.0972 10.3373 25.1781C10.2801 25.2259 10.2109 25.2136 10.1455 25.2137C9.16088 25.2145 8.17635 25.2143 7.19177 25.2143C5.7519 25.2143 4.31209 25.2141 2.87223 25.2145C2.81009 25.2145 2.74651 25.2069 2.68905 25.2329C2.64209 25.2988 2.68244 25.3861 2.62619 25.4448C2.61791 25.4473 2.61091 25.4451 2.60785 25.4372C2.60541 25.4309 2.60418 25.4238 2.60413 25.4171C2.60391 25.3374 2.60396 25.2578 2.60396 25.1782C2.55389 25.0893 2.55389 25.0005 2.60396 24.9116C2.66493 24.8567 2.74835 24.8979 2.81643 24.8621C2.86284 24.7979 2.81248 24.7074 2.87062 24.645C2.93169 24.5906 3.01478 24.6304 3.08208 24.5968C3.12943 24.5313 3.07914 24.4407 3.13727 24.3783C3.19835 24.3233 3.28205 24.3651 3.34924 24.3293C3.39514 24.2724 3.34757 24.1882 3.40392 24.134H3.40398Z" fill="#3E4579"/>
<path d="M19.4026 8.35861C19.4109 8.36111 19.4179 8.35894 19.421 8.35105C19.4234 8.34483 19.4247 8.33771 19.4247 8.33099C19.425 8.25874 19.4249 8.18649 19.4249 8.11424C19.5023 8.06289 19.5862 8.08129 19.6693 8.09201C19.6776 8.09451 19.6845 8.09235 19.6876 8.08445C19.6901 8.07823 19.6913 8.07112 19.6913 8.06439C19.6916 7.99214 19.6915 7.9199 19.6915 7.84765C19.745 7.79557 19.8212 7.83248 19.8822 7.79813C19.9284 7.73438 19.8777 7.64368 19.9359 7.58105V7.31446C19.8859 7.22559 19.8859 7.13672 19.9359 7.04786C19.9442 7.04536 19.9512 7.04753 19.9543 7.05547C19.9567 7.06175 19.9579 7.06887 19.958 7.07559C19.9582 7.15523 19.9582 7.23487 19.9582 7.31446C20.0132 7.37548 19.9716 7.45895 20.0073 7.52703C20.0643 7.5706 20.1475 7.52703 20.2026 7.58105C20.2504 7.63818 20.2383 7.70726 20.2384 7.77273C20.2392 8.63487 20.2389 9.49696 20.2389 10.3591C20.2389 11.9427 20.2392 13.5264 20.2383 15.11C20.2383 15.179 20.2525 15.252 20.2026 15.3128C20.1137 15.3628 20.0248 15.3628 19.9359 15.3128C19.8817 15.2516 19.9211 15.1687 19.8881 15.1016C19.8222 15.054 19.7316 15.1043 19.6693 15.0461C19.6149 14.985 19.6547 14.902 19.6211 14.8347C19.5556 14.7873 19.465 14.8376 19.4026 14.7795C19.3477 14.7185 19.3892 14.635 19.3533 14.567C19.2965 14.5233 19.2132 14.5669 19.1582 14.5129V8.38084C19.2357 8.32949 19.3195 8.34788 19.4026 8.35861Z" fill="#4F5899"/>
<path d="M28.7578 24.1106V17.9785C28.8353 17.9271 28.9191 17.9455 29.0022 17.9563C29.0105 17.9588 29.0175 17.9566 29.0206 17.9487C29.023 17.9425 29.0243 17.9354 29.0243 17.9286C29.0246 17.8564 29.0245 17.7841 29.0245 17.7119C29.1019 17.6605 29.1858 17.6789 29.2689 17.6897C29.2772 17.6922 29.2841 17.69 29.2872 17.6821C29.2897 17.6759 29.291 17.6688 29.291 17.662C29.2912 17.5898 29.2911 17.5176 29.2911 17.4453C29.3446 17.3934 29.4208 17.4297 29.4815 17.3963C29.528 17.332 29.4774 17.2413 29.5355 17.1787V16.9121C29.4855 16.8232 29.4855 16.7344 29.5355 16.6455C29.5438 16.643 29.5508 16.6452 29.5539 16.6531C29.5563 16.6594 29.5576 16.6665 29.5576 16.6732C29.5578 16.7529 29.5578 16.8325 29.5578 16.9121C29.6128 16.9731 29.5712 17.0566 29.607 17.1247C29.6639 17.1683 29.7471 17.1247 29.8022 17.1787C29.85 17.2358 29.8379 17.3049 29.838 17.3704C29.8388 18.2399 29.8385 19.1095 29.8385 19.979C29.8385 21.5516 29.8387 23.1241 29.8378 24.6966C29.8378 24.7691 29.854 24.846 29.8022 24.9105C29.7133 24.9605 29.6244 24.9605 29.5355 24.9105C29.4806 24.8495 29.5219 24.7662 29.486 24.6981C29.4218 24.6517 29.3312 24.702 29.2689 24.6439C29.214 24.5829 29.2552 24.4996 29.2194 24.4315C29.1552 24.3851 29.0646 24.4354 29.0022 24.3773C28.9473 24.3163 28.9888 24.2329 28.9529 24.1648C28.8961 24.1211 28.8128 24.1647 28.7578 24.1107V24.1106Z" fill="#4F5899"/>
<path d="M19.9359 17.1787V16.9121C19.8858 16.8232 19.8858 16.7344 19.9359 16.6455C19.9442 16.643 19.9512 16.6452 19.9542 16.6531C19.9567 16.6594 19.9579 16.6665 19.9579 16.6732C19.9582 16.7529 19.9581 16.8325 19.9581 16.9121C20.0131 16.9731 19.9715 17.0566 20.0073 17.1247C20.0642 17.1683 20.1475 17.1247 20.2025 17.1787C20.2503 17.2358 20.2383 17.3049 20.2383 17.3704C20.2392 18.2325 20.2389 19.0946 20.2389 19.9568C20.2389 21.5367 20.2391 23.1167 20.2382 24.6966C20.2382 24.7691 20.2545 24.846 20.2026 24.9105C20.1137 24.9605 20.0248 24.9605 19.9359 24.9105C19.8817 24.8494 19.9211 24.7664 19.8881 24.6993C19.8222 24.6517 19.7316 24.702 19.6693 24.6438C19.6149 24.5828 19.6547 24.4997 19.6211 24.4324C19.5556 24.385 19.465 24.4353 19.4026 24.3772C19.3477 24.3162 19.3892 24.2327 19.3533 24.1647C19.2965 24.121 19.2132 24.1646 19.1582 24.1106V17.9785C19.2357 17.9271 19.3195 17.9455 19.4026 17.9563C19.4109 17.9588 19.4179 17.9566 19.421 17.9487C19.4234 17.9425 19.4247 17.9354 19.4247 17.9286C19.425 17.8564 19.4249 17.7841 19.4249 17.7119C19.5023 17.6605 19.5862 17.6789 19.6693 17.6897C19.6776 17.6922 19.6845 17.69 19.6876 17.6821C19.6901 17.6759 19.6913 17.6688 19.6913 17.662C19.6916 17.5898 19.6915 17.5176 19.6915 17.4453C19.745 17.3934 19.8212 17.4298 19.8819 17.3963C19.9284 17.332 19.8777 17.2413 19.9359 17.1787H19.9359Z" fill="#4F5899"/>
<path d="M9.55859 24.1106V17.9785C9.63607 17.9271 9.71993 17.9455 9.80302 17.9563C9.8113 17.9588 9.81825 17.9566 9.82136 17.9487C9.8238 17.9425 9.82508 17.9354 9.82508 17.9286C9.82536 17.8564 9.82525 17.7841 9.82525 17.7119C9.90272 17.6605 9.98658 17.6789 10.0697 17.6897C10.078 17.6922 10.0849 17.69 10.088 17.6821C10.0905 17.6759 10.0917 17.6688 10.0917 17.662C10.092 17.5898 10.0919 17.5176 10.0919 17.4453C10.1454 17.3932 10.2216 17.4301 10.2826 17.3958C10.3288 17.332 10.2781 17.2413 10.3363 17.1787V16.9121C10.2863 16.8232 10.2863 16.7344 10.3363 16.6455C10.3446 16.643 10.3516 16.6452 10.3547 16.6531C10.3571 16.6594 10.3583 16.6665 10.3584 16.6732C10.3586 16.7529 10.3586 16.8325 10.3586 16.9121C10.4136 16.9731 10.3719 17.0566 10.4077 17.1247C10.4647 17.1683 10.5479 17.1247 10.603 17.1787C10.6508 17.2358 10.6387 17.3049 10.6388 17.3704C10.6396 18.2399 10.6393 19.1095 10.6393 19.979C10.6393 21.5552 10.6395 23.1315 10.6387 24.7077C10.6387 24.7767 10.6529 24.8497 10.603 24.9105C10.5141 24.9605 10.4252 24.9605 10.3363 24.9105C10.2821 24.8494 10.3215 24.7664 10.2885 24.6993C10.2226 24.6517 10.132 24.702 10.0697 24.6438C10.0153 24.5828 10.0551 24.4997 10.0215 24.4324C9.95596 24.385 9.86537 24.4353 9.80302 24.3772C9.74811 24.3162 9.78962 24.2327 9.75367 24.1647C9.69687 24.121 9.61356 24.1646 9.55859 24.1106Z" fill="#4F5899"/>
<path d="M20.2031 24.9115V17.1797C20.2883 17.1797 20.3735 17.1797 20.4586 17.1797C20.4623 17.1855 20.4691 17.1913 20.4693 17.1972C20.4704 17.2268 20.4698 17.2564 20.4698 17.2861V24.805C20.4698 24.8346 20.4699 24.8642 20.4696 24.8939C20.4696 24.8971 20.4676 24.9004 20.4666 24.9032C20.4638 24.9061 20.4612 24.9111 20.4586 24.9111C20.3735 24.9115 20.2883 24.9114 20.2031 24.9114V24.9115Z" fill="#000001"/>
<path d="M20.2031 15.3119V7.58008C20.2883 7.58008 20.3735 7.58008 20.4586 7.58008C20.4623 7.58591 20.4691 7.59169 20.4693 7.59764C20.4704 7.62721 20.4698 7.65683 20.4698 7.68645V15.2054C20.4698 15.2351 20.4699 15.2647 20.4696 15.2943C20.4696 15.2976 20.4676 15.3008 20.4666 15.3037C20.4638 15.3066 20.4612 15.3115 20.4586 15.3115C20.3735 15.3119 20.2883 15.3119 20.2031 15.3119Z" fill="#000001"/>
<path d="M11.9367 17.1797V24.9115C11.8516 24.9115 11.7664 24.9115 11.6813 24.9115C11.6775 24.9056 11.6708 24.8999 11.6706 24.8939C11.6695 24.8643 11.6701 24.8347 11.6701 24.8051V17.2861C11.6701 17.2565 11.67 17.2269 11.6703 17.1973C11.6703 17.194 11.6723 17.1907 11.6733 17.1879C11.6761 17.185 11.6787 17.18 11.6813 17.18C11.7665 17.1796 11.8517 17.1797 11.9368 17.1797H11.9367Z" fill="#010101"/>
<path d="M10.6036 24.9115V17.1797C10.6887 17.1797 10.7739 17.1797 10.8591 17.1797C10.8628 17.1855 10.8695 17.1913 10.8697 17.1972C10.8708 17.2268 10.8702 17.2564 10.8702 17.2861V24.805C10.8702 24.8346 10.8703 24.8642 10.8701 24.8939C10.8701 24.8971 10.868 24.9004 10.867 24.9032C10.8642 24.9061 10.8616 24.9111 10.859 24.9111C10.7739 24.9115 10.6887 24.9114 10.6035 24.9114L10.6036 24.9115Z" fill="#000001"/>
<path d="M11.9367 7.58203V15.3138C11.8516 15.3138 11.7664 15.3138 11.6813 15.3138C11.6775 15.308 11.6708 15.3022 11.6706 15.2963C11.6695 15.2667 11.6701 15.2371 11.6701 15.2074V7.68846C11.6701 7.65884 11.67 7.62922 11.6703 7.5996C11.6703 7.59632 11.6723 7.59309 11.6733 7.5902C11.6761 7.58731 11.6787 7.58237 11.6813 7.58237C11.7665 7.58198 11.8517 7.58203 11.9368 7.58203H11.9367Z" fill="#010101"/>
<path d="M29.8027 24.9115V17.1797C29.8879 17.1797 29.9731 17.1797 30.0582 17.1797C30.0619 17.1855 30.0687 17.1913 30.0689 17.1972C30.07 17.2268 30.0694 17.2564 30.0694 17.2861V24.9C30.0634 24.9061 30.0608 24.9111 30.0582 24.9111C29.9731 24.9115 29.8879 24.9114 29.8027 24.9114V24.9115Z" fill="#000001"/>
<path d="M21.5364 17.1797V24.9115C21.4512 24.9115 21.366 24.9115 21.2809 24.9115C21.2771 24.9056 21.2704 24.8999 21.2702 24.8939C21.2691 24.8643 21.2697 24.8347 21.2697 24.8051V17.2861C21.2697 17.2565 21.2696 17.2269 21.2699 17.1973C21.2699 17.194 21.2719 17.1907 21.2729 17.1879C21.2757 17.185 21.2783 17.18 21.2809 17.18C21.366 17.1796 21.4512 17.1797 21.5364 17.1797Z" fill="#010101"/>
<path d="M2.33713 17.1797V24.9115C2.25199 24.9115 2.16679 24.9115 2.08165 24.9115C2.07793 24.9056 2.0712 24.8999 2.07098 24.8939C2.06987 24.8643 2.07048 24.8347 2.07048 24.8051V17.1911C2.07648 17.185 2.07904 17.1801 2.08165 17.18C2.16679 17.1796 2.25199 17.1797 2.33713 17.1797Z" fill="#010101"/>
<path d="M10.336 16.6465V16.9131C7.77146 16.9131 5.20696 16.9131 2.6424 16.913C2.63917 16.913 2.63595 16.9109 2.63412 16.9102C2.63045 16.9068 2.62539 16.9043 2.62534 16.9018C2.62495 16.8167 2.625 16.7316 2.625 16.6465H10.336V16.6465Z" fill="black"/>
<path d="M19.9376 16.6465V16.9131C17.373 16.9131 14.8085 16.9131 12.244 16.913C12.2407 16.913 12.2375 16.9109 12.2357 16.9102C12.232 16.9068 12.227 16.9043 12.2269 16.9018C12.2265 16.8167 12.2266 16.7316 12.2266 16.6465H19.9376V16.6465Z" fill="black"/>
<path d="M29.5372 16.6465V16.9131C26.9726 16.9131 24.4081 16.9131 21.8436 16.913C21.8403 16.913 21.8371 16.9109 21.8353 16.9102C21.8316 16.9068 21.8265 16.9043 21.8265 16.9018C21.8261 16.8167 21.8262 16.7316 21.8262 16.6465H29.5372V16.6465Z" fill="black"/>
<path d="M19.9376 7.04693V7.31353C17.373 7.31353 14.8085 7.31353 12.244 7.31336C12.2407 7.31336 12.2375 7.31125 12.2357 7.31058C12.232 7.30719 12.227 7.30469 12.2269 7.30219C12.2265 7.2171 12.2266 7.13202 12.2266 7.04688H19.9376V7.04693Z" fill="black"/>
<path d="M12.2266 25.4445C12.2266 25.3594 12.2266 25.2743 12.2266 25.1892C12.2323 25.1854 12.2381 25.1785 12.244 25.1784C12.2772 25.1773 12.3105 25.1779 12.3439 25.1779H19.9376C19.9376 25.263 19.9376 25.3481 19.9376 25.4332C19.9318 25.437 19.9261 25.4438 19.9202 25.444C19.8869 25.445 19.8536 25.4445 19.8203 25.4445H12.2266Z" fill="#020202"/>
<path d="M2.625 25.4445C2.625 25.3594 2.625 25.2743 2.625 25.1892C2.63078 25.1854 2.6365 25.1785 2.6424 25.1784C2.67569 25.1773 2.70898 25.1779 2.74232 25.1779H10.336C10.336 25.263 10.336 25.3481 10.336 25.4332C10.3302 25.437 10.3245 25.4438 10.3186 25.444C10.2853 25.445 10.252 25.4445 10.2187 25.4445H2.625Z" fill="#020202"/>
<path d="M12.2266 15.8468C12.2266 15.7617 12.2266 15.6766 12.2266 15.5915C12.2323 15.5877 12.2381 15.5809 12.244 15.5807C12.2772 15.5797 12.3105 15.5802 12.3439 15.5802H19.9376C19.9376 15.6653 19.9376 15.7504 19.9376 15.8355C19.9318 15.8393 19.9261 15.8462 19.9202 15.8463C19.8869 15.8474 19.8536 15.8468 19.8203 15.8468H12.2266Z" fill="#020202"/>
<path d="M21.8262 25.4445C21.8262 25.3594 21.8262 25.2743 21.8262 25.1892C21.832 25.1854 21.8377 25.1785 21.8436 25.1784C21.8769 25.1773 21.9101 25.1779 21.9435 25.1779H29.5372C29.5372 25.263 29.5372 25.3481 29.5372 25.4332C29.5314 25.437 29.5257 25.4438 29.5198 25.444C29.4865 25.445 29.4532 25.4445 29.4199 25.4445H21.8262Z" fill="#020202"/>
<path d="M10.3359 24.9102H10.6026C10.6026 24.9943 10.6026 25.0784 10.6024 25.1625C10.6024 25.1654 10.5989 25.1683 10.597 25.1712C10.5941 25.173 10.5913 25.1765 10.5884 25.1765C10.5042 25.1768 10.4201 25.1768 10.3359 25.1768V24.9102Z" fill="#070808"/>
<path d="M19.9375 24.9102H20.2042C20.2042 24.9943 20.2042 25.0784 20.2039 25.1625C20.2039 25.1654 20.2005 25.1683 20.1986 25.1712C20.1957 25.173 20.1928 25.1765 20.1899 25.1765C20.1058 25.1768 20.0216 25.1768 19.9375 25.1768V24.9102Z" fill="#070808"/>
<path d="M29.5371 24.9102H29.8038C29.8038 24.9943 29.8038 25.0784 29.8035 25.1625C29.8035 25.1654 29.8001 25.1683 29.7982 25.1712C29.7953 25.173 29.7924 25.1765 29.7895 25.1765C29.7054 25.1768 29.6213 25.1768 29.5371 25.1768V24.9102Z" fill="#070808"/>
<path d="M19.9375 15.3125H20.2042C20.2042 15.3966 20.2042 15.4808 20.2039 15.5649C20.2039 15.5678 20.2005 15.5706 20.1986 15.5735C20.1957 15.5754 20.1928 15.5789 20.1899 15.5789C20.1058 15.5792 20.0216 15.5791 19.9375 15.5791V15.3125Z" fill="#070808"/>
<path d="M20.2034 7.58105C20.1266 7.58105 20.0499 7.58111 19.973 7.58083C19.9702 7.58083 19.9673 7.57727 19.9644 7.57544C19.9626 7.57255 19.9592 7.56966 19.9592 7.56672C19.9589 7.48263 19.959 7.39854 19.959 7.31446C20.0358 7.31446 20.1125 7.3144 20.1894 7.31468C20.1922 7.31468 20.1951 7.31824 20.198 7.32007C20.1998 7.32296 20.2032 7.32585 20.2032 7.3288C20.2035 7.41288 20.2034 7.49697 20.2034 7.58105Z" fill="#020203"/>
<path d="M12.2034 7.58105C12.1266 7.58105 12.0499 7.5811 11.973 7.58083C11.9702 7.58083 11.9673 7.57727 11.9644 7.57544C11.9626 7.57255 11.9592 7.56966 11.9592 7.56671C11.9589 7.48262 11.959 7.39854 11.959 7.31445H12.2034V7.58105Z" fill="#040404"/>
<path d="M12.2034 15.3125V15.5791H11.959C11.959 15.495 11.959 15.4109 11.9592 15.3268C11.9592 15.324 11.9626 15.3211 11.9644 15.3181C11.9673 15.3162 11.9702 15.3127 11.973 15.3127C12.0499 15.3124 12.1266 15.3125 12.2034 15.3125Z" fill="#090A0A"/>
<path d="M29.803 17.1787C29.7262 17.1787 29.6495 17.1788 29.5727 17.1785C29.5698 17.1785 29.5669 17.1749 29.564 17.1731C29.5622 17.1702 29.5588 17.1673 29.5588 17.1644C29.5585 17.0803 29.5586 16.9962 29.5586 16.9121C29.6354 16.9121 29.7122 16.9121 29.789 16.9123C29.7919 16.9123 29.7947 16.9159 29.7976 16.9177C29.7994 16.9206 29.8028 16.9235 29.8028 16.9265C29.8031 17.0105 29.803 17.0946 29.803 17.1787Z" fill="#020203"/>
<path d="M21.803 17.1787C21.7262 17.1787 21.6495 17.1788 21.5727 17.1785C21.5698 17.1785 21.5669 17.1749 21.564 17.1731C21.5622 17.1702 21.5588 17.1673 21.5588 17.1644C21.5585 17.0803 21.5586 16.9962 21.5586 16.9121H21.803V17.1787Z" fill="#040404"/>
<path d="M20.2034 17.1787C20.1266 17.1787 20.0499 17.1788 19.973 17.1785C19.9702 17.1785 19.9673 17.1749 19.9644 17.1731C19.9626 17.1702 19.9592 17.1673 19.9592 17.1644C19.9589 17.0803 19.959 16.9962 19.959 16.9121C20.0358 16.9121 20.1125 16.9121 20.1894 16.9123C20.1922 16.9123 20.1951 16.9159 20.198 16.9177C20.1998 16.9206 20.2032 16.9235 20.2032 16.9265C20.2035 17.0105 20.2034 17.0946 20.2034 17.1787Z" fill="#020203"/>
<path d="M12.2034 17.1787C12.1266 17.1787 12.0499 17.1788 11.973 17.1785C11.9702 17.1785 11.9673 17.1749 11.9644 17.1731C11.9626 17.1702 11.9592 17.1673 11.9592 17.1644C11.9589 17.0803 11.959 16.9962 11.959 16.9121H12.2034V17.1787Z" fill="#040404"/>
<path d="M2.6038 24.9102V25.1768H2.35938C2.35938 25.0927 2.35938 25.0086 2.3596 24.9245C2.3596 24.9216 2.36299 24.9187 2.36482 24.9158C2.36771 24.9139 2.37055 24.9104 2.37344 24.9104C2.45024 24.9101 2.52699 24.9102 2.6038 24.9102Z" fill="#090A0A"/>
<path d="M12.2034 24.9102V25.1768H11.959C11.959 25.0927 11.9589 25.0086 11.9592 24.9245C11.9592 24.9216 11.9626 24.9187 11.9644 24.9158C11.9673 24.9139 11.9702 24.9104 11.973 24.9104C12.0499 24.9101 12.1266 24.9102 12.2034 24.9102Z" fill="#090A0A"/>
<path d="M21.803 24.9102V25.1768H21.5586C21.5586 25.0927 21.5586 25.0086 21.5588 24.9245C21.5588 24.9216 21.5622 24.9187 21.564 24.9158C21.5669 24.9139 21.5698 24.9104 21.5727 24.9104C21.6495 24.9101 21.7262 24.9102 21.803 24.9102Z" fill="#090A0A"/>
<path d="M10.6038 17.1787C10.527 17.1787 10.4502 17.1788 10.3734 17.1785C10.3706 17.1785 10.3677 17.1749 10.3648 17.1731C10.363 17.1702 10.3596 17.1673 10.3596 17.1644C10.3593 17.0803 10.3594 16.9962 10.3594 16.9121C10.4362 16.9121 10.5129 16.9121 10.5897 16.9123C10.5926 16.9123 10.5955 16.9159 10.5984 16.9177C10.6002 16.9206 10.6036 16.9235 10.6036 16.9265C10.6039 17.0105 10.6038 17.0946 10.6038 17.1787Z" fill="#020203"/>
<path d="M2.6038 17.1787H2.36838C2.36305 17.1701 2.3596 17.1673 2.3596 17.1644C2.35932 17.0803 2.35938 16.9962 2.35938 16.9121H2.6038V17.1787Z" fill="#040404"/>
<path d="M19.1364 14.5121H13.0254C13.0254 12.4719 13.0254 10.4318 13.0254 8.39169C13.0311 8.3878 13.0366 8.38074 13.0424 8.38046C13.0682 8.37924 13.0942 8.37991 13.1201 8.37991C15.094 8.37991 17.0678 8.37991 19.0417 8.38013C19.0707 8.38013 19.1002 8.37607 19.1282 8.38274C19.1315 8.3863 19.1361 8.38896 19.1361 8.39163C19.1364 10.4318 19.1364 12.4719 19.1364 14.512L19.1364 14.5121Z" fill="#B3B7D7"/>
<path d="M13.003 14.5359C13.003 14.6127 13.003 14.6895 13.0028 14.7662C13.0028 14.7691 12.9992 14.7719 12.9974 14.7748C12.9945 14.7767 12.9916 14.78 12.9886 14.78C12.9046 14.7803 12.8205 14.7803 12.7363 14.7803C12.7363 14.6961 12.7363 14.612 12.7366 14.5279C12.7366 14.525 12.74 14.5221 12.7419 14.5192C12.7448 14.5174 12.7477 14.5139 12.7506 14.5139C12.8347 14.5136 12.9188 14.5137 13.003 14.5137V14.5359Z" fill="#B1B5D6"/>
<path d="M19.4032 8.35963C19.4057 8.36791 19.4035 8.37486 19.3956 8.37797C19.3894 8.38041 19.3823 8.38169 19.3755 8.38169C19.3033 8.38197 19.231 8.38186 19.1587 8.38186C19.1587 8.37819 19.1603 8.37325 19.1584 8.37102C19.1516 8.36257 19.1437 8.35502 19.1367 8.34774V8.12605C19.1428 8.12238 19.1487 8.11576 19.1546 8.11571C19.232 8.11504 19.3094 8.11521 19.3868 8.11543C19.3899 8.11543 19.393 8.11799 19.3961 8.11938C19.3985 8.1221 19.4029 8.12482 19.4029 8.12755C19.4033 8.20491 19.4032 8.28232 19.4032 8.35968V8.35963Z" fill="#B2B6D6"/>
<path d="M19.9366 7.58014V7.83751C19.9282 7.84295 19.9254 7.84651 19.9225 7.84651C19.8457 7.84679 19.769 7.84673 19.6922 7.84673C19.6922 7.84307 19.6937 7.83779 19.6919 7.83606C19.684 7.82862 19.6752 7.82217 19.6699 7.81795C19.6699 7.73925 19.6699 7.66634 19.6702 7.59342C19.6702 7.59064 19.674 7.58781 19.6761 7.58503C19.679 7.58336 19.682 7.5803 19.685 7.5803C19.7689 7.58003 19.8527 7.58008 19.9366 7.58008V7.58014Z" fill="#B2B6D6"/>
<path d="M19.6707 8.09205C19.6732 8.10033 19.6711 8.10728 19.6632 8.11039C19.6569 8.11284 19.6498 8.11411 19.6431 8.11411C19.5709 8.11439 19.4986 8.11428 19.4263 8.11428C19.4263 8.11061 19.4279 8.10567 19.426 8.10344C19.4192 8.095 19.4112 8.08744 19.4043 8.08016V7.85847C19.4104 7.8548 19.4162 7.84819 19.4222 7.84813C19.4996 7.84746 19.577 7.84763 19.6544 7.84785C19.6575 7.84785 19.6606 7.85041 19.6637 7.8518C19.6661 7.85452 19.6705 7.85724 19.6705 7.85997C19.6708 7.93733 19.6707 8.01475 19.6707 8.09211V8.09205Z" fill="#B2B6D6"/>
<path d="M12.471 7.84867H12.2266C12.2266 7.7637 12.2266 7.67878 12.2266 7.5938C12.2322 7.58991 12.2378 7.58263 12.2435 7.58257C12.3137 7.5818 12.3839 7.58202 12.4541 7.58224C12.4573 7.58224 12.4604 7.58458 12.4637 7.5858C12.4661 7.58847 12.4707 7.59113 12.4707 7.5938C12.4711 7.67878 12.471 7.7637 12.471 7.84867H12.471Z" fill="#B1B6D6"/>
<path d="M12.7366 8.1143H12.4922C12.4922 8.02932 12.4922 7.9444 12.4922 7.85943C12.4979 7.85554 12.5034 7.84825 12.5091 7.8482C12.5793 7.84742 12.6495 7.84764 12.7197 7.84787C12.7229 7.84787 12.7261 7.8502 12.7293 7.85142C12.7317 7.85409 12.7363 7.85676 12.7363 7.85943C12.7367 7.9444 12.7367 8.02932 12.7367 8.1143H12.7366Z" fill="#B1B6D6"/>
<path d="M13.0042 8.38187H12.7598C12.7598 8.2969 12.7598 8.21198 12.7598 8.127C12.7654 8.12311 12.771 8.11583 12.7767 8.11578C12.8469 8.115 12.9171 8.11522 12.9873 8.11544C12.9905 8.11544 12.9936 8.11778 12.9969 8.119C12.9993 8.12167 13.0039 8.12434 13.0039 8.127C13.0043 8.21198 13.0042 8.2969 13.0042 8.38187H13.0042Z" fill="#B1B6D6"/>
<path d="M19.1582 14.5137C19.235 14.5137 19.3118 14.5136 19.3886 14.5139C19.3915 14.5139 19.3943 14.5175 19.3972 14.5193C19.399 14.5222 19.4024 14.5251 19.4024 14.528C19.4027 14.6121 19.4026 14.6962 19.4026 14.7803H19.1582V14.5137Z" fill="#B1B5D6"/>
<path d="M28.736 24.1117H22.625C22.625 22.0715 22.625 20.0314 22.625 17.9913C22.6307 17.9874 22.6362 17.9803 22.642 17.9801C22.6678 17.9788 22.6938 17.9795 22.7198 17.9795C24.6936 17.9795 26.6674 17.9795 28.6413 17.9797C28.6703 17.9797 28.6998 17.9757 28.7278 17.9823C28.7311 17.9859 28.7357 17.9886 28.7357 17.9912C28.736 20.0314 28.736 22.0715 28.736 24.1116L28.736 24.1117Z" fill="#B3B7D7"/>
<path d="M22.6046 24.1336C22.6046 24.2103 22.6046 24.2871 22.6043 24.3639C22.6043 24.3668 22.6008 24.3696 22.5989 24.3725C22.596 24.3743 22.5932 24.3777 22.5902 24.3777C22.5061 24.378 22.422 24.3779 22.3379 24.3779C22.3379 24.2938 22.3378 24.2096 22.3381 24.1256C22.3381 24.1227 22.3416 24.1198 22.3435 24.1169C22.3463 24.1151 22.3492 24.1116 22.3521 24.1116C22.4363 24.1113 22.5204 24.1113 22.6046 24.1113V24.1336Z" fill="#B1B5D6"/>
<path d="M29.0028 17.9573C29.0053 17.9656 29.0031 17.9725 28.9952 17.9756C28.989 17.9781 28.9819 17.9794 28.9751 17.9794C28.9029 17.9796 28.8306 17.9795 28.7583 17.9795C28.7583 17.9759 28.7599 17.9709 28.7581 17.9687C28.7512 17.9602 28.7433 17.9527 28.7363 17.9454V17.7237C28.7424 17.72 28.7483 17.7134 28.7542 17.7134C28.8348 17.7127 28.9153 17.7129 28.9923 17.7129C28.9981 17.7198 29.0025 17.7224 29.0025 17.7252C29.0029 17.8025 29.0028 17.8799 29.0028 17.9573Z" fill="#B2B6D6"/>
<path d="M29.5362 17.1797C29.5362 17.2638 29.5362 17.3479 29.536 17.432C29.536 17.4349 29.5326 17.4378 29.5307 17.4407C29.5279 17.4426 29.525 17.4461 29.5221 17.4461C29.4453 17.4464 29.3686 17.4463 29.2918 17.4463C29.2918 17.4427 29.2933 17.4375 29.2915 17.4357C29.2838 17.4281 29.275 17.4216 29.2695 17.4169C29.2695 17.3389 29.2695 17.2659 29.2698 17.193C29.2698 17.1903 29.2736 17.1874 29.2757 17.1846C29.2786 17.183 29.2816 17.1799 29.2846 17.1799C29.3685 17.1796 29.4523 17.1797 29.5362 17.1797V17.1797Z" fill="#B2B6D6"/>
<path d="M29.2703 17.6897C29.2728 17.698 29.2707 17.7049 29.2628 17.7081C29.2566 17.7105 29.2494 17.7118 29.2427 17.7118C29.1705 17.7121 29.0982 17.7119 29.0259 17.7119C29.0259 17.7083 29.0275 17.7033 29.0256 17.7011C29.0188 17.6927 29.0109 17.6851 29.0039 17.6778V17.4561C29.01 17.4525 29.0159 17.4458 29.0218 17.4458C29.1023 17.4451 29.1829 17.4453 29.2598 17.4453C29.2657 17.4522 29.2701 17.4549 29.2701 17.4576C29.2704 17.5349 29.2703 17.6124 29.2703 17.6897Z" fill="#B2B6D6"/>
<path d="M28.7578 24.1113C28.8346 24.1113 28.9114 24.1113 28.9882 24.1116C28.9911 24.1116 28.9939 24.1151 28.9968 24.1169C28.9986 24.1198 29.002 24.1227 29.002 24.1257C29.0023 24.2098 29.0022 24.2938 29.0022 24.3779H28.7578V24.1113Z" fill="#B1B5D6"/>
<path d="M22.6038 17.9795H22.3594C22.3594 17.8946 22.3594 17.8096 22.3594 17.7247C22.365 17.7208 22.3706 17.7135 22.3763 17.7134C22.4465 17.7127 22.5167 17.7129 22.5869 17.7131C22.5901 17.7131 22.5932 17.7154 22.5965 17.7167C22.5989 17.7193 22.6035 17.722 22.6035 17.7247C22.6039 17.8096 22.6039 17.8946 22.6039 17.9795H22.6038Z" fill="#B1B6D6"/>
<path d="M22.3362 17.712H22.0918C22.0918 17.627 22.0918 17.5421 22.0918 17.4571C22.0975 17.4532 22.103 17.4459 22.1087 17.4459C22.1789 17.4451 22.2491 17.4453 22.3193 17.4455C22.3225 17.4455 22.3257 17.4479 22.3289 17.4491C22.3313 17.4517 22.3359 17.4544 22.3359 17.4571C22.3363 17.5421 22.3363 17.627 22.3363 17.712H22.3362Z" fill="#B1B6D6"/>
<path d="M22.0706 17.4463H21.8262C21.8262 17.3614 21.8262 17.2764 21.8262 17.1915C21.8318 17.1876 21.8374 17.1803 21.8431 17.1802C21.9133 17.1795 21.9835 17.1797 22.0537 17.1799C22.0569 17.1799 22.06 17.1822 22.0633 17.1835C22.0657 17.1861 22.0703 17.1888 22.0703 17.1915C22.0707 17.2764 22.0707 17.3614 22.0707 17.4463H22.0706Z" fill="#B1B6D6"/>
<path d="M19.1364 24.1117H13.0254C13.0254 22.0715 13.0254 20.0314 13.0254 17.9913C13.0311 17.9874 13.0366 17.9803 13.0424 17.9801C13.0682 17.9788 13.0942 17.9795 13.1201 17.9795C15.094 17.9795 17.0678 17.9795 19.0417 17.9797C19.0707 17.9797 19.1002 17.9757 19.1282 17.9823C19.1315 17.9859 19.1361 17.9886 19.1361 17.9912C19.1364 20.0314 19.1364 22.0715 19.1364 24.1116L19.1364 24.1117Z" fill="#B3B7D7"/>
<path d="M13.003 24.1336C13.003 24.2103 13.003 24.2871 13.0028 24.3639C13.0028 24.3668 12.9992 24.3696 12.9974 24.3725C12.9945 24.3743 12.9916 24.3777 12.9886 24.3777C12.9046 24.378 12.8205 24.3779 12.7363 24.3779C12.7363 24.2938 12.7363 24.2096 12.7366 24.1256C12.7366 24.1227 12.74 24.1198 12.7419 24.1169C12.7448 24.1151 12.7477 24.1116 12.7506 24.1116C12.8347 24.1113 12.9188 24.1113 13.003 24.1113V24.1336Z" fill="#B1B5D6"/>
<path d="M19.6707 17.6897C19.6732 17.698 19.6711 17.7049 19.6632 17.7081C19.6569 17.7105 19.6498 17.7118 19.6431 17.7118C19.5709 17.7121 19.4986 17.7119 19.4263 17.7119C19.4263 17.7083 19.4279 17.7033 19.426 17.7011C19.4192 17.6927 19.4112 17.6851 19.4043 17.6778V17.4561C19.4104 17.4525 19.4162 17.4458 19.4222 17.4458C19.5027 17.4451 19.5833 17.4453 19.6602 17.4453C19.6661 17.4522 19.6705 17.4549 19.6705 17.4576C19.6708 17.5349 19.6707 17.6124 19.6707 17.6897Z" fill="#B2B6D6"/>
<path d="M19.4032 17.9573C19.4057 17.9656 19.4035 17.9725 19.3956 17.9756C19.3894 17.9781 19.3823 17.9794 19.3755 17.9794C19.3033 17.9796 19.231 17.9795 19.1587 17.9795C19.1587 17.9759 19.1603 17.9709 19.1584 17.9687C19.1516 17.9602 19.1437 17.9527 19.1367 17.9454V17.7237C19.1428 17.72 19.1487 17.7134 19.1546 17.7134C19.2351 17.7127 19.3157 17.7129 19.3926 17.7129C19.3985 17.7198 19.4029 17.7224 19.4029 17.7252C19.4033 17.8025 19.4032 17.8799 19.4032 17.9573Z" fill="#B2B6D6"/>
<path d="M19.9366 17.1797C19.9366 17.2638 19.9366 17.3479 19.9364 17.432C19.9364 17.4349 19.933 17.4378 19.9311 17.4407C19.9282 17.4426 19.9254 17.4461 19.9225 17.4461C19.8457 17.4464 19.769 17.4463 19.6922 17.4463C19.6922 17.4427 19.6937 17.4375 19.6919 17.4357C19.6842 17.4281 19.6754 17.4216 19.6699 17.4169C19.6699 17.3389 19.6699 17.2659 19.6702 17.193C19.6702 17.1903 19.674 17.1874 19.6761 17.1846C19.679 17.183 19.682 17.1799 19.685 17.1799C19.7689 17.1796 19.8527 17.1797 19.9366 17.1797V17.1797Z" fill="#B2B6D6"/>
<path d="M19.1582 24.1113C19.235 24.1113 19.3118 24.1113 19.3886 24.1116C19.3915 24.1116 19.3943 24.1151 19.3972 24.1169C19.399 24.1198 19.4024 24.1227 19.4024 24.1257C19.4027 24.2098 19.4026 24.2938 19.4026 24.3779H19.1582V24.1113Z" fill="#B1B5D6"/>
<path d="M13.0042 17.9795H12.7598C12.7598 17.8946 12.7598 17.8096 12.7598 17.7247C12.7654 17.7208 12.771 17.7135 12.7767 17.7134C12.8469 17.7127 12.9171 17.7129 12.9873 17.7131C12.9905 17.7131 12.9936 17.7154 12.9969 17.7167C12.9993 17.7193 13.0039 17.722 13.0039 17.7247C13.0043 17.8096 13.0042 17.8946 13.0042 17.9795H13.0042Z" fill="#B1B6D6"/>
<path d="M12.7366 17.712H12.4922C12.4922 17.627 12.4922 17.5421 12.4922 17.4571C12.4979 17.4532 12.5034 17.4459 12.5091 17.4459C12.5793 17.4451 12.6495 17.4453 12.7197 17.4455C12.7229 17.4455 12.7261 17.4479 12.7293 17.4491C12.7317 17.4517 12.7363 17.4544 12.7363 17.4571C12.7367 17.5421 12.7367 17.627 12.7367 17.712H12.7366Z" fill="#B1B6D6"/>
<path d="M12.471 17.4463H12.2266C12.2266 17.3614 12.2266 17.2764 12.2266 17.1915C12.2322 17.1876 12.2378 17.1803 12.2435 17.1802C12.3137 17.1795 12.3839 17.1797 12.4541 17.1799C12.4573 17.1799 12.4604 17.1822 12.4637 17.1835C12.4661 17.1861 12.4707 17.1888 12.4707 17.1915C12.4711 17.2764 12.471 17.3614 12.471 17.4463H12.471Z" fill="#B1B6D6"/>
<path d="M9.53681 24.1117H3.42578C3.42578 22.0715 3.42578 20.0314 3.42578 17.9913C3.43145 17.9874 3.43695 17.9803 3.44279 17.9801C3.46863 17.9788 3.49458 17.9795 3.52054 17.9795C5.49438 17.9795 7.46822 17.9795 9.44206 17.9797C9.47112 17.9797 9.50058 17.9757 9.52859 17.9823C9.53187 17.9859 9.53648 17.9886 9.53648 17.9912C9.53681 20.0314 9.53676 22.0715 9.53676 24.1116L9.53681 24.1117Z" fill="#B3B7D7"/>
<path d="M3.40337 24.1336C3.40337 24.2103 3.40343 24.2871 3.40315 24.3639C3.40315 24.3668 3.39959 24.3696 3.39776 24.3725C3.39487 24.3743 3.39198 24.3777 3.38903 24.3777C3.30495 24.378 3.22086 24.3779 3.13672 24.3779C3.13672 24.2938 3.13672 24.2096 3.13694 24.1256C3.13694 24.1227 3.14039 24.1198 3.14228 24.1169C3.14517 24.1151 3.14806 24.1116 3.15095 24.1116C3.23509 24.1113 3.31923 24.1113 3.40337 24.1113V24.1336Z" fill="#B1B5D6"/>
<path d="M10.337 17.1797C10.337 17.2638 10.337 17.3479 10.3367 17.432C10.3367 17.4349 10.3334 17.4378 10.3315 17.4407C10.3286 17.4426 10.3258 17.4461 10.3229 17.4461C10.2461 17.4464 10.1694 17.4463 10.0925 17.4463C10.0925 17.4427 10.0941 17.4375 10.0923 17.4357C10.0845 17.4281 10.0758 17.4216 10.0703 17.4169C10.0703 17.3389 10.0703 17.2659 10.0706 17.193C10.0706 17.1903 10.0744 17.1874 10.0765 17.1846C10.0794 17.183 10.0824 17.1799 10.0854 17.1799C10.1692 17.1796 10.2531 17.1797 10.337 17.1797V17.1797Z" fill="#B2B6D6"/>
<path d="M10.0711 17.6897C10.0736 17.698 10.0715 17.7049 10.0636 17.7081C10.0573 17.7105 10.0502 17.7118 10.0435 17.7118C9.97125 17.7121 9.89894 17.7119 9.8267 17.7119C9.8267 17.7083 9.82825 17.7033 9.82642 17.7011C9.81958 17.6927 9.81163 17.6851 9.80469 17.6778V17.4561C9.8108 17.4525 9.81664 17.4458 9.82258 17.4458C9.90311 17.4451 9.98364 17.4453 10.0606 17.4453C10.0665 17.4522 10.0708 17.4549 10.0708 17.4576C10.0712 17.5349 10.0711 17.6124 10.0711 17.6897Z" fill="#B2B6D6"/>
<path d="M9.80354 17.9573C9.80604 17.9656 9.80387 17.9725 9.79598 17.9756C9.78976 17.9781 9.78264 17.9794 9.77592 17.9794C9.70367 17.9796 9.63137 17.9795 9.55912 17.9795C9.55912 17.9759 9.56067 17.9709 9.55884 17.9687C9.552 17.9602 9.54406 17.9527 9.53711 17.9454V17.7237C9.54322 17.72 9.54906 17.7134 9.555 17.7134C9.63553 17.7127 9.71606 17.7129 9.79304 17.7129C9.79887 17.7198 9.80326 17.7224 9.80326 17.7252C9.80365 17.8025 9.80354 17.8799 9.80354 17.9573Z" fill="#B2B6D6"/>
<path d="M3.40263 17.9795H3.1582C3.1582 17.8946 3.1582 17.8096 3.1582 17.7247C3.16387 17.7208 3.16943 17.7135 3.17515 17.7134C3.24535 17.7127 3.31554 17.7129 3.38573 17.7131C3.3889 17.7131 3.39207 17.7154 3.39529 17.7167C3.39774 17.7193 3.40235 17.722 3.40235 17.7247C3.40274 17.8096 3.40268 17.8946 3.40268 17.9795H3.40263Z" fill="#B1B6D6"/>
<path d="M9.55859 24.1113C9.6354 24.1113 9.71215 24.1113 9.78896 24.1116C9.79185 24.1116 9.79468 24.1151 9.79757 24.1169C9.7994 24.1198 9.80279 24.1227 9.80279 24.1257C9.80307 24.2098 9.80302 24.2938 9.80302 24.3779H9.55859V24.1113Z" fill="#B1B5D6"/>
<path d="M2.86942 17.4463H2.625C2.625 17.3614 2.625 17.2764 2.625 17.1915C2.63067 17.1876 2.63623 17.1803 2.64195 17.1802C2.71214 17.1795 2.78234 17.1797 2.85253 17.1799C2.8557 17.1799 2.85886 17.1822 2.86209 17.1835C2.86453 17.1861 2.86915 17.1888 2.86915 17.1915C2.86953 17.2764 2.86948 17.3614 2.86948 17.4463H2.86942Z" fill="#B1B6D6"/>
<path d="M3.137 17.712H2.89258C2.89258 17.627 2.89258 17.5421 2.89258 17.4571C2.89825 17.4532 2.9038 17.4459 2.90953 17.4459C2.97972 17.4451 3.04991 17.4453 3.12011 17.4455C3.12327 17.4455 3.12644 17.4479 3.12967 17.4491C3.13211 17.4517 3.13672 17.4544 3.13672 17.4571C3.13711 17.5421 3.13706 17.627 3.13706 17.712H3.137Z" fill="#B1B6D6"/>
<path d="M2.87017 24.6445C2.87017 24.7287 2.87017 24.8128 2.86995 24.8969C2.86995 24.8998 2.8665 24.9027 2.86461 24.9056C2.86172 24.9074 2.85883 24.9109 2.85594 24.9109C2.7718 24.9112 2.68766 24.9111 2.60352 24.9111C2.60352 24.827 2.60352 24.7428 2.60374 24.6588C2.60374 24.6559 2.60718 24.653 2.60907 24.6501C2.61196 24.6483 2.61485 24.6448 2.61774 24.6448C2.70189 24.6445 2.78603 24.6445 2.87017 24.6445Z" fill="#B1B5D6"/>
<path d="M3.13775 24.377C3.13775 24.4611 3.13775 24.5452 3.13753 24.6293C3.13753 24.6322 3.13408 24.6351 3.13219 24.638C3.1293 24.6398 3.12641 24.6433 3.12352 24.6433C3.03938 24.6436 2.95524 24.6436 2.87109 24.6436C2.87109 24.5594 2.87109 24.4753 2.87132 24.3912C2.87132 24.3883 2.87476 24.3854 2.87665 24.3825C2.87954 24.3807 2.88243 24.3772 2.88532 24.3772C2.96946 24.3769 3.05361 24.377 3.13775 24.377Z" fill="#B1B5D6"/>
<path d="M12.7374 14.7793C12.7374 14.8634 12.7374 14.9476 12.7371 15.0317C12.7371 15.0346 12.7337 15.0374 12.7318 15.0403C12.7289 15.0422 12.726 15.0457 12.7231 15.0457C12.639 15.046 12.5548 15.0459 12.4707 15.0459C12.4707 14.9618 12.4707 14.8776 12.4709 14.7935C12.4709 14.7906 12.4744 14.7877 12.4763 14.7849C12.4792 14.783 12.482 14.7795 12.4849 14.7795C12.5691 14.7792 12.6532 14.7793 12.7374 14.7793Z" fill="#B1B5D6"/>
<path d="M12.4698 15.0469C12.4698 15.131 12.4698 15.2152 12.4696 15.2992C12.4696 15.3021 12.4661 15.305 12.4642 15.3079C12.4613 15.3098 12.4584 15.3133 12.4556 15.3133C12.3714 15.3135 12.2873 15.3135 12.2031 15.3135C12.2031 15.2293 12.2031 15.1452 12.2033 15.0611C12.2033 15.0582 12.2068 15.0553 12.2087 15.0524C12.2116 15.0506 12.2145 15.0471 12.2174 15.0471C12.3015 15.0468 12.3856 15.0469 12.4698 15.0469Z" fill="#B1B5D6"/>
<path d="M12.4698 24.6445C12.4698 24.7287 12.4698 24.8128 12.4696 24.8969C12.4696 24.8998 12.4661 24.9027 12.4642 24.9056C12.4613 24.9074 12.4584 24.9109 12.4556 24.9109C12.3714 24.9112 12.2873 24.9111 12.2031 24.9111C12.2031 24.827 12.2031 24.7428 12.2033 24.6588C12.2033 24.6559 12.2068 24.653 12.2087 24.6501C12.2116 24.6483 12.2145 24.6448 12.2174 24.6448C12.3015 24.6445 12.3856 24.6445 12.4698 24.6445Z" fill="#B1B5D6"/>
<path d="M12.7374 24.377C12.7374 24.4611 12.7374 24.5452 12.7371 24.6293C12.7371 24.6322 12.7337 24.6351 12.7318 24.638C12.7289 24.6398 12.726 24.6433 12.7231 24.6433C12.639 24.6436 12.5548 24.6436 12.4707 24.6436C12.4707 24.5594 12.4707 24.4753 12.4709 24.3912C12.4709 24.3883 12.4744 24.3854 12.4763 24.3825C12.4792 24.3807 12.482 24.3772 12.4849 24.3772C12.5691 24.3769 12.6532 24.377 12.7374 24.377Z" fill="#B1B5D6"/>
<path d="M22.0694 24.6445C22.0694 24.7287 22.0694 24.8128 22.0692 24.8969C22.0692 24.8998 22.0657 24.9027 22.0638 24.9056C22.0609 24.9074 22.0581 24.9109 22.0552 24.9109C21.971 24.9112 21.8869 24.9111 21.8027 24.9111C21.8027 24.827 21.8027 24.7428 21.803 24.6588C21.803 24.6559 21.8064 24.653 21.8083 24.6501C21.8112 24.6483 21.8141 24.6448 21.817 24.6448C21.9011 24.6445 21.9853 24.6445 22.0694 24.6445Z" fill="#B1B5D6"/>
<path d="M22.337 24.377C22.337 24.4611 22.337 24.5452 22.3367 24.6293C22.3367 24.6322 22.3333 24.6351 22.3314 24.638C22.3285 24.6398 22.3256 24.6433 22.3227 24.6433C22.2386 24.6436 22.1545 24.6436 22.0703 24.6436C22.0703 24.5594 22.0703 24.4753 22.0705 24.3912C22.0705 24.3883 22.074 24.3854 22.0759 24.3825C22.0788 24.3807 22.0817 24.3772 22.0845 24.3772C22.1687 24.3769 22.2528 24.377 22.337 24.377Z" fill="#B1B5D6"/>
<path d="M19.4043 14.7793C19.4884 14.7793 19.5726 14.7792 19.6567 14.7795C19.6596 14.7795 19.6625 14.783 19.6654 14.7849C19.6672 14.7877 19.6707 14.7906 19.6707 14.7935C19.671 14.8777 19.671 14.9618 19.671 15.0459C19.5868 15.0459 19.5027 15.0459 19.4185 15.0457C19.4156 15.0457 19.4127 15.0422 19.4099 15.0403C19.408 15.0374 19.4045 15.0346 19.4045 15.0317C19.4042 14.9475 19.4043 14.8634 19.4043 14.7793Z" fill="#B1B5D6"/>
<path d="M19.6699 15.0469C19.7541 15.0469 19.8382 15.0468 19.9224 15.0471C19.9252 15.0471 19.9281 15.0505 19.931 15.0524C19.9329 15.0553 19.9364 15.0582 19.9364 15.0611C19.9366 15.1452 19.9366 15.2294 19.9366 15.3135C19.8524 15.3135 19.7683 15.3135 19.6842 15.3133C19.6813 15.3133 19.6784 15.3098 19.6755 15.3079C19.6736 15.305 19.6701 15.3021 19.6701 15.2992C19.6699 15.2151 19.6699 15.131 19.6699 15.0469Z" fill="#B1B5D6"/>
<path d="M29.0039 24.377C29.0881 24.377 29.1722 24.3769 29.2563 24.3772C29.2592 24.3772 29.2621 24.3806 29.265 24.3825C29.2668 24.3854 29.2703 24.3883 29.2703 24.3912C29.2706 24.4753 29.2706 24.5595 29.2706 24.6436C29.1864 24.6436 29.1023 24.6436 29.0181 24.6433C29.0152 24.6433 29.0124 24.6399 29.0095 24.638C29.0076 24.6351 29.0041 24.6322 29.0041 24.6293C29.0039 24.5452 29.0039 24.461 29.0039 24.377Z" fill="#B1B5D6"/>
<path d="M29.2695 24.6445C29.3537 24.6445 29.4378 24.6445 29.522 24.6448C29.5249 24.6448 29.5277 24.6482 29.5306 24.6501C29.5325 24.653 29.536 24.6559 29.536 24.6588C29.5362 24.7429 29.5362 24.827 29.5362 24.9111C29.452 24.9111 29.3679 24.9112 29.2838 24.9109C29.2809 24.9109 29.278 24.9075 29.2751 24.9056C29.2733 24.9027 29.2698 24.8998 29.2698 24.8969C29.2695 24.8128 29.2695 24.7286 29.2695 24.6445Z" fill="#B1B5D6"/>
<path d="M19.6699 24.6445C19.7541 24.6445 19.8382 24.6445 19.9224 24.6448C19.9252 24.6448 19.9281 24.6482 19.931 24.6501C19.9329 24.653 19.9364 24.6559 19.9364 24.6588C19.9366 24.7429 19.9366 24.827 19.9366 24.9111C19.8524 24.9111 19.7683 24.9111 19.6842 24.9109C19.6813 24.9109 19.6784 24.9075 19.6755 24.9056C19.6736 24.9027 19.6701 24.8998 19.6701 24.8969C19.6699 24.8128 19.6699 24.7286 19.6699 24.6445Z" fill="#B1B5D6"/>
<path d="M19.4043 24.377C19.4884 24.377 19.5726 24.3769 19.6567 24.3772C19.6596 24.3772 19.6625 24.3806 19.6654 24.3825C19.6672 24.3854 19.6707 24.3883 19.6707 24.3912C19.671 24.4753 19.671 24.5595 19.671 24.6436C19.5868 24.6436 19.5027 24.6436 19.4185 24.6433C19.4156 24.6433 19.4127 24.6399 19.4099 24.638C19.408 24.6351 19.4045 24.6322 19.4045 24.6293C19.4042 24.5452 19.4043 24.461 19.4043 24.377Z" fill="#B1B5D6"/>
<path d="M10.0703 24.6445C10.1545 24.6445 10.2386 24.6445 10.3227 24.6448C10.3256 24.6448 10.3285 24.6482 10.3314 24.6501C10.3332 24.653 10.3367 24.6559 10.3367 24.6588C10.337 24.7429 10.337 24.827 10.337 24.9111C10.2528 24.9111 10.1687 24.9111 10.0845 24.9109C10.0817 24.9109 10.0788 24.9075 10.0759 24.9056C10.074 24.9027 10.0705 24.8998 10.0705 24.8969C10.0703 24.8128 10.0703 24.7286 10.0703 24.6445Z" fill="#B1B5D6"/>
<path d="M9.80274 24.377C9.88688 24.377 9.97102 24.377 10.0552 24.3772C10.0581 24.3772 10.0609 24.3806 10.0638 24.3825C10.0657 24.3854 10.0692 24.3883 10.0692 24.3912C10.0694 24.4753 10.0694 24.5595 10.0694 24.6435C9.98525 24.6435 9.90111 24.6436 9.81697 24.6433C9.81408 24.6433 9.81119 24.6399 9.8083 24.638C9.80646 24.6351 9.80296 24.6322 9.80296 24.6293C9.80268 24.5452 9.80274 24.461 9.80274 24.377Z" fill="#B1B5D6"/>
<path d="M18.8694 14.2403C18.8584 14.2441 18.8552 14.2462 18.852 14.2462C16.9967 14.2464 15.1416 14.2464 13.2863 14.2462C13.2831 14.2462 13.28 14.2438 13.2768 14.2425C13.2744 14.2399 13.2698 14.2371 13.2698 14.2344C13.2695 12.3759 13.2695 10.5173 13.2695 8.65875C13.2754 8.65497 13.281 8.6483 13.287 8.64802C13.3129 8.6468 13.3388 8.64752 13.3648 8.64752C15.1682 8.64752 16.9716 8.64752 18.7749 8.64774C18.804 8.64774 18.8334 8.64357 18.8614 8.65041C18.8646 8.65402 18.8692 8.65669 18.8692 8.65941C18.8694 10.518 18.8694 12.3765 18.8694 14.2403Z" fill="#757EB7"/>
<path d="M28.4636 18.2461C28.4676 18.2569 28.4699 18.26 28.4699 18.2633C28.4701 20.1182 28.4701 21.973 28.4699 23.8279C28.4699 23.8311 28.4677 23.8343 28.4665 23.8375C28.4638 23.84 28.4611 23.8447 28.4585 23.8447C26.5995 23.8451 24.7406 23.8451 22.8817 23.8451C22.8778 23.8393 22.8709 23.8338 22.8706 23.8279C22.8694 23.802 22.8701 23.7761 22.8701 23.7501C22.8701 21.9471 22.8701 20.1441 22.8703 18.341C22.8703 18.3119 22.8664 18.2825 22.8728 18.2544C22.8763 18.2512 22.879 18.2464 22.8816 18.2464C24.7405 18.2461 26.5994 18.2461 28.4636 18.2461L28.4636 18.2461Z" fill="#757EB7"/>
<path d="M18.8638 18.2461C18.8675 18.2572 18.8695 18.2604 18.8695 18.2637C18.8696 20.1186 18.8696 21.9734 18.8695 23.8283C18.8695 23.8315 18.8671 23.8347 18.8657 23.8378C18.863 23.8402 18.8603 23.8447 18.8576 23.8447C16.9987 23.845 15.1398 23.845 13.2808 23.845C13.2771 23.8391 13.2705 23.8334 13.2702 23.8274C13.2691 23.8015 13.2697 23.7756 13.2697 23.7496V18.2568C13.2763 18.2509 13.2791 18.2464 13.2818 18.2464C15.1407 18.2461 16.9996 18.2461 18.8638 18.2461V18.2461Z" fill="#757EB7"/>
<path d="M3.67751 23.8449C3.6669 23.8238 3.67034 23.809 3.67029 23.7947C3.6659 21.9788 3.66817 18.3751 3.67351 18.255C3.67657 18.2516 3.67901 18.2464 3.68151 18.2464C5.54042 18.2461 7.39933 18.2461 9.25829 18.2461C9.26224 18.2518 9.26924 18.2573 9.26952 18.263C9.27074 18.2889 9.27008 18.3148 9.27008 18.3408V23.8323C9.26363 23.8395 9.26113 23.8447 9.25868 23.8447C7.39977 23.845 5.54087 23.845 3.67751 23.845V23.8449Z" fill="#757EB7"/>
<path d="M15.4044 11.0701C15.407 11.0616 15.4048 11.0538 15.3965 11.0516C15.3862 11.0488 15.3752 11.0481 15.3646 11.0481C15.2127 11.0478 15.0609 11.048 14.9091 11.0478C14.8986 11.0478 14.888 11.0462 14.8793 11.0454C14.8755 11.0405 14.8714 11.0377 14.8714 11.0349C14.871 10.9536 14.8711 10.8723 14.8711 10.7896C14.8991 10.7737 14.9289 10.7835 14.9572 10.7816C14.9868 10.7797 15.0165 10.7824 15.0461 10.7809C15.075 10.7794 15.1044 10.7872 15.1316 10.777C15.1343 10.7723 15.1376 10.7694 15.1376 10.7664C15.1379 10.6853 15.1378 10.6041 15.1378 10.5257C15.1431 10.5204 15.1457 10.5155 15.1483 10.5155C15.2297 10.5152 15.3111 10.5152 15.3921 10.5152C15.3965 10.509 15.4039 10.5035 15.404 10.4979C15.4047 10.4275 15.4044 10.3572 15.4046 10.2868C15.4046 10.2762 15.406 10.2656 15.4066 10.2567C15.4111 10.2527 15.4139 10.2483 15.4166 10.2483C15.4979 10.2479 15.5794 10.248 15.6596 10.248C15.6677 10.2428 15.6711 10.2368 15.6711 10.2294C15.6711 10.1553 15.6713 10.0813 15.6709 10.0072C15.6709 9.99908 15.6711 9.99241 15.6764 9.98724C15.6793 9.9853 15.6822 9.98168 15.6851 9.98168C15.7663 9.98141 15.8475 9.98146 15.9289 9.98146C15.947 9.95267 15.9352 9.92266 15.9373 9.89426C15.9395 9.86481 15.9365 9.83496 15.9382 9.80545C15.9399 9.77672 15.9312 9.74715 15.9424 9.72031C15.9476 9.71781 15.9506 9.71503 15.9537 9.71503C16.0278 9.71481 16.1018 9.71475 16.1759 9.71503C16.1829 9.71503 16.1898 9.71709 16.196 9.71809C16.1991 9.72103 16.2041 9.72359 16.2041 9.72615C16.2045 9.80757 16.2045 9.88904 16.2045 9.97046C16.2104 9.97418 16.2163 9.98096 16.2222 9.98102C16.2963 9.98174 16.3703 9.98135 16.4444 9.98168C16.4512 9.98168 16.4579 9.98457 16.4647 9.98613C16.4668 9.98896 16.4709 9.99174 16.4709 9.99458C16.4712 10.0758 16.4711 10.1571 16.4711 10.2369C16.4752 10.241 16.4777 10.2458 16.4804 10.2459C16.5644 10.2503 16.6488 10.2466 16.7295 10.2484C16.7344 10.2571 16.7376 10.2601 16.7376 10.2631C16.7378 10.3441 16.7378 10.4252 16.7378 10.5035C16.7432 10.5089 16.7457 10.5138 16.7484 10.5138C16.8298 10.5142 16.9112 10.5142 16.9923 10.5142C16.9965 10.5203 17.0039 10.5259 17.0039 10.5315C17.0047 10.6019 17.0043 10.6723 17.0046 10.7426C17.0046 10.7532 17.006 10.7638 17.0067 10.7727C17.0112 10.7766 17.0139 10.781 17.0167 10.781C17.0981 10.7814 17.1794 10.7813 17.2595 10.7813C17.2678 10.7866 17.2712 10.7926 17.2712 10.8C17.2712 10.8778 17.2711 10.9555 17.2709 11.0333C17.2709 11.0362 17.2675 11.0392 17.2657 11.0422C17.2628 11.0441 17.2599 11.0476 17.257 11.0477C17.0869 11.048 16.9169 11.0479 16.7505 11.0479C16.7393 11.0543 16.7376 11.0605 16.7376 11.0685C16.7378 11.5647 16.7378 12.0609 16.7378 12.557C16.7378 12.757 16.7377 12.9569 16.7381 13.1568C16.7381 13.1652 16.7378 13.1717 16.7312 13.1763C16.7281 13.1778 16.725 13.1805 16.7219 13.1806C16.4466 13.1843 15.5172 13.1819 15.4127 13.1774C15.4098 13.1747 15.4048 13.1721 15.4048 13.1696C15.4045 12.5512 15.4045 11.9328 15.4045 11.3145C15.3561 11.233 15.3561 11.1515 15.4045 11.0701L15.4044 11.0701Z" fill="#F5F5FA"/>
<path d="M15.4068 13.4475C15.4045 13.4328 15.4025 13.4258 15.4025 13.4189C15.4023 13.3523 15.4023 13.2857 15.4025 13.2191C15.4025 13.216 15.4052 13.213 15.4067 13.2098C15.4095 13.2076 15.4122 13.2034 15.415 13.2034C15.8515 13.2031 16.2879 13.2031 16.7244 13.2031C16.7282 13.209 16.735 13.2148 16.7351 13.2207C16.7358 13.2909 16.7357 13.3612 16.7354 13.4315C16.7354 13.4346 16.7327 13.4377 16.7312 13.4408C16.7284 13.443 16.7257 13.4472 16.7229 13.4472C16.2864 13.4475 15.85 13.4475 15.4068 13.4475L15.4068 13.4475Z" fill="#6670B0"/>
<path d="M15.4044 11.0684V11.3128C15.2306 11.3128 15.0568 11.3128 14.883 11.3128C14.879 11.3072 14.8717 11.3016 14.8716 11.2959C14.8709 11.2257 14.8711 11.1554 14.8713 11.0852C14.8713 11.082 14.8737 11.0789 14.875 11.0757C14.8776 11.0733 14.8804 11.0687 14.883 11.0687C15.0569 11.0684 15.2307 11.0684 15.4045 11.0684L15.4044 11.0684Z" fill="#6770B0"/>
<path d="M17.2668 11.0754C17.2682 11.0785 17.2708 11.0816 17.2708 11.0848C17.271 11.1512 17.271 11.2178 17.2708 11.2842C17.2708 11.2912 17.2687 11.2981 17.2676 11.3047C17.2649 11.3076 17.2623 11.3125 17.2597 11.3125C17.0971 11.3129 16.9346 11.3129 16.7721 11.3125C16.7693 11.3125 16.7666 11.3081 16.7639 11.3058C16.7625 11.3027 16.76 11.2996 16.76 11.2964C16.7597 11.2299 16.7597 11.1634 16.76 11.0969C16.76 11.09 16.762 11.0831 16.7631 11.0764C16.7658 11.0736 16.7684 11.0687 16.771 11.0687C16.9336 11.0683 17.0961 11.0683 17.2586 11.0687C17.2614 11.0687 17.2641 11.073 17.2668 11.0754Z" fill="#6770B0"/>
<path d="M26.0708 21.7339C26.0734 21.7254 26.0711 21.7165 26.0629 21.7155C26.0413 21.7128 26.0194 21.7118 25.9977 21.7118C25.3347 21.7117 24.6718 21.7117 24.0089 21.7117H23.9477C23.9419 21.7045 23.9378 21.7016 23.9378 21.6988C23.9375 21.2621 23.9375 20.8253 23.9375 20.3905C23.9432 20.3814 23.9492 20.3786 23.9568 20.3786C23.9902 20.3788 24.0235 20.3786 24.0568 20.3786C24.7123 20.3786 25.3679 20.3786 26.0233 20.3784C26.0373 20.3784 26.0526 20.3837 26.0652 20.3731C26.0672 20.3699 26.0706 20.367 26.0706 20.364C26.0708 20.194 26.0708 20.024 26.0708 19.8565C26.0758 19.8515 26.0785 19.8466 26.0811 19.8466C26.1624 19.8459 26.2438 19.8456 26.3252 19.8457C26.3279 19.8457 26.3306 19.8501 26.3343 19.8533C26.3416 19.8812 26.336 19.9106 26.3372 19.9397C26.3382 19.9655 26.3366 19.9915 26.3376 20.0174C26.3387 20.0465 26.3335 20.0759 26.3403 20.1039C26.3438 20.1072 26.3466 20.1118 26.3492 20.1118C26.4306 20.1122 26.512 20.1121 26.5931 20.1121C26.597 20.1185 26.6035 20.1244 26.6036 20.1304C26.6043 20.2045 26.6039 20.2785 26.6043 20.3526C26.6043 20.3593 26.6074 20.366 26.6091 20.3726C26.612 20.3747 26.6149 20.3784 26.6178 20.3784C26.699 20.3788 26.7802 20.3787 26.8596 20.3787C26.864 20.3831 26.8689 20.3858 26.8689 20.3884C26.8698 20.4696 26.8701 20.5509 26.8709 20.6322C26.8709 20.635 26.8749 20.6378 26.878 20.6418C26.9057 20.6501 26.9351 20.6437 26.9641 20.6451C26.9899 20.6463 27.0159 20.6447 27.0418 20.6455C27.071 20.6465 27.1004 20.6421 27.1287 20.6478C27.132 20.6511 27.1369 20.6537 27.1369 20.6564C27.1373 20.7378 27.1372 20.8192 27.1372 20.9007C27.1431 20.9044 27.149 20.9114 27.1548 20.9115C27.2252 20.9123 27.2955 20.9119 27.3659 20.9121C27.3764 20.9121 27.3869 20.9137 27.3957 20.9144C27.3996 20.9193 27.4037 20.9221 27.4037 20.9248C27.404 21.0061 27.4039 21.0875 27.4039 21.1668C27.3983 21.1759 27.3923 21.1787 27.3846 21.1787C27.3105 21.1786 27.2365 21.1788 27.1624 21.1784C27.1542 21.1784 27.1476 21.1787 27.1426 21.1844C27.1408 21.1874 27.1375 21.1904 27.1375 21.1933C27.1372 21.2745 27.1373 21.3555 27.1373 21.4367C27.1078 21.454 27.0778 21.4427 27.0494 21.4447C27.0199 21.4469 26.9901 21.4438 26.9606 21.4456C26.9319 21.4474 26.9023 21.4381 26.8743 21.4507C26.8666 21.4811 26.872 21.5105 26.8709 21.5396C26.8699 21.5655 26.8714 21.5915 26.8704 21.6174C26.8693 21.6464 26.8746 21.6758 26.8677 21.7038C26.8641 21.707 26.8614 21.7115 26.8586 21.7116C26.7773 21.712 26.6959 21.7118 26.6154 21.7118C26.6075 21.717 26.6039 21.7229 26.6039 21.7303C26.6039 21.8044 26.604 21.8784 26.6037 21.9524C26.6037 21.9592 26.6005 21.9658 26.5988 21.9725C26.5958 21.9745 26.593 21.9782 26.59 21.9782C26.5088 21.9785 26.4276 21.9784 26.3458 21.9784C26.3281 22.007 26.3399 22.0371 26.3377 22.0654C26.3354 22.0949 26.3386 22.1247 26.3368 22.1542C26.3352 22.183 26.3438 22.2125 26.3327 22.2394C26.3276 22.2419 26.3245 22.2448 26.3215 22.2448C26.2511 22.2451 26.1808 22.2451 26.1104 22.2449C26.0997 22.2449 26.089 22.2438 26.0799 22.2432C26.0758 22.2391 26.0709 22.2365 26.0709 22.2339C26.0705 22.1488 26.0706 22.0636 26.0706 21.9784C26.0222 21.897 26.0222 21.8155 26.0706 21.734L26.0708 21.7339Z" fill="#F5F5FA"/>
<path d="M26.0708 21.7344V21.9788C25.3637 21.9788 24.6566 21.9788 23.9495 21.9788C23.9455 21.9732 23.9381 21.9677 23.938 21.9621C23.9373 21.8918 23.9375 21.8214 23.9377 21.7511C23.9377 21.7479 23.9402 21.7448 23.9414 21.7416C23.9442 21.7392 23.9468 21.7347 23.9495 21.7347C24.6566 21.7344 25.3637 21.7344 26.0708 21.7344V21.7344Z" fill="#6670B0"/>
<path d="M26.0703 22.2728C26.0844 22.2702 26.0912 22.2678 26.098 22.2678C26.1751 22.2675 26.2522 22.2676 26.3259 22.2676C26.3317 22.2735 26.3366 22.2761 26.3366 22.2787C26.337 22.3525 26.337 22.4263 26.337 22.5001C26.3314 22.5041 26.3259 22.5115 26.3203 22.5115C26.2428 22.5123 26.1653 22.5121 26.0879 22.512C26.0773 22.512 26.0703 22.503 26.0703 22.4898C26.0704 22.4198 26.0703 22.3497 26.0703 22.2728Z" fill="#6770B0"/>
<path d="M26.6038 22.2379C26.5932 22.242 26.59 22.2443 26.5869 22.2443C26.5168 22.2445 26.4467 22.2445 26.3766 22.2443C26.3734 22.2443 26.3702 22.2421 26.3689 22.2416C26.3648 22.238 26.3597 22.2355 26.3597 22.2331C26.3593 22.1593 26.3594 22.0855 26.3594 22.0118C26.365 22.0079 26.3706 22.0006 26.3763 22.0005C26.4464 21.9998 26.5164 22 26.5865 22.0002C26.5898 22.0002 26.593 22.0024 26.5943 22.0029C26.5984 22.0065 26.6035 22.009 26.6035 22.0114C26.6039 22.0852 26.6038 22.159 26.6038 22.2379H26.6038Z" fill="#6872B1"/>
<path d="M26.8668 21.7344C26.868 21.7521 26.8694 21.7627 26.8694 21.7732C26.8696 21.8392 26.8695 21.9051 26.8695 21.9672C26.8634 21.9735 26.8609 21.9784 26.8583 21.9785C26.7846 21.9789 26.7107 21.9788 26.6369 21.9788C26.633 21.9732 26.6256 21.9677 26.6256 21.9621C26.6248 21.892 26.625 21.8219 26.6252 21.7518C26.6252 21.7486 26.6273 21.7454 26.6282 21.7427C26.6311 21.7397 26.6336 21.7347 26.6362 21.7347C26.71 21.7343 26.7838 21.7344 26.8668 21.7344H26.8668Z" fill="#6872B1"/>
<path d="M27.4026 21.4395C27.3917 21.4433 27.3885 21.4455 27.3853 21.4455C27.3152 21.4456 27.2451 21.4456 27.175 21.4455C27.1719 21.4455 27.1687 21.4431 27.1655 21.4419C27.1631 21.4392 27.1585 21.4365 27.1585 21.4338C27.1582 21.36 27.1582 21.2862 27.1582 21.2125C27.164 21.2087 27.1698 21.2018 27.1755 21.2017C27.2456 21.2009 27.3157 21.2012 27.3858 21.2014C27.389 21.2014 27.3921 21.2038 27.3953 21.205C27.3977 21.2077 27.4023 21.2103 27.4023 21.2131C27.4027 21.2868 27.4026 21.3606 27.4026 21.4395V21.4395Z" fill="#6872B1"/>
<path d="M26.899 21.7112C26.895 21.7004 26.8927 21.6973 26.8927 21.6941C26.8925 21.624 26.8925 21.5539 26.8927 21.4839C26.8927 21.4807 26.895 21.4775 26.8962 21.4743C26.8989 21.4718 26.9015 21.4671 26.9041 21.4671C26.9779 21.4667 27.0517 21.4668 27.1255 21.4668C27.1293 21.4725 27.1365 21.4781 27.1366 21.4839C27.1373 21.554 27.1371 21.6241 27.1369 21.6942C27.1369 21.6973 27.1347 21.7006 27.1334 21.7037C27.1308 21.7062 27.1282 21.7109 27.1255 21.7109C27.0517 21.7113 26.9779 21.7112 26.899 21.7112V21.7112Z" fill="#6872B1"/>
<path d="M15.6711 22.2662C15.6736 22.2579 15.6714 22.2509 15.6634 22.2479C15.6572 22.2454 15.6501 22.2442 15.6433 22.2442C15.5637 22.2439 15.484 22.244 15.4044 22.244C15.356 22.1625 15.356 22.0811 15.4044 21.9996C15.4069 21.9913 15.4047 21.9843 15.3968 21.9812C15.3905 21.9788 15.3834 21.9776 15.3767 21.9775C15.297 21.9773 15.2174 21.9773 15.1378 21.9773C15.0893 21.8959 15.0893 21.8144 15.1378 21.7329C15.1404 21.7244 15.1381 21.7158 15.1299 21.7145C15.1121 21.7118 15.0938 21.711 15.0758 21.7109C15.0129 21.7105 14.95 21.7108 14.8871 21.7105C14.884 21.7105 14.8809 21.7078 14.8778 21.7063C14.8756 21.7035 14.8714 21.7007 14.8714 21.698C14.871 21.6167 14.8711 21.5355 14.8711 21.4557C14.8765 21.4472 14.8825 21.444 14.89 21.444C15.0491 21.444 15.2082 21.4442 15.3672 21.4439C15.3777 21.4439 15.3881 21.4421 15.3967 21.4413C15.4004 21.4361 15.4041 21.4332 15.4041 21.4303C15.4044 20.7276 15.4044 20.0248 15.4044 19.3222C15.4105 19.3184 15.4164 19.3117 15.4223 19.3116C15.6184 19.3111 15.8144 19.3112 16.0105 19.3112C16.2362 19.3112 16.4619 19.3111 16.6875 19.3113C16.7018 19.3113 16.7166 19.3082 16.7298 19.3144C16.7328 19.3177 16.7369 19.3202 16.7373 19.3232C16.7383 19.3305 16.7377 19.3379 16.7377 19.3453C16.7377 20.0407 16.7377 20.7361 16.738 21.4315C16.738 21.4343 16.7422 21.437 16.7445 21.4398C16.7476 21.4412 16.7505 21.4433 16.7538 21.4439C16.7573 21.4447 16.7612 21.4441 16.7649 21.4441H17.2421C17.2458 21.4441 17.2495 21.4437 17.2531 21.4442C17.2565 21.4447 17.2597 21.4462 17.263 21.4472C17.2656 21.4498 17.2705 21.4524 17.2705 21.455C17.2709 21.5364 17.2708 21.6178 17.2708 21.6992C17.2653 21.703 17.2596 21.7101 17.2538 21.7102C17.1835 21.711 17.1132 21.7106 17.043 21.7108C17.0324 21.7108 17.0218 21.7123 17.0129 21.7129C17.009 21.7175 17.0046 21.7202 17.0046 21.7229C17.0042 21.8042 17.0043 21.8855 17.0043 21.9658C16.9992 21.9738 16.9933 21.9773 16.9859 21.9773C16.9119 21.9773 16.8379 21.9772 16.7639 21.9775C16.7572 21.9775 16.7505 21.9806 16.7438 21.9823C16.7417 21.9852 16.738 21.988 16.738 21.9909C16.7376 22.072 16.7377 22.1532 16.7377 22.2354C16.7096 22.2527 16.6795 22.2412 16.6513 22.2434C16.6219 22.2457 16.5921 22.2439 16.5625 22.2439H16.4796C16.4745 22.2529 16.4712 22.2559 16.4712 22.2589C16.471 22.3399 16.471 22.421 16.471 22.5021C16.4416 22.5194 16.4117 22.508 16.3833 22.5101C16.3538 22.5123 16.324 22.5092 16.2945 22.511C16.2658 22.5128 16.2363 22.5038 16.2081 22.516C16.2 22.5462 16.2058 22.5756 16.2045 22.6046C16.2035 22.6304 16.2043 22.6564 16.2043 22.6823V22.7646C16.1979 22.7718 16.1954 22.7769 16.1929 22.777C16.1078 22.7774 16.0227 22.7773 15.9377 22.7773C15.8893 22.6958 15.8893 22.6144 15.9377 22.5329C15.9402 22.5246 15.938 22.5176 15.93 22.5145C15.9238 22.5121 15.9167 22.5109 15.9099 22.5108C15.8303 22.5106 15.7506 22.5107 15.671 22.5107C15.6226 22.4292 15.6226 22.3477 15.671 22.2662H15.6711Z" fill="#F5F5FA"/>
<path d="M15.1378 21.7344V21.9788C15.0528 21.9788 14.9678 21.9788 14.8829 21.9788C14.879 21.9732 14.8717 21.9676 14.8716 21.9618C14.8709 21.8917 14.8711 21.8215 14.8713 21.7513C14.8713 21.7482 14.8736 21.745 14.8749 21.7418C14.8775 21.7393 14.8802 21.7347 14.8829 21.7347C14.9678 21.7343 15.0528 21.7344 15.1378 21.7344Z" fill="#6770B0"/>
<path d="M15.4034 22V22.2444C15.3184 22.2444 15.2335 22.2444 15.1485 22.2444C15.1446 22.2388 15.1373 22.2332 15.1373 22.2275C15.1365 22.1573 15.1367 22.0871 15.1369 22.017C15.1369 22.0138 15.1393 22.0106 15.1405 22.0074C15.1432 22.0049 15.1458 22.0003 15.1485 22.0003C15.2335 21.9999 15.3184 22 15.4034 22Z" fill="#6770B0"/>
<path d="M15.669 22.2676V22.512C15.5841 22.512 15.4991 22.512 15.4141 22.512C15.4102 22.5064 15.4029 22.5008 15.4029 22.4951C15.4021 22.4249 15.4023 22.3547 15.4026 22.2845C15.4026 22.2814 15.4049 22.2782 15.4061 22.275C15.4088 22.2725 15.4114 22.2679 15.4141 22.2679C15.4991 22.2675 15.5841 22.2676 15.669 22.2676Z" fill="#6770B0"/>
<path d="M15.9375 22.8076C15.948 22.8033 15.9511 22.8009 15.9543 22.8009C16.0318 22.8007 16.1092 22.8007 16.1867 22.8009C16.1899 22.8009 16.1932 22.8031 16.1959 22.8039C16.1989 22.8068 16.2038 22.8094 16.2038 22.812C16.2042 22.8858 16.2042 22.9596 16.2042 23.0334C16.1985 23.0373 16.193 23.0446 16.1874 23.0447C16.1099 23.0455 16.0324 23.0453 15.955 23.0451C15.9517 23.0451 15.9485 23.043 15.9458 23.0421C15.9428 23.0392 15.9378 23.0366 15.9378 23.034C15.9374 22.9603 15.9375 22.8865 15.9375 22.8076V22.8076Z" fill="#6770B0"/>
<path d="M15.9366 22.5332V22.7776C15.8516 22.7776 15.7667 22.7776 15.6817 22.7776C15.6778 22.772 15.6705 22.7664 15.6705 22.7607C15.6697 22.6905 15.6699 22.6203 15.6701 22.5502C15.6701 22.547 15.6725 22.5438 15.6737 22.5406C15.6764 22.5382 15.679 22.5335 15.6817 22.5335C15.7667 22.5331 15.8516 22.5332 15.9366 22.5332Z" fill="#6770B0"/>
<path d="M16.4981 22.512C16.4944 22.5009 16.4923 22.4977 16.4923 22.4945C16.4921 22.4244 16.4921 22.3543 16.4923 22.2843C16.4923 22.2811 16.4948 22.278 16.496 22.2748C16.4987 22.2724 16.5014 22.2679 16.5041 22.2679C16.5778 22.2675 16.6516 22.2676 16.7255 22.2676C16.7292 22.2734 16.736 22.2792 16.7361 22.2851C16.7368 22.3552 16.7366 22.4253 16.7364 22.4954C16.7364 22.4986 16.734 22.5017 16.7327 22.5048C16.73 22.5072 16.7273 22.5117 16.7246 22.5117C16.6509 22.5121 16.5771 22.512 16.4981 22.512Z" fill="#6872B1"/>
<path d="M17.0314 21.9788C17.0276 21.9678 17.0255 21.9646 17.0255 21.9613C17.0253 21.8913 17.0253 21.8212 17.0255 21.7511C17.0255 21.7479 17.0279 21.7448 17.0292 21.7417C17.0319 21.7392 17.0345 21.7347 17.0372 21.7347C17.111 21.7343 17.1848 21.7344 17.2586 21.7344C17.2623 21.7402 17.2693 21.746 17.2693 21.7518C17.27 21.8219 17.2699 21.892 17.2697 21.9621C17.2697 21.9652 17.2673 21.9684 17.266 21.9715C17.2633 21.974 17.2607 21.9785 17.2579 21.9785C17.1842 21.9789 17.1104 21.9788 17.0315 21.9788H17.0314Z" fill="#6872B1"/>
<path d="M16.4709 22.7712C16.4602 22.7752 16.457 22.7775 16.4539 22.7775C16.3838 22.7777 16.3137 22.7777 16.2436 22.7775C16.2405 22.7775 16.2372 22.7753 16.2341 22.7741C16.2316 22.7714 16.2269 22.7688 16.2269 22.7661C16.2265 22.6924 16.2266 22.6186 16.2266 22.5448C16.2322 22.541 16.2379 22.5338 16.2437 22.5337C16.3138 22.533 16.3838 22.5332 16.4539 22.5334C16.4571 22.5334 16.4603 22.5356 16.4635 22.5369C16.466 22.5395 16.4707 22.5421 16.4707 22.5448C16.471 22.6186 16.471 22.6924 16.471 22.7712H16.4709Z" fill="#6872B1"/>
<path d="M17.0042 22.2384C16.9932 22.2422 16.99 22.2443 16.9867 22.2443C16.9167 22.2445 16.8466 22.2445 16.7765 22.2443C16.7733 22.2443 16.7702 22.2419 16.767 22.2406C16.7646 22.238 16.7601 22.2353 16.7601 22.2326C16.7597 22.1588 16.7598 22.085 16.7598 22.0113C16.7656 22.0075 16.7714 22.0007 16.7772 22.0005C16.8473 21.9998 16.9174 22 16.9875 22.0002C16.9906 22.0002 16.9938 22.0026 16.9969 22.0039C16.9994 22.0065 17.0039 22.0092 17.0039 22.0119C17.0042 22.0857 17.0042 22.1595 17.0042 22.2384Z" fill="#6872B1"/>
<path d="M5.53629 21.7343C5.53879 21.726 5.53663 21.719 5.52868 21.716C5.5224 21.7135 5.51529 21.7123 5.50856 21.7123C5.42892 21.712 5.34928 21.7121 5.26964 21.7121C5.22123 21.6306 5.22123 21.5492 5.26964 21.4677C5.27214 21.4594 5.26997 21.4524 5.26203 21.4493C5.25575 21.4469 5.24863 21.4457 5.24191 21.4456C5.16227 21.4454 5.08263 21.4454 5.00299 21.4454C4.95458 21.364 4.95458 21.2825 5.00299 21.201C5.0056 21.1925 5.00337 21.1839 4.99509 21.1826C4.97731 21.1799 4.95908 21.1791 4.94102 21.179C4.87811 21.1786 4.81525 21.1789 4.75234 21.1786C4.74923 21.1786 4.74617 21.1759 4.74306 21.1744C4.74083 21.1716 4.73661 21.1688 4.73661 21.1661C4.73628 21.0848 4.73633 21.0036 4.73633 20.9238C4.74172 20.9153 4.74772 20.9121 4.75523 20.9121C4.8292 20.9122 4.90323 20.912 4.9772 20.9124C4.98537 20.9124 4.99198 20.9122 4.99721 20.9069C4.99915 20.904 5.00271 20.9011 5.00276 20.8981C5.00304 20.817 5.00299 20.7359 5.00299 20.6542C5.03155 20.6364 5.06156 20.6483 5.08985 20.6461C5.11925 20.6437 5.14898 20.6455 5.17861 20.6455H5.26386C5.27459 20.6108 5.26797 20.5814 5.26936 20.5525C5.27058 20.5266 5.26903 20.5007 5.26975 20.4748C5.27058 20.4456 5.26664 20.4162 5.27186 20.3878C5.27503 20.3846 5.27764 20.3797 5.28025 20.3797C5.36156 20.3793 5.44293 20.3794 5.52396 20.3794C5.52824 20.3734 5.53563 20.3678 5.53574 20.3622C5.53652 20.292 5.53618 20.2217 5.53635 20.1514C5.53635 20.1408 5.53768 20.1302 5.53835 20.1212C5.54274 20.1172 5.54541 20.1126 5.54813 20.1126C5.62949 20.1122 5.7108 20.1123 5.792 20.1123C5.79578 20.1061 5.80245 20.1002 5.8025 20.0942C5.80323 20.0203 5.80284 19.9463 5.80317 19.8723C5.80317 19.8655 5.80612 19.8588 5.80767 19.8521C5.81051 19.85 5.81334 19.846 5.81612 19.846C5.89732 19.8457 5.97857 19.8457 6.05771 19.8457C6.06693 19.8514 6.06971 19.8574 6.06971 19.8651C6.0696 20.0242 6.0696 20.1832 6.06971 20.3423C6.06971 20.3527 6.07166 20.3631 6.07249 20.3717C6.07794 20.3752 6.08088 20.3787 6.08377 20.3787C6.78664 20.379 7.48946 20.379 8.192 20.379C8.19583 20.3855 8.20239 20.3914 8.20239 20.3973C8.20289 20.6341 8.20283 20.8708 8.20283 21.1075C8.20283 21.2925 8.20294 21.4775 8.20267 21.6624C8.20267 21.6766 8.2065 21.6915 8.19883 21.705C8.19594 21.7074 8.19355 21.7107 8.19038 21.7118C8.18711 21.713 8.1831 21.7121 8.17938 21.7121C7.48012 21.7121 6.78092 21.7121 6.08166 21.7124C6.07894 21.7124 6.07622 21.7168 6.07255 21.72C6.06543 21.7479 6.07077 21.7773 6.06977 21.8063C6.06871 21.8359 6.06955 21.8655 6.06955 21.8951V22.0615C6.06955 22.0911 6.07027 22.1207 6.06932 22.1503C6.06843 22.1794 6.0731 22.2087 6.06721 22.2351C6.06304 22.2398 6.0606 22.2449 6.0581 22.2449C5.97301 22.2453 5.88792 22.2452 5.80284 22.2452C5.75443 22.1638 5.75443 22.0823 5.80284 22.0008C5.80534 21.9925 5.80317 21.9855 5.79522 21.9825C5.78894 21.98 5.78183 21.9788 5.7751 21.9788C5.69546 21.9785 5.61582 21.9786 5.53618 21.9786C5.48778 21.8971 5.48778 21.8156 5.53618 21.7342L5.53629 21.7343Z" fill="#F5F5FA"/>
<path d="M6.09813 21.9788C6.09419 21.968 6.09196 21.9648 6.09196 21.9616C6.09174 21.8913 6.09174 21.821 6.09196 21.7507C6.09196 21.7476 6.09458 21.7445 6.09596 21.7413C6.09869 21.739 6.10147 21.7347 6.10419 21.7347C6.79989 21.7344 7.49565 21.7344 8.19135 21.7344C8.19518 21.7401 8.2023 21.7458 8.20235 21.7516C8.20313 21.8219 8.20291 21.8922 8.20269 21.9625C8.20269 21.9656 8.20007 21.9687 8.19869 21.9719C8.19596 21.9742 8.19318 21.9786 8.19046 21.9786C7.49476 21.9789 6.799 21.9789 6.09813 21.9789V21.9788Z" fill="#6670B0"/>
<path d="M5.2706 21.4668V21.7112C5.18563 21.7112 5.10065 21.7112 5.01568 21.7112C5.01179 21.7056 5.0045 21.7 5.00445 21.6943C5.00367 21.6241 5.00389 21.5539 5.00412 21.4838C5.00412 21.4806 5.00645 21.4774 5.00767 21.4742C5.01034 21.4717 5.01301 21.4671 5.01568 21.4671C5.10065 21.4667 5.18563 21.4668 5.2706 21.4668Z" fill="#6770B0"/>
<path d="M5.53818 21.7344V21.9788C5.45321 21.9788 5.36823 21.9788 5.28325 21.9788C5.27936 21.9731 5.27208 21.9676 5.27203 21.9618C5.27125 21.8917 5.27147 21.8215 5.27169 21.7513C5.27169 21.7482 5.27403 21.745 5.27525 21.7418C5.27792 21.7393 5.28059 21.7347 5.28325 21.7347C5.36823 21.7343 5.45321 21.7344 5.53818 21.7344Z" fill="#6770B0"/>
<path d="M5.80381 22V22.2444C5.71883 22.2444 5.63385 22.2444 5.54888 22.2444C5.54499 22.2388 5.53771 22.2332 5.53765 22.2275C5.53687 22.1573 5.5371 22.0871 5.53732 22.017C5.53732 22.0138 5.53965 22.0106 5.54088 22.0074C5.54354 22.0049 5.54621 22.0003 5.54888 22.0003C5.63385 21.9999 5.71883 22 5.80381 22Z" fill="#6770B0"/>
<path d="M6.06304 22.2676C6.07293 22.2926 6.06904 22.3109 6.06921 22.3288C6.06976 22.3874 6.06943 22.4459 6.06943 22.5011C6.06326 22.5069 6.06065 22.5117 6.05798 22.5117C5.97684 22.5121 5.89564 22.512 5.81445 22.512C5.81056 22.5063 5.80333 22.5007 5.80328 22.4951C5.8025 22.425 5.80272 22.3549 5.80294 22.2848C5.80294 22.2816 5.80517 22.2784 5.80633 22.2752C5.809 22.2727 5.81161 22.2679 5.81428 22.2679C5.89542 22.2675 5.97662 22.2676 6.0631 22.2676L6.06304 22.2676Z" fill="#6770B0"/>
<path d="M5.00303 21.2012V21.4456C4.91805 21.4456 4.83307 21.4456 4.7481 21.4456C4.74421 21.4399 4.73693 21.4344 4.73687 21.4286C4.73609 21.3585 4.73632 21.2883 4.73654 21.2181C4.73654 21.215 4.73887 21.2118 4.74009 21.2086C4.74276 21.2061 4.74543 21.2015 4.7481 21.2015C4.83307 21.2011 4.91805 21.2012 5.00303 21.2012Z" fill="#6770B0"/>
</g>
</g>
<defs>
<clipPath id="clip0_1320_197083">
<rect width="32" height="32" fill="white"/>
</clipPath>
<clipPath id="clip1_1320_197083">
<rect width="5038.14" height="3310.49" fill="white" transform="translate(-2503 -1639)"/>
</clipPath>
<clipPath id="clip2_1320_197083">
<rect width="28" height="18.3982" fill="white" transform="translate(2.07031 7.04688)"/>
</clipPath>
</defs>
</svg>
