<svg width="31" height="32" viewBox="0 0 31 32" fill="none" xmlns="http://www.w3.org/2000/svg">
<g clip-path="url(#clip0_78_13762)">
<path d="M15.1578 0H13.4736V1.68421H15.1578V0Z" fill="#F3D6AB"/>
<path d="M16.8424 0H15.1582V1.68421H16.8424V0Z" fill="#F3D6AB"/>
<path d="M11.7897 1.6842H10.1055V3.36841H11.7897V1.6842Z" fill="#F3D6AB"/>
<path d="M13.4733 1.6842H11.7891V3.36841H13.4733V1.6842Z" fill="#F3D6AB"/>
<path d="M15.1578 1.6842H13.4736V3.36841H15.1578V1.6842Z" fill="#F3D6AB"/>
<path d="M16.8424 1.6842H15.1582V3.36841H16.8424V1.6842Z" fill="#F3D6AB"/>
<path d="M18.526 1.6842H16.8418V3.36841H18.526V1.6842Z" fill="#F3D6AB"/>
<path d="M20.2106 1.6842H18.5264V3.36841H20.2106V1.6842Z" fill="#F3D6AB"/>
<path d="M8.42053 3.36841H6.73633V5.05262H8.42053V3.36841Z" fill="#DFBB87"/>
<path d="M10.1051 3.36841H8.4209V5.05262H10.1051V3.36841Z" fill="#DFBB87"/>
<path d="M11.7897 3.36841H10.1055V5.05262H11.7897V3.36841Z" fill="#F3D6AB"/>
<path d="M13.4733 3.36841H11.7891V5.05262H13.4733V3.36841Z" fill="#F3D6AB"/>
<path d="M15.1578 3.36841H13.4736V5.05262H15.1578V3.36841Z" fill="#F3D6AB"/>
<path d="M16.8424 3.36841H15.1582V5.05262H16.8424V3.36841Z" fill="#F3D6AB"/>
<path d="M18.526 3.36841H16.8418V5.05262H18.526V3.36841Z" fill="#F3D6AB"/>
<path d="M20.2106 3.36841H18.5264V5.05262H20.2106V3.36841Z" fill="#F3D6AB"/>
<path d="M21.8951 3.36841H20.2109V5.05262H21.8951V3.36841Z" fill="#DFBB87"/>
<path d="M23.5787 3.36841H21.8945V5.05262H23.5787V3.36841Z" fill="#DFBB87"/>
<path d="M5.05237 5.05261H3.36816V6.73682H5.05237V5.05261Z" fill="#F3D6AB"/>
<path d="M6.73694 5.05261H5.05273V6.73682H6.73694V5.05261Z" fill="#F3D6AB"/>
<path d="M8.42053 5.05261H6.73633V6.73682H8.42053V5.05261Z" fill="#DFBB87"/>
<path d="M10.1051 5.05261H8.4209V6.73682H10.1051V5.05261Z" fill="#DFBB87"/>
<path d="M11.7897 5.05261H10.1055V6.73682H11.7897V5.05261Z" fill="#DFBB87"/>
<path d="M13.4733 5.05261H11.7891V6.73682H13.4733V5.05261Z" fill="#DFBB87"/>
<path d="M15.1578 5.05261H13.4736V6.73682H15.1578V5.05261Z" fill="#F3D6AB"/>
<path d="M16.8424 5.05261H15.1582V6.73682H16.8424V5.05261Z" fill="#F3D6AB"/>
<path d="M18.526 5.05261H16.8418V6.73682H18.526V5.05261Z" fill="#DFBB87"/>
<path d="M20.2106 5.05261H18.5264V6.73682H20.2106V5.05261Z" fill="#DFBB87"/>
<path d="M21.8951 5.05261H20.2109V6.73682H21.8951V5.05261Z" fill="#DFBB87"/>
<path d="M23.5787 5.05261H21.8945V6.73682H23.5787V5.05261Z" fill="#DFBB87"/>
<path d="M25.2633 5.05261H23.5791V6.73682H25.2633V5.05261Z" fill="#F3D6AB"/>
<path d="M26.9469 5.05261H25.2627V6.73682H26.9469V5.05261Z" fill="#F3D6AB"/>
<path d="M1.6842 6.73682H0V8.42103H1.6842V6.73682Z" fill="#F3D6AB"/>
<path d="M3.36877 6.73682H1.68457V8.42103H3.36877V6.73682Z" fill="#F3D6AB"/>
<path d="M5.05237 6.73682H3.36816V8.42103H5.05237V6.73682Z" fill="#F3D6AB"/>
<path d="M6.73694 6.73682H5.05273V8.42103H6.73694V6.73682Z" fill="#F3D6AB"/>
<path d="M8.42053 6.73682H6.73633V8.42103H8.42053V6.73682Z" fill="#F3D6AB"/>
<path d="M10.1051 6.73682H8.4209V8.42103H10.1051V6.73682Z" fill="#F3D6AB"/>
<path d="M11.7897 6.73682H10.1055V8.42103H11.7897V6.73682Z" fill="#DFBB87"/>
<path d="M13.4733 6.73682H11.7891V8.42103H13.4733V6.73682Z" fill="#DFBB87"/>
<path d="M15.1578 6.73682H13.4736V8.42103H15.1578V6.73682Z" fill="#DFBB87"/>
<path d="M16.8424 6.73682H15.1582V8.42103H16.8424V6.73682Z" fill="#DFBB87"/>
<path d="M18.526 6.73682H16.8418V8.42103H18.526V6.73682Z" fill="#DFBB87"/>
<path d="M20.2106 6.73682H18.5264V8.42103H20.2106V6.73682Z" fill="#DFBB87"/>
<path d="M21.8951 6.73682H20.2109V8.42103H21.8951V6.73682Z" fill="#F3D6AB"/>
<path d="M23.5787 6.73682H21.8945V8.42103H23.5787V6.73682Z" fill="#F3D6AB"/>
<path d="M25.2633 6.73682H23.5791V8.42103H25.2633V6.73682Z" fill="#F3D6AB"/>
<path d="M26.9469 6.73682H25.2627V8.42103H26.9469V6.73682Z" fill="#F3D6AB"/>
<path d="M28.6315 6.73682H26.9473V8.42103H28.6315V6.73682Z" fill="#F3D6AB"/>
<path d="M30.316 6.73682H28.6318V8.42103H30.316V6.73682Z" fill="#F3D6AB"/>
<path d="M1.6842 8.42102H0V10.1052H1.6842V8.42102Z" fill="#B37954"/>
<path d="M3.36877 8.42102H1.68457V10.1052H3.36877V8.42102Z" fill="#B37954"/>
<path d="M5.05237 8.42102H3.36816V10.1052H5.05237V8.42102Z" fill="#F3D6AB"/>
<path d="M6.73694 8.42102H5.05273V10.1052H6.73694V8.42102Z" fill="#F3D6AB"/>
<path d="M8.42053 8.42102H6.73633V10.1052H8.42053V8.42102Z" fill="#DFBB87"/>
<path d="M10.1051 8.42102H8.4209V10.1052H10.1051V8.42102Z" fill="#DFBB87"/>
<path d="M11.7897 8.42102H10.1055V10.1052H11.7897V8.42102Z" fill="#DFBB87"/>
<path d="M13.4733 8.42102H11.7891V10.1052H13.4733V8.42102Z" fill="#DFBB87"/>
<path d="M15.1578 8.42102H13.4736V10.1052H15.1578V8.42102Z" fill="#F3D6AB"/>
<path d="M16.8424 8.42102H15.1582V10.1052H16.8424V8.42102Z" fill="#F3D6AB"/>
<path d="M18.526 8.42102H16.8418V10.1052H18.526V8.42102Z" fill="#DFBB87"/>
<path d="M20.2106 8.42102H18.5264V10.1052H20.2106V8.42102Z" fill="#DFBB87"/>
<path d="M21.8951 8.42102H20.2109V10.1052H21.8951V8.42102Z" fill="#DFBB87"/>
<path d="M23.5787 8.42102H21.8945V10.1052H23.5787V8.42102Z" fill="#DFBB87"/>
<path d="M25.2633 8.42102H23.5791V10.1052H25.2633V8.42102Z" fill="#F3D6AB"/>
<path d="M26.9469 8.42102H25.2627V10.1052H26.9469V8.42102Z" fill="#F3D6AB"/>
<path d="M28.6315 8.42102H26.9473V10.1052H28.6315V8.42102Z" fill="#DFBB87"/>
<path d="M30.316 8.42102H28.6318V10.1052H30.316V8.42102Z" fill="#DFBB87"/>
<path d="M1.6842 10.1052H0V11.7894H1.6842V10.1052Z" fill="#B37954"/>
<path d="M3.36877 10.1052H1.68457V11.7894H3.36877V10.1052Z" fill="#B37954"/>
<path d="M5.05237 10.1052H3.36816V11.7894H5.05237V10.1052Z" fill="#B37954"/>
<path d="M6.73694 10.1052H5.05273V11.7894H6.73694V10.1052Z" fill="#B37954"/>
<path d="M8.42053 10.1052H6.73633V11.7894H8.42053V10.1052Z" fill="#DFBB87"/>
<path d="M10.1051 10.1052H8.4209V11.7894H10.1051V10.1052Z" fill="#DFBB87"/>
<path d="M11.7897 10.1052H10.1055V11.7894H11.7897V10.1052Z" fill="#DFBB87"/>
<path d="M13.4733 10.1052H11.7891V11.7894H13.4733V10.1052Z" fill="#F3D6AB"/>
<path d="M15.1578 10.1052H13.4736V11.7894H15.1578V10.1052Z" fill="#F3D6AB"/>
<path d="M16.8424 10.1052H15.1582V11.7894H16.8424V10.1052Z" fill="#F3D6AB"/>
<path d="M18.526 10.1052H16.8418V11.7894H18.526V10.1052Z" fill="#F3D6AB"/>
<path d="M20.2106 10.1052H18.5264V11.7894H20.2106V10.1052Z" fill="#F3D6AB"/>
<path d="M21.8951 10.1052H20.2109V11.7894H21.8951V10.1052Z" fill="#DFBB87"/>
<path d="M23.5787 10.1052H21.8945V11.7894H23.5787V10.1052Z" fill="#DFBB87"/>
<path d="M25.2633 10.1052H23.5791V11.7894H25.2633V10.1052Z" fill="#B37954"/>
<path d="M26.9469 10.1052H25.2627V11.7894H26.9469V10.1052Z" fill="#DFBB87"/>
<path d="M28.6315 10.1052H26.9473V11.7894H28.6315V10.1052Z" fill="#DFBB87"/>
<path d="M30.316 10.1052H28.6318V11.7894H30.316V10.1052Z" fill="#DFBB87"/>
<path d="M1.6842 11.7894H0V13.4736H1.6842V11.7894Z" fill="#B37954"/>
<path d="M3.36877 11.7894H1.68457V13.4736H3.36877V11.7894Z" fill="#B37954"/>
<path d="M5.05237 11.7894H3.36816V13.4736H5.05237V11.7894Z" fill="#B37954"/>
<path d="M6.73694 11.7894H5.05273V13.4736H6.73694V11.7894Z" fill="#B37954"/>
<path d="M8.42053 11.7894H6.73633V13.4736H8.42053V11.7894Z" fill="#804648"/>
<path d="M10.1051 11.7894H8.4209V13.4736H10.1051V11.7894Z" fill="#804648"/>
<path d="M11.7897 11.7894H10.1055V13.4736H11.7897V11.7894Z" fill="#F3D6AB"/>
<path d="M13.4733 11.7894H11.7891V13.4736H13.4733V11.7894Z" fill="#F3D6AB"/>
<path d="M15.1578 11.7894H13.4736V13.4736H15.1578V11.7894Z" fill="#F3D6AB"/>
<path d="M16.8424 11.7894H15.1582V13.4736H16.8424V11.7894Z" fill="#F3D6AB"/>
<path d="M18.526 11.7894H16.8418V13.4736H18.526V11.7894Z" fill="#F3D6AB"/>
<path d="M20.2106 11.7894H18.5264V13.4736H20.2106V11.7894Z" fill="#F3D6AB"/>
<path d="M21.8951 11.7894H20.2109V13.4736H21.8951V11.7894Z" fill="#DFBB87"/>
<path d="M23.5787 11.7894H21.8945V13.4736H23.5787V11.7894Z" fill="#B37954"/>
<path d="M25.2633 11.7894H23.5791V13.4736H25.2633V11.7894Z" fill="#B37954"/>
<path d="M26.9469 11.7894H25.2627V13.4736H26.9469V11.7894Z" fill="#DFBB87"/>
<path d="M28.6315 11.7894H26.9473V13.4736H28.6315V11.7894Z" fill="#DFBB87"/>
<path d="M30.316 11.7894H28.6318V13.4736H30.316V11.7894Z" fill="#DFBB87"/>
<path d="M1.6842 13.4736H0V15.1578H1.6842V13.4736Z" fill="#B37954"/>
<path d="M3.36877 13.4736H1.68457V15.1578H3.36877V13.4736Z" fill="#B37954"/>
<path d="M5.05237 13.4736H3.36816V15.1578H5.05237V13.4736Z" fill="#B37954"/>
<path d="M6.73694 13.4736H5.05273V15.1578H6.73694V13.4736Z" fill="#B37954"/>
<path d="M8.42053 13.4736H6.73633V15.1578H8.42053V13.4736Z" fill="#804648"/>
<path d="M10.1051 13.4736H8.4209V15.1578H10.1051V13.4736Z" fill="#804648"/>
<path d="M11.7897 13.4736H10.1055V15.1578H11.7897V13.4736Z" fill="#B37954"/>
<path d="M13.4733 13.4736H11.7891V15.1578H13.4733V13.4736Z" fill="#B37954"/>
<path d="M15.1578 13.4736H13.4736V15.1578H15.1578V13.4736Z" fill="#F3D6AB"/>
<path d="M16.8424 13.4736H15.1582V15.1578H16.8424V13.4736Z" fill="#F3D6AB"/>
<path d="M18.526 13.4736H16.8418V15.1578H18.526V13.4736Z" fill="#DFBB87"/>
<path d="M20.2106 13.4736H18.5264V15.1578H20.2106V13.4736Z" fill="#DFBB87"/>
<path d="M21.8951 13.4736H20.2109V15.1578H21.8951V13.4736Z" fill="#DFBB87"/>
<path d="M23.5787 13.4736H21.8945V15.1578H23.5787V13.4736Z" fill="#B37954"/>
<path d="M25.2633 13.4736H23.5791V15.1578H25.2633V13.4736Z" fill="#B37954"/>
<path d="M26.9469 13.4736H25.2627V15.1578H26.9469V13.4736Z" fill="#DFBB87"/>
<path d="M28.6315 13.4736H26.9473V15.1578H28.6315V13.4736Z" fill="#DFBB87"/>
<path d="M30.316 13.4736H28.6318V15.1578H30.316V13.4736Z" fill="#DFBB87"/>
<path d="M1.6842 15.158H0V16.8422H1.6842V15.158Z" fill="#B37954"/>
<path d="M3.36877 15.1578H1.68457V16.842H3.36877V15.1578Z" fill="#B37954"/>
<path d="M5.05237 15.158H3.36816V16.8422H5.05237V15.158Z" fill="#B37954"/>
<path d="M6.73694 15.1578H5.05273V16.842H6.73694V15.1578Z" fill="#B37954"/>
<path d="M8.42053 15.158H6.73633V16.8422H8.42053V15.158Z" fill="#804648"/>
<path d="M10.1051 15.1578H8.4209V16.842H10.1051V15.1578Z" fill="#804648"/>
<path d="M11.7897 15.158H10.1055V16.8422H11.7897V15.158Z" fill="#B37954"/>
<path d="M13.4733 15.1578H11.7891V16.842H13.4733V15.1578Z" fill="#B37954"/>
<path d="M15.1578 15.158H13.4736V16.8422H15.1578V15.158Z" fill="#B37954"/>
<path d="M16.8424 15.1578H15.1582V16.842H16.8424V15.1578Z" fill="#F3D6AB"/>
<path d="M18.526 15.158H16.8418V16.8422H18.526V15.158Z" fill="#DFBB87"/>
<path d="M20.2106 15.1578H18.5264V16.842H20.2106V15.1578Z" fill="#DFBB87"/>
<path d="M21.8951 15.158H20.2109V16.8422H21.8951V15.158Z" fill="#DFBB87"/>
<path d="M23.5787 15.1578H21.8945V16.842H23.5787V15.1578Z" fill="#B37954"/>
<path d="M25.2633 15.158H23.5791V16.8422H25.2633V15.158Z" fill="#B37954"/>
<path d="M26.9469 15.1578H25.2627V16.842H26.9469V15.1578Z" fill="#DFBB87"/>
<path d="M28.6315 15.158H26.9473V16.8422H28.6315V15.158Z" fill="#DFBB87"/>
<path d="M30.316 15.1578H28.6318V16.842H30.316V15.1578Z" fill="#DFBB87"/>
<path d="M1.6842 16.842H0V18.5263H1.6842V16.842Z" fill="#B37954"/>
<path d="M3.36877 16.8422H1.68457V18.5264H3.36877V16.8422Z" fill="#B37954"/>
<path d="M5.05237 16.842H3.36816V18.5263H5.05237V16.842Z" fill="#B37954"/>
<path d="M6.73694 16.8422H5.05273V18.5264H6.73694V16.8422Z" fill="#B37954"/>
<path d="M8.42053 16.842H6.73633V18.5263H8.42053V16.842Z" fill="#804648"/>
<path d="M10.1051 16.8422H8.4209V18.5264H10.1051V16.8422Z" fill="#804648"/>
<path d="M11.7897 16.842H10.1055V18.5263H11.7897V16.842Z" fill="#B37954"/>
<path d="M13.4733 16.8422H11.7891V18.5264H13.4733V16.8422Z" fill="#B37954"/>
<path d="M15.1578 16.842H13.4736V18.5263H15.1578V16.842Z" fill="#B37954"/>
<path d="M16.8424 16.8422H15.1582V18.5264H16.8424V16.8422Z" fill="#F3D6AB"/>
<path d="M18.526 16.842H16.8418V18.5263H18.526V16.842Z" fill="#DFBB87"/>
<path d="M20.2106 16.8422H18.5264V18.5264H20.2106V16.8422Z" fill="#DFBB87"/>
<path d="M21.8951 16.842H20.2109V18.5263H21.8951V16.842Z" fill="#DFBB87"/>
<path d="M23.5787 16.8422H21.8945V18.5264H23.5787V16.8422Z" fill="#B37954"/>
<path d="M25.2633 16.842H23.5791V18.5263H25.2633V16.842Z" fill="#B37954"/>
<path d="M26.9469 16.8422H25.2627V18.5264H26.9469V16.8422Z" fill="#DFBB87"/>
<path d="M28.6315 16.842H26.9473V18.5263H28.6315V16.842Z" fill="#DFBB87"/>
<path d="M30.316 16.8422H28.6318V18.5264H30.316V16.8422Z" fill="#DFBB87"/>
<path d="M1.6842 18.5264H0V20.2106H1.6842V18.5264Z" fill="#B37954"/>
<path d="M3.36877 18.5264H1.68457V20.2106H3.36877V18.5264Z" fill="#B37954"/>
<path d="M5.05237 18.5264H3.36816V20.2106H5.05237V18.5264Z" fill="#B37954"/>
<path d="M6.73694 18.5264H5.05273V20.2106H6.73694V18.5264Z" fill="#B37954"/>
<path d="M8.42053 18.5264H6.73633V20.2106H8.42053V18.5264Z" fill="#804648"/>
<path d="M10.1051 18.5264H8.4209V20.2106H10.1051V18.5264Z" fill="#804648"/>
<path d="M11.7897 18.5264H10.1055V20.2106H11.7897V18.5264Z" fill="#B37954"/>
<path d="M13.4733 18.5264H11.7891V20.2106H13.4733V18.5264Z" fill="#B37954"/>
<path d="M15.1578 18.5264H13.4736V20.2106H15.1578V18.5264Z" fill="#B37954"/>
<path d="M16.8424 18.5264H15.1582V20.2106H16.8424V18.5264Z" fill="#F3D6AB"/>
<path d="M18.526 18.5264H16.8418V20.2106H18.526V18.5264Z" fill="#DFBB87"/>
<path d="M20.2106 18.5264H18.5264V20.2106H20.2106V18.5264Z" fill="#DFBB87"/>
<path d="M21.8951 18.5264H20.2109V20.2106H21.8951V18.5264Z" fill="#DFBB87"/>
<path d="M23.5787 18.5264H21.8945V20.2106H23.5787V18.5264Z" fill="#B37954"/>
<path d="M25.2633 18.5264H23.5791V20.2106H25.2633V18.5264Z" fill="#B37954"/>
<path d="M26.9469 18.5264H25.2627V20.2106H26.9469V18.5264Z" fill="#DFBB87"/>
<path d="M28.6315 18.5264H26.9473V20.2106H28.6315V18.5264Z" fill="#DFBB87"/>
<path d="M30.316 18.5264H28.6318V20.2106H30.316V18.5264Z" fill="#DFBB87"/>
<path d="M1.6842 20.2104H0V21.8947H1.6842V20.2104Z" fill="#B37954"/>
<path d="M3.36877 20.2106H1.68457V21.8948H3.36877V20.2106Z" fill="#B37954"/>
<path d="M5.05237 20.2104H3.36816V21.8947H5.05237V20.2104Z" fill="#B37954"/>
<path d="M6.73694 20.2106H5.05273V21.8948H6.73694V20.2106Z" fill="#B37954"/>
<path d="M8.42053 20.2104H6.73633V21.8947H8.42053V20.2104Z" fill="#804648"/>
<path d="M10.1051 20.2106H8.4209V21.8948H10.1051V20.2106Z" fill="#804648"/>
<path d="M11.7897 20.2104H10.1055V21.8947H11.7897V20.2104Z" fill="#B37954"/>
<path d="M13.4733 20.2106H11.7891V21.8948H13.4733V20.2106Z" fill="#B37954"/>
<path d="M15.1578 20.2104H13.4736V21.8947H15.1578V20.2104Z" fill="#B37954"/>
<path d="M16.8424 20.2106H15.1582V21.8948H16.8424V20.2106Z" fill="#F3D6AB"/>
<path d="M18.526 20.2104H16.8418V21.8947H18.526V20.2104Z" fill="#DFBB87"/>
<path d="M20.2106 20.2106H18.5264V21.8948H20.2106V20.2106Z" fill="#DFBB87"/>
<path d="M21.8951 20.2104H20.2109V21.8947H21.8951V20.2104Z" fill="#DFBB87"/>
<path d="M23.5787 20.2106H21.8945V21.8948H23.5787V20.2106Z" fill="#B37954"/>
<path d="M25.2633 20.2104H23.5791V21.8947H25.2633V20.2104Z" fill="#B37954"/>
<path d="M26.9469 20.2106H25.2627V21.8948H26.9469V20.2106Z" fill="#DFBB87"/>
<path d="M28.6315 20.2104H26.9473V21.8947H28.6315V20.2104Z" fill="#DFBB87"/>
<path d="M30.316 20.2106H28.6318V21.8948H30.316V20.2106Z" fill="#DFBB87"/>
<path d="M1.6842 21.8948H0V23.579H1.6842V21.8948Z" fill="#B37954"/>
<path d="M3.36877 21.8948H1.68457V23.579H3.36877V21.8948Z" fill="#B37954"/>
<path d="M5.05237 21.8948H3.36816V23.579H5.05237V21.8948Z" fill="#B37954"/>
<path d="M6.73694 21.8948H5.05273V23.579H6.73694V21.8948Z" fill="#B37954"/>
<path d="M8.42053 21.8948H6.73633V23.579H8.42053V21.8948Z" fill="#804648"/>
<path d="M10.1051 21.8948H8.4209V23.579H10.1051V21.8948Z" fill="#804648"/>
<path d="M11.7897 21.8948H10.1055V23.579H11.7897V21.8948Z" fill="#B37954"/>
<path d="M13.4733 21.8948H11.7891V23.579H13.4733V21.8948Z" fill="#B37954"/>
<path d="M15.1578 21.8948H13.4736V23.579H15.1578V21.8948Z" fill="#B37954"/>
<path d="M16.8424 21.8948H15.1582V23.579H16.8424V21.8948Z" fill="#F3D6AB"/>
<path d="M18.526 21.8948H16.8418V23.579H18.526V21.8948Z" fill="#DFBB87"/>
<path d="M20.2106 21.8948H18.5264V23.579H20.2106V21.8948Z" fill="#DFBB87"/>
<path d="M21.8951 21.8948H20.2109V23.579H21.8951V21.8948Z" fill="#DFBB87"/>
<path d="M23.5787 21.8948H21.8945V23.579H23.5787V21.8948Z" fill="#B37954"/>
<path d="M25.2633 21.8948H23.5791V23.579H25.2633V21.8948Z" fill="#B37954"/>
<path d="M26.9469 21.8948H25.2627V23.579H26.9469V21.8948Z" fill="#DFBB87"/>
<path d="M28.6315 21.8948H26.9473V23.579H28.6315V21.8948Z" fill="#DFBB87"/>
<path d="M30.316 21.8948H28.6318V23.579H30.316V21.8948Z" fill="#DFBB87"/>
<path d="M1.6842 23.579H0V25.2632H1.6842V23.579Z" fill="#804648"/>
<path d="M3.36877 23.579H1.68457V25.2632H3.36877V23.579Z" fill="#804648"/>
<path d="M5.05237 23.579H3.36816V25.2632H5.05237V23.579Z" fill="#B37954"/>
<path d="M6.73694 23.579H5.05273V25.2632H6.73694V23.579Z" fill="#B37954"/>
<path d="M8.42053 23.579H6.73633V25.2632H8.42053V23.579Z" fill="#804648"/>
<path d="M10.1051 23.579H8.4209V25.2632H10.1051V23.579Z" fill="#804648"/>
<path d="M11.7897 23.579H10.1055V25.2632H11.7897V23.579Z" fill="#B37954"/>
<path d="M13.4733 23.579H11.7891V25.2632H13.4733V23.579Z" fill="#B37954"/>
<path d="M15.1578 23.579H13.4736V25.2632H15.1578V23.579Z" fill="#B37954"/>
<path d="M16.8424 23.579H15.1582V25.2632H16.8424V23.579Z" fill="#F3D6AB"/>
<path d="M18.526 23.579H16.8418V25.2632H18.526V23.579Z" fill="#DFBB87"/>
<path d="M20.2106 23.579H18.5264V25.2632H20.2106V23.579Z" fill="#DFBB87"/>
<path d="M21.8951 23.579H20.2109V25.2632H21.8951V23.579Z" fill="#DFBB87"/>
<path d="M23.5787 23.579H21.8945V25.2632H23.5787V23.579Z" fill="#B37954"/>
<path d="M25.2633 23.579H23.5791V25.2632H25.2633V23.579Z" fill="#B37954"/>
<path d="M26.9469 23.579H25.2627V25.2632H26.9469V23.579Z" fill="#DFBB87"/>
<path d="M28.6315 23.579H26.9473V25.2632H28.6315V23.579Z" fill="#B37954"/>
<path d="M30.316 23.579H28.6318V25.2632H30.316V23.579Z" fill="#B37954"/>
<path d="M5.05237 25.2632H3.36816V26.9474H5.05237V25.2632Z" fill="#804648"/>
<path d="M6.73694 25.2632H5.05273V26.9474H6.73694V25.2632Z" fill="#804648"/>
<path d="M8.42053 25.2632H6.73633V26.9474H8.42053V25.2632Z" fill="#804648"/>
<path d="M10.1051 25.2632H8.4209V26.9474H10.1051V25.2632Z" fill="#804648"/>
<path d="M11.7897 25.2632H10.1055V26.9474H11.7897V25.2632Z" fill="#B37954"/>
<path d="M13.4733 25.2632H11.7891V26.9474H13.4733V25.2632Z" fill="#B37954"/>
<path d="M15.1578 25.2632H13.4736V26.9474H15.1578V25.2632Z" fill="#B37954"/>
<path d="M16.8424 25.2632H15.1582V26.9474H16.8424V25.2632Z" fill="#F3D6AB"/>
<path d="M18.526 25.2632H16.8418V26.9474H18.526V25.2632Z" fill="#DFBB87"/>
<path d="M20.2106 25.2632H18.5264V26.9474H20.2106V25.2632Z" fill="#DFBB87"/>
<path d="M21.8951 25.2632H20.2109V26.9474H21.8951V25.2632Z" fill="#DFBB87"/>
<path d="M23.5787 25.2632H21.8945V26.9474H23.5787V25.2632Z" fill="#B37954"/>
<path d="M25.2633 25.2632H23.5791V26.9474H25.2633V25.2632Z" fill="#B37954"/>
<path d="M26.9469 25.2632H25.2627V26.9474H26.9469V25.2632Z" fill="#B37954"/>
<path d="M8.42053 26.9474H6.73633V28.6316H8.42053V26.9474Z" fill="#804648"/>
<path d="M10.1051 26.9474H8.4209V28.6316H10.1051V26.9474Z" fill="#804648"/>
<path d="M11.7897 26.9474H10.1055V28.6316H11.7897V26.9474Z" fill="#B37954"/>
<path d="M13.4733 26.9474H11.7891V28.6316H13.4733V26.9474Z" fill="#B37954"/>
<path d="M15.1578 26.9474H13.4736V28.6316H15.1578V26.9474Z" fill="#B37954"/>
<path d="M16.8424 26.9474H15.1582V28.6316H16.8424V26.9474Z" fill="#F3D6AB"/>
<path d="M18.526 26.9474H16.8418V28.6316H18.526V26.9474Z" fill="#DFBB87"/>
<path d="M20.2106 26.9474H18.5264V28.6316H20.2106V26.9474Z" fill="#DFBB87"/>
<path d="M21.8951 26.9474H20.2109V28.6316H21.8951V26.9474Z" fill="#B37954"/>
<path d="M23.5787 26.9474H21.8945V28.6316H23.5787V26.9474Z" fill="#B37954"/>
<path d="M11.7897 28.6316H10.1055V30.3158H11.7897V28.6316Z" fill="#804648"/>
<path d="M13.4733 28.6316H11.7891V30.3158H13.4733V28.6316Z" fill="#804648"/>
<path d="M15.1578 28.6316H13.4736V30.3158H15.1578V28.6316Z" fill="#B37954"/>
<path d="M16.8424 28.6316H15.1582V30.3158H16.8424V28.6316Z" fill="#F3D6AB"/>
<path d="M18.526 28.6316H16.8418V30.3158H18.526V28.6316Z" fill="#B37954"/>
<path d="M20.2106 28.6316H18.5264V30.3158H20.2106V28.6316Z" fill="#B37954"/>
<path d="M15.1578 30.3158H13.4736V32H15.1578V30.3158Z" fill="#804648"/>
<path d="M16.8424 30.3158H15.1582V32H16.8424V30.3158Z" fill="#B37954"/>
</g>
<defs>
<clipPath id="clip0_78_13762">
<rect width="30.3157" height="32" fill="white"/>
</clipPath>
</defs>
</svg>
