<svg width="33" height="33" viewBox="0 0 33 33" fill="none" xmlns="http://www.w3.org/2000/svg">
<path d="M16.6596 4.26025H15.3262V5.62637H16.6596V4.26025Z" fill="#F3D6AB"/>
<path d="M17.9916 4.26025H16.6582V5.62637H17.9916V4.26025Z" fill="#F3D6AB"/>
<path d="M13.9916 5.62646H12.6582V6.99258H13.9916V5.62646Z" fill="#F3D6AB"/>
<path d="M15.3256 5.62646H13.9922V6.99258H15.3256V5.62646Z" fill="#F3D6AB"/>
<path d="M16.6596 5.62646H15.3262V6.99258H16.6596V5.62646Z" fill="#F3D6AB"/>
<path d="M17.9916 5.62646H16.6582V6.99258H17.9916V5.62646Z" fill="#F3D6AB"/>
<path d="M19.3256 5.62646H17.9922V6.99258H19.3256V5.62646Z" fill="#F3D6AB"/>
<path d="M20.6576 5.62646H19.3242V6.99258H20.6576V5.62646Z" fill="#F3D6AB"/>
<path d="M11.3256 6.99268H9.99219V8.3588H11.3256V6.99268Z" fill="#DFBB87"/>
<path d="M12.6596 6.99268H11.3262V8.3588H12.6596V6.99268Z" fill="#DFBB87"/>
<path d="M13.9916 6.99268H12.6582V8.3588H13.9916V6.99268Z" fill="#F3D6AB"/>
<path d="M15.3256 6.99268H13.9922V8.3588H15.3256V6.99268Z" fill="#F3D6AB"/>
<path d="M16.6596 6.99268H15.3262V8.3588H16.6596V6.99268Z" fill="#F3D6AB"/>
<path d="M17.9916 6.99268H16.6582V8.3588H17.9916V6.99268Z" fill="#F3D6AB"/>
<path d="M19.3256 6.99268H17.9922V8.3588H19.3256V6.99268Z" fill="#F3D6AB"/>
<path d="M20.6576 6.99268H19.3242V8.3588H20.6576V6.99268Z" fill="#F3D6AB"/>
<path d="M21.9936 6.99268H20.6602V8.3588H21.9936V6.99268Z" fill="#DFBB87"/>
<path d="M23.3256 6.99268H21.9922V8.3588H23.3256V6.99268Z" fill="#DFBB87"/>
<path d="M8.65957 8.35889H7.32617V9.72501H8.65957V8.35889Z" fill="#F3D6AB"/>
<path d="M9.9916 8.35889H8.6582V9.72501H9.9916V8.35889Z" fill="#F3D6AB"/>
<path d="M11.3256 8.35889H9.99219V9.72501H11.3256V8.35889Z" fill="#F3D6AB"/>
<path d="M12.6596 8.35889H11.3262V9.72501H12.6596V8.35889Z" fill="#F3D6AB"/>
<path d="M13.9916 8.35889H12.6582V9.72501H13.9916V8.35889Z" fill="#B37954"/>
<path d="M15.3256 8.35889H13.9922V9.72501H15.3256V8.35889Z" fill="#B37954"/>
<path d="M16.6596 8.35889H15.3262V9.72501H16.6596V8.35889Z" fill="#F3D6AB"/>
<path d="M17.9916 8.35889H16.6582V9.72501H17.9916V8.35889Z" fill="#F3D6AB"/>
<path d="M19.3256 8.35889H17.9922V9.72501H19.3256V8.35889Z" fill="#B37954"/>
<path d="M20.6576 8.35889H19.3242V9.72501H20.6576V8.35889Z" fill="#B37954"/>
<path d="M21.9936 8.35889H20.6602V9.72501H21.9936V8.35889Z" fill="#F3D6AB"/>
<path d="M23.3256 8.35889H21.9922V9.72501H23.3256V8.35889Z" fill="#F3D6AB"/>
<path d="M24.6576 8.35889H23.3242V9.72501H24.6576V8.35889Z" fill="#F3D6AB"/>
<path d="M25.9936 8.35889H24.6602V9.72501H25.9936V8.35889Z" fill="#F3D6AB"/>
<path d="M5.9916 9.72461H4.6582V11.0907H5.9916V9.72461Z" fill="#F3D6AB"/>
<path d="M7.32363 9.72461H5.99023V11.0907H7.32363V9.72461Z" fill="#F3D6AB"/>
<path d="M8.65957 9.72461H7.32617V11.0907H8.65957V9.72461Z" fill="#F3D6AB"/>
<path d="M9.9916 9.72461H8.6582V11.0907H9.9916V9.72461Z" fill="#F3D6AB"/>
<path d="M11.3256 9.72461H9.99219V11.0907H11.3256V9.72461Z" fill="#F3D6AB"/>
<path d="M12.6596 9.72461H11.3262V11.0907H12.6596V9.72461Z" fill="#B37954"/>
<path d="M13.9916 9.72461H12.6582V11.0907H13.9916V9.72461Z" fill="#F3D6AB"/>
<path d="M15.3256 9.72461H13.9922V11.0907H15.3256V9.72461Z" fill="#F3D6AB"/>
<path d="M16.6596 9.72461H15.3262V11.0907H16.6596V9.72461Z" fill="#B37954"/>
<path d="M17.9916 9.72461H16.6582V11.0907H17.9916V9.72461Z" fill="#B37954"/>
<path d="M19.3256 9.72461H17.9922V11.0907H19.3256V9.72461Z" fill="#F3D6AB"/>
<path d="M20.6576 9.72461H19.3242V11.0907H20.6576V9.72461Z" fill="#F3D6AB"/>
<path d="M21.9936 9.72461H20.6602V11.0907H21.9936V9.72461Z" fill="#B37954"/>
<path d="M23.3256 9.72461H21.9922V11.0907H23.3256V9.72461Z" fill="#F3D6AB"/>
<path d="M24.6576 9.72461H23.3242V11.0907H24.6576V9.72461Z" fill="#F3D6AB"/>
<path d="M25.9936 9.72461H24.6602V11.0907H25.9936V9.72461Z" fill="#F3D6AB"/>
<path d="M27.3256 9.72461H25.9922V11.0907H27.3256V9.72461Z" fill="#F3D6AB"/>
<path d="M28.6596 9.72461H27.3262V11.0907H28.6596V9.72461Z" fill="#F3D6AB"/>
<path d="M5.9916 11.0908H4.6582V12.4569H5.9916V11.0908Z" fill="#B37954"/>
<path d="M7.32363 11.0908H5.99023V12.4569H7.32363V11.0908Z" fill="#B37954"/>
<path d="M8.65957 11.0908H7.32617V12.4569H8.65957V11.0908Z" fill="#F3D6AB"/>
<path d="M9.9916 11.0908H8.6582V12.4569H9.9916V11.0908Z" fill="#F3D6AB"/>
<path d="M11.3256 11.0908H9.99219V12.4569H11.3256V11.0908Z" fill="#F3D6AB"/>
<path d="M12.6596 11.0908H11.3262V12.4569H12.6596V11.0908Z" fill="#F3D6AB"/>
<path d="M13.9916 11.0908H12.6582V12.4569H13.9916V11.0908Z" fill="#B37954"/>
<path d="M15.3256 11.0908H13.9922V12.4569H15.3256V11.0908Z" fill="#B37954"/>
<path d="M16.6596 11.0908H15.3262V12.4569H16.6596V11.0908Z" fill="#B37954"/>
<path d="M17.9916 11.0908H16.6582V12.4569H17.9916V11.0908Z" fill="#B37954"/>
<path d="M19.3256 11.0908H17.9922V12.4569H19.3256V11.0908Z" fill="#B37954"/>
<path d="M20.6576 11.0908H19.3242V12.4569H20.6576V11.0908Z" fill="#B37954"/>
<path d="M21.9936 11.0908H20.6602V12.4569H21.9936V11.0908Z" fill="#F3D6AB"/>
<path d="M23.3256 11.0908H21.9922V12.4569H23.3256V11.0908Z" fill="#F3D6AB"/>
<path d="M24.6576 11.0908H23.3242V12.4569H24.6576V11.0908Z" fill="#F3D6AB"/>
<path d="M25.9936 11.0908H24.6602V12.4569H25.9936V11.0908Z" fill="#F3D6AB"/>
<path d="M27.3256 11.0908H25.9922V12.4569H27.3256V11.0908Z" fill="#DFBB87"/>
<path d="M28.6596 11.0908H27.3262V12.4569H28.6596V11.0908Z" fill="#DFBB87"/>
<path d="M5.9916 12.457H4.6582V13.8232H5.9916V12.457Z" fill="#B37954"/>
<path d="M7.32363 12.457H5.99023V13.8232H7.32363V12.457Z" fill="#B37954"/>
<path d="M8.65957 12.457H7.32617V13.8232H8.65957V12.457Z" fill="#B37954"/>
<path d="M9.9916 12.457H8.6582V13.8232H9.9916V12.457Z" fill="#B37954"/>
<path d="M11.3256 12.457H9.99219V13.8232H11.3256V12.457Z" fill="#DFBB87"/>
<path d="M12.6596 12.457H11.3262V13.8232H12.6596V12.457Z" fill="#DFBB87"/>
<path d="M13.9916 12.457H12.6582V13.8232H13.9916V12.457Z" fill="#F3D6AB"/>
<path d="M15.3256 12.457H13.9922V13.8232H15.3256V12.457Z" fill="#F3D6AB"/>
<path d="M16.6596 12.457H15.3262V13.8232H16.6596V12.457Z" fill="#B37954"/>
<path d="M17.9916 12.457H16.6582V13.8232H17.9916V12.457Z" fill="#F3D6AB"/>
<path d="M19.3256 12.457H17.9922V13.8232H19.3256V12.457Z" fill="#B37954"/>
<path d="M20.6576 12.457H19.3242V13.8232H20.6576V12.457Z" fill="#F3D6AB"/>
<path d="M21.9936 12.457H20.6602V13.8232H21.9936V12.457Z" fill="#F3D6AB"/>
<path d="M23.3256 12.457H21.9922V13.8232H23.3256V12.457Z" fill="#F3D6AB"/>
<path d="M24.6576 12.457H23.3242V13.8232H24.6576V12.457Z" fill="#DFBB87"/>
<path d="M25.9936 12.457H24.6602V13.8232H25.9936V12.457Z" fill="#DFBB87"/>
<path d="M27.3256 12.457H25.9922V13.8232H27.3256V12.457Z" fill="#DFBB87"/>
<path d="M28.6596 12.457H27.3262V13.8232H28.6596V12.457Z" fill="#DFBB87"/>
<path d="M5.9916 13.8232H4.6582V15.1894H5.9916V13.8232Z" fill="#B37954"/>
<path d="M7.32363 13.8232H5.99023V15.1894H7.32363V13.8232Z" fill="#B37954"/>
<path d="M8.65957 13.8232H7.32617V15.1894H8.65957V13.8232Z" fill="#B37954"/>
<path d="M9.9916 13.8232H8.6582V15.1894H9.9916V13.8232Z" fill="#B37954"/>
<path d="M11.3256 13.8232H9.99219V15.1894H11.3256V13.8232Z" fill="#804648"/>
<path d="M12.6596 13.8232H11.3262V15.1894H12.6596V13.8232Z" fill="#B37954"/>
<path d="M13.9916 13.8232H12.6582V15.1894H13.9916V13.8232Z" fill="#F3D6AB"/>
<path d="M15.3256 13.8232H13.9922V15.1894H15.3256V13.8232Z" fill="#B37954"/>
<path d="M16.6596 13.8232H15.3262V15.1894H16.6596V13.8232Z" fill="#F3D6AB"/>
<path d="M17.9916 13.8232H16.6582V15.1894H17.9916V13.8232Z" fill="#F3D6AB"/>
<path d="M19.3256 13.8232H17.9922V15.1894H19.3256V13.8232Z" fill="#F3D6AB"/>
<path d="M20.6576 13.8232H19.3242V15.1894H20.6576V13.8232Z" fill="#B37954"/>
<path d="M21.9936 13.8232H20.6602V15.1894H21.9936V13.8232Z" fill="#DFBB87"/>
<path d="M23.3256 13.8232H21.9922V15.1894H23.3256V13.8232Z" fill="#B37954"/>
<path d="M24.6576 13.8232H23.3242V15.1894H24.6576V13.8232Z" fill="#DFBB87"/>
<path d="M25.9936 13.8232H24.6602V15.1894H25.9936V13.8232Z" fill="#DFBB87"/>
<path d="M27.3256 13.8232H25.9922V15.1894H27.3256V13.8232Z" fill="#DFBB87"/>
<path d="M28.6596 13.8232H27.3262V15.1894H28.6596V13.8232Z" fill="#DFBB87"/>
<path d="M5.9916 15.1895H4.6582V16.5556H5.9916V15.1895Z" fill="#B37954"/>
<path d="M7.32363 15.189H5.99023V16.5551H7.32363V15.189Z" fill="#B37954"/>
<path d="M8.65957 15.189H7.32617V16.5551H8.65957V15.189Z" fill="#B37954"/>
<path d="M9.9916 15.1895H8.6582V16.5556H9.9916V15.1895Z" fill="#B37954"/>
<path d="M11.3256 15.189H9.99219V16.5551H11.3256V15.189Z" fill="#804648"/>
<path d="M12.6596 15.189H11.3262V16.5551H12.6596V15.189Z" fill="#B37954"/>
<path d="M13.9916 15.1895H12.6582V16.5556H13.9916V15.1895Z" fill="#B37954"/>
<path d="M15.3256 15.189H13.9922V16.5551H15.3256V15.189Z" fill="#B37954"/>
<path d="M16.6596 15.189H15.3262V16.5551H16.6596V15.189Z" fill="#F3D6AB"/>
<path d="M17.9916 15.189H16.6582V16.5551H17.9916V15.189Z" fill="#F3D6AB"/>
<path d="M19.3256 15.189H17.9922V16.5551H19.3256V15.189Z" fill="#DFBB87"/>
<path d="M20.6576 15.189H19.3242V16.5551H20.6576V15.189Z" fill="#B37954"/>
<path d="M21.9936 15.189H20.6602V16.5551H21.9936V15.189Z" fill="#DFBB87"/>
<path d="M23.3256 15.1895H21.9922V16.5556H23.3256V15.1895Z" fill="#B37954"/>
<path d="M24.6576 15.189H23.3242V16.5551H24.6576V15.189Z" fill="#DFBB87"/>
<path d="M25.9936 15.189H24.6602V16.5551H25.9936V15.189Z" fill="#DFBB87"/>
<path d="M27.3256 15.1895H25.9922V16.5556H27.3256V15.1895Z" fill="#DFBB87"/>
<path d="M28.6596 15.189H27.3262V16.5551H28.6596V15.189Z" fill="#DFBB87"/>
<path d="M5.9916 16.5557H4.6582V17.9218H5.9916V16.5557Z" fill="#B37954"/>
<path d="M7.32363 16.5552H5.99023V17.9213H7.32363V16.5552Z" fill="#B37954"/>
<path d="M8.65957 16.5552H7.32617V17.9213H8.65957V16.5552Z" fill="#B37954"/>
<path d="M9.9916 16.5557H8.6582V17.9218H9.9916V16.5557Z" fill="#B37954"/>
<path d="M11.3256 16.5552H9.99219V17.9213H11.3256V16.5552Z" fill="#804648"/>
<path d="M12.6596 16.5552H11.3262V17.9213H12.6596V16.5552Z" fill="#B37954"/>
<path d="M13.9916 16.5557H12.6582V17.9218H13.9916V16.5557Z" fill="#B37954"/>
<path d="M15.3256 16.5552H13.9922V17.9213H15.3256V16.5552Z" fill="#B37954"/>
<path d="M16.6596 16.5552H15.3262V17.9213H16.6596V16.5552Z" fill="#B37954"/>
<path d="M17.9916 16.5552H16.6582V17.9213H17.9916V16.5552Z" fill="#F3D6AB"/>
<path d="M19.3256 16.5552H17.9922V17.9213H19.3256V16.5552Z" fill="#DFBB87"/>
<path d="M20.6576 16.5552H19.3242V17.9213H20.6576V16.5552Z" fill="#DFBB87"/>
<path d="M21.9936 16.5552H20.6602V17.9213H21.9936V16.5552Z" fill="#DFBB87"/>
<path d="M23.3256 16.5557H21.9922V17.9218H23.3256V16.5557Z" fill="#B37954"/>
<path d="M24.6576 16.5552H23.3242V17.9213H24.6576V16.5552Z" fill="#DFBB87"/>
<path d="M25.9936 16.5552H24.6602V17.9213H25.9936V16.5552Z" fill="#DFBB87"/>
<path d="M27.3256 16.5557H25.9922V17.9218H27.3256V16.5557Z" fill="#DFBB87"/>
<path d="M28.6596 16.5552H27.3262V17.9213H28.6596V16.5552Z" fill="#DFBB87"/>
<path d="M5.9916 17.9214H4.6582V19.2875H5.9916V17.9214Z" fill="#B37954"/>
<path d="M7.32363 17.9214H5.99023V19.2875H7.32363V17.9214Z" fill="#B37954"/>
<path d="M8.65957 17.9214H7.32617V19.2875H8.65957V17.9214Z" fill="#B37954"/>
<path d="M9.9916 17.9214H8.6582V19.2875H9.9916V17.9214Z" fill="#B37954"/>
<path d="M11.3256 17.9214H9.99219V19.2875H11.3256V17.9214Z" fill="#804648"/>
<path d="M12.6596 17.9214H11.3262V19.2875H12.6596V17.9214Z" fill="#B37954"/>
<path d="M13.9916 17.9214H12.6582V19.2875H13.9916V17.9214Z" fill="#B37954"/>
<path d="M15.3256 17.9214H13.9922V19.2875H15.3256V17.9214Z" fill="#B37954"/>
<path d="M16.6596 17.9214H15.3262V19.2875H16.6596V17.9214Z" fill="#B37954"/>
<path d="M17.9916 17.9214H16.6582V19.2875H17.9916V17.9214Z" fill="#F3D6AB"/>
<path d="M19.3256 17.9214H17.9922V19.2875H19.3256V17.9214Z" fill="#DFBB87"/>
<path d="M20.6576 17.9214H19.3242V19.2875H20.6576V17.9214Z" fill="#DFBB87"/>
<path d="M21.9936 17.9214H20.6602V19.2875H21.9936V17.9214Z" fill="#DFBB87"/>
<path d="M23.3256 17.9214H21.9922V19.2875H23.3256V17.9214Z" fill="#B37954"/>
<path d="M24.6576 17.9214H23.3242V19.2875H24.6576V17.9214Z" fill="#DFBB87"/>
<path d="M25.9936 17.9214H24.6602V19.2875H25.9936V17.9214Z" fill="#DFBB87"/>
<path d="M27.3256 17.9214H25.9922V19.2875H27.3256V17.9214Z" fill="#DFBB87"/>
<path d="M28.6596 17.9214H27.3262V19.2875H28.6596V17.9214Z" fill="#DFBB87"/>
<path d="M5.9916 19.2876H4.6582V20.6537H5.9916V19.2876Z" fill="#B37954"/>
<path d="M7.32363 19.2876H5.99023V20.6537H7.32363V19.2876Z" fill="#B37954"/>
<path d="M8.65957 19.2876H7.32617V20.6537H8.65957V19.2876Z" fill="#B37954"/>
<path d="M9.9916 19.2876H8.6582V20.6537H9.9916V19.2876Z" fill="#B37954"/>
<path d="M11.3256 19.2876H9.99219V20.6537H11.3256V19.2876Z" fill="#804648"/>
<path d="M12.6596 19.2876H11.3262V20.6537H12.6596V19.2876Z" fill="#B37954"/>
<path d="M13.9916 19.2876H12.6582V20.6537H13.9916V19.2876Z" fill="#B37954"/>
<path d="M15.3256 19.2876H13.9922V20.6537H15.3256V19.2876Z" fill="#B37954"/>
<path d="M16.6596 19.2876H15.3262V20.6537H16.6596V19.2876Z" fill="#B37954"/>
<path d="M17.9916 19.2876H16.6582V20.6537H17.9916V19.2876Z" fill="#F3D6AB"/>
<path d="M19.3256 19.2876H17.9922V20.6537H19.3256V19.2876Z" fill="#DFBB87"/>
<path d="M20.6576 19.2876H19.3242V20.6537H20.6576V19.2876Z" fill="#DFBB87"/>
<path d="M21.9936 19.2876H20.6602V20.6537H21.9936V19.2876Z" fill="#DFBB87"/>
<path d="M23.3256 19.2876H21.9922V20.6537H23.3256V19.2876Z" fill="#B37954"/>
<path d="M24.6576 19.2876H23.3242V20.6537H24.6576V19.2876Z" fill="#DFBB87"/>
<path d="M25.9936 19.2876H24.6602V20.6537H25.9936V19.2876Z" fill="#DFBB87"/>
<path d="M27.3256 19.2876H25.9922V20.6537H27.3256V19.2876Z" fill="#DFBB87"/>
<path d="M28.6596 19.2876H27.3262V20.6537H28.6596V19.2876Z" fill="#DFBB87"/>
<path d="M5.9916 20.6538H4.6582V22.0199H5.9916V20.6538Z" fill="#B37954"/>
<path d="M7.32363 20.6538H5.99023V22.0199H7.32363V20.6538Z" fill="#B37954"/>
<path d="M8.65957 20.6538H7.32617V22.0199H8.65957V20.6538Z" fill="#B37954"/>
<path d="M9.9916 20.6538H8.6582V22.0199H9.9916V20.6538Z" fill="#B37954"/>
<path d="M11.3256 20.6538H9.99219V22.0199H11.3256V20.6538Z" fill="#804648"/>
<path d="M12.6596 20.6538H11.3262V22.0199H12.6596V20.6538Z" fill="#B37954"/>
<path d="M13.9916 20.6538H12.6582V22.0199H13.9916V20.6538Z" fill="#B37954"/>
<path d="M15.3256 20.6538H13.9922V22.0199H15.3256V20.6538Z" fill="#B37954"/>
<path d="M16.6596 20.6538H15.3262V22.0199H16.6596V20.6538Z" fill="#B37954"/>
<path d="M17.9916 20.6538H16.6582V22.0199H17.9916V20.6538Z" fill="#F3D6AB"/>
<path d="M19.3256 20.6538H17.9922V22.0199H19.3256V20.6538Z" fill="#DFBB87"/>
<path d="M20.6576 20.6538H19.3242V22.0199H20.6576V20.6538Z" fill="#DFBB87"/>
<path d="M21.9936 20.6538H20.6602V22.0199H21.9936V20.6538Z" fill="#DFBB87"/>
<path d="M23.3256 20.6538H21.9922V22.0199H23.3256V20.6538Z" fill="#B37954"/>
<path d="M24.6576 20.6538H23.3242V22.0199H24.6576V20.6538Z" fill="#DFBB87"/>
<path d="M25.9936 20.6538H24.6602V22.0199H25.9936V20.6538Z" fill="#DFBB87"/>
<path d="M27.3256 20.6538H25.9922V22.0199H27.3256V20.6538Z" fill="#DFBB87"/>
<path d="M28.6596 20.6538H27.3262V22.0199H28.6596V20.6538Z" fill="#DFBB87"/>
<path d="M5.9916 22.02H4.6582V23.3861H5.9916V22.02Z" fill="#804648"/>
<path d="M7.32363 22.02H5.99023V23.3861H7.32363V22.02Z" fill="#804648"/>
<path d="M8.65957 22.02H7.32617V23.3861H8.65957V22.02Z" fill="#B37954"/>
<path d="M9.9916 22.02H8.6582V23.3861H9.9916V22.02Z" fill="#B37954"/>
<path d="M11.3256 22.02H9.99219V23.3861H11.3256V22.02Z" fill="#804648"/>
<path d="M12.6596 22.02H11.3262V23.3861H12.6596V22.02Z" fill="#B37954"/>
<path d="M13.9916 22.02H12.6582V23.3861H13.9916V22.02Z" fill="#B37954"/>
<path d="M15.3256 22.02H13.9922V23.3861H15.3256V22.02Z" fill="#B37954"/>
<path d="M16.6596 22.02H15.3262V23.3861H16.6596V22.02Z" fill="#B37954"/>
<path d="M17.9916 22.02H16.6582V23.3861H17.9916V22.02Z" fill="#F3D6AB"/>
<path d="M19.3256 22.02H17.9922V23.3861H19.3256V22.02Z" fill="#DFBB87"/>
<path d="M20.6576 22.02H19.3242V23.3861H20.6576V22.02Z" fill="#DFBB87"/>
<path d="M21.9936 22.02H20.6602V23.3861H21.9936V22.02Z" fill="#DFBB87"/>
<path d="M23.3256 22.02H21.9922V23.3861H23.3256V22.02Z" fill="#B37954"/>
<path d="M24.6576 22.02H23.3242V23.3861H24.6576V22.02Z" fill="#DFBB87"/>
<path d="M25.9936 22.02H24.6602V23.3861H25.9936V22.02Z" fill="#DFBB87"/>
<path d="M27.3256 22.02H25.9922V23.3861H27.3256V22.02Z" fill="#B37954"/>
<path d="M28.6596 22.02H27.3262V23.3861H28.6596V22.02Z" fill="#B37954"/>
<path d="M8.65957 23.3857H7.32617V24.7519H8.65957V23.3857Z" fill="#804648"/>
<path d="M9.9916 23.3862H8.6582V24.7524H9.9916V23.3862Z" fill="#804648"/>
<path d="M11.3256 23.3857H9.99219V24.7519H11.3256V23.3857Z" fill="#804648"/>
<path d="M12.6596 23.3857H11.3262V24.7519H12.6596V23.3857Z" fill="#B37954"/>
<path d="M13.9916 23.3862H12.6582V24.7524H13.9916V23.3862Z" fill="#B37954"/>
<path d="M15.3256 23.3857H13.9922V24.7519H15.3256V23.3857Z" fill="#B37954"/>
<path d="M16.6596 23.3857H15.3262V24.7519H16.6596V23.3857Z" fill="#B37954"/>
<path d="M17.9916 23.3857H16.6582V24.7519H17.9916V23.3857Z" fill="#F3D6AB"/>
<path d="M19.3256 23.3857H17.9922V24.7519H19.3256V23.3857Z" fill="#DFBB87"/>
<path d="M20.6576 23.3857H19.3242V24.7519H20.6576V23.3857Z" fill="#DFBB87"/>
<path d="M21.9936 23.3857H20.6602V24.7519H21.9936V23.3857Z" fill="#DFBB87"/>
<path d="M23.3256 23.3862H21.9922V24.7524H23.3256V23.3862Z" fill="#B37954"/>
<path d="M24.6576 23.3857H23.3242V24.7519H24.6576V23.3857Z" fill="#B37954"/>
<path d="M25.9936 23.3857H24.6602V24.7519H25.9936V23.3857Z" fill="#B37954"/>
<path d="M11.3256 24.752H9.99219V26.1181H11.3256V24.752Z" fill="#804648"/>
<path d="M12.6596 24.752H11.3262V26.1181H12.6596V24.752Z" fill="#804648"/>
<path d="M13.9916 24.752H12.6582V26.1181H13.9916V24.752Z" fill="#B37954"/>
<path d="M15.3256 24.752H13.9922V26.1181H15.3256V24.752Z" fill="#B37954"/>
<path d="M16.6596 24.752H15.3262V26.1181H16.6596V24.752Z" fill="#B37954"/>
<path d="M17.9916 24.752H16.6582V26.1181H17.9916V24.752Z" fill="#F3D6AB"/>
<path d="M19.3256 24.752H17.9922V26.1181H19.3256V24.752Z" fill="#DFBB87"/>
<path d="M20.6576 24.752H19.3242V26.1181H20.6576V24.752Z" fill="#DFBB87"/>
<path d="M21.9936 24.752H20.6602V26.1181H21.9936V24.752Z" fill="#B37954"/>
<path d="M23.3256 24.752H21.9922V26.1181H23.3256V24.752Z" fill="#B37954"/>
<path d="M13.9916 26.1182H12.6582V27.4843H13.9916V26.1182Z" fill="#804648"/>
<path d="M15.3256 26.1182H13.9922V27.4843H15.3256V26.1182Z" fill="#804648"/>
<path d="M16.6596 26.1182H15.3262V27.4843H16.6596V26.1182Z" fill="#B37954"/>
<path d="M17.9916 26.1182H16.6582V27.4843H17.9916V26.1182Z" fill="#F3D6AB"/>
<path d="M19.3256 26.1182H17.9922V27.4843H19.3256V26.1182Z" fill="#B37954"/>
<path d="M20.6576 26.1182H19.3242V27.4843H20.6576V26.1182Z" fill="#B37954"/>
<path d="M16.6596 27.4844H15.3262V28.8505H16.6596V27.4844Z" fill="#804648"/>
<path d="M17.9916 27.4844H16.6582V28.8505H17.9916V27.4844Z" fill="#B37954"/>
</svg>