<svg width="32" height="32" viewBox="0 0 32 32" fill="none" xmlns="http://www.w3.org/2000/svg">
<path d="M11.5 5.5H11V6H11.5V5.5Z" fill="black"/>
<path d="M12 5.5H11.5V6H12V5.5Z" fill="black"/>
<path d="M12.5 5.5H12V6H12.5V5.5Z" fill="black"/>
<path d="M13 5.5H12.5V6H13V5.5Z" fill="black"/>
<path d="M13.5 5.5H13V6H13.5V5.5Z" fill="black"/>
<path d="M14 5.5H13.5V6H14V5.5Z" fill="black"/>
<path d="M14.5 5.5H14V6H14.5V5.5Z" fill="black"/>
<path d="M15 5.5H14.5V6H15V5.5Z" fill="black"/>
<path d="M15.5 5.5H15V6H15.5V5.5Z" fill="black"/>
<path d="M16 5.5H15.5V6H16V5.5Z" fill="black"/>
<path d="M16.5 5.5H16V6H16.5V5.5Z" fill="black"/>
<path d="M17 5.5H16.5V6H17V5.5Z" fill="black"/>
<path d="M17.5 5.5H17V6H17.5V5.5Z" fill="black"/>
<path d="M18 5.5H17.5V6H18V5.5Z" fill="black"/>
<path d="M18.5 5.5H18V6H18.5V5.5Z" fill="black"/>
<path d="M19 5.5H18.5V6H19V5.5Z" fill="black"/>
<path d="M19.5 5.5H19V6H19.5V5.5Z" fill="black"/>
<path d="M20 5.5H19.5V6H20V5.5Z" fill="black"/>
<path d="M20.5 5.5H20V6H20.5V5.5Z" fill="black"/>
<path d="M21 5.5H20.5V6H21V5.5Z" fill="black"/>
<path d="M21.5 5.5H21V6H21.5V5.5Z" fill="black"/>
<path d="M22 5.5H21.5V6H22V5.5Z" fill="#CBDBFC"/>
<path d="M22.5 5.5H22V6H22.5V5.5Z" fill="#CBDBFC"/>
<path d="M23 5.5H22.5V6H23V5.5Z" fill="#CBDBFC"/>
<path d="M11.5 6H11V6.5H11.5V6Z" fill="black"/>
<path d="M12 6H11.5V6.5H12V6Z" fill="#639BFF"/>
<path d="M12.5 6H12V6.5H12.5V6Z" fill="#639BFF"/>
<path d="M13 6H12.5V6.5H13V6Z" fill="#639BFF"/>
<path d="M13.5 6H13V6.5H13.5V6Z" fill="#639BFF"/>
<path d="M14 6H13.5V6.5H14V6Z" fill="#639BFF"/>
<path d="M14.5 6H14V6.5H14.5V6Z" fill="#639BFF"/>
<path d="M15 6H14.5V6.5H15V6Z" fill="#639BFF"/>
<path d="M15.5 6H15V6.5H15.5V6Z" fill="#639BFF"/>
<path d="M16 6H15.5V6.5H16V6Z" fill="#639BFF"/>
<path d="M16.5 6H16V6.5H16.5V6Z" fill="#639BFF"/>
<path d="M17 6H16.5V6.5H17V6Z" fill="#639BFF"/>
<path d="M17.5 6H17V6.5H17.5V6Z" fill="#639BFF"/>
<path d="M18 6H17.5V6.5H18V6Z" fill="#639BFF"/>
<path d="M18.5 6H18V6.5H18.5V6Z" fill="#639BFF"/>
<path d="M19 6H18.5V6.5H19V6Z" fill="#639BFF"/>
<path d="M19.5 6H19V6.5H19.5V6Z" fill="#639BFF"/>
<path d="M20 6H19.5V6.5H20V6Z" fill="#639BFF"/>
<path d="M20.5 6H20V6.5H20.5V6Z" fill="#639BFF"/>
<path d="M21 6H20.5V6.5H21V6Z" fill="#639BFF"/>
<path d="M21.5 6H21V6.5H21.5V6Z" fill="black"/>
<path d="M22 6H21.5V6.5H22V6Z" fill="#CBDBFC"/>
<path d="M22.5 6H22V6.5H22.5V6Z" fill="#CBDBFC"/>
<path d="M23 6H22.5V6.5H23V6Z" fill="#CBDBFC"/>
<path d="M11.5 6.5H11V7H11.5V6.5Z" fill="black"/>
<path d="M12 6.5H11.5V7H12V6.5Z" fill="#639BFF"/>
<path d="M12.5 6.5H12V7H12.5V6.5Z" fill="#639BFF"/>
<path d="M13 6.5H12.5V7H13V6.5Z" fill="#639BFF"/>
<path d="M13.5 6.5H13V7H13.5V6.5Z" fill="#639BFF"/>
<path d="M14 6.5H13.5V7H14V6.5Z" fill="#639BFF"/>
<path d="M14.5 6.5H14V7H14.5V6.5Z" fill="#639BFF"/>
<path d="M15 6.5H14.5V7H15V6.5Z" fill="#639BFF"/>
<path d="M15.5 6.5H15V7H15.5V6.5Z" fill="#639BFF"/>
<path d="M16 6.5H15.5V7H16V6.5Z" fill="#639BFF"/>
<path d="M16.5 6.5H16V7H16.5V6.5Z" fill="#639BFF"/>
<path d="M17 6.5H16.5V7H17V6.5Z" fill="#639BFF"/>
<path d="M17.5 6.5H17V7H17.5V6.5Z" fill="#639BFF"/>
<path d="M18 6.5H17.5V7H18V6.5Z" fill="#639BFF"/>
<path d="M18.5 6.5H18V7H18.5V6.5Z" fill="#639BFF"/>
<path d="M19 6.5H18.5V7H19V6.5Z" fill="#639BFF"/>
<path d="M19.5 6.5H19V7H19.5V6.5Z" fill="#639BFF"/>
<path d="M20 6.5H19.5V7H20V6.5Z" fill="#639BFF"/>
<path d="M20.5 6.5H20V7H20.5V6.5Z" fill="#639BFF"/>
<path d="M21 6.5H20.5V7H21V6.5Z" fill="#639BFF"/>
<path d="M21.5 6.5H21V7H21.5V6.5Z" fill="black"/>
<path d="M22 6.5H21.5V7H22V6.5Z" fill="#CBDBFC"/>
<path d="M22.5 6.5H22V7H22.5V6.5Z" fill="#CBDBFC"/>
<path d="M11 7H10.5V7.5H11V7Z" fill="black"/>
<path d="M11.5 7H11V7.5H11.5V7Z" fill="#639BFF"/>
<path d="M12 7H11.5V7.5H12V7Z" fill="#639BFF"/>
<path d="M12.5 7H12V7.5H12.5V7Z" fill="#639BFF"/>
<path d="M13 7H12.5V7.5H13V7Z" fill="#639BFF"/>
<path d="M13.5 7H13V7.5H13.5V7Z" fill="#639BFF"/>
<path d="M14 7H13.5V7.5H14V7Z" fill="#62A6F9"/>
<path d="M14.5 7H14V7.5H14.5V7Z" fill="#61B1F3"/>
<path d="M15 7H14.5V7.5H15V7Z" fill="#5FCDE4"/>
<path d="M15.5 7H15V7.5H15.5V7Z" fill="#5FCDE4"/>
<path d="M16 7H15.5V7.5H16V7Z" fill="#5FCDE4"/>
<path d="M16.5 7H16V7.5H16.5V7Z" fill="#5FCDE4"/>
<path d="M17 7H16.5V7.5H17V7Z" fill="#5FCDE4"/>
<path d="M17.5 7H17V7.5H17.5V7Z" fill="#5FCDE4"/>
<path d="M18 7H17.5V7.5H18V7Z" fill="#5FCDE4"/>
<path d="M18.5 7H18V7.5H18.5V7Z" fill="#5FCDE4"/>
<path d="M19 7H18.5V7.5H19V7Z" fill="#CBDBFC"/>
<path d="M19.5 7H19V7.5H19.5V7Z" fill="#CBDBFC"/>
<path d="M20 7H19.5V7.5H20V7Z" fill="#639BFF"/>
<path d="M20.5 7H20V7.5H20.5V7Z" fill="#639BFF"/>
<path d="M21 7H20.5V7.5H21V7Z" fill="black"/>
<path d="M21.5 7H21V7.5H21.5V7Z" fill="#CBDBFC"/>
<path d="M22 7H21.5V7.5H22V7Z" fill="#CBDBFC"/>
<path d="M22.5 7H22V7.5H22.5V7Z" fill="#CBDBFC"/>
<path d="M11 7.5H10.5V8H11V7.5Z" fill="black"/>
<path d="M11.5 7.5H11V8H11.5V7.5Z" fill="#639BFF"/>
<path d="M12 7.5H11.5V8H12V7.5Z" fill="#639BFF"/>
<path d="M12.5 7.5H12V8H12.5V7.5Z" fill="#639BFF"/>
<path d="M13 7.5H12.5V8H13V7.5Z" fill="#639BFF"/>
<path d="M13.5 7.5H13V8H13.5V7.5Z" fill="#62A0FC"/>
<path d="M14 7.5H13.5V8H14V7.5Z" fill="#61B1F3"/>
<path d="M14.5 7.5H14V8H14.5V7.5Z" fill="#5FC1EA"/>
<path d="M15 7.5H14.5V8H15V7.5Z" fill="#5FCDE4"/>
<path d="M15.5 7.5H15V8H15.5V7.5Z" fill="#5FCDE4"/>
<path d="M16 7.5H15.5V8H16V7.5Z" fill="#5FCDE4"/>
<path d="M16.5 7.5H16V8H16.5V7.5Z" fill="#5FCDE4"/>
<path d="M17 7.5H16.5V8H17V7.5Z" fill="#5FCDE4"/>
<path d="M17.5 7.5H17V8H17.5V7.5Z" fill="#5FCDE4"/>
<path d="M18 7.5H17.5V8H18V7.5Z" fill="#5FCDE4"/>
<path d="M18.5 7.5H18V8H18.5V7.5Z" fill="#5FCDE4"/>
<path d="M19 7.5H18.5V8H19V7.5Z" fill="#CBDBFC"/>
<path d="M19.5 7.5H19V8H19.5V7.5Z" fill="#CBDBFC"/>
<path d="M20 7.5H19.5V8H20V7.5Z" fill="#CBDBFC"/>
<path d="M20.5 7.5H20V8H20.5V7.5Z" fill="#639BFF"/>
<path d="M21 7.5H20.5V8H21V7.5Z" fill="black"/>
<path d="M21.5 7.5H21V8H21.5V7.5Z" fill="#CBDBFC"/>
<path d="M22 7.5H21.5V8H22V7.5Z" fill="#CBDBFC"/>
<path d="M11 8H10.5V8.5H11V8Z" fill="black"/>
<path d="M11.5 8H11V8.5H11.5V8Z" fill="#639BFF"/>
<path d="M12 8H11.5V8.5H12V8Z" fill="#639BFF"/>
<path d="M12.5 8H12V8.5H12.5V8Z" fill="#639BFF"/>
<path d="M13 8H12.5V8.5H13V8Z" fill="#639BFF"/>
<path d="M13.5 8H13V8.5H13.5V8Z" fill="#62A6F9"/>
<path d="M14 8H13.5V8.5H14V8Z" fill="#60B6F0"/>
<path d="M14.5 8H14V8.5H14.5V8Z" fill="#5FC7E7"/>
<path d="M15 8H14.5V8.5H15V8Z" fill="#5FCDE4"/>
<path d="M15.5 8H15V8.5H15.5V8Z" fill="#5FCDE4"/>
<path d="M16 8H15.5V8.5H16V8Z" fill="#5FCDE4"/>
<path d="M16.5 8H16V8.5H16.5V8Z" fill="#5FCDE4"/>
<path d="M17 8H16.5V8.5H17V8Z" fill="#5FCDE4"/>
<path d="M17.5 8H17V8.5H17.5V8Z" fill="#5FCDE4"/>
<path d="M18 8H17.5V8.5H18V8Z" fill="#5FCDE4"/>
<path d="M18.5 8H18V8.5H18.5V8Z" fill="#CBDBFC"/>
<path d="M19 8H18.5V8.5H19V8Z" fill="#CBDBFC"/>
<path d="M19.5 8H19V8.5H19.5V8Z" fill="#CBDBFC"/>
<path d="M20 8H19.5V8.5H20V8Z" fill="#5B6EE1"/>
<path d="M20.5 8H20V8.5H20.5V8Z" fill="black"/>
<path d="M21 8H20.5V8.5H21V8Z" fill="#CBDBFC"/>
<path d="M21.5 8H21V8.5H21.5V8Z" fill="#CBDBFC"/>
<path d="M22 8H21.5V8.5H22V8Z" fill="#CBDBFC"/>
<path d="M11 8.5H10.5V9H11V8.5Z" fill="black"/>
<path d="M11.5 8.5H11V9H11.5V8.5Z" fill="#639BFF"/>
<path d="M12 8.5H11.5V9H12V8.5Z" fill="#639BFF"/>
<path d="M12.5 8.5H12V9H12.5V8.5Z" fill="#639BFF"/>
<path d="M13 8.5H12.5V9H13V8.5Z" fill="#639BFF"/>
<path d="M13.5 8.5H13V9H13.5V8.5Z" fill="#61ABF6"/>
<path d="M14 8.5H13.5V9H14V8.5Z" fill="#60BCED"/>
<path d="M14.5 8.5H14V9H14.5V8.5Z" fill="#5FCDE4"/>
<path d="M15 8.5H14.5V9H15V8.5Z" fill="#5FCDE4"/>
<path d="M15.5 8.5H15V9H15.5V8.5Z" fill="#5FCDE4"/>
<path d="M16 8.5H15.5V9H16V8.5Z" fill="#5FCDE4"/>
<path d="M16.5 8.5H16V9H16.5V8.5Z" fill="#5FCDE4"/>
<path d="M17 8.5H16.5V9H17V8.5Z" fill="#5FCDE4"/>
<path d="M17.5 8.5H17V9H17.5V8.5Z" fill="#5FCDE4"/>
<path d="M18 8.5H17.5V9H18V8.5Z" fill="#5FCDE4"/>
<path d="M18.5 8.5H18V9H18.5V8.5Z" fill="#CBDBFC"/>
<path d="M19 8.5H18.5V9H19V8.5Z" fill="#CBDBFC"/>
<path d="M19.5 8.5H19V9H19.5V8.5Z" fill="#CBDBFC"/>
<path d="M20 8.5H19.5V9H20V8.5Z" fill="#5B6EE1"/>
<path d="M20.5 8.5H20V9H20.5V8.5Z" fill="black"/>
<path d="M21 8.5H20.5V9H21V8.5Z" fill="#CBDBFC"/>
<path d="M21.5 8.5H21V9H21.5V8.5Z" fill="#CBDBFC"/>
<path d="M11 9H10.5V9.5H11V9Z" fill="black"/>
<path d="M11.5 9H11V9.5H11.5V9Z" fill="#639BFF"/>
<path d="M12 9H11.5V9.5H12V9Z" fill="#639BFF"/>
<path d="M12.5 9H12V9.5H12.5V9Z" fill="#639BFF"/>
<path d="M13 9H12.5V9.5H13V9Z" fill="#62A0FC"/>
<path d="M13.5 9H13V9.5H13.5V9Z" fill="#61B1F3"/>
<path d="M14 9H13.5V9.5H14V9Z" fill="#5FC1EA"/>
<path d="M14.5 9H14V9.5H14.5V9Z" fill="#5FCDE4"/>
<path d="M15 9H14.5V9.5H15V9Z" fill="#5FCDE4"/>
<path d="M15.5 9H15V9.5H15.5V9Z" fill="#5FCDE4"/>
<path d="M16 9H15.5V9.5H16V9Z" fill="#5FCDE4"/>
<path d="M16.5 9H16V9.5H16.5V9Z" fill="#5FCDE4"/>
<path d="M17 9H16.5V9.5H17V9Z" fill="#5FCDE4"/>
<path d="M17.5 9H17V9.5H17.5V9Z" fill="#5FCDE4"/>
<path d="M18 9H17.5V9.5H18V9Z" fill="#CBDBFC"/>
<path d="M18.5 9H18V9.5H18.5V9Z" fill="#CBDBFC"/>
<path d="M19 9H18.5V9.5H19V9Z" fill="#CBDBFC"/>
<path d="M19.5 9H19V9.5H19.5V9Z" fill="#5B6EE1"/>
<path d="M20 9H19.5V9.5H20V9Z" fill="black"/>
<path d="M20.5 9H20V9.5H20.5V9Z" fill="#CBDBFC"/>
<path d="M21 9H20.5V9.5H21V9Z" fill="#CBDBFC"/>
<path d="M21.5 9H21V9.5H21.5V9Z" fill="#CBDBFC"/>
<path d="M11 9.5H10.5V10H11V9.5Z" fill="black"/>
<path d="M11.5 9.5H11V10H11.5V9.5Z" fill="#639BFF"/>
<path d="M12 9.5H11.5V10H12V9.5Z" fill="#639BFF"/>
<path d="M12.5 9.5H12V10H12.5V9.5Z" fill="#639BFF"/>
<path d="M13 9.5H12.5V10H13V9.5Z" fill="#62A6F9"/>
<path d="M13.5 9.5H13V10H13.5V9.5Z" fill="#60B6F0"/>
<path d="M14 9.5H13.5V10H14V9.5Z" fill="#5FC7E7"/>
<path d="M14.5 9.5H14V10H14.5V9.5Z" fill="#5FCDE4"/>
<path d="M15 9.5H14.5V10H15V9.5Z" fill="#5FCDE4"/>
<path d="M15.5 9.5H15V10H15.5V9.5Z" fill="#5FCDE4"/>
<path d="M16 9.5H15.5V10H16V9.5Z" fill="#5FCDE4"/>
<path d="M16.5 9.5H16V10H16.5V9.5Z" fill="#5FCDE4"/>
<path d="M17 9.5H16.5V10H17V9.5Z" fill="#5FCDE4"/>
<path d="M17.5 9.5H17V10H17.5V9.5Z" fill="#5FCDE4"/>
<path d="M18 9.5H17.5V10H18V9.5Z" fill="#CBDBFC"/>
<path d="M18.5 9.5H18V10H18.5V9.5Z" fill="#CBDBFC"/>
<path d="M19 9.5H18.5V10H19V9.5Z" fill="#CBDBFC"/>
<path d="M19.5 9.5H19V10H19.5V9.5Z" fill="#5B6EE1"/>
<path d="M20 9.5H19.5V10H20V9.5Z" fill="black"/>
<path d="M20.5 9.5H20V10H20.5V9.5Z" fill="#CBDBFC"/>
<path d="M21 9.5H20.5V10H21V9.5Z" fill="#CBDBFC"/>
<path d="M10.5 10H10V10.5H10.5V10Z" fill="black"/>
<path d="M11 10H10.5V10.5H11V10Z" fill="#639BFF"/>
<path d="M11.5 10H11V10.5H11.5V10Z" fill="#639BFF"/>
<path d="M12 10H11.5V10.5H12V10Z" fill="#639BFF"/>
<path d="M12.5 10H12V10.5H12.5V10Z" fill="#639BFF"/>
<path d="M13 10H12.5V10.5H13V10Z" fill="#61ABF6"/>
<path d="M13.5 10H13V10.5H13.5V10Z" fill="#60BCED"/>
<path d="M14 10H13.5V10.5H14V10Z" fill="#5FCDE4"/>
<path d="M14.5 10H14V10.5H14.5V10Z" fill="#5FCDE4"/>
<path d="M15 10H14.5V10.5H15V10Z" fill="#5FCDE4"/>
<path d="M15.5 10H15V10.5H15.5V10Z" fill="#5FCDE4"/>
<path d="M16 10H15.5V10.5H16V10Z" fill="#5FCDE4"/>
<path d="M16.5 10H16V10.5H16.5V10Z" fill="#5FCDE4"/>
<path d="M17 10H16.5V10.5H17V10Z" fill="#5FCDE4"/>
<path d="M17.5 10H17V10.5H17.5V10Z" fill="#CBDBFC"/>
<path d="M18 10H17.5V10.5H18V10Z" fill="#CBDBFC"/>
<path d="M18.5 10H18V10.5H18.5V10Z" fill="#CBDBFC"/>
<path d="M19 10H18.5V10.5H19V10Z" fill="#5B6EE1"/>
<path d="M19.5 10H19V10.5H19.5V10Z" fill="black"/>
<path d="M20 10H19.5V10.5H20V10Z" fill="#CBDBFC"/>
<path d="M20.5 10H20V10.5H20.5V10Z" fill="#CBDBFC"/>
<path d="M21 10H20.5V10.5H21V10Z" fill="#CBDBFC"/>
<path d="M10.5 10.5H10V11H10.5V10.5Z" fill="black"/>
<path d="M11 10.5H10.5V11H11V10.5Z" fill="#639BFF"/>
<path d="M11.5 10.5H11V11H11.5V10.5Z" fill="#639BFF"/>
<path d="M12 10.5H11.5V11H12V10.5Z" fill="#639BFF"/>
<path d="M12.5 10.5H12V11H12.5V10.5Z" fill="#639BFF"/>
<path d="M13 10.5H12.5V11H13V10.5Z" fill="#61ABF6"/>
<path d="M13.5 10.5H13V11H13.5V10.5Z" fill="#60BCED"/>
<path d="M14 10.5H13.5V11H14V10.5Z" fill="#5FCDE4"/>
<path d="M14.5 10.5H14V11H14.5V10.5Z" fill="#5FCDE4"/>
<path d="M15 10.5H14.5V11H15V10.5Z" fill="#5FCDE4"/>
<path d="M15.5 10.5H15V11H15.5V10.5Z" fill="#5FCDE4"/>
<path d="M16 10.5H15.5V11H16V10.5Z" fill="#5FCDE4"/>
<path d="M16.5 10.5H16V11H16.5V10.5Z" fill="#5FCDE4"/>
<path d="M17 10.5H16.5V11H17V10.5Z" fill="#5FCDE4"/>
<path d="M17.5 10.5H17V11H17.5V10.5Z" fill="#CBDBFC"/>
<path d="M18 10.5H17.5V11H18V10.5Z" fill="#CBDBFC"/>
<path d="M18.5 10.5H18V11H18.5V10.5Z" fill="#CBDBFC"/>
<path d="M19 10.5H18.5V11H19V10.5Z" fill="#5B6EE1"/>
<path d="M19.5 10.5H19V11H19.5V10.5Z" fill="black"/>
<path d="M20 10.5H19.5V11H20V10.5Z" fill="#CBDBFC"/>
<path d="M20.5 10.5H20V11H20.5V10.5Z" fill="#CBDBFC"/>
<path d="M10.5 11H10V11.5H10.5V11Z" fill="black"/>
<path d="M11 11H10.5V11.5H11V11Z" fill="#639BFF"/>
<path d="M11.5 11H11V11.5H11.5V11Z" fill="#639BFF"/>
<path d="M12 11H11.5V11.5H12V11Z" fill="#639BFF"/>
<path d="M12.5 11H12V11.5H12.5V11Z" fill="#639BFF"/>
<path d="M13 11H12.5V11.5H13V11Z" fill="#61B1F3"/>
<path d="M13.5 11H13V11.5H13.5V11Z" fill="#5FC1EA"/>
<path d="M14 11H13.5V11.5H14V11Z" fill="#5FCDE4"/>
<path d="M14.5 11H14V11.5H14.5V11Z" fill="#5FCDE4"/>
<path d="M15 11H14.5V11.5H15V11Z" fill="#5FCDE4"/>
<path d="M15.5 11H15V11.5H15.5V11Z" fill="#5FCDE4"/>
<path d="M16 11H15.5V11.5H16V11Z" fill="#5FCDE4"/>
<path d="M16.5 11H16V11.5H16.5V11Z" fill="#5FCDE4"/>
<path d="M17 11H16.5V11.5H17V11Z" fill="#CBDBFC"/>
<path d="M17.5 11H17V11.5H17.5V11Z" fill="#CBDBFC"/>
<path d="M18 11H17.5V11.5H18V11Z" fill="#CBDBFC"/>
<path d="M18.5 11H18V11.5H18.5V11Z" fill="#639BFF"/>
<path d="M19 11H18.5V11.5H19V11Z" fill="black"/>
<path d="M19.5 11H19V11.5H19.5V11Z" fill="#CBDBFC"/>
<path d="M20 11H19.5V11.5H20V11Z" fill="#CBDBFC"/>
<path d="M20.5 11H20V11.5H20.5V11Z" fill="#CBDBFC"/>
<path d="M10.5 11.5H10V12H10.5V11.5Z" fill="black"/>
<path d="M11 11.5H10.5V12H11V11.5Z" fill="#639BFF"/>
<path d="M11.5 11.5H11V12H11.5V11.5Z" fill="#639BFF"/>
<path d="M12 11.5H11.5V12H12V11.5Z" fill="#639BFF"/>
<path d="M12.5 11.5H12V12H12.5V11.5Z" fill="#62A6F9"/>
<path d="M13 11.5H12.5V12H13V11.5Z" fill="#60B6F0"/>
<path d="M13.5 11.5H13V12H13.5V11.5Z" fill="#5FC7E7"/>
<path d="M14 11.5H13.5V12H14V11.5Z" fill="#5FCDE4"/>
<path d="M14.5 11.5H14V12H14.5V11.5Z" fill="#5FCDE4"/>
<path d="M15 11.5H14.5V12H15V11.5Z" fill="#5FCDE4"/>
<path d="M15.5 11.5H15V12H15.5V11.5Z" fill="#5FCDE4"/>
<path d="M16 11.5H15.5V12H16V11.5Z" fill="#5FCDE4"/>
<path d="M16.5 11.5H16V12H16.5V11.5Z" fill="#5FCDE4"/>
<path d="M17 11.5H16.5V12H17V11.5Z" fill="#CBDBFC"/>
<path d="M17.5 11.5H17V12H17.5V11.5Z" fill="#CBDBFC"/>
<path d="M18 11.5H17.5V12H18V11.5Z" fill="#639BFF"/>
<path d="M18.5 11.5H18V12H18.5V11.5Z" fill="#639BFF"/>
<path d="M19 11.5H18.5V12H19V11.5Z" fill="black"/>
<path d="M19.5 11.5H19V12H19.5V11.5Z" fill="#CBDBFC"/>
<path d="M20 11.5H19.5V12H20V11.5Z" fill="#CBDBFC"/>
<path d="M10.5 12H10V12.5H10.5V12Z" fill="black"/>
<path d="M11 12H10.5V12.5H11V12Z" fill="#639BFF"/>
<path d="M11.5 12H11V12.5H11.5V12Z" fill="#639BFF"/>
<path d="M12 12H11.5V12.5H12V12Z" fill="#639BFF"/>
<path d="M12.5 12H12V12.5H12.5V12Z" fill="#61ABF6"/>
<path d="M13 12H12.5V12.5H13V12Z" fill="#60BCED"/>
<path d="M13.5 12H13V12.5H13.5V12Z" fill="#5FCDE4"/>
<path d="M14 12H13.5V12.5H14V12Z" fill="#5FCDE4"/>
<path d="M14.5 12H14V12.5H14.5V12Z" fill="#5FCDE4"/>
<path d="M15 12H14.5V12.5H15V12Z" fill="#5FCDE4"/>
<path d="M15.5 12H15V12.5H15.5V12Z" fill="#5FCDE4"/>
<path d="M16 12H15.5V12.5H16V12Z" fill="#5FCDE4"/>
<path d="M16.5 12H16V12.5H16.5V12Z" fill="#5FCDE4"/>
<path d="M17 12H16.5V12.5H17V12Z" fill="#CBDBFC"/>
<path d="M17.5 12H17V12.5H17.5V12Z" fill="#CBDBFC"/>
<path d="M18 12H17.5V12.5H18V12Z" fill="#639BFF"/>
<path d="M18.5 12H18V12.5H18.5V12Z" fill="black"/>
<path d="M19 12H18.5V12.5H19V12Z" fill="#CBDBFC"/>
<path d="M19.5 12H19V12.5H19.5V12Z" fill="#CBDBFC"/>
<path d="M20 12H19.5V12.5H20V12Z" fill="#CBDBFC"/>
<path d="M10 12.5H9.5V13H10V12.5Z" fill="black"/>
<path d="M10.5 12.5H10V13H10.5V12.5Z" fill="black"/>
<path d="M11 12.5H10.5V13H11V12.5Z" fill="#639BFF"/>
<path d="M11.5 12.5H11V13H11.5V12.5Z" fill="#639BFF"/>
<path d="M12 12.5H11.5V13H12V12.5Z" fill="#639BFF"/>
<path d="M12.5 12.5H12V13H12.5V12.5Z" fill="#61B1F3"/>
<path d="M13 12.5H12.5V13H13V12.5Z" fill="#5FC1EA"/>
<path d="M13.5 12.5H13V13H13.5V12.5Z" fill="#5FCDE4"/>
<path d="M14 12.5H13.5V13H14V12.5Z" fill="#5FCDE4"/>
<path d="M14.5 12.5H14V13H14.5V12.5Z" fill="#5FCDE4"/>
<path d="M15 12.5H14.5V13H15V12.5Z" fill="#5FCDE4"/>
<path d="M15.5 12.5H15V13H15.5V12.5Z" fill="#5FCDE4"/>
<path d="M16 12.5H15.5V13H16V12.5Z" fill="#5FCDE4"/>
<path d="M16.5 12.5H16V13H16.5V12.5Z" fill="#CBDBFC"/>
<path d="M17 12.5H16.5V13H17V12.5Z" fill="#CBDBFC"/>
<path d="M17.5 12.5H17V13H17.5V12.5Z" fill="#639BFF"/>
<path d="M18 12.5H17.5V13H18V12.5Z" fill="#639BFF"/>
<path d="M18.5 12.5H18V13H18.5V12.5Z" fill="black"/>
<path d="M19 12.5H18.5V13H19V12.5Z" fill="#CBDBFC"/>
<path d="M19.5 12.5H19V13H19.5V12.5Z" fill="#CBDBFC"/>
<path d="M10 13H9.5V13.5H10V13Z" fill="black"/>
<path d="M10.5 13H10V13.5H10.5V13Z" fill="#639BFF"/>
<path d="M11 13H10.5V13.5H11V13Z" fill="#639BFF"/>
<path d="M11.5 13H11V13.5H11.5V13Z" fill="#639BFF"/>
<path d="M12 13H11.5V13.5H12V13Z" fill="#62A6F9"/>
<path d="M12.5 13H12V13.5H12.5V13Z" fill="#60B6F0"/>
<path d="M13 13H12.5V13.5H13V13Z" fill="#5FC7E7"/>
<path d="M13.5 13H13V13.5H13.5V13Z" fill="#5FCDE4"/>
<path d="M14 13H13.5V13.5H14V13Z" fill="#5FCDE4"/>
<path d="M14.5 13H14V13.5H14.5V13Z" fill="#5FCDE4"/>
<path d="M15 13H14.5V13.5H15V13Z" fill="#5FCDE4"/>
<path d="M15.5 13H15V13.5H15.5V13Z" fill="#5FCDE4"/>
<path d="M16 13H15.5V13.5H16V13Z" fill="#5FCDE4"/>
<path d="M16.5 13H16V13.5H16.5V13Z" fill="#CBDBFC"/>
<path d="M17 13H16.5V13.5H17V13Z" fill="#CBDBFC"/>
<path d="M17.5 13H17V13.5H17.5V13Z" fill="#639BFF"/>
<path d="M18 13H17.5V13.5H18V13Z" fill="black"/>
<path d="M18.5 13H18V13.5H18.5V13Z" fill="#CBDBFC"/>
<path d="M19 13H18.5V13.5H19V13Z" fill="#CBDBFC"/>
<path d="M19.5 13H19V13.5H19.5V13Z" fill="#CBDBFC"/>
<path d="M10 13.5H9.5V14H10V13.5Z" fill="black"/>
<path d="M10.5 13.5H10V14H10.5V13.5Z" fill="#639BFF"/>
<path d="M11 13.5H10.5V14H11V13.5Z" fill="#639BFF"/>
<path d="M11.5 13.5H11V14H11.5V13.5Z" fill="#639BFF"/>
<path d="M12 13.5H11.5V14H12V13.5Z" fill="#61ABF6"/>
<path d="M12.5 13.5H12V14H12.5V13.5Z" fill="#60BCED"/>
<path d="M13 13.5H12.5V14H13V13.5Z" fill="#5FCDE4"/>
<path d="M13.5 13.5H13V14H13.5V13.5Z" fill="#5FCDE4"/>
<path d="M14 13.5H13.5V14H14V13.5Z" fill="#5FCDE4"/>
<path d="M14.5 13.5H14V14H14.5V13.5Z" fill="#5FCDE4"/>
<path d="M15 13.5H14.5V14H15V13.5Z" fill="#5FCDE4"/>
<path d="M15.5 13.5H15V14H15.5V13.5Z" fill="#5FCDE4"/>
<path d="M16 13.5H15.5V14H16V13.5Z" fill="#CBDBFC"/>
<path d="M16.5 13.5H16V14H16.5V13.5Z" fill="#CBDBFC"/>
<path d="M17 13.5H16.5V14H17V13.5Z" fill="#639BFF"/>
<path d="M17.5 13.5H17V14H17.5V13.5Z" fill="#639BFF"/>
<path d="M18 13.5H17.5V14H18V13.5Z" fill="black"/>
<path d="M18.5 13.5H18V14H18.5V13.5Z" fill="#CBDBFC"/>
<path d="M19 13.5H18.5V14H19V13.5Z" fill="#CBDBFC"/>
<path d="M10 14H9.5V14.5H10V14Z" fill="black"/>
<path d="M10.5 14H10V14.5H10.5V14Z" fill="#639BFF"/>
<path d="M11 14H10.5V14.5H11V14Z" fill="#639BFF"/>
<path d="M11.5 14H11V14.5H11.5V14Z" fill="#639BFF"/>
<path d="M12 14H11.5V14.5H12V14Z" fill="#61B1F3"/>
<path d="M12.5 14H12V14.5H12.5V14Z" fill="#5FC1EA"/>
<path d="M13 14H12.5V14.5H13V14Z" fill="#5FCDE4"/>
<path d="M13.5 14H13V14.5H13.5V14Z" fill="#5FCDE4"/>
<path d="M14 14H13.5V14.5H14V14Z" fill="#5FCDE4"/>
<path d="M14.5 14H14V14.5H14.5V14Z" fill="#5FCDE4"/>
<path d="M15 14H14.5V14.5H15V14Z" fill="#5FCDE4"/>
<path d="M15.5 14H15V14.5H15.5V14Z" fill="#5FCDE4"/>
<path d="M16 14H15.5V14.5H16V14Z" fill="#CBDBFC"/>
<path d="M16.5 14H16V14.5H16.5V14Z" fill="#CBDBFC"/>
<path d="M17 14H16.5V14.5H17V14Z" fill="#639BFF"/>
<path d="M17.5 14H17V14.5H17.5V14Z" fill="black"/>
<path d="M18 14H17.5V14.5H18V14Z" fill="#CBDBFC"/>
<path d="M18.5 14H18V14.5H18.5V14Z" fill="#CBDBFC"/>
<path d="M19 14H18.5V14.5H19V14Z" fill="#CBDBFC"/>
<path d="M10 14.5H9.5V15H10V14.5Z" fill="black"/>
<path d="M10.5 14.5H10V15H10.5V14.5Z" fill="#639BFF"/>
<path d="M11 14.5H10.5V15H11V14.5Z" fill="#639BFF"/>
<path d="M11.5 14.5H11V15H11.5V14.5Z" fill="#62A6F9"/>
<path d="M12 14.5H11.5V15H12V14.5Z" fill="#60B6F0"/>
<path d="M12.5 14.5H12V15H12.5V14.5Z" fill="#5FC7E7"/>
<path d="M13 14.5H12.5V15H13V14.5Z" fill="#5FCDE4"/>
<path d="M13.5 14.5H13V15H13.5V14.5Z" fill="#5FCDE4"/>
<path d="M14 14.5H13.5V15H14V14.5Z" fill="#5FCDE4"/>
<path d="M14.5 14.5H14V15H14.5V14.5Z" fill="#5FCDE4"/>
<path d="M15 14.5H14.5V15H15V14.5Z" fill="#5FCDE4"/>
<path d="M15.5 14.5H15V15H15.5V14.5Z" fill="#CBDBFC"/>
<path d="M16 14.5H15.5V15H16V14.5Z" fill="#CBDBFC"/>
<path d="M16.5 14.5H16V15H16.5V14.5Z" fill="#639BFF"/>
<path d="M17 14.5H16.5V15H17V14.5Z" fill="#639BFF"/>
<path d="M17.5 14.5H17V15H17.5V14.5Z" fill="black"/>
<path d="M18 14.5H17.5V15H18V14.5Z" fill="#CBDBFC"/>
<path d="M18.5 14.5H18V15H18.5V14.5Z" fill="#CBDBFC"/>
<path d="M10 15H9.5V15.5H10V15Z" fill="black"/>
<path d="M10.5 15H10V15.5H10.5V15Z" fill="#639BFF"/>
<path d="M11 15H10.5V15.5H11V15Z" fill="#639BFF"/>
<path d="M11.5 15H11V15.5H11.5V15Z" fill="#61ABF6"/>
<path d="M12 15H11.5V15.5H12V15Z" fill="#60BCED"/>
<path d="M12.5 15H12V15.5H12.5V15Z" fill="#5FCDE4"/>
<path d="M13 15H12.5V15.5H13V15Z" fill="#5FCDE4"/>
<path d="M13.5 15H13V15.5H13.5V15Z" fill="#5FCDE4"/>
<path d="M14 15H13.5V15.5H14V15Z" fill="#5FCDE4"/>
<path d="M14.5 15H14V15.5H14.5V15Z" fill="#5FCDE4"/>
<path d="M15 15H14.5V15.5H15V15Z" fill="#5FCDE4"/>
<path d="M15.5 15H15V15.5H15.5V15Z" fill="#CBDBFC"/>
<path d="M16 15H15.5V15.5H16V15Z" fill="#CBDBFC"/>
<path d="M16.5 15H16V15.5H16.5V15Z" fill="#639BFF"/>
<path d="M17 15H16.5V15.5H17V15Z" fill="#639BFF"/>
<path d="M17.5 15H17V15.5H17.5V15Z" fill="black"/>
<path d="M18 15H17.5V15.5H18V15Z" fill="black"/>
<path d="M18.5 15H18V15.5H18.5V15Z" fill="black"/>
<path d="M19 15H18.5V15.5H19V15Z" fill="black"/>
<path d="M19.5 15H19V15.5H19.5V15Z" fill="black"/>
<path d="M20 15H19.5V15.5H20V15Z" fill="black"/>
<path d="M20.5 15H20V15.5H20.5V15Z" fill="black"/>
<path d="M21 15H20.5V15.5H21V15Z" fill="black"/>
<path d="M21.5 15H21V15.5H21.5V15Z" fill="black"/>
<path d="M22 15H21.5V15.5H22V15Z" fill="black"/>
<path d="M22.5 15H22V15.5H22.5V15Z" fill="black"/>
<path d="M23 15H22.5V15.5H23V15Z" fill="#CBDBFC"/>
<path d="M23.5 15H23V15.5H23.5V15Z" fill="#CBDBFC"/>
<path d="M24 15H23.5V15.5H24V15Z" fill="#CBDBFC"/>
<path d="M9.5 15.5H9V16H9.5V15.5Z" fill="black"/>
<path d="M10 15.5H9.5V16H10V15.5Z" fill="#639BFF"/>
<path d="M10.5 15.5H10V16H10.5V15.5Z" fill="#639BFF"/>
<path d="M11 15.5H10.5V16H11V15.5Z" fill="#639BFF"/>
<path d="M11.5 15.5H11V16H11.5V15.5Z" fill="#61ABF6"/>
<path d="M12 15.5H11.5V16H12V15.5Z" fill="#60BCED"/>
<path d="M12.5 15.5H12V16H12.5V15.5Z" fill="#5FCDE4"/>
<path d="M13 15.5H12.5V16H13V15.5Z" fill="#5FCDE4"/>
<path d="M13.5 15.5H13V16H13.5V15.5Z" fill="#5FCDE4"/>
<path d="M14 15.5H13.5V16H14V15.5Z" fill="#5FCDE4"/>
<path d="M14.5 15.5H14V16H14.5V15.5Z" fill="#5FCDE4"/>
<path d="M15 15.5H14.5V16H15V15.5Z" fill="#CBDBFC"/>
<path d="M15.5 15.5H15V16H15.5V15.5Z" fill="#CBDBFC"/>
<path d="M16 15.5H15.5V16H16V15.5Z" fill="#639BFF"/>
<path d="M16.5 15.5H16V16H16.5V15.5Z" fill="#639BFF"/>
<path d="M17 15.5H16.5V16H17V15.5Z" fill="#639BFF"/>
<path d="M17.5 15.5H17V16H17.5V15.5Z" fill="#639BFF"/>
<path d="M18 15.5H17.5V16H18V15.5Z" fill="#639BFF"/>
<path d="M18.5 15.5H18V16H18.5V15.5Z" fill="#639BFF"/>
<path d="M19 15.5H18.5V16H19V15.5Z" fill="#639BFF"/>
<path d="M19.5 15.5H19V16H19.5V15.5Z" fill="#639BFF"/>
<path d="M20 15.5H19.5V16H20V15.5Z" fill="#639BFF"/>
<path d="M20.5 15.5H20V16H20.5V15.5Z" fill="#639BFF"/>
<path d="M21 15.5H20.5V16H21V15.5Z" fill="#639BFF"/>
<path d="M21.5 15.5H21V16H21.5V15.5Z" fill="#639BFF"/>
<path d="M22 15.5H21.5V16H22V15.5Z" fill="#639BFF"/>
<path d="M22.5 15.5H22V16H22.5V15.5Z" fill="black"/>
<path d="M23 15.5H22.5V16H23V15.5Z" fill="#CBDBFC"/>
<path d="M23.5 15.5H23V16H23.5V15.5Z" fill="#CBDBFC"/>
<path d="M24 15.5H23.5V16H24V15.5Z" fill="#CBDBFC"/>
<path d="M9.5 16H9V16.5H9.5V16Z" fill="black"/>
<path d="M10 16H9.5V16.5H10V16Z" fill="#639BFF"/>
<path d="M10.5 16H10V16.5H10.5V16Z" fill="#639BFF"/>
<path d="M11 16H10.5V16.5H11V16Z" fill="#62A0FC"/>
<path d="M11.5 16H11V16.5H11.5V16Z" fill="#61B1F3"/>
<path d="M12 16H11.5V16.5H12V16Z" fill="#5FC1EA"/>
<path d="M12.5 16H12V16.5H12.5V16Z" fill="#5FCDE4"/>
<path d="M13 16H12.5V16.5H13V16Z" fill="#5FCDE4"/>
<path d="M13.5 16H13V16.5H13.5V16Z" fill="#5FCDE4"/>
<path d="M14 16H13.5V16.5H14V16Z" fill="#5FCDE4"/>
<path d="M14.5 16H14V16.5H14.5V16Z" fill="#5FCDE4"/>
<path d="M15 16H14.5V16.5H15V16Z" fill="#CBDBFC"/>
<path d="M15.5 16H15V16.5H15.5V16Z" fill="#CBDBFC"/>
<path d="M16 16H15.5V16.5H16V16Z" fill="#5FCDE4"/>
<path d="M16.5 16H16V16.5H16.5V16Z" fill="#5FCDE4"/>
<path d="M17 16H16.5V16.5H17V16Z" fill="#5FCDE4"/>
<path d="M17.5 16H17V16.5H17.5V16Z" fill="#5FCDE4"/>
<path d="M18 16H17.5V16.5H18V16Z" fill="#5FCDE4"/>
<path d="M18.5 16H18V16.5H18.5V16Z" fill="#5FCDE4"/>
<path d="M19 16H18.5V16.5H19V16Z" fill="#5FCDE4"/>
<path d="M19.5 16H19V16.5H19.5V16Z" fill="#CBDBFC"/>
<path d="M20 16H19.5V16.5H20V16Z" fill="#CBDBFC"/>
<path d="M20.5 16H20V16.5H20.5V16Z" fill="#639BFF"/>
<path d="M21 16H20.5V16.5H21V16Z" fill="#639BFF"/>
<path d="M21.5 16H21V16.5H21.5V16Z" fill="#639BFF"/>
<path d="M22 16H21.5V16.5H22V16Z" fill="black"/>
<path d="M22.5 16H22V16.5H22.5V16Z" fill="#CBDBFC"/>
<path d="M23 16H22.5V16.5H23V16Z" fill="#CBDBFC"/>
<path d="M23.5 16H23V16.5H23.5V16Z" fill="#CBDBFC"/>
<path d="M9.5 16.5H9V17H9.5V16.5Z" fill="black"/>
<path d="M10 16.5H9.5V17H10V16.5Z" fill="#639BFF"/>
<path d="M10.5 16.5H10V17H10.5V16.5Z" fill="#639BFF"/>
<path d="M11 16.5H10.5V17H11V16.5Z" fill="#62A6F9"/>
<path d="M11.5 16.5H11V17H11.5V16.5Z" fill="#60B6F0"/>
<path d="M12 16.5H11.5V17H12V16.5Z" fill="#5FC1E9"/>
<path d="M12.5 16.5H12V17H12.5V16.5Z" fill="#5FC9E5"/>
<path d="M13 16.5H12.5V17H13V16.5Z" fill="#5FCCE4"/>
<path d="M13.5 16.5H13V17H13.5V16.5Z" fill="#5FCDE4"/>
<path d="M14 16.5H13.5V17H14V16.5Z" fill="#60CDE4"/>
<path d="M14.5 16.5H14V17H14.5V16.5Z" fill="#6CCEE6"/>
<path d="M15 16.5H14.5V17H15V16.5Z" fill="#5FCDE4"/>
<path d="M15.5 16.5H15V17H15.5V16.5Z" fill="#5FCDE4"/>
<path d="M16 16.5H15.5V17H16V16.5Z" fill="#5FCDE4"/>
<path d="M16.5 16.5H16V17H16.5V16.5Z" fill="#5FCDE4"/>
<path d="M17 16.5H16.5V17H17V16.5Z" fill="#5FCDE4"/>
<path d="M17.5 16.5H17V17H17.5V16.5Z" fill="#5FCDE4"/>
<path d="M18 16.5H17.5V17H18V16.5Z" fill="#5FCDE4"/>
<path d="M18.5 16.5H18V17H18.5V16.5Z" fill="#5FCDE4"/>
<path d="M19 16.5H18.5V17H19V16.5Z" fill="#5FCDE4"/>
<path d="M19.5 16.5H19V17H19.5V16.5Z" fill="#CBDBFC"/>
<path d="M20 16.5H19.5V17H20V16.5Z" fill="#CBDBFC"/>
<path d="M20.5 16.5H20V17H20.5V16.5Z" fill="#639BFF"/>
<path d="M21 16.5H20.5V17H21V16.5Z" fill="#639BFF"/>
<path d="M21.5 16.5H21V17H21.5V16.5Z" fill="black"/>
<path d="M22 16.5H21.5V17H22V16.5Z" fill="#CBDBFC"/>
<path d="M22.5 16.5H22V17H22.5V16.5Z" fill="#CBDBFC"/>
<path d="M23 16.5H22.5V17H23V16.5Z" fill="#CBDBFC"/>
<path d="M23.5 16.5H23V17H23.5V16.5Z" fill="#CBDBFC"/>
<path d="M9.5 17H9V17.5H9.5V17Z" fill="black"/>
<path d="M10 17H9.5V17.5H10V17Z" fill="#639BFF"/>
<path d="M10.5 17H10V17.5H10.5V17Z" fill="#639BFF"/>
<path d="M11 17H10.5V17.5H11V17Z" fill="#61AAF6"/>
<path d="M11.5 17H11V17.5H11.5V17Z" fill="#60B8EE"/>
<path d="M12 17H11.5V17.5H12V17Z" fill="#5FC3E8"/>
<path d="M12.5 17H12V17.5H12.5V17Z" fill="#5FCAE5"/>
<path d="M13 17H12.5V17.5H13V17Z" fill="#5FCCE4"/>
<path d="M13.5 17H13V17.5H13.5V17Z" fill="#5FCDE4"/>
<path d="M14 17H13.5V17.5H14V17Z" fill="#60CDE4"/>
<path d="M14.5 17H14V17.5H14.5V17Z" fill="#60CDE4"/>
<path d="M15 17H14.5V17.5H15V17Z" fill="#60CDE4"/>
<path d="M15.5 17H15V17.5H15.5V17Z" fill="#5FCDE4"/>
<path d="M16 17H15.5V17.5H16V17Z" fill="#5FCDE4"/>
<path d="M16.5 17H16V17.5H16.5V17Z" fill="#5FCDE4"/>
<path d="M17 17H16.5V17.5H17V17Z" fill="#5FCDE4"/>
<path d="M17.5 17H17V17.5H17.5V17Z" fill="#5FCDE4"/>
<path d="M18 17H17.5V17.5H18V17Z" fill="#5FCDE4"/>
<path d="M18.5 17H18V17.5H18.5V17Z" fill="#5FCDE4"/>
<path d="M19 17H18.5V17.5H19V17Z" fill="#5FCDE4"/>
<path d="M19.5 17H19V17.5H19.5V17Z" fill="#CBDBFC"/>
<path d="M20 17H19.5V17.5H20V17Z" fill="#639BFF"/>
<path d="M20.5 17H20V17.5H20.5V17Z" fill="#639BFF"/>
<path d="M21 17H20.5V17.5H21V17Z" fill="#639BFF"/>
<path d="M21.5 17H21V17.5H21.5V17Z" fill="black"/>
<path d="M22 17H21.5V17.5H22V17Z" fill="#CBDBFC"/>
<path d="M22.5 17H22V17.5H22.5V17Z" fill="#CBDBFC"/>
<path d="M23 17H22.5V17.5H23V17Z" fill="#CBDBFC"/>
<path d="M9.5 17.5H9V18H9.5V17.5Z" fill="black"/>
<path d="M10 17.5H9.5V18H10V17.5Z" fill="#639BFF"/>
<path d="M10.5 17.5H10V18H10.5V17.5Z" fill="#62A1FB"/>
<path d="M11 17.5H10.5V18H11V17.5Z" fill="#61AAF5"/>
<path d="M11.5 17.5H11V18H11.5V17.5Z" fill="#60B7EF"/>
<path d="M12 17.5H11.5V18H12V17.5Z" fill="#5FC0EA"/>
<path d="M12.5 17.5H12V18H12.5V17.5Z" fill="#5FC5E7"/>
<path d="M13 17.5H12.5V18H13V17.5Z" fill="#5FC7E7"/>
<path d="M13.5 17.5H13V18H13.5V17.5Z" fill="#5FC7E7"/>
<path d="M14 17.5H13.5V18H14V17.5Z" fill="#5FC7E7"/>
<path d="M14.5 17.5H14V18H14.5V17.5Z" fill="#5FC7E7"/>
<path d="M15 17.5H14.5V18H15V17.5Z" fill="#5FC7E7"/>
<path d="M15.5 17.5H15V18H15.5V17.5Z" fill="#5FC7E7"/>
<path d="M16 17.5H15.5V18H16V17.5Z" fill="#5FC9E6"/>
<path d="M16.5 17.5H16V18H16.5V17.5Z" fill="#5FCBE5"/>
<path d="M17 17.5H16.5V18H17V17.5Z" fill="#5FCDE4"/>
<path d="M17.5 17.5H17V18H17.5V17.5Z" fill="#5FCDE4"/>
<path d="M18 17.5H17.5V18H18V17.5Z" fill="#5FCDE4"/>
<path d="M18.5 17.5H18V18H18.5V17.5Z" fill="#5FCDE4"/>
<path d="M19 17.5H18.5V18H19V17.5Z" fill="#CBDBFC"/>
<path d="M19.5 17.5H19V18H19.5V17.5Z" fill="#CBDBFC"/>
<path d="M20 17.5H19.5V18H20V17.5Z" fill="#639BFF"/>
<path d="M20.5 17.5H20V18H20.5V17.5Z" fill="#639BFF"/>
<path d="M21 17.5H20.5V18H21V17.5Z" fill="black"/>
<path d="M21.5 17.5H21V18H21.5V17.5Z" fill="#CBDBFC"/>
<path d="M22 17.5H21.5V18H22V17.5Z" fill="#CBDBFC"/>
<path d="M22.5 17.5H22V18H22.5V17.5Z" fill="#CBDBFC"/>
<path d="M9.5 18H9V18.5H9.5V18Z" fill="black"/>
<path d="M10 18H9.5V18.5H10V18Z" fill="#639BFF"/>
<path d="M10.5 18H10V18.5H10.5V18Z" fill="#629FFC"/>
<path d="M11 18H10.5V18.5H11V18Z" fill="#61A5F9"/>
<path d="M11.5 18H11V18.5H11.5V18Z" fill="#61ACF4"/>
<path d="M12 18H11.5V18.5H12V18Z" fill="#60B2F2"/>
<path d="M12.5 18H12V18.5H12.5V18Z" fill="#60B5F0"/>
<path d="M13 18H12.5V18.5H13V18Z" fill="#60B6F0"/>
<path d="M13.5 18H13V18.5H13.5V18Z" fill="#60B8EF"/>
<path d="M14 18H13.5V18.5H14V18Z" fill="#60BAEE"/>
<path d="M14.5 18H14V18.5H14.5V18Z" fill="#60BCED"/>
<path d="M15 18H14.5V18.5H15V18Z" fill="#60BCED"/>
<path d="M15.5 18H15V18.5H15.5V18Z" fill="#60BAEE"/>
<path d="M16 18H15.5V18.5H16V18Z" fill="#60B9EE"/>
<path d="M16.5 18H16V18.5H16.5V18Z" fill="#5FBFEB"/>
<path d="M17 18H16.5V18.5H17V18Z" fill="#5FCDE4"/>
<path d="M17.5 18H17V18.5H17.5V18Z" fill="#5FCDE4"/>
<path d="M18 18H17.5V18.5H18V18Z" fill="#5FCDE4"/>
<path d="M18.5 18H18V18.5H18.5V18Z" fill="#CBDBFC"/>
<path d="M19 18H18.5V18.5H19V18Z" fill="#CBDBFC"/>
<path d="M19.5 18H19V18.5H19.5V18Z" fill="#639BFF"/>
<path d="M20 18H19.5V18.5H20V18Z" fill="#639BFF"/>
<path d="M20.5 18H20V18.5H20.5V18Z" fill="black"/>
<path d="M21 18H20.5V18.5H21V18Z" fill="#CBDBFC"/>
<path d="M21.5 18H21V18.5H21.5V18Z" fill="#CBDBFC"/>
<path d="M22 18H21.5V18.5H22V18Z" fill="#CBDBFC"/>
<path d="M9 18.5H8.5V19H9V18.5Z" fill="black"/>
<path d="M9.5 18.5H9V19H9.5V18.5Z" fill="#639BFF"/>
<path d="M10 18.5H9.5V19H10V18.5Z" fill="#639BFF"/>
<path d="M10.5 18.5H10V19H10.5V18.5Z" fill="#639BFF"/>
<path d="M11 18.5H10.5V19H11V18.5Z" fill="#629FFC"/>
<path d="M11.5 18.5H11V19H11.5V18.5Z" fill="#62A2FA"/>
<path d="M12 18.5H11.5V19H12V18.5Z" fill="#62A4F9"/>
<path d="M12.5 18.5H12V19H12.5V18.5Z" fill="#62A5F9"/>
<path d="M13 18.5H12.5V19H13V18.5Z" fill="#62A6F9"/>
<path d="M13.5 18.5H13V19H13.5V18.5Z" fill="#61A7F8"/>
<path d="M14 18.5H13.5V19H14V18.5Z" fill="#61A9F7"/>
<path d="M14.5 18.5H14V19H14.5V18.5Z" fill="#61ABF6"/>
<path d="M15 18.5H14.5V19H15V18.5Z" fill="#61ABF6"/>
<path d="M15.5 18.5H15V19H15.5V18.5Z" fill="#61A9F7"/>
<path d="M16 18.5H15.5V19H16V18.5Z" fill="#61AFF3"/>
<path d="M16.5 18.5H16V19H16.5V18.5Z" fill="#60BBED"/>
<path d="M17 18.5H16.5V19H17V18.5Z" fill="#5FCDE4"/>
<path d="M17.5 18.5H17V19H17.5V18.5Z" fill="#5FCDE4"/>
<path d="M18 18.5H17.5V19H18V18.5Z" fill="#5FCDE4"/>
<path d="M18.5 18.5H18V19H18.5V18.5Z" fill="#CBDBFC"/>
<path d="M19 18.5H18.5V19H19V18.5Z" fill="#639BFF"/>
<path d="M19.5 18.5H19V19H19.5V18.5Z" fill="#639BFF"/>
<path d="M20 18.5H19.5V19H20V18.5Z" fill="black"/>
<path d="M20.5 18.5H20V19H20.5V18.5Z" fill="#CBDBFC"/>
<path d="M21 18.5H20.5V19H21V18.5Z" fill="#CBDBFC"/>
<path d="M21.5 18.5H21V19H21.5V18.5Z" fill="#CBDBFC"/>
<path d="M22 18.5H21.5V19H22V18.5Z" fill="#CBDBFC"/>
<path d="M9 19H8.5V19.5H9V19Z" fill="black"/>
<path d="M9.5 19H9V19.5H9.5V19Z" fill="#639BFF"/>
<path d="M10 19H9.5V19.5H10V19Z" fill="#639BFF"/>
<path d="M10.5 19H10V19.5H10.5V19Z" fill="#639BFF"/>
<path d="M11 19H10.5V19.5H11V19Z" fill="#639BFF"/>
<path d="M11.5 19H11V19.5H11.5V19Z" fill="#639BFF"/>
<path d="M12 19H11.5V19.5H12V19Z" fill="#639BFF"/>
<path d="M12.5 19H12V19.5H12.5V19Z" fill="#639BFF"/>
<path d="M13 19H12.5V19.5H13V19Z" fill="#639BFF"/>
<path d="M13.5 19H13V19.5H13.5V19Z" fill="#639BFF"/>
<path d="M14 19H13.5V19.5H14V19Z" fill="#639BFF"/>
<path d="M14.5 19H14V19.5H14.5V19Z" fill="#639BFF"/>
<path d="M15 19H14.5V19.5H15V19Z" fill="#639BFF"/>
<path d="M15.5 19H15V19.5H15.5V19Z" fill="#639BFF"/>
<path d="M16 19H15.5V19.5H16V19Z" fill="#61AFF3"/>
<path d="M16.5 19H16V19.5H16.5V19Z" fill="#60BEEB"/>
<path d="M17 19H16.5V19.5H17V19Z" fill="#5FCDE4"/>
<path d="M17.5 19H17V19.5H17.5V19Z" fill="#5FCDE4"/>
<path d="M18 19H17.5V19.5H18V19Z" fill="#CBDBFC"/>
<path d="M18.5 19H18V19.5H18.5V19Z" fill="#CBDBFC"/>
<path d="M19 19H18.5V19.5H19V19Z" fill="#639BFF"/>
<path d="M19.5 19H19V19.5H19.5V19Z" fill="#639BFF"/>
<path d="M20 19H19.5V19.5H20V19Z" fill="black"/>
<path d="M20.5 19H20V19.5H20.5V19Z" fill="#CBDBFC"/>
<path d="M21 19H20.5V19.5H21V19Z" fill="#CBDBFC"/>
<path d="M21.5 19H21V19.5H21.5V19Z" fill="#CBDBFC"/>
<path d="M9 19.5H8.5V20H9V19.5Z" fill="black"/>
<path d="M9.5 19.5H9V20H9.5V19.5Z" fill="black"/>
<path d="M10 19.5H9.5V20H10V19.5Z" fill="black"/>
<path d="M10.5 19.5H10V20H10.5V19.5Z" fill="black"/>
<path d="M11 19.5H10.5V20H11V19.5Z" fill="black"/>
<path d="M11.5 19.5H11V20H11.5V19.5Z" fill="black"/>
<path d="M12 19.5H11.5V20H12V19.5Z" fill="black"/>
<path d="M12.5 19.5H12V20H12.5V19.5Z" fill="black"/>
<path d="M13 19.5H12.5V20H13V19.5Z" fill="black"/>
<path d="M13.5 19.5H13V20H13.5V19.5Z" fill="black"/>
<path d="M14 19.5H13.5V20H14V19.5Z" fill="black"/>
<path d="M14.5 19.5H14V20H14.5V19.5Z" fill="black"/>
<path d="M15 19.5H14.5V20H15V19.5Z" fill="#639BFF"/>
<path d="M15.5 19.5H15V20H15.5V19.5Z" fill="#62A6F9"/>
<path d="M16 19.5H15.5V20H16V19.5Z" fill="#60B6F0"/>
<path d="M16.5 19.5H16V20H16.5V19.5Z" fill="#5FC7E7"/>
<path d="M17 19.5H16.5V20H17V19.5Z" fill="#5FCDE4"/>
<path d="M17.5 19.5H17V20H17.5V19.5Z" fill="#CBDBFC"/>
<path d="M18 19.5H17.5V20H18V19.5Z" fill="#CBDBFC"/>
<path d="M18.5 19.5H18V20H18.5V19.5Z" fill="#639BFF"/>
<path d="M19 19.5H18.5V20H19V19.5Z" fill="#639BFF"/>
<path d="M19.5 19.5H19V20H19.5V19.5Z" fill="black"/>
<path d="M20 19.5H19.5V20H20V19.5Z" fill="#CBDBFC"/>
<path d="M20.5 19.5H20V20H20.5V19.5Z" fill="#CBDBFC"/>
<path d="M21 19.5H20.5V20H21V19.5Z" fill="#CBDBFC"/>
<path d="M14.5 20H14V20.5H14.5V20Z" fill="black"/>
<path d="M15 20H14.5V20.5H15V20Z" fill="#639BFF"/>
<path d="M15.5 20H15V20.5H15.5V20Z" fill="#61B1F3"/>
<path d="M16 20H15.5V20.5H16V20Z" fill="#5FC1EA"/>
<path d="M16.5 20H16V20.5H16.5V20Z" fill="#6BCEE6"/>
<path d="M17 20H16.5V20.5H17V20Z" fill="#5FCDE4"/>
<path d="M17.5 20H17V20.5H17.5V20Z" fill="#CBDBFC"/>
<path d="M18 20H17.5V20.5H18V20Z" fill="#639BFF"/>
<path d="M18.5 20H18V20.5H18.5V20Z" fill="#639BFF"/>
<path d="M19 20H18.5V20.5H19V20Z" fill="black"/>
<path d="M19.5 20H19V20.5H19.5V20Z" fill="#CBDBFC"/>
<path d="M20 20H19.5V20.5H20V20Z" fill="#CBDBFC"/>
<path d="M20.5 20H20V20.5H20.5V20Z" fill="#CBDBFC"/>
<path d="M14.5 20.5H14V21H14.5V20.5Z" fill="black"/>
<path d="M15 20.5H14.5V21H15V20.5Z" fill="#639BFF"/>
<path d="M15.5 20.5H15V21H15.5V20.5Z" fill="#60B6F0"/>
<path d="M16 20.5H15.5V21H16V20.5Z" fill="#5FC7E7"/>
<path d="M16.5 20.5H16V21H16.5V20.5Z" fill="#5FCDE4"/>
<path d="M17 20.5H16.5V21H17V20.5Z" fill="#CBDBFC"/>
<path d="M17.5 20.5H17V21H17.5V20.5Z" fill="#639BFF"/>
<path d="M18 20.5H17.5V21H18V20.5Z" fill="#639BFF"/>
<path d="M18.5 20.5H18V21H18.5V20.5Z" fill="black"/>
<path d="M19 20.5H18.5V21H19V20.5Z" fill="#CBDBFC"/>
<path d="M19.5 20.5H19V21H19.5V20.5Z" fill="#CBDBFC"/>
<path d="M20 20.5H19.5V21H20V20.5Z" fill="#CBDBFC"/>
<path d="M20.5 20.5H20V21H20.5V20.5Z" fill="#CBDBFC"/>
<path d="M14.5 21H14V21.5H14.5V21Z" fill="black"/>
<path d="M15 21H14.5V21.5H15V21Z" fill="#639BFF"/>
<path d="M15.5 21H15V21.5H15.5V21Z" fill="#60B9EE"/>
<path d="M16 21H15.5V21.5H16V21Z" fill="#5FCDE4"/>
<path d="M16.5 21H16V21.5H16.5V21Z" fill="#5FCDE4"/>
<path d="M17 21H16.5V21.5H17V21Z" fill="#CBDBFC"/>
<path d="M17.5 21H17V21.5H17.5V21Z" fill="#639BFF"/>
<path d="M18 21H17.5V21.5H18V21Z" fill="#639BFF"/>
<path d="M18.5 21H18V21.5H18.5V21Z" fill="black"/>
<path d="M19 21H18.5V21.5H19V21Z" fill="#CBDBFC"/>
<path d="M19.5 21H19V21.5H19.5V21Z" fill="#CBDBFC"/>
<path d="M20 21H19.5V21.5H20V21Z" fill="#CBDBFC"/>
<path d="M14.5 21.5H14V22H14.5V21.5Z" fill="black"/>
<path d="M15 21.5H14.5V22H15V21.5Z" fill="#639BFF"/>
<path d="M15.5 21.5H15V22H15.5V21.5Z" fill="#6CBDEF"/>
<path d="M16 21.5H15.5V22H16V21.5Z" fill="#5FCDE4"/>
<path d="M16.5 21.5H16V22H16.5V21.5Z" fill="#CBDBFC"/>
<path d="M17 21.5H16.5V22H17V21.5Z" fill="#639BFF"/>
<path d="M17.5 21.5H17V22H17.5V21.5Z" fill="#639BFF"/>
<path d="M18 21.5H17.5V22H18V21.5Z" fill="black"/>
<path d="M18.5 21.5H18V22H18.5V21.5Z" fill="#CBDBFC"/>
<path d="M19 21.5H18.5V22H19V21.5Z" fill="#CBDBFC"/>
<path d="M19.5 21.5H19V22H19.5V21.5Z" fill="#CBDBFC"/>
<path d="M20 21.5H19.5V22H20V21.5Z" fill="#CBDBFC"/>
<path d="M14.5 22H14V22.5H14.5V22Z" fill="black"/>
<path d="M15 22H14.5V22.5H15V22Z" fill="#639BFF"/>
<path d="M15.5 22H15V22.5H15.5V22Z" fill="#77C5EF"/>
<path d="M16 22H15.5V22.5H16V22Z" fill="#CBDBFC"/>
<path d="M16.5 22H16V22.5H16.5V22Z" fill="#639BFF"/>
<path d="M17 22H16.5V22.5H17V22Z" fill="#639BFF"/>
<path d="M17.5 22H17V22.5H17.5V22Z" fill="black"/>
<path d="M18 22H17.5V22.5H18V22Z" fill="#CBDBFC"/>
<path d="M18.5 22H18V22.5H18.5V22Z" fill="#CBDBFC"/>
<path d="M19 22H18.5V22.5H19V22Z" fill="#CBDBFC"/>
<path d="M19.5 22H19V22.5H19.5V22Z" fill="#CBDBFC"/>
<path d="M14 22.5H13.5V23H14V22.5Z" fill="black"/>
<path d="M14.5 22.5H14V23H14.5V22.5Z" fill="#639BFF"/>
<path d="M15 22.5H14.5V23H15V22.5Z" fill="#61A4CF"/>
<path d="M15.5 22.5H15V23H15.5V22.5Z" fill="#5FCDE4"/>
<path d="M16 22.5H15.5V23H16V22.5Z" fill="#CBDBFC"/>
<path d="M16.5 22.5H16V23H16.5V22.5Z" fill="#639BFF"/>
<path d="M17 22.5H16.5V23H17V22.5Z" fill="black"/>
<path d="M17.5 22.5H17V23H17.5V22.5Z" fill="#CBDBFC"/>
<path d="M18 22.5H17.5V23H18V22.5Z" fill="#CBDBFC"/>
<path d="M18.5 22.5H18V23H18.5V22.5Z" fill="#CBDBFC"/>
<path d="M19 22.5H18.5V23H19V22.5Z" fill="#CBDBFC"/>
<path d="M14 23H13.5V23.5H14V23Z" fill="black"/>
<path d="M14.5 23H14V23.5H14.5V23Z" fill="#639BFF"/>
<path d="M15 23H14.5V23.5H15V23Z" fill="#6DB2F5"/>
<path d="M15.5 23H15V23.5H15.5V23Z" fill="#CBDBFC"/>
<path d="M16 23H15.5V23.5H16V23Z" fill="#639BFF"/>
<path d="M16.5 23H16V23.5H16.5V23Z" fill="#639BFF"/>
<path d="M17 23H16.5V23.5H17V23Z" fill="#CBDBFC"/>
<path d="M17.5 23H17V23.5H17.5V23Z" fill="#CBDBFC"/>
<path d="M18 23H17.5V23.5H18V23Z" fill="#CBDBFC"/>
<path d="M18.5 23H18V23.5H18.5V23Z" fill="#CBDBFC"/>
<path d="M14 23.5H13.5V24H14V23.5Z" fill="black"/>
<path d="M14.5 23.5H14V24H14.5V23.5Z" fill="#639BFF"/>
<path d="M15 23.5H14.5V24H15V23.5Z" fill="#639BFF"/>
<path d="M15.5 23.5H15V24H15.5V23.5Z" fill="#639BFF"/>
<path d="M16 23.5H15.5V24H16V23.5Z" fill="#639BFF"/>
<path d="M16.5 23.5H16V24H16.5V23.5Z" fill="black"/>
<path d="M17 23.5H16.5V24H17V23.5Z" fill="#CBDBFC"/>
<path d="M17.5 23.5H17V24H17.5V23.5Z" fill="#CBDBFC"/>
<path d="M18 23.5H17.5V24H18V23.5Z" fill="#CBDBFC"/>
<path d="M14 24H13.5V24.5H14V24Z" fill="black"/>
<path d="M14.5 24H14V24.5H14.5V24Z" fill="#639BFF"/>
<path d="M15 24H14.5V24.5H15V24Z" fill="#639BFF"/>
<path d="M15.5 24H15V24.5H15.5V24Z" fill="#639BFF"/>
<path d="M16 24H15.5V24.5H16V24Z" fill="black"/>
<path d="M16.5 24H16V24.5H16.5V24Z" fill="#CBDBFC"/>
<path d="M17 24H16.5V24.5H17V24Z" fill="#CBDBFC"/>
<path d="M17.5 24H17V24.5H17.5V24Z" fill="#CBDBFC"/>
<path d="M14 24.5H13.5V25H14V24.5Z" fill="black"/>
<path d="M14.5 24.5H14V25H14.5V24.5Z" fill="#639BFF"/>
<path d="M15 24.5H14.5V25H15V24.5Z" fill="#639BFF"/>
<path d="M15.5 24.5H15V25H15.5V24.5Z" fill="black"/>
<path d="M16 24.5H15.5V25H16V24.5Z" fill="#CBDBFC"/>
<path d="M16.5 24.5H16V25H16.5V24.5Z" fill="#CBDBFC"/>
<path d="M17 24.5H16.5V25H17V24.5Z" fill="#CBDBFC"/>
<path d="M17.5 24.5H17V25H17.5V24.5Z" fill="#CBDBFC"/>
<path d="M14 25H13.5V25.5H14V25Z" fill="black"/>
<path d="M14.5 25H14V25.5H14.5V25Z" fill="#639BFF"/>
<path d="M15 25H14.5V25.5H15V25Z" fill="#639BFF"/>
<path d="M15.5 25H15V25.5H15.5V25Z" fill="#CBDBFC"/>
<path d="M16 25H15.5V25.5H16V25Z" fill="#CBDBFC"/>
<path d="M16.5 25H16V25.5H16.5V25Z" fill="#CBDBFC"/>
<path d="M17 25H16.5V25.5H17V25Z" fill="#CBDBFC"/>
<path d="M14 25.5H13.5V26H14V25.5Z" fill="black"/>
<path d="M14.5 25.5H14V26H14.5V25.5Z" fill="#639BFF"/>
<path d="M15 25.5H14.5V26H15V25.5Z" fill="black"/>
<path d="M15.5 25.5H15V26H15.5V25.5Z" fill="#CBDBFC"/>
<path d="M16 25.5H15.5V26H16V25.5Z" fill="#CBDBFC"/>
<path d="M16.5 25.5H16V26H16.5V25.5Z" fill="#CBDBFC"/>
<path d="M14 26H13.5V26.5H14V26Z" fill="black"/>
<path d="M14.5 26H14V26.5H14.5V26Z" fill="black"/>
<path d="M15 26H14.5V26.5H15V26Z" fill="#CBDBFC"/>
<path d="M15.5 26H15V26.5H15.5V26Z" fill="#CBDBFC"/>
<path d="M16 26H15.5V26.5H16V26Z" fill="#CBDBFC"/>
<path d="M14 26.5H13.5V27H14V26.5Z" fill="#CBDBFC"/>
<path d="M14.5 26.5H14V27H14.5V26.5Z" fill="#CBDBFC"/>
<path d="M15 26.5H14.5V27H15V26.5Z" fill="#CBDBFC"/>
<path d="M15.5 26.5H15V27H15.5V26.5Z" fill="#CBDBFC"/>
<path d="M16 26.5H15.5V27H16V26.5Z" fill="#CBDBFC"/>
<path d="M14 27H13.5V27.5H14V27Z" fill="#CBDBFC"/>
<path d="M14.5 27H14V27.5H14.5V27Z" fill="#CBDBFC"/>
<path d="M15 27H14.5V27.5H15V27Z" fill="#CBDBFC"/>
<path d="M15.5 27H15V27.5H15.5V27Z" fill="#CBDBFC"/>
</svg>
