<svg width="25" height="24" viewBox="0 0 25 24" fill="none" xmlns="http://www.w3.org/2000/svg">
<g clip-path="url(#clip0_1016_494404)">
<path opacity="0.219608" d="M16.5 0H15.5V1H16.5V0Z" fill="white"/>
<path opacity="0.552941" d="M17.5 0H16.5V1H17.5V0Z" fill="white"/>
<path opacity="0.552941" d="M18.5 0H17.5V1H18.5V0Z" fill="white"/>
<path opacity="0.886275" d="M19.5 0H18.5V1H19.5V0Z" fill="white"/>
<path d="M20.5 0H19.5V1H20.5V0Z" fill="white"/>
<path d="M21.5 0H20.5V1H21.5V0Z" fill="white"/>
<path opacity="0.886275" d="M22.5 0H21.5V1H22.5V0Z" fill="white"/>
<path opacity="0.552941" d="M23.5 0H22.5V1H23.5V0Z" fill="white"/>
<path opacity="0.552941" d="M24.5 0H23.5V1H24.5V0Z" fill="white"/>
<path opacity="0.109804" d="M14.5 1H13.5V2H14.5V1Z" fill="white"/>
<path opacity="0.109804" d="M15.5 1H14.5V2H15.5V1Z" fill="white"/>
<path opacity="0.443137" d="M16.5 1H15.5V2H16.5V1Z" fill="white"/>
<path opacity="0.776471" d="M17.5 1H16.5V2H17.5V1Z" fill="white"/>
<path opacity="0.776471" d="M18.5 1H17.5V2H18.5V1Z" fill="white"/>
<path d="M19.5 1H18.5V2H19.5V1Z" fill="white"/>
<path d="M20.5 1H19.5V2H20.5V1Z" fill="white"/>
<path d="M21.5 1H20.5V2H21.5V1Z" fill="white"/>
<path d="M22.5 1H21.5V2H22.5V1Z" fill="white"/>
<path opacity="0.776471" d="M23.5 1H22.5V2H23.5V1Z" fill="white"/>
<path opacity="0.776471" d="M24.5 1H23.5V2H24.5V1Z" fill="white"/>
<path opacity="0.219608" d="M14.5 2H13.5V3H14.5V2Z" fill="white"/>
<path opacity="0.219608" d="M15.5 2H14.5V3H15.5V2Z" fill="white"/>
<path opacity="0.552941" d="M16.5 2H15.5V3H16.5V2Z" fill="white"/>
<path opacity="0.886275" d="M17.5 2H16.5V3H17.5V2Z" fill="white"/>
<path opacity="0.886275" d="M18.5 2H17.5V3H18.5V2Z" fill="white"/>
<path d="M19.5 2H18.5V3H19.5V2Z" fill="white"/>
<path d="M20.5 2H19.5V3H20.5V2Z" fill="white"/>
<path d="M21.5 2H20.5V3H21.5V2Z" fill="white"/>
<path d="M22.5 2H21.5V3H22.5V2Z" fill="white"/>
<path opacity="0.886275" d="M23.5 2H22.5V3H23.5V2Z" fill="white"/>
<path opacity="0.886275" d="M24.5 2H23.5V3H24.5V2Z" fill="white"/>
<path opacity="0.219608" d="M14.5 3H13.5V4H14.5V3Z" fill="white"/>
<path opacity="0.219608" d="M15.5 3H14.5V4H15.5V3Z" fill="white"/>
<path opacity="0.552941" d="M16.5 3H15.5V4H16.5V3Z" fill="white"/>
<path opacity="0.886275" d="M17.5 3H16.5V4H17.5V3Z" fill="white"/>
<path opacity="0.886275" d="M18.5 3H17.5V4H18.5V3Z" fill="white"/>
<path d="M19.5 3H18.5V4H19.5V3Z" fill="white"/>
<path d="M20.5 3H19.5V4H20.5V3Z" fill="white"/>
<path d="M21.5 3H20.5V4H21.5V3Z" fill="white"/>
<path d="M22.5 3H21.5V4H22.5V3Z" fill="white"/>
<path opacity="0.886275" d="M23.5 3H22.5V4H23.5V3Z" fill="white"/>
<path opacity="0.886275" d="M24.5 3H23.5V4H24.5V3Z" fill="white"/>
<path opacity="0.333333" d="M14.5 4H13.5V5H14.5V4Z" fill="white"/>
<path opacity="0.333333" d="M15.5 4H14.5V5H15.5V4Z" fill="white"/>
<path opacity="0.666667" d="M16.5 4H15.5V5H16.5V4Z" fill="white"/>
<path d="M17.5 4H16.5V5H17.5V4Z" fill="white"/>
<path d="M18.5 4H17.5V5H18.5V4Z" fill="white"/>
<path d="M19.5 4H18.5V5H19.5V4Z" fill="white"/>
<path d="M20.5 4H19.5V5H20.5V4Z" fill="black"/>
<path d="M21.5 4H20.5V5H21.5V4Z" fill="white"/>
<path d="M22.5 4H21.5V5H22.5V4Z" fill="white"/>
<path d="M23.5 4H22.5V5H23.5V4Z" fill="white"/>
<path d="M24.5 4H23.5V5H24.5V4Z" fill="white"/>
<path opacity="0.109804" d="M13.5 5H12.5V6H13.5V5Z" fill="white"/>
<path opacity="0.443137" d="M14.5 5H13.5V6H14.5V5Z" fill="white"/>
<path opacity="0.443137" d="M15.5 5H14.5V6H15.5V5Z" fill="white"/>
<path opacity="0.776471" d="M16.5 5H15.5V6H16.5V5Z" fill="white"/>
<path d="M17.5 5H16.5V6H17.5V5Z" fill="white"/>
<path d="M18.5 5H17.5V6H18.5V5Z" fill="black"/>
<path d="M19.5 5H18.5V6H19.5V5Z" fill="black"/>
<path d="M20.5 5H19.5V6H20.5V5Z" fill="black"/>
<path d="M21.5 5H20.5V6H21.5V5Z" fill="black"/>
<path d="M22.5 5H21.5V6H22.5V5Z" fill="white"/>
<path d="M23.5 5H22.5V6H23.5V5Z" fill="white"/>
<path d="M24.5 5H23.5V6H24.5V5Z" fill="white"/>
<path d="M11.5 6H10.5V7H11.5V6Z" fill="white"/>
<path d="M12.5 6H11.5V7H12.5V6Z" fill="white"/>
<path d="M13.5 6H12.5V7H13.5V6Z" fill="white"/>
<path opacity="0.443137" d="M14.5 6H13.5V7H14.5V6Z" fill="white"/>
<path opacity="0.443137" d="M15.5 6H14.5V7H15.5V6Z" fill="white"/>
<path opacity="0.776471" d="M16.5 6H15.5V7H16.5V6Z" fill="white"/>
<path d="M17.5 6H16.5V7H17.5V6Z" fill="white"/>
<path d="M18.5 6H17.5V7H18.5V6Z" fill="black"/>
<path d="M19.5 6H18.5V7H19.5V6Z" fill="black"/>
<path d="M20.5 6H19.5V7H20.5V6Z" fill="black"/>
<path d="M21.5 6H20.5V7H21.5V6Z" fill="black"/>
<path d="M22.5 6H21.5V7H22.5V6Z" fill="white"/>
<path d="M23.5 6H22.5V7H23.5V6Z" fill="white"/>
<path d="M24.5 6H23.5V7H24.5V6Z" fill="white"/>
<path d="M11.5 7H10.5V8H11.5V7Z" fill="white"/>
<path d="M12.5 7H11.5V8H12.5V7Z" fill="#1A94D5"/>
<path d="M13.5 7H12.5V8H13.5V7Z" fill="#1E9DDE"/>
<path d="M14.5 7H13.5V8H14.5V7Z" fill="white"/>
<path opacity="0.552941" d="M15.5 7H14.5V8H15.5V7Z" fill="white"/>
<path opacity="0.886275" d="M16.5 7H15.5V8H16.5V7Z" fill="white"/>
<path d="M17.5 7H16.5V8H17.5V7Z" fill="white"/>
<path d="M18.5 7H17.5V8H18.5V7Z" fill="black"/>
<path d="M19.5 7H18.5V8H19.5V7Z" fill="black"/>
<path d="M20.5 7H19.5V8H20.5V7Z" fill="black"/>
<path d="M21.5 7H20.5V8H21.5V7Z" fill="black"/>
<path d="M22.5 7H21.5V8H22.5V7Z" fill="white"/>
<path d="M23.5 7H22.5V8H23.5V7Z" fill="white"/>
<path d="M24.5 7H23.5V8H24.5V7Z" fill="white"/>
<path d="M11.5 8H10.5V9H11.5V8Z" fill="white"/>
<path d="M12.5 8H11.5V9H12.5V8Z" fill="#1B95D6"/>
<path d="M13.5 8H12.5V9H13.5V8Z" fill="#1F9EDF"/>
<path d="M14.5 8H13.5V9H14.5V8Z" fill="white"/>
<path opacity="0.666667" d="M15.5 8H14.5V9H15.5V8Z" fill="white"/>
<path d="M16.5 8H15.5V9H16.5V8Z" fill="white"/>
<path d="M17.5 8H16.5V9H17.5V8Z" fill="black"/>
<path d="M18.5 8H17.5V9H18.5V8Z" fill="black"/>
<path d="M19.5 8H18.5V9H19.5V8Z" fill="black"/>
<path d="M20.5 8H19.5V9H20.5V8Z" fill="black"/>
<path d="M21.5 8H20.5V9H21.5V8Z" fill="black"/>
<path d="M22.5 8H21.5V9H22.5V8Z" fill="black"/>
<path d="M23.5 8H22.5V9H23.5V8Z" fill="white"/>
<path d="M24.5 8H23.5V9H24.5V8Z" fill="white"/>
<path d="M11.5 9H10.5V10H11.5V9Z" fill="white"/>
<path d="M12.5 9H11.5V10H12.5V9Z" fill="#1B96D7"/>
<path d="M13.5 9H12.5V10H13.5V9Z" fill="#1F9FE0"/>
<path d="M14.5 9H13.5V10H14.5V9Z" fill="#23A8E9"/>
<path d="M15.5 9H14.5V10H15.5V9Z" fill="white"/>
<path d="M16.5 9H15.5V10H16.5V9Z" fill="white"/>
<path d="M17.5 9H16.5V10H17.5V9Z" fill="black"/>
<path d="M18.5 9H17.5V10H18.5V9Z" fill="black"/>
<path d="M19.5 9H18.5V10H19.5V9Z" fill="black"/>
<path d="M20.5 9H19.5V10H20.5V9Z" fill="black"/>
<path d="M21.5 9H20.5V10H21.5V9Z" fill="black"/>
<path d="M22.5 9H21.5V10H22.5V9Z" fill="black"/>
<path d="M23.5 9H22.5V10H23.5V9Z" fill="white"/>
<path d="M24.5 9H23.5V10H24.5V9Z" fill="white"/>
<path d="M1.5 10H0.5V11H1.5V10Z" fill="white"/>
<path d="M2.5 10H1.5V11H2.5V10Z" fill="white"/>
<path d="M3.5 10H2.5V11H3.5V10Z" fill="white"/>
<path d="M4.5 10H3.5V11H4.5V10Z" fill="white"/>
<path d="M5.5 10H4.5V11H5.5V10Z" fill="white"/>
<path d="M6.5 10H5.5V11H6.5V10Z" fill="white"/>
<path d="M7.5 10H6.5V11H7.5V10Z" fill="white"/>
<path d="M8.5 10H7.5V11H8.5V10Z" fill="white"/>
<path d="M9.5 10H8.5V11H9.5V10Z" fill="white"/>
<path d="M10.5 10H9.5V11H10.5V10Z" fill="white"/>
<path d="M11.5 10H10.5V11H11.5V10Z" fill="white"/>
<path d="M12.5 10H11.5V11H12.5V10Z" fill="#1B96D8"/>
<path d="M13.5 10H12.5V11H13.5V10Z" fill="#1FA0E1"/>
<path d="M14.5 10H13.5V11H14.5V10Z" fill="#23A9EA"/>
<path d="M15.5 10H14.5V11H15.5V10Z" fill="#27B3F3"/>
<path d="M16.5 10H15.5V11H16.5V10Z" fill="white"/>
<path d="M17.5 10H16.5V11H17.5V10Z" fill="black"/>
<path d="M18.5 10H17.5V11H18.5V10Z" fill="black"/>
<path d="M19.5 10H18.5V11H19.5V10Z" fill="black"/>
<path d="M20.5 10H19.5V11H20.5V10Z" fill="black"/>
<path d="M21.5 10H20.5V11H21.5V10Z" fill="black"/>
<path d="M22.5 10H21.5V11H22.5V10Z" fill="black"/>
<path d="M23.5 10H22.5V11H23.5V10Z" fill="white"/>
<path d="M24.5 10H23.5V11H24.5V10Z" fill="white"/>
<path d="M1.5 11H0.5V12H1.5V11Z" fill="white"/>
<path d="M2.5 11H1.5V12H2.5V11Z" fill="#01579B"/>
<path d="M3.5 11H2.5V12H3.5V11Z" fill="#01579B"/>
<path d="M4.5 11H3.5V12H4.5V11Z" fill="#01579B"/>
<path d="M5.5 11H4.5V12H5.5V11Z" fill="#01579B"/>
<path d="M6.5 11H5.5V12H6.5V11Z" fill="#045FA3"/>
<path d="M7.5 11H6.5V12H7.5V11Z" fill="#0868AC"/>
<path d="M8.5 11H7.5V12H8.5V11Z" fill="#0C72B5"/>
<path d="M9.5 11H8.5V12H9.5V11Z" fill="#107BBE"/>
<path d="M10.5 11H9.5V12H10.5V11Z" fill="#1485C7"/>
<path d="M11.5 11H10.5V12H11.5V11Z" fill="#188ED0"/>
<path d="M12.5 11H11.5V12H12.5V11Z" fill="#1C97D9"/>
<path d="M13.5 11H12.5V12H13.5V11Z" fill="#20A1E2"/>
<path d="M14.5 11H13.5V12H14.5V11Z" fill="#24AAEB"/>
<path d="M15.5 11H14.5V12H15.5V11Z" fill="#28B4F4"/>
<path d="M16.5 11H15.5V12H16.5V11Z" fill="#29B6F6"/>
<path d="M17.5 11H16.5V12H17.5V11Z" fill="white"/>
<path d="M18.5 11H17.5V12H18.5V11Z" fill="white"/>
<path d="M19.5 11H18.5V12H19.5V11Z" fill="black"/>
<path d="M20.5 11H19.5V12H20.5V11Z" fill="black"/>
<path d="M21.5 11H20.5V12H21.5V11Z" fill="black"/>
<path d="M22.5 11H21.5V12H22.5V11Z" fill="black"/>
<path d="M23.5 11H22.5V12H23.5V11Z" fill="white"/>
<path d="M24.5 11H23.5V12H24.5V11Z" fill="white"/>
<path d="M1.5 12H0.5V13H1.5V12Z" fill="white"/>
<path d="M2.5 12H1.5V13H2.5V12Z" fill="#01579B"/>
<path d="M3.5 12H2.5V13H3.5V12Z" fill="#01579B"/>
<path d="M4.5 12H3.5V13H4.5V12Z" fill="#01579B"/>
<path d="M5.5 12H4.5V13H5.5V12Z" fill="#01579B"/>
<path d="M6.5 12H5.5V13H6.5V12Z" fill="#0460A4"/>
<path d="M7.5 12H6.5V13H7.5V12Z" fill="#0869AD"/>
<path d="M8.5 12H7.5V13H8.5V12Z" fill="#0C73B6"/>
<path d="M9.5 12H8.5V13H9.5V12Z" fill="#107CBF"/>
<path d="M10.5 12H9.5V13H10.5V12Z" fill="#1486C8"/>
<path d="M11.5 12H10.5V13H11.5V12Z" fill="#188FD1"/>
<path d="M12.5 12H11.5V13H12.5V12Z" fill="#1C98DA"/>
<path d="M13.5 12H12.5V13H13.5V12Z" fill="#20A2E3"/>
<path d="M14.5 12H13.5V13H14.5V12Z" fill="#24ABEC"/>
<path d="M15.5 12H14.5V13H15.5V12Z" fill="#28B5F5"/>
<path d="M16.5 12H15.5V13H16.5V12Z" fill="#29B6F6"/>
<path d="M17.5 12H16.5V13H17.5V12Z" fill="#29B6F6"/>
<path d="M18.5 12H17.5V13H18.5V12Z" fill="#29B6F6"/>
<path d="M19.5 12H18.5V13H19.5V12Z" fill="white"/>
<path d="M20.5 12H19.5V13H20.5V12Z" fill="black"/>
<path d="M21.5 12H20.5V13H21.5V12Z" fill="black"/>
<path d="M22.5 12H21.5V13H22.5V12Z" fill="black"/>
<path d="M23.5 12H22.5V13H23.5V12Z" fill="white"/>
<path d="M24.5 12H23.5V13H24.5V12Z" fill="white"/>
<path d="M1.5 13H0.5V14H1.5V13Z" fill="white"/>
<path d="M2.5 13H1.5V14H2.5V13Z" fill="#01579B"/>
<path d="M3.5 13H2.5V14H3.5V13Z" fill="#01579B"/>
<path d="M4.5 13H3.5V14H4.5V13Z" fill="#01579B"/>
<path d="M5.5 13H4.5V14H5.5V13Z" fill="#01579B"/>
<path d="M6.5 13H5.5V14H6.5V13Z" fill="#0561A4"/>
<path d="M7.5 13H6.5V14H7.5V13Z" fill="#096AAD"/>
<path d="M8.5 13H7.5V14H8.5V13Z" fill="#0D74B6"/>
<path d="M9.5 13H8.5V14H9.5V13Z" fill="#117DBF"/>
<path d="M10.5 13H9.5V14H10.5V13Z" fill="#1586C8"/>
<path d="M11.5 13H10.5V14H11.5V13Z" fill="#1990D1"/>
<path d="M12.5 13H11.5V14H12.5V13Z" fill="#1D99DA"/>
<path d="M13.5 13H12.5V14H13.5V13Z" fill="#21A3E3"/>
<path d="M14.5 13H13.5V14H14.5V13Z" fill="#25ACEC"/>
<path d="M15.5 13H14.5V14H15.5V13Z" fill="#29B6F6"/>
<path d="M16.5 13H15.5V14H16.5V13Z" fill="#29B6F6"/>
<path d="M17.5 13H16.5V14H17.5V13Z" fill="#29B6F6"/>
<path d="M18.5 13H17.5V14H18.5V13Z" fill="#29B6F6"/>
<path d="M19.5 13H18.5V14H19.5V13Z" fill="white"/>
<path d="M20.5 13H19.5V14H20.5V13Z" fill="black"/>
<path d="M21.5 13H20.5V14H21.5V13Z" fill="black"/>
<path d="M22.5 13H21.5V14H22.5V13Z" fill="black"/>
<path d="M23.5 13H22.5V14H23.5V13Z" fill="white"/>
<path d="M24.5 13H23.5V14H24.5V13Z" fill="white"/>
<path d="M1.5 14H0.5V15H1.5V14Z" fill="white"/>
<path d="M2.5 14H1.5V15H2.5V14Z" fill="#01579B"/>
<path d="M3.5 14H2.5V15H3.5V14Z" fill="#01579B"/>
<path d="M4.5 14H3.5V15H4.5V14Z" fill="#01579B"/>
<path d="M5.5 14H4.5V15H5.5V14Z" fill="#01589C"/>
<path d="M6.5 14H5.5V15H6.5V14Z" fill="#0562A5"/>
<path d="M7.5 14H6.5V15H7.5V14Z" fill="#096BAE"/>
<path d="M8.5 14H7.5V15H8.5V14Z" fill="#0D75B7"/>
<path d="M9.5 14H8.5V15H9.5V14Z" fill="#117EC0"/>
<path d="M10.5 14H9.5V15H10.5V14Z" fill="#1587C9"/>
<path d="M11.5 14H10.5V15H11.5V14Z" fill="#1991D2"/>
<path d="M12.5 14H11.5V15H12.5V14Z" fill="#1D9ADB"/>
<path d="M13.5 14H12.5V15H13.5V14Z" fill="#21A4E4"/>
<path d="M14.5 14H13.5V15H14.5V14Z" fill="#25ADED"/>
<path d="M15.5 14H14.5V15H15.5V14Z" fill="#29B6F6"/>
<path d="M16.5 14H15.5V15H16.5V14Z" fill="#29B6F6"/>
<path d="M17.5 14H16.5V15H17.5V14Z" fill="white"/>
<path d="M18.5 14H17.5V15H18.5V14Z" fill="white"/>
<path d="M19.5 14H18.5V15H19.5V14Z" fill="black"/>
<path d="M20.5 14H19.5V15H20.5V14Z" fill="black"/>
<path d="M21.5 14H20.5V15H21.5V14Z" fill="black"/>
<path d="M22.5 14H21.5V15H22.5V14Z" fill="black"/>
<path d="M23.5 14H22.5V15H23.5V14Z" fill="white"/>
<path d="M24.5 14H23.5V15H24.5V14Z" fill="white"/>
<path d="M1.5 15H0.5V16H1.5V15Z" fill="white"/>
<path d="M2.5 15H1.5V16H2.5V15Z" fill="white"/>
<path d="M3.5 15H2.5V16H3.5V15Z" fill="white"/>
<path d="M4.5 15H3.5V16H4.5V15Z" fill="white"/>
<path d="M5.5 15H4.5V16H5.5V15Z" fill="white"/>
<path d="M6.5 15H5.5V16H6.5V15Z" fill="white"/>
<path d="M7.5 15H6.5V16H7.5V15Z" fill="white"/>
<path d="M8.5 15H7.5V16H8.5V15Z" fill="white"/>
<path d="M9.5 15H8.5V16H9.5V15Z" fill="white"/>
<path d="M10.5 15H9.5V16H10.5V15Z" fill="white"/>
<path d="M11.5 15H10.5V16H11.5V15Z" fill="white"/>
<path d="M12.5 15H11.5V16H12.5V15Z" fill="#1D9BDC"/>
<path d="M13.5 15H12.5V16H13.5V15Z" fill="#21A5E5"/>
<path d="M14.5 15H13.5V16H14.5V15Z" fill="#25AEEE"/>
<path d="M15.5 15H14.5V16H15.5V15Z" fill="#29B6F6"/>
<path d="M16.5 15H15.5V16H16.5V15Z" fill="white"/>
<path d="M17.5 15H16.5V16H17.5V15Z" fill="black"/>
<path d="M18.5 15H17.5V16H18.5V15Z" fill="black"/>
<path d="M19.5 15H18.5V16H19.5V15Z" fill="black"/>
<path d="M20.5 15H19.5V16H20.5V15Z" fill="black"/>
<path d="M21.5 15H20.5V16H21.5V15Z" fill="black"/>
<path d="M22.5 15H21.5V16H22.5V15Z" fill="black"/>
<path d="M23.5 15H22.5V16H23.5V15Z" fill="white"/>
<path d="M24.5 15H23.5V16H24.5V15Z" fill="white"/>
<path d="M11.5 16H10.5V17H11.5V16Z" fill="white"/>
<path d="M12.5 16H11.5V17H12.5V16Z" fill="#1E9CDD"/>
<path d="M13.5 16H12.5V17H13.5V16Z" fill="#22A6E6"/>
<path d="M14.5 16H13.5V17H14.5V16Z" fill="#26AFEF"/>
<path d="M15.5 16H14.5V17H15.5V16Z" fill="white"/>
<path d="M16.5 16H15.5V17H16.5V16Z" fill="white"/>
<path d="M17.5 16H16.5V17H17.5V16Z" fill="black"/>
<path d="M18.5 16H17.5V17H18.5V16Z" fill="black"/>
<path d="M19.5 16H18.5V17H19.5V16Z" fill="black"/>
<path d="M20.5 16H19.5V17H20.5V16Z" fill="black"/>
<path d="M21.5 16H20.5V17H21.5V16Z" fill="black"/>
<path d="M22.5 16H21.5V17H22.5V16Z" fill="black"/>
<path d="M23.5 16H22.5V17H23.5V16Z" fill="white"/>
<path d="M24.5 16H23.5V17H24.5V16Z" fill="white"/>
<path d="M11.5 17H10.5V18H11.5V17Z" fill="white"/>
<path d="M12.5 17H11.5V18H12.5V17Z" fill="#1E9DDE"/>
<path d="M13.5 17H12.5V18H13.5V17Z" fill="#22A6E7"/>
<path d="M14.5 17H13.5V18H14.5V17Z" fill="white"/>
<path opacity="0.552941" d="M15.5 17H14.5V18H15.5V17Z" fill="white"/>
<path opacity="0.886275" d="M16.5 17H15.5V18H16.5V17Z" fill="white"/>
<path d="M17.5 17H16.5V18H17.5V17Z" fill="white"/>
<path d="M18.5 17H17.5V18H18.5V17Z" fill="black"/>
<path d="M19.5 17H18.5V18H19.5V17Z" fill="black"/>
<path d="M20.5 17H19.5V18H20.5V17Z" fill="black"/>
<path d="M21.5 17H20.5V18H21.5V17Z" fill="black"/>
<path d="M22.5 17H21.5V18H22.5V17Z" fill="white"/>
<path d="M23.5 17H22.5V18H23.5V17Z" fill="white"/>
<path d="M24.5 17H23.5V18H24.5V17Z" fill="white"/>
<path d="M11.5 18H10.5V19H11.5V18Z" fill="white"/>
<path d="M12.5 18H11.5V19H12.5V18Z" fill="#1F9EDF"/>
<path d="M13.5 18H12.5V19H13.5V18Z" fill="#23A7E8"/>
<path d="M14.5 18H13.5V19H14.5V18Z" fill="white"/>
<path opacity="0.552941" d="M15.5 18H14.5V19H15.5V18Z" fill="white"/>
<path opacity="0.886275" d="M16.5 18H15.5V19H16.5V18Z" fill="white"/>
<path d="M17.5 18H16.5V19H17.5V18Z" fill="white"/>
<path d="M18.5 18H17.5V19H18.5V18Z" fill="black"/>
<path d="M19.5 18H18.5V19H19.5V18Z" fill="black"/>
<path d="M20.5 18H19.5V19H20.5V18Z" fill="black"/>
<path d="M21.5 18H20.5V19H21.5V18Z" fill="black"/>
<path d="M22.5 18H21.5V19H22.5V18Z" fill="white"/>
<path d="M23.5 18H22.5V19H23.5V18Z" fill="white"/>
<path d="M24.5 18H23.5V19H24.5V18Z" fill="white"/>
<path d="M11.5 19H10.5V20H11.5V19Z" fill="white"/>
<path d="M12.5 19H11.5V20H12.5V19Z" fill="white"/>
<path d="M13.5 19H12.5V20H13.5V19Z" fill="white"/>
<path opacity="0.443137" d="M14.5 19H13.5V20H14.5V19Z" fill="white"/>
<path opacity="0.443137" d="M15.5 19H14.5V20H15.5V19Z" fill="white"/>
<path opacity="0.776471" d="M16.5 19H15.5V20H16.5V19Z" fill="white"/>
<path d="M17.5 19H16.5V20H17.5V19Z" fill="white"/>
<path d="M18.5 19H17.5V20H18.5V19Z" fill="black"/>
<path d="M19.5 19H18.5V20H19.5V19Z" fill="black"/>
<path d="M20.5 19H19.5V20H20.5V19Z" fill="black"/>
<path d="M21.5 19H20.5V20H21.5V19Z" fill="black"/>
<path d="M22.5 19H21.5V20H22.5V19Z" fill="white"/>
<path d="M23.5 19H22.5V20H23.5V19Z" fill="white"/>
<path d="M24.5 19H23.5V20H24.5V19Z" fill="white"/>
<path opacity="0.333333" d="M14.5 20H13.5V21H14.5V20Z" fill="white"/>
<path opacity="0.333333" d="M15.5 20H14.5V21H15.5V20Z" fill="white"/>
<path opacity="0.666667" d="M16.5 20H15.5V21H16.5V20Z" fill="white"/>
<path d="M17.5 20H16.5V21H17.5V20Z" fill="white"/>
<path d="M18.5 20H17.5V21H18.5V20Z" fill="white"/>
<path d="M19.5 20H18.5V21H19.5V20Z" fill="white"/>
<path d="M20.5 20H19.5V21H20.5V20Z" fill="black"/>
<path d="M21.5 20H20.5V21H21.5V20Z" fill="white"/>
<path d="M22.5 20H21.5V21H22.5V20Z" fill="white"/>
<path d="M23.5 20H22.5V21H23.5V20Z" fill="white"/>
<path d="M24.5 20H23.5V21H24.5V20Z" fill="white"/>
<path opacity="0.333333" d="M14.5 21H13.5V22H14.5V21Z" fill="white"/>
<path opacity="0.333333" d="M15.5 21H14.5V22H15.5V21Z" fill="white"/>
<path opacity="0.666667" d="M16.5 21H15.5V22H16.5V21Z" fill="white"/>
<path d="M17.5 21H16.5V22H17.5V21Z" fill="white"/>
<path d="M18.5 21H17.5V22H18.5V21Z" fill="white"/>
<path d="M19.5 21H18.5V22H19.5V21Z" fill="white"/>
<path d="M20.5 21H19.5V22H20.5V21Z" fill="white"/>
<path d="M21.5 21H20.5V22H21.5V21Z" fill="white"/>
<path d="M22.5 21H21.5V22H22.5V21Z" fill="white"/>
<path d="M23.5 21H22.5V22H23.5V21Z" fill="white"/>
<path d="M24.5 21H23.5V22H24.5V21Z" fill="white"/>
<path opacity="0.219608" d="M14.5 22H13.5V23H14.5V22Z" fill="white"/>
<path opacity="0.219608" d="M15.5 22H14.5V23H15.5V22Z" fill="white"/>
<path opacity="0.552941" d="M16.5 22H15.5V23H16.5V22Z" fill="white"/>
<path opacity="0.886275" d="M17.5 22H16.5V23H17.5V22Z" fill="white"/>
<path opacity="0.886275" d="M18.5 22H17.5V23H18.5V22Z" fill="white"/>
<path d="M19.5 22H18.5V23H19.5V22Z" fill="white"/>
<path d="M20.5 22H19.5V23H20.5V22Z" fill="white"/>
<path d="M21.5 22H20.5V23H21.5V22Z" fill="white"/>
<path d="M22.5 22H21.5V23H22.5V22Z" fill="white"/>
<path opacity="0.886275" d="M23.5 22H22.5V23H23.5V22Z" fill="white"/>
<path opacity="0.886275" d="M24.5 22H23.5V23H24.5V22Z" fill="white"/>
<path opacity="0.109804" d="M14.5 23H13.5V24H14.5V23Z" fill="white"/>
<path opacity="0.109804" d="M15.5 23H14.5V24H15.5V23Z" fill="white"/>
<path opacity="0.443137" d="M16.5 23H15.5V24H16.5V23Z" fill="white"/>
<path opacity="0.776471" d="M17.5 23H16.5V24H17.5V23Z" fill="white"/>
<path opacity="0.776471" d="M18.5 23H17.5V24H18.5V23Z" fill="white"/>
<path d="M19.5 23H18.5V24H19.5V23Z" fill="white"/>
<path d="M20.5 23H19.5V24H20.5V23Z" fill="white"/>
<path d="M21.5 23H20.5V24H21.5V23Z" fill="white"/>
<path d="M22.5 23H21.5V24H22.5V23Z" fill="white"/>
<path opacity="0.776471" d="M23.5 23H22.5V24H23.5V23Z" fill="white"/>
<path opacity="0.776471" d="M24.5 23H23.5V24H24.5V23Z" fill="white"/>
</g>
<defs>
<clipPath id="clip0_1016_494404">
<rect width="24" height="24" fill="white" transform="translate(0.5)"/>
</clipPath>
</defs>
</svg>
