<svg width="25" height="25" viewBox="0 0 25 25" fill="none" xmlns="http://www.w3.org/2000/svg">
<g clip-path="url(#clip0_1097_65699)">
<g clip-path="url(#clip1_1097_65699)">
<path d="M10.8098 -0.464844H9.0957V1.24924H10.8098V-0.464844Z" fill="#DB9122"/>
<path d="M12.5246 -0.464844H10.8105V1.24924H12.5246V-0.464844Z" fill="#DB9122"/>
<path d="M14.2379 -0.464844H12.5234V1.24924H14.2379V-0.464844Z" fill="#CC5614"/>
<path d="M15.9524 -0.464844H14.2383V1.24924H15.9524V-0.464844Z" fill="#CC5614"/>
<path d="M9.09495 1.24902H7.38086V2.96311H9.09495V1.24902Z" fill="#DB9122"/>
<path d="M10.8098 1.24902H9.0957V2.96311H10.8098V1.24902Z" fill="#E8C05B"/>
<path d="M12.5246 1.24902H10.8105V2.96311H12.5246V1.24902Z" fill="#E8C05B"/>
<path d="M14.2379 1.24902H12.5234V2.96311H14.2379V1.24902Z" fill="#F5E5A1"/>
<path d="M15.9524 1.24902H14.2383V2.96311H15.9524V1.24902Z" fill="#F5E5A1"/>
<path d="M17.6653 1.24902H15.9512V2.96311H17.6653V1.24902Z" fill="#CC5614"/>
<path d="M7.3801 2.96387H5.66602V4.67796H7.3801V2.96387Z" fill="#DB9122"/>
<path d="M9.09495 2.96387H7.38086V4.67796H9.09495V2.96387Z" fill="#E8C05B"/>
<path d="M10.8098 2.96387H9.0957V4.67796H10.8098V2.96387Z" fill="#E8C05B"/>
<path d="M12.5246 2.96387H10.8105V4.67796H12.5246V2.96387Z" fill="#F5E5A1"/>
<path d="M14.2379 2.96387H12.5234V4.67796H14.2379V2.96387Z" fill="#F5E5A1"/>
<path d="M15.9524 2.96387H14.2383V4.67796H15.9524V2.96387Z" fill="#FFFFC8"/>
<path d="M17.6653 2.96387H15.9512V4.67796H17.6653V2.96387Z" fill="#E8C05B"/>
<path d="M19.3801 2.96387H17.666V4.67796H19.3801V2.96387Z" fill="#CC5614"/>
<path d="M5.66761 4.67773H3.95312V6.39182H5.66761V4.67773Z" fill="#DB9122"/>
<path d="M7.3801 4.67773H5.66602V6.39182H7.3801V4.67773Z" fill="#F5E5A1"/>
<path d="M9.09495 4.67773H7.38086V6.39182H9.09495V4.67773Z" fill="#E8C05B"/>
<path d="M10.8098 4.67773H9.0957V6.39182H10.8098V4.67773Z" fill="#F5E5A1"/>
<path d="M12.5246 4.67773H10.8105V6.39182H12.5246V4.67773Z" fill="#F5E5A1"/>
<path d="M14.2379 4.67773H12.5234V6.39182H14.2379V4.67773Z" fill="#FFFFC8"/>
<path d="M15.9524 4.67773H14.2383V6.39182H15.9524V4.67773Z" fill="#FFFFC8"/>
<path d="M17.6653 4.67773H15.9512V6.39182H17.6653V4.67773Z" fill="#FFFFC8"/>
<path d="M19.3801 4.67773H17.666V6.39182H19.3801V4.67773Z" fill="#F5E5A1"/>
<path d="M21.0949 4.67773H19.3809V6.39182H21.0949V4.67773Z" fill="#CC5614"/>
<path d="M5.66761 6.39258H3.95312V8.10667H5.66761V6.39258Z" fill="#DB9122"/>
<path d="M7.3801 6.39258H5.66602V8.10667H7.3801V6.39258Z" fill="#F5E5A1"/>
<path d="M9.09495 6.39258H7.38086V8.10667H9.09495V6.39258Z" fill="#E8C05B"/>
<path d="M10.8098 6.39258H9.0957V8.10667H10.8098V6.39258Z" fill="#F5E5A1"/>
<path d="M12.5246 6.39258H10.8105V8.10667H12.5246V6.39258Z" fill="#F5E5A1"/>
<path d="M14.2379 6.39258H12.5234V8.10667H14.2379V6.39258Z" fill="#F5E5A1"/>
<path d="M15.9524 6.39258H14.2383V8.10667H15.9524V6.39258Z" fill="#FFFFC8"/>
<path d="M17.6653 6.39258H15.9512V8.10667H17.6653V6.39258Z" fill="#F5E5A1"/>
<path d="M19.3801 6.39258H17.666V8.10667H19.3801V6.39258Z" fill="#F5E5A1"/>
<path d="M21.0949 6.39258H19.3809V8.10667H21.0949V6.39258Z" fill="#CC5614"/>
<path d="M5.66761 8.10645H3.95312V9.82053H5.66761V8.10645Z" fill="#CC5614"/>
<path d="M7.3801 8.10645H5.66602V9.82053H7.3801V8.10645Z" fill="#F5E5A1"/>
<path d="M9.09495 8.10645H7.38086V9.82053H9.09495V8.10645Z" fill="#E8C05B"/>
<path d="M10.8098 8.10645H9.0957V9.82053H10.8098V8.10645Z" fill="#E8C05B"/>
<path d="M12.5246 8.10645H10.8105V9.82053H12.5246V8.10645Z" fill="#F5E5A1"/>
<path d="M14.2379 8.10645H12.5234V9.82053H14.2379V8.10645Z" fill="#F5E5A1"/>
<path d="M15.9524 8.10645H14.2383V9.82053H15.9524V8.10645Z" fill="#F5E5A1"/>
<path d="M17.6653 8.10645H15.9512V9.82053H17.6653V8.10645Z" fill="#F5E5A1"/>
<path d="M19.3801 8.10645H17.666V9.82053H19.3801V8.10645Z" fill="#E8C05B"/>
<path d="M21.0949 8.10645H19.3809V9.82053H21.0949V8.10645Z" fill="#CC5614"/>
<path d="M5.66761 9.82129H3.95312V11.5354H5.66761V9.82129Z" fill="#CC5614"/>
<path d="M7.3801 9.82129H5.66602V11.5354H7.3801V9.82129Z" fill="#F5E5A1"/>
<path d="M9.09495 9.82129H7.38086V11.5354H9.09495V9.82129Z" fill="#E8C05B"/>
<path d="M10.8098 9.82129H9.0957V11.5354H10.8098V9.82129Z" fill="#E8C05B"/>
<path d="M12.5246 9.82129H10.8105V11.5354H12.5246V9.82129Z" fill="#E8C05B"/>
<path d="M14.2379 9.82129H12.5234V11.5354H14.2379V9.82129Z" fill="#F5E5A1"/>
<path d="M15.9524 9.82129H14.2383V11.5354H15.9524V9.82129Z" fill="#F5E5A1"/>
<path d="M17.6653 9.82129H15.9512V11.5354H17.6653V9.82129Z" fill="#E8C05B"/>
<path d="M19.3801 9.82129H17.666V11.5354H19.3801V9.82129Z" fill="#E8C05B"/>
<path d="M21.0949 9.82129H19.3809V11.5354H21.0949V9.82129Z" fill="#DB9122"/>
<path d="M7.3801 11.5352H5.66602V13.2496H7.3801V11.5352Z" fill="#CC5614"/>
<path d="M9.09495 11.5352H7.38086V13.2496H9.09495V11.5352Z" fill="#F5E5A1"/>
<path d="M10.8098 11.5352H9.0957V13.2496H10.8098V11.5352Z" fill="#E8C05B"/>
<path d="M12.5246 11.5352H10.8105V13.2496H12.5246V11.5352Z" fill="#E8C05B"/>
<path d="M14.2379 11.5352H12.5234V13.2496H14.2379V11.5352Z" fill="#E8C05B"/>
<path d="M15.9524 11.5352H14.2383V13.2496H15.9524V11.5352Z" fill="#E8C05B"/>
<path d="M17.6653 11.5352H15.9512V13.2496H17.6653V11.5352Z" fill="#E8C05B"/>
<path d="M19.3801 11.5352H17.666V13.2496H19.3801V11.5352Z" fill="#DB9122"/>
<path d="M9.09495 13.249H7.38086V14.9631H9.09495V13.249Z" fill="#CC5614"/>
<path d="M10.8098 13.249H9.0957V14.9631H10.8098V13.249Z" fill="#F5E5A1"/>
<path d="M12.5246 13.249H10.8105V14.9631H12.5246V13.249Z" fill="#F5E5A1"/>
<path d="M14.2379 13.249H12.5234V14.9631H14.2379V13.249Z" fill="#F5E5A1"/>
<path d="M15.9524 13.249H14.2383V14.9631H15.9524V13.249Z" fill="#F5E5A1"/>
<path d="M17.6653 13.249H15.9512V14.9631H17.6653V13.249Z" fill="#DB9122"/>
<path d="M10.8098 14.9639H9.0957V16.678H10.8098V14.9639Z" fill="#7C66AC"/>
<path d="M12.5246 14.9639H10.8105V16.678H12.5246V14.9639Z" fill="#9097C6"/>
<path d="M14.2379 14.9639H12.5234V16.678H14.2379V14.9639Z" fill="#9097C6"/>
<path d="M15.9524 14.9639H14.2383V16.678H15.9524V14.9639Z" fill="#9097C6"/>
<path d="M10.8098 16.6777H9.0957V18.3918H10.8098V16.6777Z" fill="#67317E"/>
<path d="M12.5246 16.6777H10.8105V18.3918H12.5246V16.6777Z" fill="#67317E"/>
<path d="M14.2379 16.6777H12.5234V18.3918H14.2379V16.6777Z" fill="#7C66AC"/>
<path d="M15.9524 16.6777H14.2383V18.3918H15.9524V16.6777Z" fill="#7C66AC"/>
<path d="M10.8098 18.3916H9.0957V20.1057H10.8098V18.3916Z" fill="#9097C6"/>
<path d="M12.5246 18.3916H10.8105V20.1057H12.5246V18.3916Z" fill="#9097C6"/>
<path d="M14.2379 18.3916H12.5234V20.1057H14.2379V18.3916Z" fill="#B0C2DB"/>
<path d="M15.9524 18.3916H14.2383V20.1057H15.9524V18.3916Z" fill="#B0C2DB"/>
<path d="M10.8098 20.1064H9.0957V21.8205H10.8098V20.1064Z" fill="#67317E"/>
<path d="M12.5246 20.1064H10.8105V21.8205H12.5246V20.1064Z" fill="#67317E"/>
<path d="M14.2379 20.1064H12.5234V21.8205H14.2379V20.1064Z" fill="#7C66AC"/>
<path d="M15.9524 20.1064H14.2383V21.8205H15.9524V20.1064Z" fill="#7C66AC"/>
<path d="M12.5246 21.8203H10.8105V23.5344H12.5246V21.8203Z" fill="#67317E"/>
<path d="M14.2379 21.8203H12.5234V23.5344H14.2379V21.8203Z" fill="#67317E"/>
</g>
</g>
<defs>
<clipPath id="clip0_1097_65699">
<rect width="24" height="24" fill="white" transform="translate(0.154297 0.0234375)"/>
</clipPath>
<clipPath id="clip1_1097_65699">
<rect width="17.1428" height="24" fill="white" transform="translate(3.95312 -0.464844)"/>
</clipPath>
</defs>
</svg>
