<svg width="24" height="24" viewBox="0 0 24 24" fill="none" xmlns="http://www.w3.org/2000/svg">
<g clip-path="url(#clip0_97_18800)">
<path d="M13.7142 0H12V1.71416H13.7142V0Z" fill="#C07153"/>
<path d="M15.429 0H13.7148V1.71416H15.429V0Z" fill="#C07153"/>
<path d="M17.1438 0H15.4297V1.71416H17.1438V0Z" fill="#984641"/>
<path d="M18.8567 0H17.1426V1.71416H18.8567V0Z" fill="#984641"/>
<path d="M11.9993 1.71417H10.2852V3.42833H11.9993V1.71417Z" fill="#C07153"/>
<path d="M13.7142 1.71417H12V3.42833H13.7142V1.71417Z" fill="#96A5C3"/>
<path d="M15.429 1.71417H13.7148V3.42833H15.429V1.71417Z" fill="#B7C6D4"/>
<path d="M17.1438 1.71417H15.4297V3.42833H17.1438V1.71417Z" fill="#B7C6D4"/>
<path d="M18.8567 1.71417H17.1426V3.42833H18.8567V1.71417Z" fill="#96A5C3"/>
<path d="M20.5716 1.71417H18.8574V3.42833H20.5716V1.71417Z" fill="#984641"/>
<path d="M10.2864 3.42877H8.57227V5.14293H10.2864V3.42877Z" fill="#C07153"/>
<path d="M11.9993 3.42877H10.2852V5.14293H11.9993V3.42877Z" fill="#96A5C3"/>
<path d="M13.7142 3.42877H12V5.14293H13.7142V3.42877Z" fill="white"/>
<path d="M15.429 3.42877H13.7148V5.14293H15.429V3.42877Z" fill="white"/>
<path d="M17.1438 3.42877H15.4297V5.14293H17.1438V3.42877Z" fill="white"/>
<path d="M18.8567 3.42877H17.1426V5.14293H18.8567V3.42877Z" fill="#E7E7F7"/>
<path d="M20.5716 3.42877H18.8574V5.14293H20.5716V3.42877Z" fill="#96A5C3"/>
<path d="M22.2864 3.42877H20.5723V5.14293H22.2864V3.42877Z" fill="#633D4C"/>
<path d="M8.57158 5.14294H6.85742V6.85711H8.57158V5.14294Z" fill="#C07153"/>
<path d="M10.2864 5.14294H8.57227V6.85711H10.2864V5.14294Z" fill="#B7C6D4"/>
<path d="M11.9993 5.14294H10.2852V6.85711H11.9993V5.14294Z" fill="white"/>
<path d="M13.7142 5.14294H12V6.85711H13.7142V5.14294Z" fill="white"/>
<path d="M15.429 5.14294H13.7148V6.85711H15.429V5.14294Z" fill="#E7E7F7"/>
<path d="M17.1438 5.14294H15.4297V6.85711H17.1438V5.14294Z" fill="#E7E7F7"/>
<path d="M18.8567 5.14294H17.1426V6.85711H18.8567V5.14294Z" fill="#E7E7F7"/>
<path d="M20.5716 5.14294H18.8574V6.85711H20.5716V5.14294Z" fill="#E7E7F7"/>
<path d="M22.2864 5.14294H20.5723V6.85711H22.2864V5.14294Z" fill="#96A5C3"/>
<path d="M23.9993 5.14294H22.2852V6.85711H23.9993V5.14294Z" fill="#633D4C"/>
<path d="M8.57158 6.85706H6.85742V8.57122H8.57158V6.85706Z" fill="#C07153"/>
<path d="M10.2864 6.85706H8.57227V8.57122H10.2864V6.85706Z" fill="#B7C6D4"/>
<path d="M11.9993 6.85706H10.2852V8.57122H11.9993V6.85706Z" fill="white"/>
<path d="M13.7142 6.85706H12V8.57122H13.7142V6.85706Z" fill="#E7E7F7"/>
<path d="M15.429 6.85706H13.7148V8.57122H15.429V6.85706Z" fill="#E7E7F7"/>
<path d="M17.1438 6.85706H15.4297V8.57122H17.1438V6.85706Z" fill="#E7E7F7"/>
<path d="M18.8567 6.85706H17.1426V8.57122H18.8567V6.85706Z" fill="#E7E7F7"/>
<path d="M20.5716 6.85706H18.8574V8.57122H20.5716V6.85706Z" fill="#E7E7F7"/>
<path d="M22.2864 6.85706H20.5723V8.57122H22.2864V6.85706Z" fill="#96A5C3"/>
<path d="M23.9993 6.85706H22.2852V8.57122H23.9993V6.85706Z" fill="#633D4C"/>
<path d="M8.57158 8.57166H6.85742V10.2858H8.57158V8.57166Z" fill="#984641"/>
<path d="M10.2864 8.57166H8.57227V10.2858H10.2864V8.57166Z" fill="#B7C6D4"/>
<path d="M11.9993 8.57166H10.2852V10.2858H11.9993V8.57166Z" fill="#E7E7F7"/>
<path d="M13.7142 8.57166H12V10.2858H13.7142V8.57166Z" fill="#E7E7F7"/>
<path d="M15.429 8.57166H13.7148V10.2858H15.429V8.57166Z" fill="#E7E7F7"/>
<path d="M17.1438 8.57166H15.4297V10.2858H17.1438V8.57166Z" fill="#E7E7F7"/>
<path d="M18.8567 8.57166H17.1426V10.2858H18.8567V8.57166Z" fill="#E7E7F7"/>
<path d="M20.5716 8.57166H18.8574V10.2858H20.5716V8.57166Z" fill="#E7E7F7"/>
<path d="M22.2864 8.57166H20.5723V10.2858H22.2864V8.57166Z" fill="#96A5C3"/>
<path d="M23.9993 8.57166H22.2852V10.2858H23.9993V8.57166Z" fill="#633D4C"/>
<path d="M8.57158 10.2858H6.85742V12H8.57158V10.2858Z" fill="#984641"/>
<path d="M10.2864 10.2858H8.57227V12H10.2864V10.2858Z" fill="#96A5C3"/>
<path d="M11.9993 10.2858H10.2852V12H11.9993V10.2858Z" fill="white"/>
<path d="M13.7142 10.2858H12V12H13.7142V10.2858Z" fill="#E7E7F7"/>
<path d="M15.429 10.2858H13.7148V12H15.429V10.2858Z" fill="#E7E7F7"/>
<path d="M17.1438 10.2858H15.4297V12H17.1438V10.2858Z" fill="#E7E7F7"/>
<path d="M18.8567 10.2858H17.1426V12H18.8567V10.2858Z" fill="#E7E7F7"/>
<path d="M20.5716 10.2858H18.8574V12H20.5716V10.2858Z" fill="#B7C6D4"/>
<path d="M22.2864 10.2858H20.5723V12H22.2864V10.2858Z" fill="#96A5C3"/>
<path d="M23.9993 10.2858H22.2852V12H23.9993V10.2858Z" fill="#984641"/>
<path d="M8.57158 12H6.85742V13.7142H8.57158V12Z" fill="#633D4C"/>
<path d="M10.2864 12H8.57227V13.7142H10.2864V12Z" fill="#984641"/>
<path d="M11.9993 12H10.2852V13.7142H11.9993V12Z" fill="#B7C6D4"/>
<path d="M13.7142 12H12V13.7142H13.7142V12Z" fill="#E7E7F7"/>
<path d="M15.429 12H13.7148V13.7142H15.429V12Z" fill="#E7E7F7"/>
<path d="M17.1438 12H15.4297V13.7142H17.1438V12Z" fill="#E7E7F7"/>
<path d="M18.8567 12H17.1426V13.7142H18.8567V12Z" fill="#B7C6D4"/>
<path d="M20.5716 12H18.8574V13.7142H20.5716V12Z" fill="#96A5C3"/>
<path d="M22.2864 12H20.5723V13.7142H22.2864V12Z" fill="#984641"/>
<path d="M6.85674 13.7146H5.14258V15.4288H6.85674V13.7146Z" fill="#633D4C"/>
<path d="M8.57158 13.7146H6.85742V15.4288H8.57158V13.7146Z" fill="#C07153"/>
<path d="M10.2864 13.7146H8.57227V15.4288H10.2864V13.7146Z" fill="#633D4C"/>
<path d="M11.9993 13.7146H10.2852V15.4288H11.9993V13.7146Z" fill="#984641"/>
<path d="M13.7142 13.7146H12V15.4288H13.7142V13.7146Z" fill="#96A5C3"/>
<path d="M15.429 13.7146H13.7148V15.4288H15.429V13.7146Z" fill="#96A5C3"/>
<path d="M17.1438 13.7146H15.4297V15.4288H17.1438V13.7146Z" fill="#96A5C3"/>
<path d="M18.8567 13.7146H17.1426V15.4288H18.8567V13.7146Z" fill="#96A5C3"/>
<path d="M20.5716 13.7146H18.8574V15.4288H20.5716V13.7146Z" fill="#984641"/>
<path d="M5.14385 15.4288H3.42969V17.1429H5.14385V15.4288Z" fill="#984641"/>
<path d="M6.85674 15.4288H5.14258V17.1429H6.85674V15.4288Z" fill="#C07153"/>
<path d="M8.57158 15.4288H6.85742V17.1429H8.57158V15.4288Z" fill="#C07153"/>
<path d="M10.2864 15.4288H8.57227V17.1429H10.2864V15.4288Z" fill="#633D4C"/>
<path d="M11.9993 15.4288H10.2852V17.1429H11.9993V15.4288Z" fill="#633D4C"/>
<path d="M13.7142 15.4288H12V17.1429H13.7142V15.4288Z" fill="#633D4C"/>
<path d="M15.429 15.4288H13.7148V17.1429H15.429V15.4288Z" fill="#984641"/>
<path d="M17.1438 15.4288H15.4297V17.1429H17.1438V15.4288Z" fill="#984641"/>
<path d="M18.8567 15.4288H17.1426V17.1429H18.8567V15.4288Z" fill="#633D4C"/>
<path d="M3.429 17.1429H1.71484V18.8571H3.429V17.1429Z" fill="#984641"/>
<path d="M5.14385 17.1429H3.42969V18.8571H5.14385V17.1429Z" fill="#C07153"/>
<path d="M6.85674 17.1429H5.14258V18.8571H6.85674V17.1429Z" fill="#C07153"/>
<path d="M8.57158 17.1429H6.85742V18.8571H8.57158V17.1429Z" fill="#984641"/>
<path d="M10.2864 17.1429H8.57227V18.8571H10.2864V17.1429Z" fill="#633D4C"/>
<path d="M1.71416 18.8571H0V20.5712H1.71416V18.8571Z" fill="#984641"/>
<path d="M3.429 18.8571H1.71484V20.5712H3.429V18.8571Z" fill="#C07153"/>
<path d="M5.14385 18.8571H3.42969V20.5712H5.14385V18.8571Z" fill="#C07153"/>
<path d="M6.85674 18.8571H5.14258V20.5712H6.85674V18.8571Z" fill="#984641"/>
<path d="M8.57158 18.8571H6.85742V20.5712H8.57158V18.8571Z" fill="#633D4C"/>
<path d="M1.71416 20.5717H0V22.2858H1.71416V20.5717Z" fill="#633D4C"/>
<path d="M3.429 20.5717H1.71484V22.2858H3.429V20.5717Z" fill="#984641"/>
<path d="M5.14385 20.5717H3.42969V22.2858H5.14385V20.5717Z" fill="#984641"/>
<path d="M6.85674 20.5717H5.14258V22.2858H6.85674V20.5717Z" fill="#633D4C"/>
<path d="M3.429 22.2858H1.71484V24H3.429V22.2858Z" fill="#633D4C"/>
<path d="M5.14385 22.2858H3.42969V24H5.14385V22.2858Z" fill="#633D4C"/>
</g>
<defs>
<clipPath id="clip0_97_18800">
<rect width="24" height="24" fill="white"/>
</clipPath>
</defs>
</svg>
