<svg width="24" height="24" viewBox="0 0 24 24" fill="none" xmlns="http://www.w3.org/2000/svg">
  <path d="M11.25 4.5H10.5V5.25H11.25V4.5Z" fill="#C41411" />
  <path d="M12 4.5H11.25V5.25H12V4.5Z" fill="#C41411" />
  <path d="M12.75 4.5H12V5.25H12.75V4.5Z" fill="#C41411" />
  <path d="M13.5 4.5H12.75V5.25H13.5V4.5Z" fill="#C41411" />
  <path d="M9.75 5.25H9V6H9.75V5.25Z" fill="#C41411" />
  <path d="M10.5 5.25H9.75V6H10.5V5.25Z" fill="#C41411" />
  <path d="M11.25 5.25H10.5V6H11.25V5.25Z" fill="#D01716" />
  <path d="M12 5.25H11.25V6H12V5.25Z" fill="#D01716" />
  <path d="M12.75 5.25H12V6H12.75V5.25Z" fill="#D01716" />
  <path d="M13.5 5.25H12.75V6H13.5V5.25Z" fill="#D01716" />
  <path d="M14.25 5.25H13.5V6H14.25V5.25Z" fill="#C41411" />
  <path d="M15 5.25H14.25V6H15V5.25Z" fill="#C41411" />
  <path d="M9 6H8.25V6.75H9V6Z" fill="#C41411" />
  <path d="M9.75 6H9V6.75H9.75V6Z" fill="#D01716" />
  <path d="M10.5 6H9.75V6.75H10.5V6Z" fill="#D01716" />
  <path d="M11.25 6H10.5V6.75H11.25V6Z" fill="#D01716" />
  <path d="M12 6H11.25V6.75H12V6Z" fill="#D01716" />
  <path d="M12.75 6H12V6.75H12.75V6Z" fill="#D01716" />
  <path d="M13.5 6H12.75V6.75H13.5V6Z" fill="#D01716" />
  <path d="M14.25 6H13.5V6.75H14.25V6Z" fill="#D01716" />
  <path d="M15 6H14.25V6.75H15V6Z" fill="#D01716" />
  <path d="M15.75 6H15V6.75H15.75V6Z" fill="#C41411" />
  <path d="M8.25 6.75H7.5V7.5H8.25V6.75Z" fill="#C41411" />
  <path d="M9 6.75H8.25V7.5H9V6.75Z" fill="#D01716" />
  <path d="M9.75 6.75H9V7.5H9.75V6.75Z" fill="#D01716" />
  <path d="M10.5 6.75H9.75V7.5H10.5V6.75Z" fill="#D01716" />
  <path d="M11.25 6.75H10.5V7.5H11.25V6.75Z" fill="#D01716" />
  <path d="M12 6.75H11.25V7.5H12V6.75Z" fill="#D01716" />
  <path d="M12.75 6.75H12V7.5H12.75V6.75Z" fill="#D01716" />
  <path d="M13.5 6.75H12.75V7.5H13.5V6.75Z" fill="#D01716" />
  <path d="M14.25 6.75H13.5V7.5H14.25V6.75Z" fill="#D01716" />
  <path d="M15 6.75H14.25V7.5H15V6.75Z" fill="#D01716" />
  <path d="M15.75 6.75H15V7.5H15.75V6.75Z" fill="#D01716" />
  <path d="M16.5 6.75H15.75V7.5H16.5V6.75Z" fill="#C41411" />
  <path d="M7.5 7.5H6.75V8.25H7.5V7.5Z" fill="#C41411" />
  <path d="M8.25 7.5H7.5V8.25H8.25V7.5Z" fill="#D11A18" />
  <path d="M9 7.5H8.25V8.25H9V7.5Z" fill="#D11A18" />
  <path d="M9.75 7.5H9V8.25H9.75V7.5Z" fill="#D11918" />
  <path d="M10.5 7.5H9.75V8.25H10.5V7.5Z" fill="#D01917" />
  <path d="M11.25 7.5H10.5V8.25H11.25V7.5Z" fill="#D01817" />
  <path d="M12 7.5H11.25V8.25H12V7.5Z" fill="#D01816" />
  <path d="M12.75 7.5H12V8.25H12.75V7.5Z" fill="#D01716" />
  <path d="M13.5 7.5H12.75V8.25H13.5V7.5Z" fill="#D01716" />
  <path d="M14.25 7.5H13.5V8.25H14.25V7.5Z" fill="#D01716" />
  <path d="M15 7.5H14.25V8.25H15V7.5Z" fill="#D01716" />
  <path d="M15.75 7.5H15V8.25H15.75V7.5Z" fill="#D01716" />
  <path d="M16.5 7.5H15.75V8.25H16.5V7.5Z" fill="#D01716" />
  <path d="M17.25 7.5H16.5V8.25H17.25V7.5Z" fill="#C41411" />
  <path d="M7.5 8.25H6.75V9H7.5V8.25Z" fill="#C41411" />
  <path d="M8.25 8.25H7.5V9H8.25V8.25Z" fill="#D4201D" />
  <path d="M9 8.25H8.25V9H9V8.25Z" fill="#D31F1C" />
  <path d="M9.75 8.25H9V9H9.75V8.25Z" fill="#D31F1C" />
  <path d="M10.5 8.25H9.75V9H10.5V8.25Z" fill="#D31E1B" />
  <path d="M11.25 8.25H10.5V9H11.25V8.25Z" fill="#D31E1B" />
  <path d="M12 8.25H11.25V9H12V8.25Z" fill="white" />
  <path d="M12.75 8.25H12V9H12.75V8.25Z" fill="white" />
  <path d="M13.5 8.25H12.75V9H13.5V8.25Z" fill="#D21C1A" />
  <path d="M14.25 8.25H13.5V9H14.25V8.25Z" fill="#D21B19" />
  <path d="M15 8.25H14.25V9H15V8.25Z" fill="#D11B19" />
  <path d="M15.75 8.25H15V9H15.75V8.25Z" fill="#D11A18" />
  <path d="M16.5 8.25H15.75V9H16.5V8.25Z" fill="#D11A18" />
  <path d="M17.25 8.25H16.5V9H17.25V8.25Z" fill="#C41411" />
  <path d="M6.75 9H6V9.75H6.75V9Z" fill="#C41411" />
  <path d="M7.5 9H6.75V9.75H7.5V9Z" fill="#D62621" />
  <path d="M8.25 9H7.5V9.75H8.25V9Z" fill="#D62521" />
  <path d="M9 9H8.25V9.75H9V9Z" fill="#D62520" />
  <path d="M9.75 9H9V9.75H9.75V9Z" fill="#D52420" />
  <path d="M10.5 9H9.75V9.75H10.5V9Z" fill="#D5241F" />
  <path d="M11.25 9H10.5V9.75H11.25V9Z" fill="white" />
  <path d="M13.5 9H12.75V9.75H13.5V9Z" fill="white" />
  <path d="M14.25 9H13.5V9.75H14.25V9Z" fill="#D4211D" />
  <path d="M15 9H14.25V9.75H15V9Z" fill="#D4201D" />
  <path d="M15.75 9H15V9.75H15.75V9Z" fill="#D4201D" />
  <path d="M16.5 9H15.75V9.75H16.5V9Z" fill="#D31F1C" />
  <path d="M17.25 9H16.5V9.75H17.25V9Z" fill="#D31F1C" />
  <path d="M18 9H17.25V9.75H18V9Z" fill="#C41411" />
  <path d="M6.75 9.75H6V10.5H6.75V9.75Z" fill="#C41411" />
  <path d="M7.5 9.75H6.75V10.5H7.5V9.75Z" fill="#D92B25" />
  <path d="M8.25 9.75H7.5V10.5H8.25V9.75Z" fill="#D82B25" />
  <path d="M9 9.75H8.25V10.5H9V9.75Z" fill="#D82A24" />
  <path d="M9.75 9.75H9V10.5H9.75V9.75Z" fill="#D82A24" />
  <path d="M10.5 9.75H9.75V10.5H10.5V9.75Z" fill="white" />
  <path d="M14.25 9.75H13.5V10.5H14.25V9.75Z" fill="white" />
  <path d="M15 9.75H14.25V10.5H15V9.75Z" fill="#D62621" />
  <path d="M15.75 9.75H15V10.5H15.75V9.75Z" fill="#D62521" />
  <path d="M16.5 9.75H15.75V10.5H16.5V9.75Z" fill="#D62520" />
  <path d="M17.25 9.75H16.5V10.5H17.25V9.75Z" fill="#D52420" />
  <path d="M18 9.75H17.25V10.5H18V9.75Z" fill="#C41411" />
  <path d="M6.75 10.5H6V11.25H6.75V10.5Z" fill="#C41411" />
  <path d="M7.5 10.5H6.75V11.25H7.5V10.5Z" fill="#DB3129" />
  <path d="M8.25 10.5H7.5V11.25H8.25V10.5Z" fill="#DB3029" />
  <path d="M9 10.5H8.25V11.25H9V10.5Z" fill="#DA3029" />
  <path d="M9.75 10.5H9V11.25H9.75V10.5Z" fill="#DA2F28" />
  <path d="M10.5 10.5H9.75V11.25H10.5V10.5Z" fill="white" />
  <path d="M14.25 10.5H13.5V11.25H14.25V10.5Z" fill="white" />
  <path d="M15 10.5H14.25V11.25H15V10.5Z" fill="#D92B25" />
  <path d="M15.75 10.5H15V11.25H15.75V10.5Z" fill="#D82B25" />
  <path d="M16.5 10.5H15.75V11.25H16.5V10.5Z" fill="#D82A24" />
  <path d="M17.25 10.5H16.5V11.25H17.25V10.5Z" fill="#D82A24" />
  <path d="M18 10.5H17.25V11.25H18V10.5Z" fill="#C41411" />
  <path d="M6.75 11.25H6V12H6.75V11.25Z" fill="#C41411" />
  <path d="M7.5 11.25H6.75V12H7.5V11.25Z" fill="#DD362E" />
  <path d="M8.25 11.25H7.5V12H8.25V11.25Z" fill="#DD362D" />
  <path d="M9 11.25H8.25V12H9V11.25Z" fill="#DD352D" />
  <path d="M9.75 11.25H9V12H9.75V11.25Z" fill="#DD342C" />
  <path d="M10.5 11.25H9.75V12H10.5V11.25Z" fill="#DC342C" />
  <path d="M11.25 11.25H10.5V12H11.25V11.25Z" fill="white" />
  <path d="M13.5 11.25H12.75V12H13.5V11.25Z" fill="white" />
  <path d="M14.25 11.25H13.5V12H14.25V11.25Z" fill="#DB312A" />
  <path d="M15 11.25H14.25V12H15V11.25Z" fill="#DB3129" />
  <path d="M15.75 11.25H15V12H15.75V11.25Z" fill="#DB3029" />
  <path d="M16.5 11.25H15.75V12H16.5V11.25Z" fill="#DA3029" />
  <path d="M17.25 11.25H16.5V12H17.25V11.25Z" fill="#DA2F28" />
  <path d="M18 11.25H17.25V12H18V11.25Z" fill="#C41411" />
  <path d="M7.5 12H6.75V12.75H7.5V12Z" fill="#C41411" />
  <path d="M8.25 12H7.5V12.75H8.25V12Z" fill="#DF3B31" />
  <path d="M9 12H8.25V12.75H9V12Z" fill="#DF3A31" />
  <path d="M9.75 12H9V12.75H9.75V12Z" fill="#DF3A31" />
  <path d="M10.5 12H9.75V12.75H10.5V12Z" fill="#DF3930" />
  <path d="M11.25 12H10.5V12.75H11.25V12Z" fill="#DE3930" />
  <path d="M12 12H11.25V12.75H12V12Z" fill="white" />
  <path d="M12.75 12H12V12.75H12.75V12Z" fill="white" />
  <path d="M13.5 12H12.75V12.75H13.5V12Z" fill="#DE372E" />
  <path d="M14.25 12H13.5V12.75H14.25V12Z" fill="#DE372E" />
  <path d="M15 12H14.25V12.75H15V12Z" fill="#DD362E" />
  <path d="M15.75 12H15V12.75H15.75V12Z" fill="#DD362D" />
  <path d="M16.5 12H15.75V12.75H16.5V12Z" fill="#DD352D" />
  <path d="M17.25 12H16.5V12.75H17.25V12Z" fill="#C41411" />
  <path d="M7.5 12.75H6.75V13.5H7.5V12.75Z" fill="#C41411" />
  <path d="M8.25 12.75H7.5V13.5H8.25V12.75Z" fill="#E24036" />
  <path d="M9 12.75H8.25V13.5H9V12.75Z" fill="#E24035" />
  <path d="M9.75 12.75H9V13.5H9.75V12.75Z" fill="#E13F35" />
  <path d="M10.5 12.75H9.75V13.5H10.5V12.75Z" fill="#E13F34" />
  <path d="M11.25 12.75H10.5V13.5H11.25V12.75Z" fill="#E13E34" />
  <path d="M12 12.75H11.25V13.5H12V12.75Z" fill="#E13E33" />
  <path d="M12.75 12.75H12V13.5H12.75V12.75Z" fill="#E03D33" />
  <path d="M13.5 12.75H12.75V13.5H13.5V12.75Z" fill="#E03D33" />
  <path d="M14.25 12.75H13.5V13.5H14.25V12.75Z" fill="#E03C32" />
  <path d="M15 12.75H14.25V13.5H15V12.75Z" fill="#E03C32" />
  <path d="M15.75 12.75H15V13.5H15.75V12.75Z" fill="#DF3B31" />
  <path d="M16.5 12.75H15.75V13.5H16.5V12.75Z" fill="#DF3A31" />
  <path d="M17.25 12.75H16.5V13.5H17.25V12.75Z" fill="#C41411" />
  <path d="M8.25 13.5H7.5V14.25H8.25V13.5Z" fill="#C41411" />
  <path d="M9 13.5H8.25V14.25H9V13.5Z" fill="#E44539" />
  <path d="M9.75 13.5H9V14.25H9.75V13.5Z" fill="#E44539" />
  <path d="M10.5 13.5H9.75V14.25H10.5V13.5Z" fill="#E34438" />
  <path d="M11.25 13.5H10.5V14.25H11.25V13.5Z" fill="#E34438" />
  <path d="M12 13.5H11.25V14.25H12V13.5Z" fill="#E34338" />
  <path d="M12.75 13.5H12V14.25H12.75V13.5Z" fill="#E34337" />
  <path d="M13.5 13.5H12.75V14.25H13.5V13.5Z" fill="#E34237" />
  <path d="M14.25 13.5H13.5V14.25H14.25V13.5Z" fill="#E24236" />
  <path d="M15 13.5H14.25V14.25H15V13.5Z" fill="#E24136" />
  <path d="M15.75 13.5H15V14.25H15.75V13.5Z" fill="#E24036" />
  <path d="M16.5 13.5H15.75V14.25H16.5V13.5Z" fill="#C41411" />
  <path d="M9 14.25H8.25V15H9V14.25Z" fill="#C41411" />
  <path d="M9.75 14.25H9V15H9.75V14.25Z" fill="#E64A3D" />
  <path d="M10.5 14.25H9.75V15H10.5V14.25Z" fill="#E64A3D" />
  <path d="M11.25 14.25H10.5V15H11.25V14.25Z" fill="#E6493C" />
  <path d="M12 14.25H11.25V15H12V14.25Z" fill="#E5493C" />
  <path d="M12.75 14.25H12V15H12.75V14.25Z" fill="#E5483B" />
  <path d="M13.5 14.25H12.75V15H13.5V14.25Z" fill="#E5483B" />
  <path d="M14.25 14.25H13.5V15H14.25V14.25Z" fill="#E5473B" />
  <path d="M15 14.25H14.25V15H15V14.25Z" fill="#E4463A" />
  <path d="M15.75 14.25H15V15H15.75V14.25Z" fill="#C41411" />
  <path d="M9.75 15H9V15.75H9.75V15Z" fill="#C41411" />
  <path d="M10.5 15H9.75V15.75H10.5V15Z" fill="#E84E40" />
  <path d="M11.25 15H10.5V15.75H11.25V15Z" fill="#E84E40" />
  <path d="M12 15H11.25V15.75H12V15Z" fill="#E84E40" />
  <path d="M12.75 15H12V15.75H12.75V15Z" fill="#E84E40" />
  <path d="M13.5 15H12.75V15.75H13.5V15Z" fill="#E74D3F" />
  <path d="M14.25 15H13.5V15.75H14.25V15Z" fill="#E74C3F" />
  <path d="M15 15H14.25V15.75H15V15Z" fill="#C41411" />
  <path d="M10.5 15.75H9.75V16.5H10.5V15.75Z" fill="#C41411" />
  <path d="M11.25 15.75H10.5V16.5H11.25V15.75Z" fill="#E84E40" />
  <path d="M12 15.75H11.25V16.5H12V15.75Z" fill="#E84E40" />
  <path d="M12.75 15.75H12V16.5H12.75V15.75Z" fill="#E84E40" />
  <path d="M13.5 15.75H12.75V16.5H13.5V15.75Z" fill="#E84E40" />
  <path d="M14.25 15.75H13.5V16.5H14.25V15.75Z" fill="#C41411" />
  <path d="M10.5 16.5H9.75V17.25H10.5V16.5Z" fill="#C41411" />
  <path d="M11.25 16.5H10.5V17.25H11.25V16.5Z" fill="#E84E40" />
  <path d="M12 16.5H11.25V17.25H12V16.5Z" fill="#E84E40" />
  <path d="M12.75 16.5H12V17.25H12.75V16.5Z" fill="#E84E40" />
  <path d="M13.5 16.5H12.75V17.25H13.5V16.5Z" fill="#E84E40" />
  <path d="M14.25 16.5H13.5V17.25H14.25V16.5Z" fill="#C41411" />
  <path d="M11.25 17.25H10.5V18H11.25V17.25Z" fill="#C41411" />
  <path d="M12 17.25H11.25V18H12V17.25Z" fill="#E84E40" />
  <path d="M12.75 17.25H12V18H12.75V17.25Z" fill="#E84E40" />
  <path d="M13.5 17.25H12.75V18H13.5V17.25Z" fill="#C41411" />
  <path d="M11.25 18H10.5V18.75H11.25V18Z" fill="#C41411" />
  <path d="M12 18H11.25V18.75H12V18Z" fill="#E84E40" />
  <path d="M12.75 18H12V18.75H12.75V18Z" fill="#E84E40" />
  <path d="M13.5 18H12.75V18.75H13.5V18Z" fill="#C41411" />
  <path d="M12 18.75H11.25V19.5H12V18.75Z" fill="#C41411" />
  <path d="M12.75 18.75H12V19.5H12.75V18.75Z" fill="#C41411" />
  <path d="M12 19.5H11.25V20.25H12V19.5Z" fill="#C41411" />
  <path d="M12.75 19.5H12V20.25H12.75V19.5Z" fill="#C41411" />
</svg>