<svg width="27" height="28" viewBox="0 0 27 28" fill="none" xmlns="http://www.w3.org/2000/svg">
  <path d="M9.70312 5.14062H9.28125V5.5625H9.70312V5.14062Z" fill="black" />
  <path d="M10.125 5.14062H9.70312V5.5625H10.125V5.14062Z" fill="black" />
  <path d="M10.5469 5.14062H10.125V5.5625H10.5469V5.14062Z" fill="black" />
  <path d="M10.9688 5.14062H10.5469V5.5625H10.9688V5.14062Z" fill="black" />
  <path d="M11.3906 5.14062H10.9688V5.5625H11.3906V5.14062Z" fill="black" />
  <path d="M11.8125 5.14062H11.3906V5.5625H11.8125V5.14062Z" fill="black" />
  <path d="M12.2344 5.14062H11.8125V5.5625H12.2344V5.14062Z" fill="black" />
  <path d="M12.6562 5.14062H12.2344V5.5625H12.6562V5.14062Z" fill="black" />
  <path d="M13.0781 5.14062H12.6562V5.5625H13.0781V5.14062Z" fill="black" />
  <path d="M13.5 5.14062H13.0781V5.5625H13.5V5.14062Z" fill="black" />
  <path d="M13.9219 5.14062H13.5V5.5625H13.9219V5.14062Z" fill="black" />
  <path d="M14.3438 5.14062H13.9219V5.5625H14.3438V5.14062Z" fill="black" />
  <path d="M14.7656 5.14062H14.3438V5.5625H14.7656V5.14062Z" fill="black" />
  <path d="M15.1875 5.14062H14.7656V5.5625H15.1875V5.14062Z" fill="black" />
  <path d="M15.6094 5.14062H15.1875V5.5625H15.6094V5.14062Z" fill="black" />
  <path d="M16.0312 5.14062H15.6094V5.5625H16.0312V5.14062Z" fill="black" />
  <path d="M16.4531 5.14062H16.0312V5.5625H16.4531V5.14062Z" fill="black" />
  <path d="M16.875 5.14062H16.4531V5.5625H16.875V5.14062Z" fill="black" />
  <path d="M17.2969 5.14062H16.875V5.5625H17.2969V5.14062Z" fill="black" />
  <path d="M17.7188 5.14062H17.2969V5.5625H17.7188V5.14062Z" fill="black" />
  <path d="M18.1406 5.14062H17.7188V5.5625H18.1406V5.14062Z" fill="black" />
  <path d="M18.5625 5.14062H18.1406V5.5625H18.5625V5.14062Z" fill="#CBDBFC" />
  <path d="M18.9844 5.14062H18.5625V5.5625H18.9844V5.14062Z" fill="#CBDBFC" />
  <path d="M19.4062 5.14062H18.9844V5.5625H19.4062V5.14062Z" fill="#CBDBFC" />
  <path d="M9.70312 5.5625H9.28125V5.98438H9.70312V5.5625Z" fill="black" />
  <path d="M10.125 5.5625H9.70312V5.98438H10.125V5.5625Z" fill="#639BFF" />
  <path d="M10.5469 5.5625H10.125V5.98438H10.5469V5.5625Z" fill="#639BFF" />
  <path d="M10.9688 5.5625H10.5469V5.98438H10.9688V5.5625Z" fill="#639BFF" />
  <path d="M11.3906 5.5625H10.9688V5.98438H11.3906V5.5625Z" fill="#639BFF" />
  <path d="M11.8125 5.5625H11.3906V5.98438H11.8125V5.5625Z" fill="#639BFF" />
  <path d="M12.2344 5.5625H11.8125V5.98438H12.2344V5.5625Z" fill="#639BFF" />
  <path d="M12.6562 5.5625H12.2344V5.98438H12.6562V5.5625Z" fill="#639BFF" />
  <path d="M13.0781 5.5625H12.6562V5.98438H13.0781V5.5625Z" fill="#639BFF" />
  <path d="M13.5 5.5625H13.0781V5.98438H13.5V5.5625Z" fill="#639BFF" />
  <path d="M13.9219 5.5625H13.5V5.98438H13.9219V5.5625Z" fill="#639BFF" />
  <path d="M14.3438 5.5625H13.9219V5.98438H14.3438V5.5625Z" fill="#639BFF" />
  <path d="M14.7656 5.5625H14.3438V5.98438H14.7656V5.5625Z" fill="#639BFF" />
  <path d="M15.1875 5.5625H14.7656V5.98438H15.1875V5.5625Z" fill="#639BFF" />
  <path d="M15.6094 5.5625H15.1875V5.98438H15.6094V5.5625Z" fill="#639BFF" />
  <path d="M16.0312 5.5625H15.6094V5.98438H16.0312V5.5625Z" fill="#639BFF" />
  <path d="M16.4531 5.5625H16.0312V5.98438H16.4531V5.5625Z" fill="#639BFF" />
  <path d="M16.875 5.5625H16.4531V5.98438H16.875V5.5625Z" fill="#639BFF" />
  <path d="M17.2969 5.5625H16.875V5.98438H17.2969V5.5625Z" fill="#639BFF" />
  <path d="M17.7188 5.5625H17.2969V5.98438H17.7188V5.5625Z" fill="#639BFF" />
  <path d="M18.1406 5.5625H17.7188V5.98438H18.1406V5.5625Z" fill="black" />
  <path d="M18.5625 5.5625H18.1406V5.98438H18.5625V5.5625Z" fill="#CBDBFC" />
  <path d="M18.9844 5.5625H18.5625V5.98438H18.9844V5.5625Z" fill="#CBDBFC" />
  <path d="M19.4062 5.5625H18.9844V5.98438H19.4062V5.5625Z" fill="#CBDBFC" />
  <path d="M9.70312 5.98438H9.28125V6.40625H9.70312V5.98438Z" fill="black" />
  <path d="M10.125 5.98438H9.70312V6.40625H10.125V5.98438Z" fill="#639BFF" />
  <path d="M10.5469 5.98438H10.125V6.40625H10.5469V5.98438Z" fill="#639BFF" />
  <path d="M10.9688 5.98438H10.5469V6.40625H10.9688V5.98438Z" fill="#639BFF" />
  <path d="M11.3906 5.98438H10.9688V6.40625H11.3906V5.98438Z" fill="#639BFF" />
  <path d="M11.8125 5.98438H11.3906V6.40625H11.8125V5.98438Z" fill="#639BFF" />
  <path d="M12.2344 5.98438H11.8125V6.40625H12.2344V5.98438Z" fill="#639BFF" />
  <path d="M12.6562 5.98438H12.2344V6.40625H12.6562V5.98438Z" fill="#639BFF" />
  <path d="M13.0781 5.98438H12.6562V6.40625H13.0781V5.98438Z" fill="#639BFF" />
  <path d="M13.5 5.98438H13.0781V6.40625H13.5V5.98438Z" fill="#639BFF" />
  <path d="M13.9219 5.98438H13.5V6.40625H13.9219V5.98438Z" fill="#639BFF" />
  <path d="M14.3438 5.98438H13.9219V6.40625H14.3438V5.98438Z" fill="#639BFF" />
  <path d="M14.7656 5.98438H14.3438V6.40625H14.7656V5.98438Z" fill="#639BFF" />
  <path d="M15.1875 5.98438H14.7656V6.40625H15.1875V5.98438Z" fill="#639BFF" />
  <path d="M15.6094 5.98438H15.1875V6.40625H15.6094V5.98438Z" fill="#639BFF" />
  <path d="M16.0312 5.98438H15.6094V6.40625H16.0312V5.98438Z" fill="#639BFF" />
  <path d="M16.4531 5.98438H16.0312V6.40625H16.4531V5.98438Z" fill="#639BFF" />
  <path d="M16.875 5.98438H16.4531V6.40625H16.875V5.98438Z" fill="#639BFF" />
  <path d="M17.2969 5.98438H16.875V6.40625H17.2969V5.98438Z" fill="#639BFF" />
  <path d="M17.7188 5.98438H17.2969V6.40625H17.7188V5.98438Z" fill="#639BFF" />
  <path d="M18.1406 5.98438H17.7188V6.40625H18.1406V5.98438Z" fill="black" />
  <path d="M18.5625 5.98438H18.1406V6.40625H18.5625V5.98438Z" fill="#CBDBFC" />
  <path d="M18.9844 5.98438H18.5625V6.40625H18.9844V5.98438Z" fill="#CBDBFC" />
  <path d="M9.28125 6.40625H8.85938V6.82812H9.28125V6.40625Z" fill="black" />
  <path d="M9.70312 6.40625H9.28125V6.82812H9.70312V6.40625Z" fill="#639BFF" />
  <path d="M10.125 6.40625H9.70312V6.82812H10.125V6.40625Z" fill="#639BFF" />
  <path d="M10.5469 6.40625H10.125V6.82812H10.5469V6.40625Z" fill="#639BFF" />
  <path d="M10.9688 6.40625H10.5469V6.82812H10.9688V6.40625Z" fill="#639BFF" />
  <path d="M11.3906 6.40625H10.9688V6.82812H11.3906V6.40625Z" fill="#639BFF" />
  <path d="M11.8125 6.40625H11.3906V6.82812H11.8125V6.40625Z" fill="#62A6F9" />
  <path d="M12.2344 6.40625H11.8125V6.82812H12.2344V6.40625Z" fill="#61B1F3" />
  <path d="M12.6562 6.40625H12.2344V6.82812H12.6562V6.40625Z" fill="#5FCDE4" />
  <path d="M13.0781 6.40625H12.6562V6.82812H13.0781V6.40625Z" fill="#5FCDE4" />
  <path d="M13.5 6.40625H13.0781V6.82812H13.5V6.40625Z" fill="#5FCDE4" />
  <path d="M13.9219 6.40625H13.5V6.82812H13.9219V6.40625Z" fill="#5FCDE4" />
  <path d="M14.3438 6.40625H13.9219V6.82812H14.3438V6.40625Z" fill="#5FCDE4" />
  <path d="M14.7656 6.40625H14.3438V6.82812H14.7656V6.40625Z" fill="#5FCDE4" />
  <path d="M15.1875 6.40625H14.7656V6.82812H15.1875V6.40625Z" fill="#5FCDE4" />
  <path d="M15.6094 6.40625H15.1875V6.82812H15.6094V6.40625Z" fill="#5FCDE4" />
  <path d="M16.0312 6.40625H15.6094V6.82812H16.0312V6.40625Z" fill="#CBDBFC" />
  <path d="M16.4531 6.40625H16.0312V6.82812H16.4531V6.40625Z" fill="#CBDBFC" />
  <path d="M16.875 6.40625H16.4531V6.82812H16.875V6.40625Z" fill="#639BFF" />
  <path d="M17.2969 6.40625H16.875V6.82812H17.2969V6.40625Z" fill="#639BFF" />
  <path d="M17.7188 6.40625H17.2969V6.82812H17.7188V6.40625Z" fill="black" />
  <path d="M18.1406 6.40625H17.7188V6.82812H18.1406V6.40625Z" fill="#CBDBFC" />
  <path d="M18.5625 6.40625H18.1406V6.82812H18.5625V6.40625Z" fill="#CBDBFC" />
  <path d="M18.9844 6.40625H18.5625V6.82812H18.9844V6.40625Z" fill="#CBDBFC" />
  <path d="M9.28125 6.82812H8.85938V7.25H9.28125V6.82812Z" fill="black" />
  <path d="M9.70312 6.82812H9.28125V7.25H9.70312V6.82812Z" fill="#639BFF" />
  <path d="M10.125 6.82812H9.70312V7.25H10.125V6.82812Z" fill="#639BFF" />
  <path d="M10.5469 6.82812H10.125V7.25H10.5469V6.82812Z" fill="#639BFF" />
  <path d="M10.9688 6.82812H10.5469V7.25H10.9688V6.82812Z" fill="#639BFF" />
  <path d="M11.3906 6.82812H10.9688V7.25H11.3906V6.82812Z" fill="#62A0FC" />
  <path d="M11.8125 6.82812H11.3906V7.25H11.8125V6.82812Z" fill="#61B1F3" />
  <path d="M12.2344 6.82812H11.8125V7.25H12.2344V6.82812Z" fill="#5FC1EA" />
  <path d="M12.6562 6.82812H12.2344V7.25H12.6562V6.82812Z" fill="#5FCDE4" />
  <path d="M13.0781 6.82812H12.6562V7.25H13.0781V6.82812Z" fill="#5FCDE4" />
  <path d="M13.5 6.82812H13.0781V7.25H13.5V6.82812Z" fill="#5FCDE4" />
  <path d="M13.9219 6.82812H13.5V7.25H13.9219V6.82812Z" fill="#5FCDE4" />
  <path d="M14.3438 6.82812H13.9219V7.25H14.3438V6.82812Z" fill="#5FCDE4" />
  <path d="M14.7656 6.82812H14.3438V7.25H14.7656V6.82812Z" fill="#5FCDE4" />
  <path d="M15.1875 6.82812H14.7656V7.25H15.1875V6.82812Z" fill="#5FCDE4" />
  <path d="M15.6094 6.82812H15.1875V7.25H15.6094V6.82812Z" fill="#5FCDE4" />
  <path d="M16.0312 6.82812H15.6094V7.25H16.0312V6.82812Z" fill="#CBDBFC" />
  <path d="M16.4531 6.82812H16.0312V7.25H16.4531V6.82812Z" fill="#CBDBFC" />
  <path d="M16.875 6.82812H16.4531V7.25H16.875V6.82812Z" fill="#CBDBFC" />
  <path d="M17.2969 6.82812H16.875V7.25H17.2969V6.82812Z" fill="#639BFF" />
  <path d="M17.7188 6.82812H17.2969V7.25H17.7188V6.82812Z" fill="black" />
  <path d="M18.1406 6.82812H17.7188V7.25H18.1406V6.82812Z" fill="#CBDBFC" />
  <path d="M18.5625 6.82812H18.1406V7.25H18.5625V6.82812Z" fill="#CBDBFC" />
  <path d="M9.28125 7.25H8.85938V7.67188H9.28125V7.25Z" fill="black" />
  <path d="M9.70312 7.25H9.28125V7.67188H9.70312V7.25Z" fill="#639BFF" />
  <path d="M10.125 7.25H9.70312V7.67188H10.125V7.25Z" fill="#639BFF" />
  <path d="M10.5469 7.25H10.125V7.67188H10.5469V7.25Z" fill="#639BFF" />
  <path d="M10.9688 7.25H10.5469V7.67188H10.9688V7.25Z" fill="#639BFF" />
  <path d="M11.3906 7.25H10.9688V7.67188H11.3906V7.25Z" fill="#62A6F9" />
  <path d="M11.8125 7.25H11.3906V7.67188H11.8125V7.25Z" fill="#60B6F0" />
  <path d="M12.2344 7.25H11.8125V7.67188H12.2344V7.25Z" fill="#5FC7E7" />
  <path d="M12.6562 7.25H12.2344V7.67188H12.6562V7.25Z" fill="#5FCDE4" />
  <path d="M13.0781 7.25H12.6562V7.67188H13.0781V7.25Z" fill="#5FCDE4" />
  <path d="M13.5 7.25H13.0781V7.67188H13.5V7.25Z" fill="#5FCDE4" />
  <path d="M13.9219 7.25H13.5V7.67188H13.9219V7.25Z" fill="#5FCDE4" />
  <path d="M14.3438 7.25H13.9219V7.67188H14.3438V7.25Z" fill="#5FCDE4" />
  <path d="M14.7656 7.25H14.3438V7.67188H14.7656V7.25Z" fill="#5FCDE4" />
  <path d="M15.1875 7.25H14.7656V7.67188H15.1875V7.25Z" fill="#5FCDE4" />
  <path d="M15.6094 7.25H15.1875V7.67188H15.6094V7.25Z" fill="#CBDBFC" />
  <path d="M16.0312 7.25H15.6094V7.67188H16.0312V7.25Z" fill="#CBDBFC" />
  <path d="M16.4531 7.25H16.0312V7.67188H16.4531V7.25Z" fill="#CBDBFC" />
  <path d="M16.875 7.25H16.4531V7.67188H16.875V7.25Z" fill="#5B6EE1" />
  <path d="M17.2969 7.25H16.875V7.67188H17.2969V7.25Z" fill="black" />
  <path d="M17.7188 7.25H17.2969V7.67188H17.7188V7.25Z" fill="#CBDBFC" />
  <path d="M18.1406 7.25H17.7188V7.67188H18.1406V7.25Z" fill="#CBDBFC" />
  <path d="M18.5625 7.25H18.1406V7.67188H18.5625V7.25Z" fill="#CBDBFC" />
  <path d="M9.28125 7.67188H8.85938V8.09375H9.28125V7.67188Z" fill="black" />
  <path d="M9.70312 7.67188H9.28125V8.09375H9.70312V7.67188Z" fill="#639BFF" />
  <path d="M10.125 7.67188H9.70312V8.09375H10.125V7.67188Z" fill="#639BFF" />
  <path d="M10.5469 7.67188H10.125V8.09375H10.5469V7.67188Z" fill="#639BFF" />
  <path d="M10.9688 7.67188H10.5469V8.09375H10.9688V7.67188Z" fill="#639BFF" />
  <path d="M11.3906 7.67188H10.9688V8.09375H11.3906V7.67188Z" fill="#61ABF6" />
  <path d="M11.8125 7.67188H11.3906V8.09375H11.8125V7.67188Z" fill="#60BCED" />
  <path d="M12.2344 7.67188H11.8125V8.09375H12.2344V7.67188Z" fill="#5FCDE4" />
  <path d="M12.6562 7.67188H12.2344V8.09375H12.6562V7.67188Z" fill="#5FCDE4" />
  <path d="M13.0781 7.67188H12.6562V8.09375H13.0781V7.67188Z" fill="#5FCDE4" />
  <path d="M13.5 7.67188H13.0781V8.09375H13.5V7.67188Z" fill="#5FCDE4" />
  <path d="M13.9219 7.67188H13.5V8.09375H13.9219V7.67188Z" fill="#5FCDE4" />
  <path d="M14.3438 7.67188H13.9219V8.09375H14.3438V7.67188Z" fill="#5FCDE4" />
  <path d="M14.7656 7.67188H14.3438V8.09375H14.7656V7.67188Z" fill="#5FCDE4" />
  <path d="M15.1875 7.67188H14.7656V8.09375H15.1875V7.67188Z" fill="#5FCDE4" />
  <path d="M15.6094 7.67188H15.1875V8.09375H15.6094V7.67188Z" fill="#CBDBFC" />
  <path d="M16.0312 7.67188H15.6094V8.09375H16.0312V7.67188Z" fill="#CBDBFC" />
  <path d="M16.4531 7.67188H16.0312V8.09375H16.4531V7.67188Z" fill="#CBDBFC" />
  <path d="M16.875 7.67188H16.4531V8.09375H16.875V7.67188Z" fill="#5B6EE1" />
  <path d="M17.2969 7.67188H16.875V8.09375H17.2969V7.67188Z" fill="black" />
  <path d="M17.7188 7.67188H17.2969V8.09375H17.7188V7.67188Z" fill="#CBDBFC" />
  <path d="M18.1406 7.67188H17.7188V8.09375H18.1406V7.67188Z" fill="#CBDBFC" />
  <path d="M9.28125 8.09375H8.85938V8.51562H9.28125V8.09375Z" fill="black" />
  <path d="M9.70312 8.09375H9.28125V8.51562H9.70312V8.09375Z" fill="#639BFF" />
  <path d="M10.125 8.09375H9.70312V8.51562H10.125V8.09375Z" fill="#639BFF" />
  <path d="M10.5469 8.09375H10.125V8.51562H10.5469V8.09375Z" fill="#639BFF" />
  <path d="M10.9688 8.09375H10.5469V8.51562H10.9688V8.09375Z" fill="#62A0FC" />
  <path d="M11.3906 8.09375H10.9688V8.51562H11.3906V8.09375Z" fill="#61B1F3" />
  <path d="M11.8125 8.09375H11.3906V8.51562H11.8125V8.09375Z" fill="#5FC1EA" />
  <path d="M12.2344 8.09375H11.8125V8.51562H12.2344V8.09375Z" fill="#5FCDE4" />
  <path d="M12.6562 8.09375H12.2344V8.51562H12.6562V8.09375Z" fill="#5FCDE4" />
  <path d="M13.0781 8.09375H12.6562V8.51562H13.0781V8.09375Z" fill="#5FCDE4" />
  <path d="M13.5 8.09375H13.0781V8.51562H13.5V8.09375Z" fill="#5FCDE4" />
  <path d="M13.9219 8.09375H13.5V8.51562H13.9219V8.09375Z" fill="#5FCDE4" />
  <path d="M14.3438 8.09375H13.9219V8.51562H14.3438V8.09375Z" fill="#5FCDE4" />
  <path d="M14.7656 8.09375H14.3438V8.51562H14.7656V8.09375Z" fill="#5FCDE4" />
  <path d="M15.1875 8.09375H14.7656V8.51562H15.1875V8.09375Z" fill="#CBDBFC" />
  <path d="M15.6094 8.09375H15.1875V8.51562H15.6094V8.09375Z" fill="#CBDBFC" />
  <path d="M16.0312 8.09375H15.6094V8.51562H16.0312V8.09375Z" fill="#CBDBFC" />
  <path d="M16.4531 8.09375H16.0312V8.51562H16.4531V8.09375Z" fill="#5B6EE1" />
  <path d="M16.875 8.09375H16.4531V8.51562H16.875V8.09375Z" fill="black" />
  <path d="M17.2969 8.09375H16.875V8.51562H17.2969V8.09375Z" fill="#CBDBFC" />
  <path d="M17.7188 8.09375H17.2969V8.51562H17.7188V8.09375Z" fill="#CBDBFC" />
  <path d="M18.1406 8.09375H17.7188V8.51562H18.1406V8.09375Z" fill="#CBDBFC" />
  <path d="M9.28125 8.51562H8.85938V8.9375H9.28125V8.51562Z" fill="black" />
  <path d="M9.70312 8.51562H9.28125V8.9375H9.70312V8.51562Z" fill="#639BFF" />
  <path d="M10.125 8.51562H9.70312V8.9375H10.125V8.51562Z" fill="#639BFF" />
  <path d="M10.5469 8.51562H10.125V8.9375H10.5469V8.51562Z" fill="#639BFF" />
  <path d="M10.9688 8.51562H10.5469V8.9375H10.9688V8.51562Z" fill="#62A6F9" />
  <path d="M11.3906 8.51562H10.9688V8.9375H11.3906V8.51562Z" fill="#60B6F0" />
  <path d="M11.8125 8.51562H11.3906V8.9375H11.8125V8.51562Z" fill="#5FC7E7" />
  <path d="M12.2344 8.51562H11.8125V8.9375H12.2344V8.51562Z" fill="#5FCDE4" />
  <path d="M12.6562 8.51562H12.2344V8.9375H12.6562V8.51562Z" fill="#5FCDE4" />
  <path d="M13.0781 8.51562H12.6562V8.9375H13.0781V8.51562Z" fill="#5FCDE4" />
  <path d="M13.5 8.51562H13.0781V8.9375H13.5V8.51562Z" fill="#5FCDE4" />
  <path d="M13.9219 8.51562H13.5V8.9375H13.9219V8.51562Z" fill="#5FCDE4" />
  <path d="M14.3438 8.51562H13.9219V8.9375H14.3438V8.51562Z" fill="#5FCDE4" />
  <path d="M14.7656 8.51562H14.3438V8.9375H14.7656V8.51562Z" fill="#5FCDE4" />
  <path d="M15.1875 8.51562H14.7656V8.9375H15.1875V8.51562Z" fill="#CBDBFC" />
  <path d="M15.6094 8.51562H15.1875V8.9375H15.6094V8.51562Z" fill="#CBDBFC" />
  <path d="M16.0312 8.51562H15.6094V8.9375H16.0312V8.51562Z" fill="#CBDBFC" />
  <path d="M16.4531 8.51562H16.0312V8.9375H16.4531V8.51562Z" fill="#5B6EE1" />
  <path d="M16.875 8.51562H16.4531V8.9375H16.875V8.51562Z" fill="black" />
  <path d="M17.2969 8.51562H16.875V8.9375H17.2969V8.51562Z" fill="#CBDBFC" />
  <path d="M17.7188 8.51562H17.2969V8.9375H17.7188V8.51562Z" fill="#CBDBFC" />
  <path d="M8.85938 8.9375H8.4375V9.35938H8.85938V8.9375Z" fill="black" />
  <path d="M9.28125 8.9375H8.85938V9.35938H9.28125V8.9375Z" fill="#639BFF" />
  <path d="M9.70312 8.9375H9.28125V9.35938H9.70312V8.9375Z" fill="#639BFF" />
  <path d="M10.125 8.9375H9.70312V9.35938H10.125V8.9375Z" fill="#639BFF" />
  <path d="M10.5469 8.9375H10.125V9.35938H10.5469V8.9375Z" fill="#639BFF" />
  <path d="M10.9688 8.9375H10.5469V9.35938H10.9688V8.9375Z" fill="#61ABF6" />
  <path d="M11.3906 8.9375H10.9688V9.35938H11.3906V8.9375Z" fill="#60BCED" />
  <path d="M11.8125 8.9375H11.3906V9.35938H11.8125V8.9375Z" fill="#5FCDE4" />
  <path d="M12.2344 8.9375H11.8125V9.35938H12.2344V8.9375Z" fill="#5FCDE4" />
  <path d="M12.6562 8.9375H12.2344V9.35938H12.6562V8.9375Z" fill="#5FCDE4" />
  <path d="M13.0781 8.9375H12.6562V9.35938H13.0781V8.9375Z" fill="#5FCDE4" />
  <path d="M13.5 8.9375H13.0781V9.35938H13.5V8.9375Z" fill="#5FCDE4" />
  <path d="M13.9219 8.9375H13.5V9.35938H13.9219V8.9375Z" fill="#5FCDE4" />
  <path d="M14.3438 8.9375H13.9219V9.35938H14.3438V8.9375Z" fill="#5FCDE4" />
  <path d="M14.7656 8.9375H14.3438V9.35938H14.7656V8.9375Z" fill="#CBDBFC" />
  <path d="M15.1875 8.9375H14.7656V9.35938H15.1875V8.9375Z" fill="#CBDBFC" />
  <path d="M15.6094 8.9375H15.1875V9.35938H15.6094V8.9375Z" fill="#CBDBFC" />
  <path d="M16.0312 8.9375H15.6094V9.35938H16.0312V8.9375Z" fill="#5B6EE1" />
  <path d="M16.4531 8.9375H16.0312V9.35938H16.4531V8.9375Z" fill="black" />
  <path d="M16.875 8.9375H16.4531V9.35938H16.875V8.9375Z" fill="#CBDBFC" />
  <path d="M17.2969 8.9375H16.875V9.35938H17.2969V8.9375Z" fill="#CBDBFC" />
  <path d="M17.7188 8.9375H17.2969V9.35938H17.7188V8.9375Z" fill="#CBDBFC" />
  <path d="M8.85938 9.35938H8.4375V9.78125H8.85938V9.35938Z" fill="black" />
  <path d="M9.28125 9.35938H8.85938V9.78125H9.28125V9.35938Z" fill="#639BFF" />
  <path d="M9.70312 9.35938H9.28125V9.78125H9.70312V9.35938Z" fill="#639BFF" />
  <path d="M10.125 9.35938H9.70312V9.78125H10.125V9.35938Z" fill="#639BFF" />
  <path d="M10.5469 9.35938H10.125V9.78125H10.5469V9.35938Z" fill="#639BFF" />
  <path d="M10.9688 9.35938H10.5469V9.78125H10.9688V9.35938Z" fill="#61ABF6" />
  <path d="M11.3906 9.35938H10.9688V9.78125H11.3906V9.35938Z" fill="#60BCED" />
  <path d="M11.8125 9.35938H11.3906V9.78125H11.8125V9.35938Z" fill="#5FCDE4" />
  <path d="M12.2344 9.35938H11.8125V9.78125H12.2344V9.35938Z" fill="#5FCDE4" />
  <path d="M12.6562 9.35938H12.2344V9.78125H12.6562V9.35938Z" fill="#5FCDE4" />
  <path d="M13.0781 9.35938H12.6562V9.78125H13.0781V9.35938Z" fill="#5FCDE4" />
  <path d="M13.5 9.35938H13.0781V9.78125H13.5V9.35938Z" fill="#5FCDE4" />
  <path d="M13.9219 9.35938H13.5V9.78125H13.9219V9.35938Z" fill="#5FCDE4" />
  <path d="M14.3438 9.35938H13.9219V9.78125H14.3438V9.35938Z" fill="#5FCDE4" />
  <path d="M14.7656 9.35938H14.3438V9.78125H14.7656V9.35938Z" fill="#CBDBFC" />
  <path d="M15.1875 9.35938H14.7656V9.78125H15.1875V9.35938Z" fill="#CBDBFC" />
  <path d="M15.6094 9.35938H15.1875V9.78125H15.6094V9.35938Z" fill="#CBDBFC" />
  <path d="M16.0312 9.35938H15.6094V9.78125H16.0312V9.35938Z" fill="#5B6EE1" />
  <path d="M16.4531 9.35938H16.0312V9.78125H16.4531V9.35938Z" fill="black" />
  <path d="M16.875 9.35938H16.4531V9.78125H16.875V9.35938Z" fill="#CBDBFC" />
  <path d="M17.2969 9.35938H16.875V9.78125H17.2969V9.35938Z" fill="#CBDBFC" />
  <path d="M8.85938 9.78125H8.4375V10.2031H8.85938V9.78125Z" fill="black" />
  <path d="M9.28125 9.78125H8.85938V10.2031H9.28125V9.78125Z" fill="#639BFF" />
  <path d="M9.70312 9.78125H9.28125V10.2031H9.70312V9.78125Z" fill="#639BFF" />
  <path d="M10.125 9.78125H9.70312V10.2031H10.125V9.78125Z" fill="#639BFF" />
  <path d="M10.5469 9.78125H10.125V10.2031H10.5469V9.78125Z" fill="#639BFF" />
  <path d="M10.9688 9.78125H10.5469V10.2031H10.9688V9.78125Z" fill="#61B1F3" />
  <path d="M11.3906 9.78125H10.9688V10.2031H11.3906V9.78125Z" fill="#5FC1EA" />
  <path d="M11.8125 9.78125H11.3906V10.2031H11.8125V9.78125Z" fill="#5FCDE4" />
  <path d="M12.2344 9.78125H11.8125V10.2031H12.2344V9.78125Z" fill="#5FCDE4" />
  <path d="M12.6562 9.78125H12.2344V10.2031H12.6562V9.78125Z" fill="#5FCDE4" />
  <path d="M13.0781 9.78125H12.6562V10.2031H13.0781V9.78125Z" fill="#5FCDE4" />
  <path d="M13.5 9.78125H13.0781V10.2031H13.5V9.78125Z" fill="#5FCDE4" />
  <path d="M13.9219 9.78125H13.5V10.2031H13.9219V9.78125Z" fill="#5FCDE4" />
  <path d="M14.3438 9.78125H13.9219V10.2031H14.3438V9.78125Z" fill="#CBDBFC" />
  <path d="M14.7656 9.78125H14.3438V10.2031H14.7656V9.78125Z" fill="#CBDBFC" />
  <path d="M15.1875 9.78125H14.7656V10.2031H15.1875V9.78125Z" fill="#CBDBFC" />
  <path d="M15.6094 9.78125H15.1875V10.2031H15.6094V9.78125Z" fill="#639BFF" />
  <path d="M16.0312 9.78125H15.6094V10.2031H16.0312V9.78125Z" fill="black" />
  <path d="M16.4531 9.78125H16.0312V10.2031H16.4531V9.78125Z" fill="#CBDBFC" />
  <path d="M16.875 9.78125H16.4531V10.2031H16.875V9.78125Z" fill="#CBDBFC" />
  <path d="M17.2969 9.78125H16.875V10.2031H17.2969V9.78125Z" fill="#CBDBFC" />
  <path d="M8.85938 10.2031H8.4375V10.625H8.85938V10.2031Z" fill="black" />
  <path d="M9.28125 10.2031H8.85938V10.625H9.28125V10.2031Z" fill="#639BFF" />
  <path d="M9.70312 10.2031H9.28125V10.625H9.70312V10.2031Z" fill="#639BFF" />
  <path d="M10.125 10.2031H9.70312V10.625H10.125V10.2031Z" fill="#639BFF" />
  <path d="M10.5469 10.2031H10.125V10.625H10.5469V10.2031Z" fill="#62A6F9" />
  <path d="M10.9688 10.2031H10.5469V10.625H10.9688V10.2031Z" fill="#60B6F0" />
  <path d="M11.3906 10.2031H10.9688V10.625H11.3906V10.2031Z" fill="#5FC7E7" />
  <path d="M11.8125 10.2031H11.3906V10.625H11.8125V10.2031Z" fill="#5FCDE4" />
  <path d="M12.2344 10.2031H11.8125V10.625H12.2344V10.2031Z" fill="#5FCDE4" />
  <path d="M12.6562 10.2031H12.2344V10.625H12.6562V10.2031Z" fill="#5FCDE4" />
  <path d="M13.0781 10.2031H12.6562V10.625H13.0781V10.2031Z" fill="#5FCDE4" />
  <path d="M13.5 10.2031H13.0781V10.625H13.5V10.2031Z" fill="#5FCDE4" />
  <path d="M13.9219 10.2031H13.5V10.625H13.9219V10.2031Z" fill="#5FCDE4" />
  <path d="M14.3438 10.2031H13.9219V10.625H14.3438V10.2031Z" fill="#CBDBFC" />
  <path d="M14.7656 10.2031H14.3438V10.625H14.7656V10.2031Z" fill="#CBDBFC" />
  <path d="M15.1875 10.2031H14.7656V10.625H15.1875V10.2031Z" fill="#639BFF" />
  <path d="M15.6094 10.2031H15.1875V10.625H15.6094V10.2031Z" fill="#639BFF" />
  <path d="M16.0312 10.2031H15.6094V10.625H16.0312V10.2031Z" fill="black" />
  <path d="M16.4531 10.2031H16.0312V10.625H16.4531V10.2031Z" fill="#CBDBFC" />
  <path d="M16.875 10.2031H16.4531V10.625H16.875V10.2031Z" fill="#CBDBFC" />
  <path d="M8.85938 10.625H8.4375V11.0469H8.85938V10.625Z" fill="black" />
  <path d="M9.28125 10.625H8.85938V11.0469H9.28125V10.625Z" fill="#639BFF" />
  <path d="M9.70312 10.625H9.28125V11.0469H9.70312V10.625Z" fill="#639BFF" />
  <path d="M10.125 10.625H9.70312V11.0469H10.125V10.625Z" fill="#639BFF" />
  <path d="M10.5469 10.625H10.125V11.0469H10.5469V10.625Z" fill="#61ABF6" />
  <path d="M10.9688 10.625H10.5469V11.0469H10.9688V10.625Z" fill="#60BCED" />
  <path d="M11.3906 10.625H10.9688V11.0469H11.3906V10.625Z" fill="#5FCDE4" />
  <path d="M11.8125 10.625H11.3906V11.0469H11.8125V10.625Z" fill="#5FCDE4" />
  <path d="M12.2344 10.625H11.8125V11.0469H12.2344V10.625Z" fill="#5FCDE4" />
  <path d="M12.6562 10.625H12.2344V11.0469H12.6562V10.625Z" fill="#5FCDE4" />
  <path d="M13.0781 10.625H12.6562V11.0469H13.0781V10.625Z" fill="#5FCDE4" />
  <path d="M13.5 10.625H13.0781V11.0469H13.5V10.625Z" fill="#5FCDE4" />
  <path d="M13.9219 10.625H13.5V11.0469H13.9219V10.625Z" fill="#5FCDE4" />
  <path d="M14.3438 10.625H13.9219V11.0469H14.3438V10.625Z" fill="#CBDBFC" />
  <path d="M14.7656 10.625H14.3438V11.0469H14.7656V10.625Z" fill="#CBDBFC" />
  <path d="M15.1875 10.625H14.7656V11.0469H15.1875V10.625Z" fill="#639BFF" />
  <path d="M15.6094 10.625H15.1875V11.0469H15.6094V10.625Z" fill="black" />
  <path d="M16.0312 10.625H15.6094V11.0469H16.0312V10.625Z" fill="#CBDBFC" />
  <path d="M16.4531 10.625H16.0312V11.0469H16.4531V10.625Z" fill="#CBDBFC" />
  <path d="M16.875 10.625H16.4531V11.0469H16.875V10.625Z" fill="#CBDBFC" />
  <path d="M8.4375 11.0469H8.01562V11.4688H8.4375V11.0469Z" fill="black" />
  <path d="M8.85938 11.0469H8.4375V11.4688H8.85938V11.0469Z" fill="black" />
  <path d="M9.28125 11.0469H8.85938V11.4688H9.28125V11.0469Z" fill="#639BFF" />
  <path d="M9.70312 11.0469H9.28125V11.4688H9.70312V11.0469Z" fill="#639BFF" />
  <path d="M10.125 11.0469H9.70312V11.4688H10.125V11.0469Z" fill="#639BFF" />
  <path d="M10.5469 11.0469H10.125V11.4688H10.5469V11.0469Z" fill="#61B1F3" />
  <path d="M10.9688 11.0469H10.5469V11.4688H10.9688V11.0469Z" fill="#5FC1EA" />
  <path d="M11.3906 11.0469H10.9688V11.4688H11.3906V11.0469Z" fill="#5FCDE4" />
  <path d="M11.8125 11.0469H11.3906V11.4688H11.8125V11.0469Z" fill="#5FCDE4" />
  <path d="M12.2344 11.0469H11.8125V11.4688H12.2344V11.0469Z" fill="#5FCDE4" />
  <path d="M12.6562 11.0469H12.2344V11.4688H12.6562V11.0469Z" fill="#5FCDE4" />
  <path d="M13.0781 11.0469H12.6562V11.4688H13.0781V11.0469Z" fill="#5FCDE4" />
  <path d="M13.5 11.0469H13.0781V11.4688H13.5V11.0469Z" fill="#5FCDE4" />
  <path d="M13.9219 11.0469H13.5V11.4688H13.9219V11.0469Z" fill="#CBDBFC" />
  <path d="M14.3438 11.0469H13.9219V11.4688H14.3438V11.0469Z" fill="#CBDBFC" />
  <path d="M14.7656 11.0469H14.3438V11.4688H14.7656V11.0469Z" fill="#639BFF" />
  <path d="M15.1875 11.0469H14.7656V11.4688H15.1875V11.0469Z" fill="#639BFF" />
  <path d="M15.6094 11.0469H15.1875V11.4688H15.6094V11.0469Z" fill="black" />
  <path d="M16.0312 11.0469H15.6094V11.4688H16.0312V11.0469Z" fill="#CBDBFC" />
  <path d="M16.4531 11.0469H16.0312V11.4688H16.4531V11.0469Z" fill="#CBDBFC" />
  <path d="M8.4375 11.4688H8.01562V11.8906H8.4375V11.4688Z" fill="black" />
  <path d="M8.85938 11.4688H8.4375V11.8906H8.85938V11.4688Z" fill="#639BFF" />
  <path d="M9.28125 11.4688H8.85938V11.8906H9.28125V11.4688Z" fill="#639BFF" />
  <path d="M9.70312 11.4688H9.28125V11.8906H9.70312V11.4688Z" fill="#639BFF" />
  <path d="M10.125 11.4688H9.70312V11.8906H10.125V11.4688Z" fill="#62A6F9" />
  <path d="M10.5469 11.4688H10.125V11.8906H10.5469V11.4688Z" fill="#60B6F0" />
  <path d="M10.9688 11.4688H10.5469V11.8906H10.9688V11.4688Z" fill="#5FC7E7" />
  <path d="M11.3906 11.4688H10.9688V11.8906H11.3906V11.4688Z" fill="#5FCDE4" />
  <path d="M11.8125 11.4688H11.3906V11.8906H11.8125V11.4688Z" fill="#5FCDE4" />
  <path d="M12.2344 11.4688H11.8125V11.8906H12.2344V11.4688Z" fill="#5FCDE4" />
  <path d="M12.6562 11.4688H12.2344V11.8906H12.6562V11.4688Z" fill="#5FCDE4" />
  <path d="M13.0781 11.4688H12.6562V11.8906H13.0781V11.4688Z" fill="#5FCDE4" />
  <path d="M13.5 11.4688H13.0781V11.8906H13.5V11.4688Z" fill="#5FCDE4" />
  <path d="M13.9219 11.4688H13.5V11.8906H13.9219V11.4688Z" fill="#CBDBFC" />
  <path d="M14.3438 11.4688H13.9219V11.8906H14.3438V11.4688Z" fill="#CBDBFC" />
  <path d="M14.7656 11.4688H14.3438V11.8906H14.7656V11.4688Z" fill="#639BFF" />
  <path d="M15.1875 11.4688H14.7656V11.8906H15.1875V11.4688Z" fill="black" />
  <path d="M15.6094 11.4688H15.1875V11.8906H15.6094V11.4688Z" fill="#CBDBFC" />
  <path d="M16.0312 11.4688H15.6094V11.8906H16.0312V11.4688Z" fill="#CBDBFC" />
  <path d="M16.4531 11.4688H16.0312V11.8906H16.4531V11.4688Z" fill="#CBDBFC" />
  <path d="M8.4375 11.8906H8.01562V12.3125H8.4375V11.8906Z" fill="black" />
  <path d="M8.85938 11.8906H8.4375V12.3125H8.85938V11.8906Z" fill="#639BFF" />
  <path d="M9.28125 11.8906H8.85938V12.3125H9.28125V11.8906Z" fill="#639BFF" />
  <path d="M9.70312 11.8906H9.28125V12.3125H9.70312V11.8906Z" fill="#639BFF" />
  <path d="M10.125 11.8906H9.70312V12.3125H10.125V11.8906Z" fill="#61ABF6" />
  <path d="M10.5469 11.8906H10.125V12.3125H10.5469V11.8906Z" fill="#60BCED" />
  <path d="M10.9688 11.8906H10.5469V12.3125H10.9688V11.8906Z" fill="#5FCDE4" />
  <path d="M11.3906 11.8906H10.9688V12.3125H11.3906V11.8906Z" fill="#5FCDE4" />
  <path d="M11.8125 11.8906H11.3906V12.3125H11.8125V11.8906Z" fill="#5FCDE4" />
  <path d="M12.2344 11.8906H11.8125V12.3125H12.2344V11.8906Z" fill="#5FCDE4" />
  <path d="M12.6562 11.8906H12.2344V12.3125H12.6562V11.8906Z" fill="#5FCDE4" />
  <path d="M13.0781 11.8906H12.6562V12.3125H13.0781V11.8906Z" fill="#5FCDE4" />
  <path d="M13.5 11.8906H13.0781V12.3125H13.5V11.8906Z" fill="#CBDBFC" />
  <path d="M13.9219 11.8906H13.5V12.3125H13.9219V11.8906Z" fill="#CBDBFC" />
  <path d="M14.3438 11.8906H13.9219V12.3125H14.3438V11.8906Z" fill="#639BFF" />
  <path d="M14.7656 11.8906H14.3438V12.3125H14.7656V11.8906Z" fill="#639BFF" />
  <path d="M15.1875 11.8906H14.7656V12.3125H15.1875V11.8906Z" fill="black" />
  <path d="M15.6094 11.8906H15.1875V12.3125H15.6094V11.8906Z" fill="#CBDBFC" />
  <path d="M16.0312 11.8906H15.6094V12.3125H16.0312V11.8906Z" fill="#CBDBFC" />
  <path d="M8.4375 12.3125H8.01562V12.7344H8.4375V12.3125Z" fill="black" />
  <path d="M8.85938 12.3125H8.4375V12.7344H8.85938V12.3125Z" fill="#639BFF" />
  <path d="M9.28125 12.3125H8.85938V12.7344H9.28125V12.3125Z" fill="#639BFF" />
  <path d="M9.70312 12.3125H9.28125V12.7344H9.70312V12.3125Z" fill="#639BFF" />
  <path d="M10.125 12.3125H9.70312V12.7344H10.125V12.3125Z" fill="#61B1F3" />
  <path d="M10.5469 12.3125H10.125V12.7344H10.5469V12.3125Z" fill="#5FC1EA" />
  <path d="M10.9688 12.3125H10.5469V12.7344H10.9688V12.3125Z" fill="#5FCDE4" />
  <path d="M11.3906 12.3125H10.9688V12.7344H11.3906V12.3125Z" fill="#5FCDE4" />
  <path d="M11.8125 12.3125H11.3906V12.7344H11.8125V12.3125Z" fill="#5FCDE4" />
  <path d="M12.2344 12.3125H11.8125V12.7344H12.2344V12.3125Z" fill="#5FCDE4" />
  <path d="M12.6562 12.3125H12.2344V12.7344H12.6562V12.3125Z" fill="#5FCDE4" />
  <path d="M13.0781 12.3125H12.6562V12.7344H13.0781V12.3125Z" fill="#5FCDE4" />
  <path d="M13.5 12.3125H13.0781V12.7344H13.5V12.3125Z" fill="#CBDBFC" />
  <path d="M13.9219 12.3125H13.5V12.7344H13.9219V12.3125Z" fill="#CBDBFC" />
  <path d="M14.3438 12.3125H13.9219V12.7344H14.3438V12.3125Z" fill="#639BFF" />
  <path d="M14.7656 12.3125H14.3438V12.7344H14.7656V12.3125Z" fill="black" />
  <path d="M15.1875 12.3125H14.7656V12.7344H15.1875V12.3125Z" fill="#CBDBFC" />
  <path d="M15.6094 12.3125H15.1875V12.7344H15.6094V12.3125Z" fill="#CBDBFC" />
  <path d="M16.0312 12.3125H15.6094V12.7344H16.0312V12.3125Z" fill="#CBDBFC" />
  <path d="M8.4375 12.7344H8.01562V13.1562H8.4375V12.7344Z" fill="black" />
  <path d="M8.85938 12.7344H8.4375V13.1562H8.85938V12.7344Z" fill="#639BFF" />
  <path d="M9.28125 12.7344H8.85938V13.1562H9.28125V12.7344Z" fill="#639BFF" />
  <path d="M9.70312 12.7344H9.28125V13.1562H9.70312V12.7344Z" fill="#62A6F9" />
  <path d="M10.125 12.7344H9.70312V13.1562H10.125V12.7344Z" fill="#60B6F0" />
  <path d="M10.5469 12.7344H10.125V13.1562H10.5469V12.7344Z" fill="#5FC7E7" />
  <path d="M10.9688 12.7344H10.5469V13.1562H10.9688V12.7344Z" fill="#5FCDE4" />
  <path d="M11.3906 12.7344H10.9688V13.1562H11.3906V12.7344Z" fill="#5FCDE4" />
  <path d="M11.8125 12.7344H11.3906V13.1562H11.8125V12.7344Z" fill="#5FCDE4" />
  <path d="M12.2344 12.7344H11.8125V13.1562H12.2344V12.7344Z" fill="#5FCDE4" />
  <path d="M12.6562 12.7344H12.2344V13.1562H12.6562V12.7344Z" fill="#5FCDE4" />
  <path d="M13.0781 12.7344H12.6562V13.1562H13.0781V12.7344Z" fill="#CBDBFC" />
  <path d="M13.5 12.7344H13.0781V13.1562H13.5V12.7344Z" fill="#CBDBFC" />
  <path d="M13.9219 12.7344H13.5V13.1562H13.9219V12.7344Z" fill="#639BFF" />
  <path d="M14.3438 12.7344H13.9219V13.1562H14.3438V12.7344Z" fill="#639BFF" />
  <path d="M14.7656 12.7344H14.3438V13.1562H14.7656V12.7344Z" fill="black" />
  <path d="M15.1875 12.7344H14.7656V13.1562H15.1875V12.7344Z" fill="#CBDBFC" />
  <path d="M15.6094 12.7344H15.1875V13.1562H15.6094V12.7344Z" fill="#CBDBFC" />
  <path d="M8.4375 13.1562H8.01562V13.5781H8.4375V13.1562Z" fill="black" />
  <path d="M8.85938 13.1562H8.4375V13.5781H8.85938V13.1562Z" fill="#639BFF" />
  <path d="M9.28125 13.1562H8.85938V13.5781H9.28125V13.1562Z" fill="#639BFF" />
  <path d="M9.70312 13.1562H9.28125V13.5781H9.70312V13.1562Z" fill="#61ABF6" />
  <path d="M10.125 13.1562H9.70312V13.5781H10.125V13.1562Z" fill="#60BCED" />
  <path d="M10.5469 13.1562H10.125V13.5781H10.5469V13.1562Z" fill="#5FCDE4" />
  <path d="M10.9688 13.1562H10.5469V13.5781H10.9688V13.1562Z" fill="#5FCDE4" />
  <path d="M11.3906 13.1562H10.9688V13.5781H11.3906V13.1562Z" fill="#5FCDE4" />
  <path d="M11.8125 13.1562H11.3906V13.5781H11.8125V13.1562Z" fill="#5FCDE4" />
  <path d="M12.2344 13.1562H11.8125V13.5781H12.2344V13.1562Z" fill="#5FCDE4" />
  <path d="M12.6562 13.1562H12.2344V13.5781H12.6562V13.1562Z" fill="#5FCDE4" />
  <path d="M13.0781 13.1562H12.6562V13.5781H13.0781V13.1562Z" fill="#CBDBFC" />
  <path d="M13.5 13.1562H13.0781V13.5781H13.5V13.1562Z" fill="#CBDBFC" />
  <path d="M13.9219 13.1562H13.5V13.5781H13.9219V13.1562Z" fill="#639BFF" />
  <path d="M14.3438 13.1562H13.9219V13.5781H14.3438V13.1562Z" fill="#639BFF" />
  <path d="M14.7656 13.1562H14.3438V13.5781H14.7656V13.1562Z" fill="black" />
  <path d="M15.1875 13.1562H14.7656V13.5781H15.1875V13.1562Z" fill="black" />
  <path d="M15.6094 13.1562H15.1875V13.5781H15.6094V13.1562Z" fill="black" />
  <path d="M16.0312 13.1562H15.6094V13.5781H16.0312V13.1562Z" fill="black" />
  <path d="M16.4531 13.1562H16.0312V13.5781H16.4531V13.1562Z" fill="black" />
  <path d="M16.875 13.1562H16.4531V13.5781H16.875V13.1562Z" fill="black" />
  <path d="M17.2969 13.1562H16.875V13.5781H17.2969V13.1562Z" fill="black" />
  <path d="M17.7188 13.1562H17.2969V13.5781H17.7188V13.1562Z" fill="black" />
  <path d="M18.1406 13.1562H17.7188V13.5781H18.1406V13.1562Z" fill="black" />
  <path d="M18.5625 13.1562H18.1406V13.5781H18.5625V13.1562Z" fill="black" />
  <path d="M18.9844 13.1562H18.5625V13.5781H18.9844V13.1562Z" fill="black" />
  <path d="M19.4062 13.1562H18.9844V13.5781H19.4062V13.1562Z" fill="#CBDBFC" />
  <path d="M19.8281 13.1562H19.4062V13.5781H19.8281V13.1562Z" fill="#CBDBFC" />
  <path d="M20.25 13.1562H19.8281V13.5781H20.25V13.1562Z" fill="#CBDBFC" />
  <path d="M8.01562 13.5781H7.59375V14H8.01562V13.5781Z" fill="black" />
  <path d="M8.4375 13.5781H8.01562V14H8.4375V13.5781Z" fill="#639BFF" />
  <path d="M8.85938 13.5781H8.4375V14H8.85938V13.5781Z" fill="#639BFF" />
  <path d="M9.28125 13.5781H8.85938V14H9.28125V13.5781Z" fill="#639BFF" />
  <path d="M9.70312 13.5781H9.28125V14H9.70312V13.5781Z" fill="#61ABF6" />
  <path d="M10.125 13.5781H9.70312V14H10.125V13.5781Z" fill="#60BCED" />
  <path d="M10.5469 13.5781H10.125V14H10.5469V13.5781Z" fill="#5FCDE4" />
  <path d="M10.9688 13.5781H10.5469V14H10.9688V13.5781Z" fill="#5FCDE4" />
  <path d="M11.3906 13.5781H10.9688V14H11.3906V13.5781Z" fill="#5FCDE4" />
  <path d="M11.8125 13.5781H11.3906V14H11.8125V13.5781Z" fill="#5FCDE4" />
  <path d="M12.2344 13.5781H11.8125V14H12.2344V13.5781Z" fill="#5FCDE4" />
  <path d="M12.6562 13.5781H12.2344V14H12.6562V13.5781Z" fill="#CBDBFC" />
  <path d="M13.0781 13.5781H12.6562V14H13.0781V13.5781Z" fill="#CBDBFC" />
  <path d="M13.5 13.5781H13.0781V14H13.5V13.5781Z" fill="#639BFF" />
  <path d="M13.9219 13.5781H13.5V14H13.9219V13.5781Z" fill="#639BFF" />
  <path d="M14.3438 13.5781H13.9219V14H14.3438V13.5781Z" fill="#639BFF" />
  <path d="M14.7656 13.5781H14.3438V14H14.7656V13.5781Z" fill="#639BFF" />
  <path d="M15.1875 13.5781H14.7656V14H15.1875V13.5781Z" fill="#639BFF" />
  <path d="M15.6094 13.5781H15.1875V14H15.6094V13.5781Z" fill="#639BFF" />
  <path d="M16.0312 13.5781H15.6094V14H16.0312V13.5781Z" fill="#639BFF" />
  <path d="M16.4531 13.5781H16.0312V14H16.4531V13.5781Z" fill="#639BFF" />
  <path d="M16.875 13.5781H16.4531V14H16.875V13.5781Z" fill="#639BFF" />
  <path d="M17.2969 13.5781H16.875V14H17.2969V13.5781Z" fill="#639BFF" />
  <path d="M17.7188 13.5781H17.2969V14H17.7188V13.5781Z" fill="#639BFF" />
  <path d="M18.1406 13.5781H17.7188V14H18.1406V13.5781Z" fill="#639BFF" />
  <path d="M18.5625 13.5781H18.1406V14H18.5625V13.5781Z" fill="#639BFF" />
  <path d="M18.9844 13.5781H18.5625V14H18.9844V13.5781Z" fill="black" />
  <path d="M19.4062 13.5781H18.9844V14H19.4062V13.5781Z" fill="#CBDBFC" />
  <path d="M19.8281 13.5781H19.4062V14H19.8281V13.5781Z" fill="#CBDBFC" />
  <path d="M20.25 13.5781H19.8281V14H20.25V13.5781Z" fill="#CBDBFC" />
  <path d="M8.01562 14H7.59375V14.4219H8.01562V14Z" fill="black" />
  <path d="M8.4375 14H8.01562V14.4219H8.4375V14Z" fill="#639BFF" />
  <path d="M8.85938 14H8.4375V14.4219H8.85938V14Z" fill="#639BFF" />
  <path d="M9.28125 14H8.85938V14.4219H9.28125V14Z" fill="#62A0FC" />
  <path d="M9.70312 14H9.28125V14.4219H9.70312V14Z" fill="#61B1F3" />
  <path d="M10.125 14H9.70312V14.4219H10.125V14Z" fill="#5FC1EA" />
  <path d="M10.5469 14H10.125V14.4219H10.5469V14Z" fill="#5FCDE4" />
  <path d="M10.9688 14H10.5469V14.4219H10.9688V14Z" fill="#5FCDE4" />
  <path d="M11.3906 14H10.9688V14.4219H11.3906V14Z" fill="#5FCDE4" />
  <path d="M11.8125 14H11.3906V14.4219H11.8125V14Z" fill="#5FCDE4" />
  <path d="M12.2344 14H11.8125V14.4219H12.2344V14Z" fill="#5FCDE4" />
  <path d="M12.6562 14H12.2344V14.4219H12.6562V14Z" fill="#CBDBFC" />
  <path d="M13.0781 14H12.6562V14.4219H13.0781V14Z" fill="#CBDBFC" />
  <path d="M13.5 14H13.0781V14.4219H13.5V14Z" fill="#5FCDE4" />
  <path d="M13.9219 14H13.5V14.4219H13.9219V14Z" fill="#5FCDE4" />
  <path d="M14.3438 14H13.9219V14.4219H14.3438V14Z" fill="#5FCDE4" />
  <path d="M14.7656 14H14.3438V14.4219H14.7656V14Z" fill="#5FCDE4" />
  <path d="M15.1875 14H14.7656V14.4219H15.1875V14Z" fill="#5FCDE4" />
  <path d="M15.6094 14H15.1875V14.4219H15.6094V14Z" fill="#5FCDE4" />
  <path d="M16.0312 14H15.6094V14.4219H16.0312V14Z" fill="#5FCDE4" />
  <path d="M16.4531 14H16.0312V14.4219H16.4531V14Z" fill="#CBDBFC" />
  <path d="M16.875 14H16.4531V14.4219H16.875V14Z" fill="#CBDBFC" />
  <path d="M17.2969 14H16.875V14.4219H17.2969V14Z" fill="#639BFF" />
  <path d="M17.7188 14H17.2969V14.4219H17.7188V14Z" fill="#639BFF" />
  <path d="M18.1406 14H17.7188V14.4219H18.1406V14Z" fill="#639BFF" />
  <path d="M18.5625 14H18.1406V14.4219H18.5625V14Z" fill="black" />
  <path d="M18.9844 14H18.5625V14.4219H18.9844V14Z" fill="#CBDBFC" />
  <path d="M19.4062 14H18.9844V14.4219H19.4062V14Z" fill="#CBDBFC" />
  <path d="M19.8281 14H19.4062V14.4219H19.8281V14Z" fill="#CBDBFC" />
  <path d="M8.01562 14.4219H7.59375V14.8438H8.01562V14.4219Z" fill="black" />
  <path d="M8.4375 14.4219H8.01562V14.8438H8.4375V14.4219Z" fill="#639BFF" />
  <path d="M8.85938 14.4219H8.4375V14.8438H8.85938V14.4219Z" fill="#639BFF" />
  <path d="M9.28125 14.4219H8.85938V14.8438H9.28125V14.4219Z" fill="#62A6F9" />
  <path d="M9.70312 14.4219H9.28125V14.8438H9.70312V14.4219Z" fill="#60B6F0" />
  <path d="M10.125 14.4219H9.70312V14.8438H10.125V14.4219Z" fill="#5FC1E9" />
  <path d="M10.5469 14.4219H10.125V14.8438H10.5469V14.4219Z" fill="#5FC9E5" />
  <path d="M10.9688 14.4219H10.5469V14.8438H10.9688V14.4219Z" fill="#5FCCE4" />
  <path d="M11.3906 14.4219H10.9688V14.8438H11.3906V14.4219Z" fill="#5FCDE4" />
  <path d="M11.8125 14.4219H11.3906V14.8438H11.8125V14.4219Z" fill="#60CDE4" />
  <path d="M12.2344 14.4219H11.8125V14.8438H12.2344V14.4219Z" fill="#6CCEE6" />
  <path d="M12.6562 14.4219H12.2344V14.8438H12.6562V14.4219Z" fill="#5FCDE4" />
  <path d="M13.0781 14.4219H12.6562V14.8438H13.0781V14.4219Z" fill="#5FCDE4" />
  <path d="M13.5 14.4219H13.0781V14.8438H13.5V14.4219Z" fill="#5FCDE4" />
  <path d="M13.9219 14.4219H13.5V14.8438H13.9219V14.4219Z" fill="#5FCDE4" />
  <path d="M14.3438 14.4219H13.9219V14.8438H14.3438V14.4219Z" fill="#5FCDE4" />
  <path d="M14.7656 14.4219H14.3438V14.8438H14.7656V14.4219Z" fill="#5FCDE4" />
  <path d="M15.1875 14.4219H14.7656V14.8438H15.1875V14.4219Z" fill="#5FCDE4" />
  <path d="M15.6094 14.4219H15.1875V14.8438H15.6094V14.4219Z" fill="#5FCDE4" />
  <path d="M16.0312 14.4219H15.6094V14.8438H16.0312V14.4219Z" fill="#5FCDE4" />
  <path d="M16.4531 14.4219H16.0312V14.8438H16.4531V14.4219Z" fill="#CBDBFC" />
  <path d="M16.875 14.4219H16.4531V14.8438H16.875V14.4219Z" fill="#CBDBFC" />
  <path d="M17.2969 14.4219H16.875V14.8438H17.2969V14.4219Z" fill="#639BFF" />
  <path d="M17.7188 14.4219H17.2969V14.8438H17.7188V14.4219Z" fill="#639BFF" />
  <path d="M18.1406 14.4219H17.7188V14.8438H18.1406V14.4219Z" fill="black" />
  <path d="M18.5625 14.4219H18.1406V14.8438H18.5625V14.4219Z" fill="#CBDBFC" />
  <path d="M18.9844 14.4219H18.5625V14.8438H18.9844V14.4219Z" fill="#CBDBFC" />
  <path d="M19.4062 14.4219H18.9844V14.8438H19.4062V14.4219Z" fill="#CBDBFC" />
  <path d="M19.8281 14.4219H19.4062V14.8438H19.8281V14.4219Z" fill="#CBDBFC" />
  <path d="M8.01562 14.8438H7.59375V15.2656H8.01562V14.8438Z" fill="black" />
  <path d="M8.4375 14.8438H8.01562V15.2656H8.4375V14.8438Z" fill="#639BFF" />
  <path d="M8.85938 14.8438H8.4375V15.2656H8.85938V14.8438Z" fill="#639BFF" />
  <path d="M9.28125 14.8438H8.85938V15.2656H9.28125V14.8438Z" fill="#61AAF6" />
  <path d="M9.70312 14.8438H9.28125V15.2656H9.70312V14.8438Z" fill="#60B8EE" />
  <path d="M10.125 14.8438H9.70312V15.2656H10.125V14.8438Z" fill="#5FC3E8" />
  <path d="M10.5469 14.8438H10.125V15.2656H10.5469V14.8438Z" fill="#5FCAE5" />
  <path d="M10.9688 14.8438H10.5469V15.2656H10.9688V14.8438Z" fill="#5FCCE4" />
  <path d="M11.3906 14.8438H10.9688V15.2656H11.3906V14.8438Z" fill="#5FCDE4" />
  <path d="M11.8125 14.8438H11.3906V15.2656H11.8125V14.8438Z" fill="#60CDE4" />
  <path d="M12.2344 14.8438H11.8125V15.2656H12.2344V14.8438Z" fill="#60CDE4" />
  <path d="M12.6562 14.8438H12.2344V15.2656H12.6562V14.8438Z" fill="#60CDE4" />
  <path d="M13.0781 14.8438H12.6562V15.2656H13.0781V14.8438Z" fill="#5FCDE4" />
  <path d="M13.5 14.8438H13.0781V15.2656H13.5V14.8438Z" fill="#5FCDE4" />
  <path d="M13.9219 14.8438H13.5V15.2656H13.9219V14.8438Z" fill="#5FCDE4" />
  <path d="M14.3438 14.8438H13.9219V15.2656H14.3438V14.8438Z" fill="#5FCDE4" />
  <path d="M14.7656 14.8438H14.3438V15.2656H14.7656V14.8438Z" fill="#5FCDE4" />
  <path d="M15.1875 14.8438H14.7656V15.2656H15.1875V14.8438Z" fill="#5FCDE4" />
  <path d="M15.6094 14.8438H15.1875V15.2656H15.6094V14.8438Z" fill="#5FCDE4" />
  <path d="M16.0312 14.8438H15.6094V15.2656H16.0312V14.8438Z" fill="#5FCDE4" />
  <path d="M16.4531 14.8438H16.0312V15.2656H16.4531V14.8438Z" fill="#CBDBFC" />
  <path d="M16.875 14.8438H16.4531V15.2656H16.875V14.8438Z" fill="#639BFF" />
  <path d="M17.2969 14.8438H16.875V15.2656H17.2969V14.8438Z" fill="#639BFF" />
  <path d="M17.7188 14.8438H17.2969V15.2656H17.7188V14.8438Z" fill="#639BFF" />
  <path d="M18.1406 14.8438H17.7188V15.2656H18.1406V14.8438Z" fill="black" />
  <path d="M18.5625 14.8438H18.1406V15.2656H18.5625V14.8438Z" fill="#CBDBFC" />
  <path d="M18.9844 14.8438H18.5625V15.2656H18.9844V14.8438Z" fill="#CBDBFC" />
  <path d="M19.4062 14.8438H18.9844V15.2656H19.4062V14.8438Z" fill="#CBDBFC" />
  <path d="M8.01562 15.2656H7.59375V15.6875H8.01562V15.2656Z" fill="black" />
  <path d="M8.4375 15.2656H8.01562V15.6875H8.4375V15.2656Z" fill="#639BFF" />
  <path d="M8.85938 15.2656H8.4375V15.6875H8.85938V15.2656Z" fill="#62A1FB" />
  <path d="M9.28125 15.2656H8.85938V15.6875H9.28125V15.2656Z" fill="#61AAF5" />
  <path d="M9.70312 15.2656H9.28125V15.6875H9.70312V15.2656Z" fill="#60B7EF" />
  <path d="M10.125 15.2656H9.70312V15.6875H10.125V15.2656Z" fill="#5FC0EA" />
  <path d="M10.5469 15.2656H10.125V15.6875H10.5469V15.2656Z" fill="#5FC5E7" />
  <path d="M10.9688 15.2656H10.5469V15.6875H10.9688V15.2656Z" fill="#5FC7E7" />
  <path d="M11.3906 15.2656H10.9688V15.6875H11.3906V15.2656Z" fill="#5FC7E7" />
  <path d="M11.8125 15.2656H11.3906V15.6875H11.8125V15.2656Z" fill="#5FC7E7" />
  <path d="M12.2344 15.2656H11.8125V15.6875H12.2344V15.2656Z" fill="#5FC7E7" />
  <path d="M12.6562 15.2656H12.2344V15.6875H12.6562V15.2656Z" fill="#5FC7E7" />
  <path d="M13.0781 15.2656H12.6562V15.6875H13.0781V15.2656Z" fill="#5FC7E7" />
  <path d="M13.5 15.2656H13.0781V15.6875H13.5V15.2656Z" fill="#5FC9E6" />
  <path d="M13.9219 15.2656H13.5V15.6875H13.9219V15.2656Z" fill="#5FCBE5" />
  <path d="M14.3438 15.2656H13.9219V15.6875H14.3438V15.2656Z" fill="#5FCDE4" />
  <path d="M14.7656 15.2656H14.3438V15.6875H14.7656V15.2656Z" fill="#5FCDE4" />
  <path d="M15.1875 15.2656H14.7656V15.6875H15.1875V15.2656Z" fill="#5FCDE4" />
  <path d="M15.6094 15.2656H15.1875V15.6875H15.6094V15.2656Z" fill="#5FCDE4" />
  <path d="M16.0312 15.2656H15.6094V15.6875H16.0312V15.2656Z" fill="#CBDBFC" />
  <path d="M16.4531 15.2656H16.0312V15.6875H16.4531V15.2656Z" fill="#CBDBFC" />
  <path d="M16.875 15.2656H16.4531V15.6875H16.875V15.2656Z" fill="#639BFF" />
  <path d="M17.2969 15.2656H16.875V15.6875H17.2969V15.2656Z" fill="#639BFF" />
  <path d="M17.7188 15.2656H17.2969V15.6875H17.7188V15.2656Z" fill="black" />
  <path d="M18.1406 15.2656H17.7188V15.6875H18.1406V15.2656Z" fill="#CBDBFC" />
  <path d="M18.5625 15.2656H18.1406V15.6875H18.5625V15.2656Z" fill="#CBDBFC" />
  <path d="M18.9844 15.2656H18.5625V15.6875H18.9844V15.2656Z" fill="#CBDBFC" />
  <path d="M8.01562 15.6875H7.59375V16.1094H8.01562V15.6875Z" fill="black" />
  <path d="M8.4375 15.6875H8.01562V16.1094H8.4375V15.6875Z" fill="#639BFF" />
  <path d="M8.85938 15.6875H8.4375V16.1094H8.85938V15.6875Z" fill="#629FFC" />
  <path d="M9.28125 15.6875H8.85938V16.1094H9.28125V15.6875Z" fill="#61A5F9" />
  <path d="M9.70312 15.6875H9.28125V16.1094H9.70312V15.6875Z" fill="#61ACF4" />
  <path d="M10.125 15.6875H9.70312V16.1094H10.125V15.6875Z" fill="#60B2F2" />
  <path d="M10.5469 15.6875H10.125V16.1094H10.5469V15.6875Z" fill="#60B5F0" />
  <path d="M10.9688 15.6875H10.5469V16.1094H10.9688V15.6875Z" fill="#60B6F0" />
  <path d="M11.3906 15.6875H10.9688V16.1094H11.3906V15.6875Z" fill="#60B8EF" />
  <path d="M11.8125 15.6875H11.3906V16.1094H11.8125V15.6875Z" fill="#60BAEE" />
  <path d="M12.2344 15.6875H11.8125V16.1094H12.2344V15.6875Z" fill="#60BCED" />
  <path d="M12.6562 15.6875H12.2344V16.1094H12.6562V15.6875Z" fill="#60BCED" />
  <path d="M13.0781 15.6875H12.6562V16.1094H13.0781V15.6875Z" fill="#60BAEE" />
  <path d="M13.5 15.6875H13.0781V16.1094H13.5V15.6875Z" fill="#60B9EE" />
  <path d="M13.9219 15.6875H13.5V16.1094H13.9219V15.6875Z" fill="#5FBFEB" />
  <path d="M14.3438 15.6875H13.9219V16.1094H14.3438V15.6875Z" fill="#5FCDE4" />
  <path d="M14.7656 15.6875H14.3438V16.1094H14.7656V15.6875Z" fill="#5FCDE4" />
  <path d="M15.1875 15.6875H14.7656V16.1094H15.1875V15.6875Z" fill="#5FCDE4" />
  <path d="M15.6094 15.6875H15.1875V16.1094H15.6094V15.6875Z" fill="#CBDBFC" />
  <path d="M16.0312 15.6875H15.6094V16.1094H16.0312V15.6875Z" fill="#CBDBFC" />
  <path d="M16.4531 15.6875H16.0312V16.1094H16.4531V15.6875Z" fill="#639BFF" />
  <path d="M16.875 15.6875H16.4531V16.1094H16.875V15.6875Z" fill="#639BFF" />
  <path d="M17.2969 15.6875H16.875V16.1094H17.2969V15.6875Z" fill="black" />
  <path d="M17.7188 15.6875H17.2969V16.1094H17.7188V15.6875Z" fill="#CBDBFC" />
  <path d="M18.1406 15.6875H17.7188V16.1094H18.1406V15.6875Z" fill="#CBDBFC" />
  <path d="M18.5625 15.6875H18.1406V16.1094H18.5625V15.6875Z" fill="#CBDBFC" />
  <path d="M7.59375 16.1094H7.17188V16.5312H7.59375V16.1094Z" fill="black" />
  <path d="M8.01562 16.1094H7.59375V16.5312H8.01562V16.1094Z" fill="#639BFF" />
  <path d="M8.4375 16.1094H8.01562V16.5312H8.4375V16.1094Z" fill="#639BFF" />
  <path d="M8.85938 16.1094H8.4375V16.5312H8.85938V16.1094Z" fill="#639BFF" />
  <path d="M9.28125 16.1094H8.85938V16.5312H9.28125V16.1094Z" fill="#629FFC" />
  <path d="M9.70312 16.1094H9.28125V16.5312H9.70312V16.1094Z" fill="#62A2FA" />
  <path d="M10.125 16.1094H9.70312V16.5312H10.125V16.1094Z" fill="#62A4F9" />
  <path d="M10.5469 16.1094H10.125V16.5312H10.5469V16.1094Z" fill="#62A5F9" />
  <path d="M10.9688 16.1094H10.5469V16.5312H10.9688V16.1094Z" fill="#62A6F9" />
  <path d="M11.3906 16.1094H10.9688V16.5312H11.3906V16.1094Z" fill="#61A7F8" />
  <path d="M11.8125 16.1094H11.3906V16.5312H11.8125V16.1094Z" fill="#61A9F7" />
  <path d="M12.2344 16.1094H11.8125V16.5312H12.2344V16.1094Z" fill="#61ABF6" />
  <path d="M12.6562 16.1094H12.2344V16.5312H12.6562V16.1094Z" fill="#61ABF6" />
  <path d="M13.0781 16.1094H12.6562V16.5312H13.0781V16.1094Z" fill="#61A9F7" />
  <path d="M13.5 16.1094H13.0781V16.5312H13.5V16.1094Z" fill="#61AFF3" />
  <path d="M13.9219 16.1094H13.5V16.5312H13.9219V16.1094Z" fill="#60BBED" />
  <path d="M14.3438 16.1094H13.9219V16.5312H14.3438V16.1094Z" fill="#5FCDE4" />
  <path d="M14.7656 16.1094H14.3438V16.5312H14.7656V16.1094Z" fill="#5FCDE4" />
  <path d="M15.1875 16.1094H14.7656V16.5312H15.1875V16.1094Z" fill="#5FCDE4" />
  <path d="M15.6094 16.1094H15.1875V16.5312H15.6094V16.1094Z" fill="#CBDBFC" />
  <path d="M16.0312 16.1094H15.6094V16.5312H16.0312V16.1094Z" fill="#639BFF" />
  <path d="M16.4531 16.1094H16.0312V16.5312H16.4531V16.1094Z" fill="#639BFF" />
  <path d="M16.875 16.1094H16.4531V16.5312H16.875V16.1094Z" fill="black" />
  <path d="M17.2969 16.1094H16.875V16.5312H17.2969V16.1094Z" fill="#CBDBFC" />
  <path d="M17.7188 16.1094H17.2969V16.5312H17.7188V16.1094Z" fill="#CBDBFC" />
  <path d="M18.1406 16.1094H17.7188V16.5312H18.1406V16.1094Z" fill="#CBDBFC" />
  <path d="M18.5625 16.1094H18.1406V16.5312H18.5625V16.1094Z" fill="#CBDBFC" />
  <path d="M7.59375 16.5312H7.17188V16.9531H7.59375V16.5312Z" fill="black" />
  <path d="M8.01562 16.5312H7.59375V16.9531H8.01562V16.5312Z" fill="#639BFF" />
  <path d="M8.4375 16.5312H8.01562V16.9531H8.4375V16.5312Z" fill="#639BFF" />
  <path d="M8.85938 16.5312H8.4375V16.9531H8.85938V16.5312Z" fill="#639BFF" />
  <path d="M9.28125 16.5312H8.85938V16.9531H9.28125V16.5312Z" fill="#639BFF" />
  <path d="M9.70312 16.5312H9.28125V16.9531H9.70312V16.5312Z" fill="#639BFF" />
  <path d="M10.125 16.5312H9.70312V16.9531H10.125V16.5312Z" fill="#639BFF" />
  <path d="M10.5469 16.5312H10.125V16.9531H10.5469V16.5312Z" fill="#639BFF" />
  <path d="M10.9688 16.5312H10.5469V16.9531H10.9688V16.5312Z" fill="#639BFF" />
  <path d="M11.3906 16.5312H10.9688V16.9531H11.3906V16.5312Z" fill="#639BFF" />
  <path d="M11.8125 16.5312H11.3906V16.9531H11.8125V16.5312Z" fill="#639BFF" />
  <path d="M12.2344 16.5312H11.8125V16.9531H12.2344V16.5312Z" fill="#639BFF" />
  <path d="M12.6562 16.5312H12.2344V16.9531H12.6562V16.5312Z" fill="#639BFF" />
  <path d="M13.0781 16.5312H12.6562V16.9531H13.0781V16.5312Z" fill="#639BFF" />
  <path d="M13.5 16.5312H13.0781V16.9531H13.5V16.5312Z" fill="#61AFF3" />
  <path d="M13.9219 16.5312H13.5V16.9531H13.9219V16.5312Z" fill="#60BEEB" />
  <path d="M14.3438 16.5312H13.9219V16.9531H14.3438V16.5312Z" fill="#5FCDE4" />
  <path d="M14.7656 16.5312H14.3438V16.9531H14.7656V16.5312Z" fill="#5FCDE4" />
  <path d="M15.1875 16.5312H14.7656V16.9531H15.1875V16.5312Z" fill="#CBDBFC" />
  <path d="M15.6094 16.5312H15.1875V16.9531H15.6094V16.5312Z" fill="#CBDBFC" />
  <path d="M16.0312 16.5312H15.6094V16.9531H16.0312V16.5312Z" fill="#639BFF" />
  <path d="M16.4531 16.5312H16.0312V16.9531H16.4531V16.5312Z" fill="#639BFF" />
  <path d="M16.875 16.5312H16.4531V16.9531H16.875V16.5312Z" fill="black" />
  <path d="M17.2969 16.5312H16.875V16.9531H17.2969V16.5312Z" fill="#CBDBFC" />
  <path d="M17.7188 16.5312H17.2969V16.9531H17.7188V16.5312Z" fill="#CBDBFC" />
  <path d="M18.1406 16.5312H17.7188V16.9531H18.1406V16.5312Z" fill="#CBDBFC" />
  <path d="M7.59375 16.9531H7.17188V17.375H7.59375V16.9531Z" fill="black" />
  <path d="M8.01562 16.9531H7.59375V17.375H8.01562V16.9531Z" fill="black" />
  <path d="M8.4375 16.9531H8.01562V17.375H8.4375V16.9531Z" fill="black" />
  <path d="M8.85938 16.9531H8.4375V17.375H8.85938V16.9531Z" fill="black" />
  <path d="M9.28125 16.9531H8.85938V17.375H9.28125V16.9531Z" fill="black" />
  <path d="M9.70312 16.9531H9.28125V17.375H9.70312V16.9531Z" fill="black" />
  <path d="M10.125 16.9531H9.70312V17.375H10.125V16.9531Z" fill="black" />
  <path d="M10.5469 16.9531H10.125V17.375H10.5469V16.9531Z" fill="black" />
  <path d="M10.9688 16.9531H10.5469V17.375H10.9688V16.9531Z" fill="black" />
  <path d="M11.3906 16.9531H10.9688V17.375H11.3906V16.9531Z" fill="black" />
  <path d="M11.8125 16.9531H11.3906V17.375H11.8125V16.9531Z" fill="black" />
  <path d="M12.2344 16.9531H11.8125V17.375H12.2344V16.9531Z" fill="black" />
  <path d="M12.6562 16.9531H12.2344V17.375H12.6562V16.9531Z" fill="#639BFF" />
  <path d="M13.0781 16.9531H12.6562V17.375H13.0781V16.9531Z" fill="#62A6F9" />
  <path d="M13.5 16.9531H13.0781V17.375H13.5V16.9531Z" fill="#60B6F0" />
  <path d="M13.9219 16.9531H13.5V17.375H13.9219V16.9531Z" fill="#5FC7E7" />
  <path d="M14.3438 16.9531H13.9219V17.375H14.3438V16.9531Z" fill="#5FCDE4" />
  <path d="M14.7656 16.9531H14.3438V17.375H14.7656V16.9531Z" fill="#CBDBFC" />
  <path d="M15.1875 16.9531H14.7656V17.375H15.1875V16.9531Z" fill="#CBDBFC" />
  <path d="M15.6094 16.9531H15.1875V17.375H15.6094V16.9531Z" fill="#639BFF" />
  <path d="M16.0312 16.9531H15.6094V17.375H16.0312V16.9531Z" fill="#639BFF" />
  <path d="M16.4531 16.9531H16.0312V17.375H16.4531V16.9531Z" fill="black" />
  <path d="M16.875 16.9531H16.4531V17.375H16.875V16.9531Z" fill="#CBDBFC" />
  <path d="M17.2969 16.9531H16.875V17.375H17.2969V16.9531Z" fill="#CBDBFC" />
  <path d="M17.7188 16.9531H17.2969V17.375H17.7188V16.9531Z" fill="#CBDBFC" />
  <path d="M12.2344 17.375H11.8125V17.7969H12.2344V17.375Z" fill="black" />
  <path d="M12.6562 17.375H12.2344V17.7969H12.6562V17.375Z" fill="#639BFF" />
  <path d="M13.0781 17.375H12.6562V17.7969H13.0781V17.375Z" fill="#61B1F3" />
  <path d="M13.5 17.375H13.0781V17.7969H13.5V17.375Z" fill="#5FC1EA" />
  <path d="M13.9219 17.375H13.5V17.7969H13.9219V17.375Z" fill="#6BCEE6" />
  <path d="M14.3438 17.375H13.9219V17.7969H14.3438V17.375Z" fill="#5FCDE4" />
  <path d="M14.7656 17.375H14.3438V17.7969H14.7656V17.375Z" fill="#CBDBFC" />
  <path d="M15.1875 17.375H14.7656V17.7969H15.1875V17.375Z" fill="#639BFF" />
  <path d="M15.6094 17.375H15.1875V17.7969H15.6094V17.375Z" fill="#639BFF" />
  <path d="M16.0312 17.375H15.6094V17.7969H16.0312V17.375Z" fill="black" />
  <path d="M16.4531 17.375H16.0312V17.7969H16.4531V17.375Z" fill="#CBDBFC" />
  <path d="M16.875 17.375H16.4531V17.7969H16.875V17.375Z" fill="#CBDBFC" />
  <path d="M17.2969 17.375H16.875V17.7969H17.2969V17.375Z" fill="#CBDBFC" />
  <path d="M12.2344 17.7969H11.8125V18.2188H12.2344V17.7969Z" fill="black" />
  <path d="M12.6562 17.7969H12.2344V18.2188H12.6562V17.7969Z" fill="#639BFF" />
  <path d="M13.0781 17.7969H12.6562V18.2188H13.0781V17.7969Z" fill="#60B6F0" />
  <path d="M13.5 17.7969H13.0781V18.2188H13.5V17.7969Z" fill="#5FC7E7" />
  <path d="M13.9219 17.7969H13.5V18.2188H13.9219V17.7969Z" fill="#5FCDE4" />
  <path d="M14.3438 17.7969H13.9219V18.2188H14.3438V17.7969Z" fill="#CBDBFC" />
  <path d="M14.7656 17.7969H14.3438V18.2188H14.7656V17.7969Z" fill="#639BFF" />
  <path d="M15.1875 17.7969H14.7656V18.2188H15.1875V17.7969Z" fill="#639BFF" />
  <path d="M15.6094 17.7969H15.1875V18.2188H15.6094V17.7969Z" fill="black" />
  <path d="M16.0312 17.7969H15.6094V18.2188H16.0312V17.7969Z" fill="#CBDBFC" />
  <path d="M16.4531 17.7969H16.0312V18.2188H16.4531V17.7969Z" fill="#CBDBFC" />
  <path d="M16.875 17.7969H16.4531V18.2188H16.875V17.7969Z" fill="#CBDBFC" />
  <path d="M17.2969 17.7969H16.875V18.2188H17.2969V17.7969Z" fill="#CBDBFC" />
  <path d="M12.2344 18.2188H11.8125V18.6406H12.2344V18.2188Z" fill="black" />
  <path d="M12.6562 18.2188H12.2344V18.6406H12.6562V18.2188Z" fill="#639BFF" />
  <path d="M13.0781 18.2188H12.6562V18.6406H13.0781V18.2188Z" fill="#60B9EE" />
  <path d="M13.5 18.2188H13.0781V18.6406H13.5V18.2188Z" fill="#5FCDE4" />
  <path d="M13.9219 18.2188H13.5V18.6406H13.9219V18.2188Z" fill="#5FCDE4" />
  <path d="M14.3438 18.2188H13.9219V18.6406H14.3438V18.2188Z" fill="#CBDBFC" />
  <path d="M14.7656 18.2188H14.3438V18.6406H14.7656V18.2188Z" fill="#639BFF" />
  <path d="M15.1875 18.2188H14.7656V18.6406H15.1875V18.2188Z" fill="#639BFF" />
  <path d="M15.6094 18.2188H15.1875V18.6406H15.6094V18.2188Z" fill="black" />
  <path d="M16.0312 18.2188H15.6094V18.6406H16.0312V18.2188Z" fill="#CBDBFC" />
  <path d="M16.4531 18.2188H16.0312V18.6406H16.4531V18.2188Z" fill="#CBDBFC" />
  <path d="M16.875 18.2188H16.4531V18.6406H16.875V18.2188Z" fill="#CBDBFC" />
  <path d="M12.2344 18.6406H11.8125V19.0625H12.2344V18.6406Z" fill="black" />
  <path d="M12.6562 18.6406H12.2344V19.0625H12.6562V18.6406Z" fill="#639BFF" />
  <path d="M13.0781 18.6406H12.6562V19.0625H13.0781V18.6406Z" fill="#6CBDEF" />
  <path d="M13.5 18.6406H13.0781V19.0625H13.5V18.6406Z" fill="#5FCDE4" />
  <path d="M13.9219 18.6406H13.5V19.0625H13.9219V18.6406Z" fill="#CBDBFC" />
  <path d="M14.3438 18.6406H13.9219V19.0625H14.3438V18.6406Z" fill="#639BFF" />
  <path d="M14.7656 18.6406H14.3438V19.0625H14.7656V18.6406Z" fill="#639BFF" />
  <path d="M15.1875 18.6406H14.7656V19.0625H15.1875V18.6406Z" fill="black" />
  <path d="M15.6094 18.6406H15.1875V19.0625H15.6094V18.6406Z" fill="#CBDBFC" />
  <path d="M16.0312 18.6406H15.6094V19.0625H16.0312V18.6406Z" fill="#CBDBFC" />
  <path d="M16.4531 18.6406H16.0312V19.0625H16.4531V18.6406Z" fill="#CBDBFC" />
  <path d="M16.875 18.6406H16.4531V19.0625H16.875V18.6406Z" fill="#CBDBFC" />
  <path d="M12.2344 19.0625H11.8125V19.4844H12.2344V19.0625Z" fill="black" />
  <path d="M12.6562 19.0625H12.2344V19.4844H12.6562V19.0625Z" fill="#639BFF" />
  <path d="M13.0781 19.0625H12.6562V19.4844H13.0781V19.0625Z" fill="#77C5EF" />
  <path d="M13.5 19.0625H13.0781V19.4844H13.5V19.0625Z" fill="#CBDBFC" />
  <path d="M13.9219 19.0625H13.5V19.4844H13.9219V19.0625Z" fill="#639BFF" />
  <path d="M14.3438 19.0625H13.9219V19.4844H14.3438V19.0625Z" fill="#639BFF" />
  <path d="M14.7656 19.0625H14.3438V19.4844H14.7656V19.0625Z" fill="black" />
  <path d="M15.1875 19.0625H14.7656V19.4844H15.1875V19.0625Z" fill="#CBDBFC" />
  <path d="M15.6094 19.0625H15.1875V19.4844H15.6094V19.0625Z" fill="#CBDBFC" />
  <path d="M16.0312 19.0625H15.6094V19.4844H16.0312V19.0625Z" fill="#CBDBFC" />
  <path d="M16.4531 19.0625H16.0312V19.4844H16.4531V19.0625Z" fill="#CBDBFC" />
  <path d="M11.8125 19.4844H11.3906V19.9062H11.8125V19.4844Z" fill="black" />
  <path d="M12.2344 19.4844H11.8125V19.9062H12.2344V19.4844Z" fill="#639BFF" />
  <path d="M12.6562 19.4844H12.2344V19.9062H12.6562V19.4844Z" fill="#61A4CF" />
  <path d="M13.0781 19.4844H12.6562V19.9062H13.0781V19.4844Z" fill="#5FCDE4" />
  <path d="M13.5 19.4844H13.0781V19.9062H13.5V19.4844Z" fill="#CBDBFC" />
  <path d="M13.9219 19.4844H13.5V19.9062H13.9219V19.4844Z" fill="#639BFF" />
  <path d="M14.3438 19.4844H13.9219V19.9062H14.3438V19.4844Z" fill="black" />
  <path d="M14.7656 19.4844H14.3438V19.9062H14.7656V19.4844Z" fill="#CBDBFC" />
  <path d="M15.1875 19.4844H14.7656V19.9062H15.1875V19.4844Z" fill="#CBDBFC" />
  <path d="M15.6094 19.4844H15.1875V19.9062H15.6094V19.4844Z" fill="#CBDBFC" />
  <path d="M16.0312 19.4844H15.6094V19.9062H16.0312V19.4844Z" fill="#CBDBFC" />
  <path d="M11.8125 19.9062H11.3906V20.3281H11.8125V19.9062Z" fill="black" />
  <path d="M12.2344 19.9062H11.8125V20.3281H12.2344V19.9062Z" fill="#639BFF" />
  <path d="M12.6562 19.9062H12.2344V20.3281H12.6562V19.9062Z" fill="#6DB2F5" />
  <path d="M13.0781 19.9062H12.6562V20.3281H13.0781V19.9062Z" fill="#CBDBFC" />
  <path d="M13.5 19.9062H13.0781V20.3281H13.5V19.9062Z" fill="#639BFF" />
  <path d="M13.9219 19.9062H13.5V20.3281H13.9219V19.9062Z" fill="#639BFF" />
  <path d="M14.3438 19.9062H13.9219V20.3281H14.3438V19.9062Z" fill="#CBDBFC" />
  <path d="M14.7656 19.9062H14.3438V20.3281H14.7656V19.9062Z" fill="#CBDBFC" />
  <path d="M15.1875 19.9062H14.7656V20.3281H15.1875V19.9062Z" fill="#CBDBFC" />
  <path d="M15.6094 19.9062H15.1875V20.3281H15.6094V19.9062Z" fill="#CBDBFC" />
  <path d="M11.8125 20.3281H11.3906V20.75H11.8125V20.3281Z" fill="black" />
  <path d="M12.2344 20.3281H11.8125V20.75H12.2344V20.3281Z" fill="#639BFF" />
  <path d="M12.6562 20.3281H12.2344V20.75H12.6562V20.3281Z" fill="#639BFF" />
  <path d="M13.0781 20.3281H12.6562V20.75H13.0781V20.3281Z" fill="#639BFF" />
  <path d="M13.5 20.3281H13.0781V20.75H13.5V20.3281Z" fill="#639BFF" />
  <path d="M13.9219 20.3281H13.5V20.75H13.9219V20.3281Z" fill="black" />
  <path d="M14.3438 20.3281H13.9219V20.75H14.3438V20.3281Z" fill="#CBDBFC" />
  <path d="M14.7656 20.3281H14.3438V20.75H14.7656V20.3281Z" fill="#CBDBFC" />
  <path d="M15.1875 20.3281H14.7656V20.75H15.1875V20.3281Z" fill="#CBDBFC" />
  <path d="M11.8125 20.75H11.3906V21.1719H11.8125V20.75Z" fill="black" />
  <path d="M12.2344 20.75H11.8125V21.1719H12.2344V20.75Z" fill="#639BFF" />
  <path d="M12.6562 20.75H12.2344V21.1719H12.6562V20.75Z" fill="#639BFF" />
  <path d="M13.0781 20.75H12.6562V21.1719H13.0781V20.75Z" fill="#639BFF" />
  <path d="M13.5 20.75H13.0781V21.1719H13.5V20.75Z" fill="black" />
  <path d="M13.9219 20.75H13.5V21.1719H13.9219V20.75Z" fill="#CBDBFC" />
  <path d="M14.3438 20.75H13.9219V21.1719H14.3438V20.75Z" fill="#CBDBFC" />
  <path d="M14.7656 20.75H14.3438V21.1719H14.7656V20.75Z" fill="#CBDBFC" />
  <path d="M11.8125 21.1719H11.3906V21.5938H11.8125V21.1719Z" fill="black" />
  <path d="M12.2344 21.1719H11.8125V21.5938H12.2344V21.1719Z" fill="#639BFF" />
  <path d="M12.6562 21.1719H12.2344V21.5938H12.6562V21.1719Z" fill="#639BFF" />
  <path d="M13.0781 21.1719H12.6562V21.5938H13.0781V21.1719Z" fill="black" />
  <path d="M13.5 21.1719H13.0781V21.5938H13.5V21.1719Z" fill="#CBDBFC" />
  <path d="M13.9219 21.1719H13.5V21.5938H13.9219V21.1719Z" fill="#CBDBFC" />
  <path d="M14.3438 21.1719H13.9219V21.5938H14.3438V21.1719Z" fill="#CBDBFC" />
  <path d="M14.7656 21.1719H14.3438V21.5938H14.7656V21.1719Z" fill="#CBDBFC" />
  <path d="M11.8125 21.5938H11.3906V22.0156H11.8125V21.5938Z" fill="black" />
  <path d="M12.2344 21.5938H11.8125V22.0156H12.2344V21.5938Z" fill="#639BFF" />
  <path d="M12.6562 21.5938H12.2344V22.0156H12.6562V21.5938Z" fill="#639BFF" />
  <path d="M13.0781 21.5938H12.6562V22.0156H13.0781V21.5938Z" fill="#CBDBFC" />
  <path d="M13.5 21.5938H13.0781V22.0156H13.5V21.5938Z" fill="#CBDBFC" />
  <path d="M13.9219 21.5938H13.5V22.0156H13.9219V21.5938Z" fill="#CBDBFC" />
  <path d="M14.3438 21.5938H13.9219V22.0156H14.3438V21.5938Z" fill="#CBDBFC" />
  <path d="M11.8125 22.0156H11.3906V22.4375H11.8125V22.0156Z" fill="black" />
  <path d="M12.2344 22.0156H11.8125V22.4375H12.2344V22.0156Z" fill="#639BFF" />
  <path d="M12.6562 22.0156H12.2344V22.4375H12.6562V22.0156Z" fill="black" />
  <path d="M13.0781 22.0156H12.6562V22.4375H13.0781V22.0156Z" fill="#CBDBFC" />
  <path d="M13.5 22.0156H13.0781V22.4375H13.5V22.0156Z" fill="#CBDBFC" />
  <path d="M13.9219 22.0156H13.5V22.4375H13.9219V22.0156Z" fill="#CBDBFC" />
  <path d="M11.8125 22.4375H11.3906V22.8594H11.8125V22.4375Z" fill="black" />
  <path d="M12.2344 22.4375H11.8125V22.8594H12.2344V22.4375Z" fill="black" />
  <path d="M12.6562 22.4375H12.2344V22.8594H12.6562V22.4375Z" fill="#CBDBFC" />
  <path d="M13.0781 22.4375H12.6562V22.8594H13.0781V22.4375Z" fill="#CBDBFC" />
  <path d="M13.5 22.4375H13.0781V22.8594H13.5V22.4375Z" fill="#CBDBFC" />
  <path d="M11.8125 22.8594H11.3906V23.2812H11.8125V22.8594Z" fill="#CBDBFC" />
  <path d="M12.2344 22.8594H11.8125V23.2812H12.2344V22.8594Z" fill="#CBDBFC" />
  <path d="M12.6562 22.8594H12.2344V23.2812H12.6562V22.8594Z" fill="#CBDBFC" />
  <path d="M13.0781 22.8594H12.6562V23.2812H13.0781V22.8594Z" fill="#CBDBFC" />
  <path d="M13.5 22.8594H13.0781V23.2812H13.5V22.8594Z" fill="#CBDBFC" />
  <path d="M11.8125 23.2812H11.3906V23.7031H11.8125V23.2812Z" fill="#CBDBFC" />
  <path d="M12.2344 23.2812H11.8125V23.7031H12.2344V23.2812Z" fill="#CBDBFC" />
  <path d="M12.6562 23.2812H12.2344V23.7031H12.6562V23.2812Z" fill="#CBDBFC" />
  <path d="M13.0781 23.2812H12.6562V23.7031H13.0781V23.2812Z" fill="#CBDBFC" />
</svg>