<svg width="26" height="32" viewBox="0 0 26 32" fill="none" xmlns="http://www.w3.org/2000/svg">
<g clip-path="url(#clip0_78_14120)">
<path d="M7.99984 0H6V1.99984H7.99984V0Z" fill="#E7E7F7"/>
<path d="M9.99984 0H8V1.99984H9.99984V0Z" fill="#E7E7F7"/>
<path d="M17.9998 0H16V1.99984H17.9998V0Z" fill="#E7E7F7"/>
<path d="M19.9998 0H18V1.99984H19.9998V0Z" fill="#E7E7F7"/>
<path d="M5.99984 1.99988H4V3.99972H5.99984V1.99988Z" fill="#96A5C3"/>
<path d="M7.99984 1.99988H6V3.99972H7.99984V1.99988Z" fill="#757FA7"/>
<path d="M9.99984 1.99988H8V3.99972H9.99984V1.99988Z" fill="#4A5185"/>
<path d="M11.9998 1.99988H10V3.99972H11.9998V1.99988Z" fill="#4A5185"/>
<path d="M15.9998 1.99988H14V3.99972H15.9998V1.99988Z" fill="#96A5C3"/>
<path d="M17.9998 1.99988H16V3.99972H17.9998V1.99988Z" fill="#757FA7"/>
<path d="M19.9998 1.99988H18V3.99972H19.9998V1.99988Z" fill="#4A5185"/>
<path d="M21.9998 1.99988H20V3.99972H21.9998V1.99988Z" fill="#4A5185"/>
<path d="M7.99984 4.00024H6V6.00008H7.99984V4.00024Z" fill="#B7C6D4"/>
<path d="M9.99984 4.00024H8V6.00008H9.99984V4.00024Z" fill="#96A5C3"/>
<path d="M17.9998 4.00024H16V6.00008H17.9998V4.00024Z" fill="#B7C6D4"/>
<path d="M19.9998 4.00024H18V6.00008H19.9998V4.00024Z" fill="#96A5C3"/>
<path d="M5.99984 6H4V7.99984H5.99984V6Z" fill="#96A5C3"/>
<path d="M7.99984 6H6V7.99984H7.99984V6Z" fill="#B7C6D4"/>
<path d="M9.99984 6H8V7.99984H9.99984V6Z" fill="#B7C6D4"/>
<path d="M11.9998 6H10V7.99984H11.9998V6Z" fill="#B7C6D4"/>
<path d="M13.9998 6H12V7.99984H13.9998V6Z" fill="#B7C6D4"/>
<path d="M15.9998 6H14V7.99984H15.9998V6Z" fill="#B7C6D4"/>
<path d="M17.9998 6H16V7.99984H17.9998V6Z" fill="#B7C6D4"/>
<path d="M19.9998 6H18V7.99984H19.9998V6Z" fill="#96A5C3"/>
<path d="M21.9998 6H20V7.99984H21.9998V6Z" fill="#4A5185"/>
<path d="M3.99984 7.99988H2V9.99972H3.99984V7.99988Z" fill="#96A5C3"/>
<path d="M5.99984 7.99988H4V9.99972H5.99984V7.99988Z" fill="#B7C6D4"/>
<path d="M7.99984 7.99988H6V9.99972H7.99984V7.99988Z" fill="#E7E7F7"/>
<path d="M9.99984 7.99988H8V9.99972H9.99984V7.99988Z" fill="#E7E7F7"/>
<path d="M11.9998 7.99988H10V9.99972H11.9998V7.99988Z" fill="#B7C6D4"/>
<path d="M13.9998 7.99988H12V9.99972H13.9998V7.99988Z" fill="#B7C6D4"/>
<path d="M15.9998 7.99988H14V9.99972H15.9998V7.99988Z" fill="#B7C6D4"/>
<path d="M17.9998 7.99988H16V9.99972H17.9998V7.99988Z" fill="#B7C6D4"/>
<path d="M19.9998 7.99988H18V9.99972H19.9998V7.99988Z" fill="#B7C6D4"/>
<path d="M21.9998 7.99988H20V9.99972H21.9998V7.99988Z" fill="#96A5C3"/>
<path d="M23.9998 7.99988H22V9.99972H23.9998V7.99988Z" fill="#4A5185"/>
<path d="M1.99984 10.0002H0V12.0001H1.99984V10.0002Z" fill="#96A5C3"/>
<path d="M3.99984 10.0002H2V12.0001H3.99984V10.0002Z" fill="#B7C6D4"/>
<path d="M5.99984 10.0002H4V12.0001H5.99984V10.0002Z" fill="#E7E7F7"/>
<path d="M7.99984 10.0002H6V12.0001H7.99984V10.0002Z" fill="white"/>
<path d="M9.99984 10.0002H8V12.0001H9.99984V10.0002Z" fill="#B7C6D4"/>
<path d="M11.9998 10.0002H10V12.0001H11.9998V10.0002Z" fill="#B7C6D4"/>
<path d="M13.9998 10.0002H12V12.0001H13.9998V10.0002Z" fill="#B7C6D4"/>
<path d="M15.9998 10.0002H14V12.0001H15.9998V10.0002Z" fill="#B7C6D4"/>
<path d="M17.9998 10.0002H16V12.0001H17.9998V10.0002Z" fill="#B7C6D4"/>
<path d="M19.9998 10.0002H18V12.0001H19.9998V10.0002Z" fill="#E7E7F7"/>
<path d="M21.9998 10.0002H20V12.0001H21.9998V10.0002Z" fill="#B7C6D4"/>
<path d="M23.9998 10.0002H22V12.0001H23.9998V10.0002Z" fill="#757FA7"/>
<path d="M25.9998 10.0002H24V12.0001H25.9998V10.0002Z" fill="#4A5185"/>
<path d="M1.99984 12.0001H0V14H1.99984V12.0001Z" fill="#96A5C3"/>
<path d="M3.99984 12.0001H2V14H3.99984V12.0001Z" fill="#E7E7F7"/>
<path d="M5.99984 12.0001H4V14H5.99984V12.0001Z" fill="white"/>
<path d="M7.99984 12.0001H6V14H7.99984V12.0001Z" fill="#E7E7F7"/>
<path d="M9.99984 12.0001H8V14H9.99984V12.0001Z" fill="#E7E7F7"/>
<path d="M11.9998 12.0001H10V14H11.9998V12.0001Z" fill="#B7C6D4"/>
<path d="M13.9998 12.0001H12V14H13.9998V12.0001Z" fill="#B7C6D4"/>
<path d="M15.9998 12.0001H14V14H15.9998V12.0001Z" fill="#B7C6D4"/>
<path d="M17.9998 12.0001H16V14H17.9998V12.0001Z" fill="white"/>
<path d="M19.9998 12.0001H18V14H19.9998V12.0001Z" fill="#E7E7F7"/>
<path d="M21.9998 12.0001H20V14H21.9998V12.0001Z" fill="#B7C6D4"/>
<path d="M23.9998 12.0001H22V14H23.9998V12.0001Z" fill="#96A5C3"/>
<path d="M25.9998 12.0001H24V14H25.9998V12.0001Z" fill="#4A5185"/>
<path d="M1.99984 13.9999H0V15.9997H1.99984V13.9999Z" fill="#96A5C3"/>
<path d="M3.99984 13.9999H2V15.9997H3.99984V13.9999Z" fill="#E7E7F7"/>
<path d="M5.99984 13.9999H4V15.9997H5.99984V13.9999Z" fill="white"/>
<path d="M7.99984 13.9999H6V15.9997H7.99984V13.9999Z" fill="#EEBE8A"/>
<path d="M9.99984 13.9999H8V15.9997H9.99984V13.9999Z" fill="#E3856C"/>
<path d="M11.9998 13.9999H10V15.9997H11.9998V13.9999Z" fill="#E3856C"/>
<path d="M13.9998 13.9999H12V15.9997H13.9998V13.9999Z" fill="#C84A3B"/>
<path d="M15.9998 13.9999H14V15.9997H15.9998V13.9999Z" fill="#C84A3B"/>
<path d="M17.9998 13.9999H16V15.9997H17.9998V13.9999Z" fill="#EEBE8A"/>
<path d="M19.9998 13.9999H18V15.9997H19.9998V13.9999Z" fill="#C84A3B"/>
<path d="M21.9998 13.9999H20V15.9997H21.9998V13.9999Z" fill="#C84A3B"/>
<path d="M23.9998 13.9999H22V15.9997H23.9998V13.9999Z" fill="#96A5C3"/>
<path d="M25.9998 13.9999H24V15.9997H25.9998V13.9999Z" fill="#4A5185"/>
<path d="M1.99984 16.0002H0V18.0001H1.99984V16.0002Z" fill="#96A5C3"/>
<path d="M3.99984 16.0002H2V18.0001H3.99984V16.0002Z" fill="#B7C6D4"/>
<path d="M5.99984 16.0002H4V18.0001H5.99984V16.0002Z" fill="#EEBE8A"/>
<path d="M7.99984 16.0002H6V18.0001H7.99984V16.0002Z" fill="#E3856C"/>
<path d="M9.99984 16.0002H8V18.0001H9.99984V16.0002Z" fill="#E3856C"/>
<path d="M11.9998 16.0002H10V18.0001H11.9998V16.0002Z" fill="#E3856C"/>
<path d="M13.9998 16.0002H12V18.0001H13.9998V16.0002Z" fill="#E3856C"/>
<path d="M15.9998 16.0002H14V18.0001H15.9998V16.0002Z" fill="#E3856C"/>
<path d="M17.9998 16.0002H16V18.0001H17.9998V16.0002Z" fill="#E3856C"/>
<path d="M19.9998 16.0002H18V18.0001H19.9998V16.0002Z" fill="#C84A3B"/>
<path d="M21.9998 16.0002H20V18.0001H21.9998V16.0002Z" fill="#C84A3B"/>
<path d="M23.9998 16.0002H22V18.0001H23.9998V16.0002Z" fill="#96A5C3"/>
<path d="M25.9998 16.0002H24V18.0001H25.9998V16.0002Z" fill="#757FA7"/>
<path d="M1.99984 18.0001H0V20H1.99984V18.0001Z" fill="#96A5C3"/>
<path d="M3.99984 18.0001H2V20H3.99984V18.0001Z" fill="#E7E7F7"/>
<path d="M5.99984 18.0001H4V20H5.99984V18.0001Z" fill="#E3856C"/>
<path d="M7.99984 18.0001H6V20H7.99984V18.0001Z" fill="#C84A3B"/>
<path d="M9.99984 18.0001H8V20H9.99984V18.0001Z" fill="#E3856C"/>
<path d="M11.9998 18.0001H10V20H11.9998V18.0001Z" fill="#C84A3B"/>
<path d="M13.9998 18.0001H12V20H13.9998V18.0001Z" fill="#E3856C"/>
<path d="M15.9998 18.0001H14V20H15.9998V18.0001Z" fill="#E3856C"/>
<path d="M17.9998 18.0001H16V20H17.9998V18.0001Z" fill="#C84A3B"/>
<path d="M19.9998 18.0001H18V20H19.9998V18.0001Z" fill="#C84A3B"/>
<path d="M21.9998 18.0001H20V20H21.9998V18.0001Z" fill="#C84A3B"/>
<path d="M23.9998 18.0001H22V20H23.9998V18.0001Z" fill="#96A5C3"/>
<path d="M25.9998 18.0001H24V20H25.9998V18.0001Z" fill="#757FA7"/>
<path d="M1.99984 19.9999H0V21.9997H1.99984V19.9999Z" fill="#96A5C3"/>
<path d="M3.99984 19.9999H2V21.9997H3.99984V19.9999Z" fill="#E7E7F7"/>
<path d="M5.99984 19.9999H4V21.9997H5.99984V19.9999Z" fill="#C84A3B"/>
<path d="M7.99984 19.9999H6V21.9997H7.99984V19.9999Z" fill="#C84A3B"/>
<path d="M9.99984 19.9999H8V21.9997H9.99984V19.9999Z" fill="#C84A3B"/>
<path d="M11.9998 19.9999H10V21.9997H11.9998V19.9999Z" fill="#E3856C"/>
<path d="M13.9998 19.9999H12V21.9997H13.9998V19.9999Z" fill="#E3856C"/>
<path d="M15.9998 19.9999H14V21.9997H15.9998V19.9999Z" fill="#C84A3B"/>
<path d="M17.9998 19.9999H16V21.9997H17.9998V19.9999Z" fill="#C84A3B"/>
<path d="M19.9998 19.9999H18V21.9997H19.9998V19.9999Z" fill="#C84A3B"/>
<path d="M21.9998 19.9999H20V21.9997H21.9998V19.9999Z" fill="#A1271F"/>
<path d="M23.9998 19.9999H22V21.9997H23.9998V19.9999Z" fill="#96A5C3"/>
<path d="M25.9998 19.9999H24V21.9997H25.9998V19.9999Z" fill="#757FA7"/>
<path d="M1.99984 22.0002H0V24.0001H1.99984V22.0002Z" fill="#96A5C3"/>
<path d="M3.99984 22.0002H2V24.0001H3.99984V22.0002Z" fill="#B7C6D4"/>
<path d="M5.99984 22.0002H4V24.0001H5.99984V22.0002Z" fill="#C84A3B"/>
<path d="M7.99984 22.0002H6V24.0001H7.99984V22.0002Z" fill="#C84A3B"/>
<path d="M9.99984 22.0002H8V24.0001H9.99984V22.0002Z" fill="#E3856C"/>
<path d="M11.9998 22.0002H10V24.0001H11.9998V22.0002Z" fill="#E3856C"/>
<path d="M13.9998 22.0002H12V24.0001H13.9998V22.0002Z" fill="#C84A3B"/>
<path d="M15.9998 22.0002H14V24.0001H15.9998V22.0002Z" fill="#C84A3B"/>
<path d="M17.9998 22.0002H16V24.0001H17.9998V22.0002Z" fill="#C84A3B"/>
<path d="M19.9998 22.0002H18V24.0001H19.9998V22.0002Z" fill="#A1271F"/>
<path d="M21.9998 22.0002H20V24.0001H21.9998V22.0002Z" fill="#A1271F"/>
<path d="M23.9998 22.0002H22V24.0001H23.9998V22.0002Z" fill="#B7C6D4"/>
<path d="M25.9998 22.0002H24V24.0001H25.9998V22.0002Z" fill="#757FA7"/>
<path d="M1.99984 24.0001H0V26H1.99984V24.0001Z" fill="#96A5C3"/>
<path d="M3.99984 24.0001H2V26H3.99984V24.0001Z" fill="#96A5C3"/>
<path d="M5.99984 24.0001H4V26H5.99984V24.0001Z" fill="#B7C6D4"/>
<path d="M7.99984 24.0001H6V26H7.99984V24.0001Z" fill="#E3856C"/>
<path d="M9.99984 24.0001H8V26H9.99984V24.0001Z" fill="#E3856C"/>
<path d="M11.9998 24.0001H10V26H11.9998V24.0001Z" fill="#C84A3B"/>
<path d="M13.9998 24.0001H12V26H13.9998V24.0001Z" fill="#C84A3B"/>
<path d="M15.9998 24.0001H14V26H15.9998V24.0001Z" fill="#C84A3B"/>
<path d="M17.9998 24.0001H16V26H17.9998V24.0001Z" fill="#A1271F"/>
<path d="M19.9998 24.0001H18V26H19.9998V24.0001Z" fill="#A1271F"/>
<path d="M21.9998 24.0001H20V26H21.9998V24.0001Z" fill="#96A5C3"/>
<path d="M23.9998 24.0001H22V26H23.9998V24.0001Z" fill="#B7C6D4"/>
<path d="M25.9998 24.0001H24V26H25.9998V24.0001Z" fill="#757FA7"/>
<path d="M1.99984 26H0V27.9998H1.99984V26Z" fill="#4A5185"/>
<path d="M3.99984 26H2V27.9998H3.99984V26Z" fill="#96A5C3"/>
<path d="M5.99984 26H4V27.9998H5.99984V26Z" fill="#96A5C3"/>
<path d="M7.99984 26H6V27.9998H7.99984V26Z" fill="#B7C6D4"/>
<path d="M9.99984 26H8V27.9998H9.99984V26Z" fill="#B7C6D4"/>
<path d="M11.9998 26H10V27.9998H11.9998V26Z" fill="#B7C6D4"/>
<path d="M13.9998 26H12V27.9998H13.9998V26Z" fill="#B7C6D4"/>
<path d="M15.9998 26H14V27.9998H15.9998V26Z" fill="#B7C6D4"/>
<path d="M17.9998 26H16V27.9998H17.9998V26Z" fill="#B7C6D4"/>
<path d="M19.9998 26H18V27.9998H19.9998V26Z" fill="#96A5C3"/>
<path d="M21.9998 26H20V27.9998H21.9998V26Z" fill="#B7C6D4"/>
<path d="M23.9998 26H22V27.9998H23.9998V26Z" fill="#96A5C3"/>
<path d="M25.9998 26H24V27.9998H25.9998V26Z" fill="#757FA7"/>
<path d="M3.99984 28.0004H2V30.0002H3.99984V28.0004Z" fill="#4A5185"/>
<path d="M5.99984 28.0004H4V30.0002H5.99984V28.0004Z" fill="#96A5C3"/>
<path d="M7.99984 28.0004H6V30.0002H7.99984V28.0004Z" fill="#96A5C3"/>
<path d="M9.99984 28.0004H8V30.0002H9.99984V28.0004Z" fill="#96A5C3"/>
<path d="M11.9998 28.0004H10V30.0002H11.9998V28.0004Z" fill="#96A5C3"/>
<path d="M13.9998 28.0004H12V30.0002H13.9998V28.0004Z" fill="#96A5C3"/>
<path d="M15.9998 28.0004H14V30.0002H15.9998V28.0004Z" fill="#96A5C3"/>
<path d="M17.9998 28.0004H16V30.0002H17.9998V28.0004Z" fill="#96A5C3"/>
<path d="M19.9998 28.0004H18V30.0002H19.9998V28.0004Z" fill="#B7C6D4"/>
<path d="M21.9998 28.0004H20V30.0002H21.9998V28.0004Z" fill="#96A5C3"/>
<path d="M23.9998 28.0004H22V30.0002H23.9998V28.0004Z" fill="#4A5185"/>
<path d="M5.99984 30.0001H4V32H5.99984V30.0001Z" fill="#4A5185"/>
<path d="M7.99984 30.0001H6V32H7.99984V30.0001Z" fill="#4A5185"/>
<path d="M9.99984 30.0001H8V32H9.99984V30.0001Z" fill="#4A5185"/>
<path d="M11.9998 30.0001H10V32H11.9998V30.0001Z" fill="#4A5185"/>
<path d="M13.9998 30.0001H12V32H13.9998V30.0001Z" fill="#757FA7"/>
<path d="M15.9998 30.0001H14V32H15.9998V30.0001Z" fill="#757FA7"/>
<path d="M17.9998 30.0001H16V32H17.9998V30.0001Z" fill="#757FA7"/>
<path d="M19.9998 30.0001H18V32H19.9998V30.0001Z" fill="#757FA7"/>
<path d="M21.9998 30.0001H20V32H21.9998V30.0001Z" fill="#4A5185"/>
</g>
<defs>
<clipPath id="clip0_78_14120">
<rect width="25.9999" height="32" fill="white"/>
</clipPath>
</defs>
</svg>
