<svg width="12" height="12" viewBox="0 0 12 12" fill="none" xmlns="http://www.w3.org/2000/svg">
  <g clip-path="url(#clip0_600_116553)">
    <path d="M1 0H0V1H1V0Z" fill="black" />
    <path d="M2 0H1V1H2V0Z" fill="black" />
    <path d="M3 0H2V1H3V0Z" fill="black" />
    <path d="M4 0H3V1H4V0Z" fill="black" />
    <path d="M5 0H4V1H5V0Z" fill="black" />
    <path d="M6 0H5V1H6V0Z" fill="black" />
    <path d="M7 0H6V1H7V0Z" fill="black" />
    <path d="M8 0H7V1H8V0Z" fill="black" />
    <path d="M9 0H8V1H9V0Z" fill="black" />
    <path d="M1 1H0V2H1V1Z" fill="black" />
    <path d="M2 1H1V2H2V1Z" fill="#3B50CE" />
    <path d="M3 1H2V2H3V1Z" fill="#2A36B1" />
    <path d="M4 1H3V2H4V1Z" fill="#78909C" />
    <path d="M5 1H4V2H5V1Z" fill="#78909C" />
    <path d="M6 1H5V2H6V1Z" fill="#78909C" />
    <path d="M7 1H6V2H7V1Z" fill="black" />
    <path d="M8 1H7V2H8V1Z" fill="#78909C" />
    <path d="M9 1H8V2H9V1Z" fill="#3B50CE" />
    <path d="M10 1H9V2H10V1Z" fill="black" />
    <path d="M1 2H0V3H1V2Z" fill="black" />
    <path d="M2 2H1V3H2V2Z" fill="#3B50CE" />
    <path d="M3 2H2V3H3V2Z" fill="#2A36B1" />
    <path d="M4 2H3V3H4V2Z" fill="#78909C" />
    <path d="M5 2H4V3H5V2Z" fill="#78909C" />
    <path d="M6 2H5V3H6V2Z" fill="#78909C" />
    <path d="M7 2H6V3H7V2Z" fill="black" />
    <path d="M8 2H7V3H8V2Z" fill="#78909C" />
    <path d="M9 2H8V3H9V2Z" fill="#3B50CE" />
    <path d="M10 2H9V3H10V2Z" fill="#3B50CE" />
    <path d="M11 2H10V3H11V2Z" fill="black" />
    <path d="M1 3H0V4H1V3Z" fill="black" />
    <path d="M2 3H1V4H2V3Z" fill="#3B50CE" />
    <path d="M3 3H2V4H3V3Z" fill="#2A36B1" />
    <path d="M4 3H3V4H4V3Z" fill="#78909C" />
    <path d="M5 3H4V4H5V3Z" fill="#78909C" />
    <path d="M6 3H5V4H6V3Z" fill="#78909C" />
    <path d="M7 3H6V4H7V3Z" fill="black" />
    <path d="M8 3H7V4H8V3Z" fill="#78909C" />
    <path d="M9 3H8V4H9V3Z" fill="#3B50CE" />
    <path d="M10 3H9V4H10V3Z" fill="#3B50CE" />
    <path d="M11 3H10V4H11V3Z" fill="#3B50CE" />
    <path d="M12 3H11V4H12V3Z" fill="black" />
    <path d="M1 4H0V5H1V4Z" fill="black" />
    <path d="M2 4H1V5H2V4Z" fill="#3B50CE" />
    <path d="M3 4H2V5H3V4Z" fill="#3B50CE" />
    <path d="M4 4H3V5H4V4Z" fill="#3B50CE" />
    <path d="M5 4H4V5H5V4Z" fill="#3B50CE" />
    <path d="M6 4H5V5H6V4Z" fill="#3B50CE" />
    <path d="M7 4H6V5H7V4Z" fill="#3B50CE" />
    <path d="M8 4H7V5H8V4Z" fill="#3B50CE" />
    <path d="M9 4H8V5H9V4Z" fill="#3B50CE" />
    <path d="M10 4H9V5H10V4Z" fill="#3B50CE" />
    <path d="M11 4H10V5H11V4Z" fill="#3B50CE" />
    <path d="M12 4H11V5H12V4Z" fill="black" />
    <path d="M1 5H0V6H1V5Z" fill="black" />
    <path d="M2 5H1V6H2V5Z" fill="#3B50CE" />
    <path d="M3 5H2V6H3V5Z" fill="#3B50CE" />
    <path d="M4 5H3V6H4V5Z" fill="#3B50CE" />
    <path d="M5 5H4V6H5V5Z" fill="#3B50CE" />
    <path d="M6 5H5V6H6V5Z" fill="#3B50CE" />
    <path d="M7 5H6V6H7V5Z" fill="#3B50CE" />
    <path d="M8 5H7V6H8V5Z" fill="#3B50CE" />
    <path d="M9 5H8V6H9V5Z" fill="#3B50CE" />
    <path d="M10 5H9V6H10V5Z" fill="#3B50CE" />
    <path d="M11 5H10V6H11V5Z" fill="#3B50CE" />
    <path d="M12 5H11V6H12V5Z" fill="black" />
    <path d="M1 6H0V7H1V6Z" fill="black" />
    <path d="M2 6H1V7H2V6Z" fill="#3B50CE" />
    <path d="M3 6H2V7H3V6Z" fill="white" />
    <path d="M4 6H3V7H4V6Z" fill="white" />
    <path d="M5 6H4V7H5V6Z" fill="white" />
    <path d="M6 6H5V7H6V6Z" fill="white" />
    <path d="M7 6H6V7H7V6Z" fill="white" />
    <path d="M8 6H7V7H8V6Z" fill="white" />
    <path d="M9 6H8V7H9V6Z" fill="white" />
    <path d="M10 6H9V7H10V6Z" fill="white" />
    <path d="M11 6H10V7H11V6Z" fill="#3B50CE" />
    <path d="M12 6H11V7H12V6Z" fill="black" />
    <path d="M1 7H0V8H1V7Z" fill="black" />
    <path d="M2 7H1V8H2V7Z" fill="#3B50CE" />
    <path d="M3 7H2V8H3V7Z" fill="#B0BEC5" />
    <path d="M4 7H3V8H4V7Z" fill="#B0BEC5" />
    <path d="M5 7H4V8H5V7Z" fill="#B0BEC5" />
    <path d="M6 7H5V8H6V7Z" fill="#B0BEC5" />
    <path d="M7 7H6V8H7V7Z" fill="#B0BEC5" />
    <path d="M8 7H7V8H8V7Z" fill="#B0BEC5" />
    <path d="M9 7H8V8H9V7Z" fill="#B0BEC5" />
    <path d="M10 7H9V8H10V7Z" fill="#B0BEC5" />
    <path d="M11 7H10V8H11V7Z" fill="#3B50CE" />
    <path d="M12 7H11V8H12V7Z" fill="black" />
    <path d="M1 8H0V9H1V8Z" fill="black" />
    <path d="M2 8H1V9H2V8Z" fill="#3B50CE" />
    <path d="M3 8H2V9H3V8Z" fill="white" />
    <path d="M4 8H3V9H4V8Z" fill="white" />
    <path d="M5 8H4V9H5V8Z" fill="white" />
    <path d="M6 8H5V9H6V8Z" fill="white" />
    <path d="M7 8H6V9H7V8Z" fill="white" />
    <path d="M8 8H7V9H8V8Z" fill="white" />
    <path d="M9 8H8V9H9V8Z" fill="white" />
    <path d="M10 8H9V9H10V8Z" fill="white" />
    <path d="M11 8H10V9H11V8Z" fill="#3B50CE" />
    <path d="M12 8H11V9H12V8Z" fill="black" />
    <path d="M1 9H0V10H1V9Z" fill="black" />
    <path d="M2 9H1V10H2V9Z" fill="#3B50CE" />
    <path d="M3 9H2V10H3V9Z" fill="#B0BEC5" />
    <path d="M4 9H3V10H4V9Z" fill="#B0BEC5" />
    <path d="M5 9H4V10H5V9Z" fill="#B0BEC5" />
    <path d="M6 9H5V10H6V9Z" fill="#B0BEC5" />
    <path d="M7 9H6V10H7V9Z" fill="#B0BEC5" />
    <path d="M8 9H7V10H8V9Z" fill="#B0BEC5" />
    <path d="M9 9H8V10H9V9Z" fill="#B0BEC5" />
    <path d="M10 9H9V10H10V9Z" fill="#B0BEC5" />
    <path d="M11 9H10V10H11V9Z" fill="#3B50CE" />
    <path d="M12 9H11V10H12V9Z" fill="black" />
    <path d="M1 10H0V11H1V10Z" fill="black" />
    <path d="M2 10H1V11H2V10Z" fill="#3B50CE" />
    <path d="M3 10H2V11H3V10Z" fill="white" />
    <path d="M4 10H3V11H4V10Z" fill="white" />
    <path d="M5 10H4V11H5V10Z" fill="white" />
    <path d="M6 10H5V11H6V10Z" fill="white" />
    <path d="M7 10H6V11H7V10Z" fill="white" />
    <path d="M8 10H7V11H8V10Z" fill="white" />
    <path d="M9 10H8V11H9V10Z" fill="white" />
    <path d="M10 10H9V11H10V10Z" fill="white" />
    <path d="M11 10H10V11H11V10Z" fill="#3B50CE" />
    <path d="M12 10H11V11H12V10Z" fill="black" />
    <path d="M1 11H0V12H1V11Z" fill="black" />
    <path d="M2 11H1V12H2V11Z" fill="black" />
    <path d="M3 11H2V12H3V11Z" fill="black" />
    <path d="M4 11H3V12H4V11Z" fill="black" />
    <path d="M5 11H4V12H5V11Z" fill="black" />
    <path d="M6 11H5V12H6V11Z" fill="black" />
    <path d="M7 11H6V12H7V11Z" fill="black" />
    <path d="M8 11H7V12H8V11Z" fill="black" />
    <path d="M9 11H8V12H9V11Z" fill="black" />
    <path d="M10 11H9V12H10V11Z" fill="black" />
    <path d="M11 11H10V12H11V11Z" fill="black" />
    <path d="M12 11H11V12H12V11Z" fill="black" />
  </g>
  <defs>
    <clipPath id="clip0_600_116553">
      <rect width="12" height="12" fill="white" />
    </clipPath>
  </defs>
</svg>