<svg width="12" height="66" viewBox="0 0 12 66" fill="none" xmlns="http://www.w3.org/2000/svg">
<rect y="0.5" width="12" height="12" rx="6" fill="#4BB543"/>
<path d="M7.43766 8.54C7.46966 8.668 7.48566 8.828 7.48566 9.02C7.48566 9.204 7.46966 9.364 7.43766 9.5H4.55766C4.52566 9.364 4.50966 9.204 4.50966 9.02C4.50966 8.828 4.52566 8.668 4.55766 8.54H5.51766C5.48566 8.404 5.46966 8.244 5.46966 8.06C5.46966 7.868 5.48566 7.708 5.51766 7.58C5.48566 7.444 5.46966 7.284 5.46966 7.1C5.46966 6.908 5.48566 6.748 5.51766 6.62C5.48566 6.484 5.46966 6.324 5.46966 6.14C5.46966 5.948 5.48566 5.788 5.51766 5.66C5.48566 5.524 5.46966 5.364 5.46966 5.18C5.46966 4.988 5.48566 4.828 5.51766 4.7H4.79766C4.76566 4.564 4.74966 4.404 4.74966 4.22C4.74966 4.028 4.76566 3.868 4.79766 3.74H5.51766C5.48566 3.604 5.46966 3.444 5.46966 3.26C5.46966 3.068 5.48566 2.908 5.51766 2.78H6.47766C6.50966 2.908 6.52566 3.068 6.52566 3.26C6.52566 3.444 6.50966 3.604 6.47766 3.74C6.50966 3.868 6.52566 4.028 6.52566 4.22C6.52566 4.404 6.50966 4.564 6.47766 4.7C6.50966 4.828 6.52566 4.988 6.52566 5.18C6.52566 5.364 6.50966 5.524 6.47766 5.66C6.50966 5.788 6.52566 5.948 6.52566 6.14C6.52566 6.324 6.50966 6.484 6.47766 6.62C6.50966 6.748 6.52566 6.908 6.52566 7.1C6.52566 7.284 6.50966 7.444 6.47766 7.58C6.50966 7.708 6.52566 7.868 6.52566 8.06C6.52566 8.244 6.50966 8.404 6.47766 8.54H7.43766Z" fill="white"/>
<path d="M6 41.5L8.88675 36.5L3.11325 36.5L6 41.5ZM5.5 24.5L5.5 25.5625L6.5 25.5625L6.5 24.5L5.5 24.5ZM5.5 27.6875L5.5 29.8125L6.5 29.8125L6.5 27.6875L5.5 27.6875ZM5.5 31.9375L5.5 34.0625L6.5 34.0625L6.5 31.9375L5.5 31.9375ZM5.5 36.1875L5.5 38.3125L6.5 38.3125L6.5 36.1875L5.5 36.1875Z" fill="#F8F9FA"/>
<rect y="53.5" width="12" height="12" rx="6" fill="#D67D2F"/>
<path d="M7.72566 58.18C7.72566 58.364 7.70966 58.524 7.67766 58.66H7.07766C7.10966 58.788 7.12566 58.948 7.12566 59.14C7.12566 59.324 7.10966 59.484 7.07766 59.62H6.47766C6.50966 59.748 6.52566 59.908 6.52566 60.1C6.52566 60.284 6.50966 60.444 6.47766 60.58H5.87766C5.90966 60.708 5.92566 60.868 5.92566 61.06C5.92566 61.244 5.90966 61.404 5.87766 61.54H7.67766C7.70966 61.668 7.72566 61.828 7.72566 62.02C7.72566 62.204 7.70966 62.364 7.67766 62.5H4.31766C4.28566 62.364 4.26966 62.204 4.26966 62.02C4.26966 61.828 4.28566 61.668 4.31766 61.54H4.91766C4.88566 61.404 4.86966 61.244 4.86966 61.06C4.86966 60.868 4.88566 60.708 4.91766 60.58H5.51766C5.48566 60.444 5.46966 60.284 5.46966 60.1C5.46966 59.908 5.48566 59.748 5.51766 59.62H6.11766C6.08566 59.484 6.06966 59.324 6.06966 59.14C6.06966 58.948 6.08566 58.788 6.11766 58.66H6.71766C6.68566 58.524 6.66966 58.364 6.66966 58.18C6.66966 57.988 6.68566 57.828 6.71766 57.7C6.68566 57.564 6.66966 57.404 6.66966 57.22C6.66966 57.028 6.68566 56.868 6.71766 56.74H5.03766C5.06966 56.868 5.08566 57.028 5.08566 57.22C5.08566 57.404 5.06966 57.564 5.03766 57.7H4.31766C4.28566 57.564 4.26966 57.404 4.26966 57.22C4.26966 57.028 4.28566 56.868 4.31766 56.74H4.79766C4.76566 56.604 4.74966 56.444 4.74966 56.26C4.74966 56.068 4.76566 55.908 4.79766 55.78H7.19766C7.22966 55.908 7.24566 56.068 7.24566 56.26C7.24566 56.444 7.22966 56.604 7.19766 56.74H7.67766C7.70966 56.868 7.72566 57.028 7.72566 57.22C7.72566 57.404 7.70966 57.564 7.67766 57.7C7.70966 57.828 7.72566 57.988 7.72566 58.18Z" fill="white"/>
</svg>
