<svg width="32" height="32" viewBox="0 0 32 32" fill="none" xmlns="http://www.w3.org/2000/svg">
<g clip-path="url(#clip0_78_14466)">
<path d="M7.52969 6.10352e-05H5.64746V1.88229H7.52969V6.10352e-05Z" fill="#2D2F4A"/>
<path d="M9.4125 6.10352e-05H7.53027V1.88229H9.4125V6.10352e-05Z" fill="#2D2F4A"/>
<path d="M11.2943 6.10352e-05H9.41211V1.88229H11.2943V6.10352e-05Z" fill="#2D2F4A"/>
<path d="M28.2357 6.10352e-05H26.3535V1.88229H28.2357V6.10352e-05Z" fill="#2D2F4A"/>
<path d="M30.1186 6.10352e-05H28.2363V1.88229H30.1186V6.10352e-05Z" fill="#2D2F4A"/>
<path d="M7.52969 1.88226H5.64746V3.76449H7.52969V1.88226Z" fill="#2D2F4A"/>
<path d="M9.4125 1.88226H7.53027V3.76449H9.4125V1.88226Z" fill="#ACDAE1"/>
<path d="M11.2943 1.88226H9.41211V3.76449H11.2943V1.88226Z" fill="#ACDAE1"/>
<path d="M13.1762 1.88226H11.2939V3.76449H13.1762V1.88226Z" fill="#2D2F4A"/>
<path d="M26.3529 1.88226H24.4707V3.76449H26.3529V1.88226Z" fill="#2D2F4A"/>
<path d="M28.2357 1.88226H26.3535V3.76449H28.2357V1.88226Z" fill="#ACDAE1"/>
<path d="M30.1186 1.88226H28.2363V3.76449H30.1186V1.88226Z" fill="#8AA8AB"/>
<path d="M32.0004 1.88226H30.1182V3.76449H32.0004V1.88226Z" fill="#2D2F4A"/>
<path d="M9.4125 3.76453H7.53027V5.64676H9.4125V3.76453Z" fill="#2D2F4A"/>
<path d="M11.2943 3.76453H9.41211V5.64676H11.2943V3.76453Z" fill="#8AA8AB"/>
<path d="M13.1762 3.76453H11.2939V5.64676H13.1762V3.76453Z" fill="#ACDAE1"/>
<path d="M15.059 3.76453H13.1768V5.64676H15.059V3.76453Z" fill="#2D2F4A"/>
<path d="M24.4711 3.76453H22.5889V5.64676H24.4711V3.76453Z" fill="#2D2F4A"/>
<path d="M26.3529 3.76453H24.4707V5.64676H26.3529V3.76453Z" fill="#ACDAE1"/>
<path d="M28.2357 3.76453H26.3535V5.64676H28.2357V3.76453Z" fill="#8AA8AB"/>
<path d="M30.1186 3.76453H28.2363V5.64676H30.1186V3.76453Z" fill="#4C5A72"/>
<path d="M32.0004 3.76453H30.1182V5.64676H32.0004V3.76453Z" fill="#2D2F4A"/>
<path d="M1.88223 5.64728H0V7.52951H1.88223V5.64728Z" fill="#2D2F4A"/>
<path d="M3.76504 5.64728H1.88281V7.52951H3.76504V5.64728Z" fill="#2D2F4A"/>
<path d="M9.4125 5.64728H7.53027V7.52951H9.4125V5.64728Z" fill="#2D2F4A"/>
<path d="M11.2943 5.64728H9.41211V7.52951H11.2943V5.64728Z" fill="#8AA8AB"/>
<path d="M13.1762 5.64728H11.2939V7.52951H13.1762V5.64728Z" fill="#ACDAE1"/>
<path d="M15.059 5.64728H13.1768V7.52951H15.059V5.64728Z" fill="#2D2F4A"/>
<path d="M24.4711 5.64728H22.5889V7.52951H24.4711V5.64728Z" fill="#2D2F4A"/>
<path d="M26.3529 5.64728H24.4707V7.52951H26.3529V5.64728Z" fill="#8AA8AB"/>
<path d="M28.2357 5.64728H26.3535V7.52951H28.2357V5.64728Z" fill="#4C5A72"/>
<path d="M30.1186 5.64728H28.2363V7.52951H30.1186V5.64728Z" fill="#2D2F4A"/>
<path d="M1.88223 7.52948H0V9.41171H1.88223V7.52948Z" fill="#2D2F4A"/>
<path d="M3.76504 7.52948H1.88281V9.41171H3.76504V7.52948Z" fill="#ACDAE1"/>
<path d="M5.64688 7.52948H3.76465V9.41171H5.64688V7.52948Z" fill="#2D2F4A"/>
<path d="M7.52969 7.52948H5.64746V9.41171H7.52969V7.52948Z" fill="#2D2F4A"/>
<path d="M9.4125 7.52948H7.53027V9.41171H9.4125V7.52948Z" fill="#8AA8AB"/>
<path d="M11.2943 7.52948H9.41211V9.41171H11.2943V7.52948Z" fill="#8AA8AB"/>
<path d="M13.1762 7.52948H11.2939V9.41171H13.1762V7.52948Z" fill="#ACDAE1"/>
<path d="M15.059 7.52948H13.1768V9.41171H15.059V7.52948Z" fill="#2D2F4A"/>
<path d="M22.5893 7.52948H20.707V9.41171H22.5893V7.52948Z" fill="#2D2F4A"/>
<path d="M24.4711 7.52948H22.5889V9.41171H24.4711V7.52948Z" fill="#4C5A72"/>
<path d="M26.3529 7.52948H24.4707V9.41171H26.3529V7.52948Z" fill="#2D2F4A"/>
<path d="M28.2357 7.52948H26.3535V9.41171H28.2357V7.52948Z" fill="#2D2F4A"/>
<path d="M1.88223 9.41174H0V11.294H1.88223V9.41174Z" fill="#2D2F4A"/>
<path d="M3.76504 9.41174H1.88281V11.294H3.76504V9.41174Z" fill="#ACDAE1"/>
<path d="M5.64688 9.41174H3.76465V11.294H5.64688V9.41174Z" fill="#8AA8AB"/>
<path d="M7.52969 9.41174H5.64746V11.294H7.52969V9.41174Z" fill="#8AA8AB"/>
<path d="M9.4125 9.41174H7.53027V11.294H9.4125V9.41174Z" fill="#8AA8AB"/>
<path d="M11.2943 9.41174H9.41211V11.294H11.2943V9.41174Z" fill="#8AA8AB"/>
<path d="M13.1762 9.41174H11.2939V11.294H13.1762V9.41174Z" fill="#4C5A72"/>
<path d="M15.059 9.41174H13.1768V11.294H15.059V9.41174Z" fill="#2D2F4A"/>
<path d="M20.7064 9.41174H18.8242V11.294H20.7064V9.41174Z" fill="#2D2F4A"/>
<path d="M22.5893 9.41174H20.707V11.294H22.5893V9.41174Z" fill="#8AA8AB"/>
<path d="M24.4711 9.41174H22.5889V11.294H24.4711V9.41174Z" fill="#2D2F4A"/>
<path d="M3.76504 11.2939H1.88281V13.1762H3.76504V11.2939Z" fill="#2D2F4A"/>
<path d="M5.64688 11.2939H3.76465V13.1762H5.64688V11.2939Z" fill="#ACDAE1"/>
<path d="M7.52969 11.2939H5.64746V13.1762H7.52969V11.2939Z" fill="#8AA8AB"/>
<path d="M9.4125 11.2939H7.53027V13.1762H9.4125V11.2939Z" fill="#8AA8AB"/>
<path d="M11.2943 11.2939H9.41211V13.1762H11.2943V11.2939Z" fill="#4C5A72"/>
<path d="M13.1762 11.2939H11.2939V13.1762H13.1762V11.2939Z" fill="#2D2F4A"/>
<path d="M15.059 11.2939H13.1768V13.1762H15.059V11.2939Z" fill="#ACDAE1"/>
<path d="M16.9418 11.2939H15.0596V13.1762H16.9418V11.2939Z" fill="#2D2F4A"/>
<path d="M18.8236 11.2939H16.9414V13.1762H18.8236V11.2939Z" fill="#2D2F4A"/>
<path d="M20.7064 11.2939H18.8242V13.1762H20.7064V11.2939Z" fill="#8AA8AB"/>
<path d="M22.5893 11.2939H20.707V13.1762H22.5893V11.2939Z" fill="#2D2F4A"/>
<path d="M5.64688 13.1767H3.76465V15.0589H5.64688V13.1767Z" fill="#2D2F4A"/>
<path d="M7.52969 13.1767H5.64746V15.0589H7.52969V13.1767Z" fill="#2D2F4A"/>
<path d="M9.4125 13.1767H7.53027V15.0589H9.4125V13.1767Z" fill="#2D2F4A"/>
<path d="M11.2943 13.1767H9.41211V15.0589H11.2943V13.1767Z" fill="#2D2F4A"/>
<path d="M13.1762 13.1767H11.2939V15.0589H13.1762V13.1767Z" fill="#4C5A72"/>
<path d="M15.059 13.1767H13.1768V15.0589H15.059V13.1767Z" fill="#8AA8AB"/>
<path d="M16.9418 13.1767H15.0596V15.0589H16.9418V13.1767Z" fill="#ACDAE1"/>
<path d="M18.8236 13.1767H16.9414V15.0589H18.8236V13.1767Z" fill="#2D2F4A"/>
<path d="M20.7064 13.1767H18.8242V15.0589H20.7064V13.1767Z" fill="#2D2F4A"/>
<path d="M13.1762 15.059H11.2939V16.9412H13.1762V15.059Z" fill="#2D2F4A"/>
<path d="M15.059 15.059H13.1768V16.9412H15.059V15.059Z" fill="#4C5A72"/>
<path d="M16.9418 15.059H15.0596V16.9412H16.9418V15.059Z" fill="#8AA8AB"/>
<path d="M18.8236 15.059H16.9414V16.9412H18.8236V15.059Z" fill="#ACDAE1"/>
<path d="M20.7064 15.059H18.8242V16.9412H20.7064V15.059Z" fill="#2D2F4A"/>
<path d="M9.4125 16.9412H7.53027V18.8234H9.4125V16.9412Z" fill="#55162B"/>
<path d="M11.2943 16.9412H9.41211V18.8234H11.2943V16.9412Z" fill="#55162B"/>
<path d="M13.1762 16.9412H11.2939V18.8234H13.1762V16.9412Z" fill="#993328"/>
<path d="M15.059 16.9412H13.1768V18.8234H15.059V16.9412Z" fill="#2D2F4A"/>
<path d="M16.9418 16.9412H15.0596V18.8234H16.9418V16.9412Z" fill="#4C5A72"/>
<path d="M18.8236 16.9412H16.9414V18.8234H18.8236V16.9412Z" fill="#8AA8AB"/>
<path d="M20.7064 16.9412H18.8242V18.8234H20.7064V16.9412Z" fill="#ACDAE1"/>
<path d="M22.5893 16.9412H20.707V18.8234H22.5893V16.9412Z" fill="#2D2F4A"/>
<path d="M24.4711 16.9412H22.5889V18.8234H24.4711V16.9412Z" fill="#2D2F4A"/>
<path d="M26.3529 16.9412H24.4707V18.8234H26.3529V16.9412Z" fill="#2D2F4A"/>
<path d="M28.2357 16.9412H26.3535V18.8234H28.2357V16.9412Z" fill="#2D2F4A"/>
<path d="M7.52969 18.8234H5.64746V20.7057H7.52969V18.8234Z" fill="#55162B"/>
<path d="M9.4125 18.8234H7.53027V20.7057H9.4125V18.8234Z" fill="#993328"/>
<path d="M11.2943 18.8234H9.41211V20.7057H11.2943V18.8234Z" fill="#D2742E"/>
<path d="M13.1762 18.8234H11.2939V20.7057H13.1762V18.8234Z" fill="#D2742E"/>
<path d="M15.059 18.8234H13.1768V20.7057H15.059V18.8234Z" fill="#993328"/>
<path d="M16.9418 18.8234H15.0596V20.7057H16.9418V18.8234Z" fill="#2D2F4A"/>
<path d="M18.8236 18.8234H16.9414V20.7057H18.8236V18.8234Z" fill="#4C5A72"/>
<path d="M20.7064 18.8234H18.8242V20.7057H20.7064V18.8234Z" fill="#2D2F4A"/>
<path d="M22.5893 18.8234H20.707V20.7057H22.5893V18.8234Z" fill="#4C5A72"/>
<path d="M24.4711 18.8234H22.5889V20.7057H24.4711V18.8234Z" fill="#ACDAE1"/>
<path d="M26.3529 18.8234H24.4707V20.7057H26.3529V18.8234Z" fill="#ACDAE1"/>
<path d="M28.2357 18.8234H26.3535V20.7057H28.2357V18.8234Z" fill="#ACDAE1"/>
<path d="M30.1186 18.8234H28.2363V20.7057H30.1186V18.8234Z" fill="#2D2F4A"/>
<path d="M5.64688 20.7062H3.76465V22.5884H5.64688V20.7062Z" fill="#55162B"/>
<path d="M7.52969 20.7062H5.64746V22.5884H7.52969V20.7062Z" fill="#993328"/>
<path d="M9.4125 20.7062H7.53027V22.5884H9.4125V20.7062Z" fill="#D2742E"/>
<path d="M11.2943 20.7062H9.41211V22.5884H11.2943V20.7062Z" fill="#D2742E"/>
<path d="M13.1762 20.7062H11.2939V22.5884H13.1762V20.7062Z" fill="#D2742E"/>
<path d="M15.059 20.7062H13.1768V22.5884H15.059V20.7062Z" fill="#55162B"/>
<path d="M18.8236 20.7062H16.9414V22.5884H18.8236V20.7062Z" fill="#2D2F4A"/>
<path d="M20.7064 20.7062H18.8242V22.5884H20.7064V20.7062Z" fill="#4C5A72"/>
<path d="M22.5893 20.7062H20.707V22.5884H22.5893V20.7062Z" fill="#8AA8AB"/>
<path d="M24.4711 20.7062H22.5889V22.5884H24.4711V20.7062Z" fill="#8AA8AB"/>
<path d="M26.3529 20.7062H24.4707V22.5884H26.3529V20.7062Z" fill="#8AA8AB"/>
<path d="M28.2357 20.7062H26.3535V22.5884H28.2357V20.7062Z" fill="#8AA8AB"/>
<path d="M30.1186 20.7062H28.2363V22.5884H30.1186V20.7062Z" fill="#ACDAE1"/>
<path d="M32.0004 20.7062H30.1182V22.5884H32.0004V20.7062Z" fill="#2D2F4A"/>
<path d="M3.76504 22.5884H1.88281V24.4706H3.76504V22.5884Z" fill="#55162B"/>
<path d="M5.64688 22.5884H3.76465V24.4706H5.64688V22.5884Z" fill="#993328"/>
<path d="M7.52969 22.5884H5.64746V24.4706H7.52969V22.5884Z" fill="#D2742E"/>
<path d="M9.4125 22.5884H7.53027V24.4706H9.4125V22.5884Z" fill="#D2742E"/>
<path d="M11.2943 22.5884H9.41211V24.4706H11.2943V22.5884Z" fill="#D2742E"/>
<path d="M13.1762 22.5884H11.2939V24.4706H13.1762V22.5884Z" fill="#993328"/>
<path d="M15.059 22.5884H13.1768V24.4706H15.059V22.5884Z" fill="#55162B"/>
<path d="M18.8236 22.5884H16.9414V24.4706H18.8236V22.5884Z" fill="#2D2F4A"/>
<path d="M20.7064 22.5884H18.8242V24.4706H20.7064V22.5884Z" fill="#8AA8AB"/>
<path d="M22.5893 22.5884H20.707V24.4706H22.5893V22.5884Z" fill="#8AA8AB"/>
<path d="M24.4711 22.5884H22.5889V24.4706H24.4711V22.5884Z" fill="#8AA8AB"/>
<path d="M26.3529 22.5884H24.4707V24.4706H26.3529V22.5884Z" fill="#2D2F4A"/>
<path d="M28.2357 22.5884H26.3535V24.4706H28.2357V22.5884Z" fill="#2D2F4A"/>
<path d="M30.1186 22.5884H28.2363V24.4706H30.1186V22.5884Z" fill="#8AA8AB"/>
<path d="M32.0004 22.5884H30.1182V24.4706H32.0004V22.5884Z" fill="#2D2F4A"/>
<path d="M1.88223 24.4706H0V26.3529H1.88223V24.4706Z" fill="#55162B"/>
<path d="M3.76504 24.4706H1.88281V26.3529H3.76504V24.4706Z" fill="#993328"/>
<path d="M5.64688 24.4706H3.76465V26.3529H5.64688V24.4706Z" fill="#D2742E"/>
<path d="M7.52969 24.4706H5.64746V26.3529H7.52969V24.4706Z" fill="#D2742E"/>
<path d="M9.4125 24.4706H7.53027V26.3529H9.4125V24.4706Z" fill="#D2742E"/>
<path d="M11.2943 24.4706H9.41211V26.3529H11.2943V24.4706Z" fill="#993328"/>
<path d="M13.1762 24.4706H11.2939V26.3529H13.1762V24.4706Z" fill="#55162B"/>
<path d="M18.8236 24.4706H16.9414V26.3529H18.8236V24.4706Z" fill="#2D2F4A"/>
<path d="M20.7064 24.4706H18.8242V26.3529H20.7064V24.4706Z" fill="#8AA8AB"/>
<path d="M22.5893 24.4706H20.707V26.3529H22.5893V24.4706Z" fill="#8AA8AB"/>
<path d="M24.4711 24.4706H22.5889V26.3529H24.4711V24.4706Z" fill="#2D2F4A"/>
<path d="M30.1186 24.4706H28.2363V26.3529H30.1186V24.4706Z" fill="#2D2F4A"/>
<path d="M32.0004 24.4706H30.1182V26.3529H32.0004V24.4706Z" fill="#2D2F4A"/>
<path d="M1.88223 26.3528H0V28.2351H1.88223V26.3528Z" fill="#55162B"/>
<path d="M3.76504 26.3528H1.88281V28.2351H3.76504V26.3528Z" fill="#993328"/>
<path d="M5.64688 26.3528H3.76465V28.2351H5.64688V26.3528Z" fill="#55162B"/>
<path d="M7.52969 26.3528H5.64746V28.2351H7.52969V26.3528Z" fill="#D2742E"/>
<path d="M9.4125 26.3528H7.53027V28.2351H9.4125V26.3528Z" fill="#993328"/>
<path d="M11.2943 26.3528H9.41211V28.2351H11.2943V26.3528Z" fill="#55162B"/>
<path d="M18.8236 26.3528H16.9414V28.2351H18.8236V26.3528Z" fill="#2D2F4A"/>
<path d="M20.7064 26.3528H18.8242V28.2351H20.7064V26.3528Z" fill="#ACDAE1"/>
<path d="M22.5893 26.3528H20.707V28.2351H22.5893V26.3528Z" fill="#8AA8AB"/>
<path d="M24.4711 26.3528H22.5889V28.2351H24.4711V26.3528Z" fill="#2D2F4A"/>
<path d="M1.88223 28.2356H0V30.1178H1.88223V28.2356Z" fill="#55162B"/>
<path d="M3.76504 28.2356H1.88281V30.1178H3.76504V28.2356Z" fill="#993328"/>
<path d="M5.64688 28.2356H3.76465V30.1178H5.64688V28.2356Z" fill="#993328"/>
<path d="M7.52969 28.2356H5.64746V30.1178H7.52969V28.2356Z" fill="#993328"/>
<path d="M9.4125 28.2356H7.53027V30.1178H9.4125V28.2356Z" fill="#55162B"/>
<path d="M20.7064 28.2356H18.8242V30.1178H20.7064V28.2356Z" fill="#2D2F4A"/>
<path d="M22.5893 28.2356H20.707V30.1178H22.5893V28.2356Z" fill="#ACDAE1"/>
<path d="M24.4711 28.2356H22.5889V30.1178H24.4711V28.2356Z" fill="#8AA8AB"/>
<path d="M26.3529 28.2356H24.4707V30.1178H26.3529V28.2356Z" fill="#2D2F4A"/>
<path d="M3.76504 30.1179H1.88281V32.0001H3.76504V30.1179Z" fill="#55162B"/>
<path d="M5.64688 30.1179H3.76465V32.0001H5.64688V30.1179Z" fill="#55162B"/>
<path d="M7.52969 30.1179H5.64746V32.0001H7.52969V30.1179Z" fill="#55162B"/>
<path d="M22.5893 30.1179H20.707V32.0001H22.5893V30.1179Z" fill="#2D2F4A"/>
<path d="M24.4711 30.1179H22.5889V32.0001H24.4711V30.1179Z" fill="#2D2F4A"/>
<path d="M26.3529 30.1179H24.4707V32.0001H26.3529V30.1179Z" fill="#2D2F4A"/>
</g>
<defs>
<clipPath id="clip0_78_14466">
<rect width="32" height="32" fill="white"/>
</clipPath>
</defs>
</svg>
