<svg width="24" height="24" viewBox="0 0 24 24" fill="none" xmlns="http://www.w3.org/2000/svg">
<g clip-path="url(#clip0_861_487987)">
<path opacity="0.219608" d="M16 0H15V1H16V0Z" fill="white"/>
<path opacity="0.552941" d="M17 0H16V1H17V0Z" fill="white"/>
<path opacity="0.552941" d="M18 0H17V1H18V0Z" fill="white"/>
<path opacity="0.886275" d="M19 0H18V1H19V0Z" fill="white"/>
<path d="M20 0H19V1H20V0Z" fill="white"/>
<path d="M21 0H20V1H21V0Z" fill="white"/>
<path opacity="0.886275" d="M22 0H21V1H22V0Z" fill="white"/>
<path opacity="0.552941" d="M23 0H22V1H23V0Z" fill="white"/>
<path opacity="0.552941" d="M24 0H23V1H24V0Z" fill="white"/>
<path opacity="0.109804" d="M14 1H13V2H14V1Z" fill="white"/>
<path opacity="0.109804" d="M15 1H14V2H15V1Z" fill="white"/>
<path opacity="0.443137" d="M16 1H15V2H16V1Z" fill="white"/>
<path opacity="0.776471" d="M17 1H16V2H17V1Z" fill="white"/>
<path opacity="0.776471" d="M18 1H17V2H18V1Z" fill="white"/>
<path d="M19 1H18V2H19V1Z" fill="white"/>
<path d="M20 1H19V2H20V1Z" fill="white"/>
<path d="M21 1H20V2H21V1Z" fill="white"/>
<path d="M22 1H21V2H22V1Z" fill="white"/>
<path opacity="0.776471" d="M23 1H22V2H23V1Z" fill="white"/>
<path opacity="0.776471" d="M24 1H23V2H24V1Z" fill="white"/>
<path opacity="0.219608" d="M14 2H13V3H14V2Z" fill="white"/>
<path opacity="0.219608" d="M15 2H14V3H15V2Z" fill="white"/>
<path opacity="0.552941" d="M16 2H15V3H16V2Z" fill="white"/>
<path opacity="0.886275" d="M17 2H16V3H17V2Z" fill="white"/>
<path opacity="0.886275" d="M18 2H17V3H18V2Z" fill="white"/>
<path d="M19 2H18V3H19V2Z" fill="white"/>
<path d="M20 2H19V3H20V2Z" fill="white"/>
<path d="M21 2H20V3H21V2Z" fill="white"/>
<path d="M22 2H21V3H22V2Z" fill="white"/>
<path opacity="0.886275" d="M23 2H22V3H23V2Z" fill="white"/>
<path opacity="0.886275" d="M24 2H23V3H24V2Z" fill="white"/>
<path opacity="0.219608" d="M14 3H13V4H14V3Z" fill="white"/>
<path opacity="0.219608" d="M15 3H14V4H15V3Z" fill="white"/>
<path opacity="0.552941" d="M16 3H15V4H16V3Z" fill="white"/>
<path opacity="0.886275" d="M17 3H16V4H17V3Z" fill="white"/>
<path opacity="0.886275" d="M18 3H17V4H18V3Z" fill="white"/>
<path d="M19 3H18V4H19V3Z" fill="white"/>
<path d="M20 3H19V4H20V3Z" fill="white"/>
<path d="M21 3H20V4H21V3Z" fill="white"/>
<path d="M22 3H21V4H22V3Z" fill="white"/>
<path opacity="0.886275" d="M23 3H22V4H23V3Z" fill="white"/>
<path opacity="0.886275" d="M24 3H23V4H24V3Z" fill="white"/>
<path opacity="0.333333" d="M14 4H13V5H14V4Z" fill="white"/>
<path opacity="0.333333" d="M15 4H14V5H15V4Z" fill="white"/>
<path opacity="0.666667" d="M16 4H15V5H16V4Z" fill="white"/>
<path d="M17 4H16V5H17V4Z" fill="white"/>
<path d="M18 4H17V5H18V4Z" fill="white"/>
<path d="M19 4H18V5H19V4Z" fill="white"/>
<path d="M20 4H19V5H20V4Z" fill="black"/>
<path d="M21 4H20V5H21V4Z" fill="white"/>
<path d="M22 4H21V5H22V4Z" fill="white"/>
<path d="M23 4H22V5H23V4Z" fill="white"/>
<path d="M24 4H23V5H24V4Z" fill="white"/>
<path opacity="0.109804" d="M13 5H12V6H13V5Z" fill="white"/>
<path opacity="0.443137" d="M14 5H13V6H14V5Z" fill="white"/>
<path opacity="0.443137" d="M15 5H14V6H15V5Z" fill="white"/>
<path opacity="0.776471" d="M16 5H15V6H16V5Z" fill="white"/>
<path d="M17 5H16V6H17V5Z" fill="white"/>
<path d="M18 5H17V6H18V5Z" fill="black"/>
<path d="M19 5H18V6H19V5Z" fill="black"/>
<path d="M20 5H19V6H20V5Z" fill="black"/>
<path d="M21 5H20V6H21V5Z" fill="black"/>
<path d="M22 5H21V6H22V5Z" fill="white"/>
<path d="M23 5H22V6H23V5Z" fill="white"/>
<path d="M24 5H23V6H24V5Z" fill="white"/>
<path d="M11 6H10V7H11V6Z" fill="white"/>
<path d="M12 6H11V7H12V6Z" fill="white"/>
<path d="M13 6H12V7H13V6Z" fill="white"/>
<path opacity="0.443137" d="M14 6H13V7H14V6Z" fill="white"/>
<path opacity="0.443137" d="M15 6H14V7H15V6Z" fill="white"/>
<path opacity="0.776471" d="M16 6H15V7H16V6Z" fill="white"/>
<path d="M17 6H16V7H17V6Z" fill="white"/>
<path d="M18 6H17V7H18V6Z" fill="black"/>
<path d="M19 6H18V7H19V6Z" fill="black"/>
<path d="M20 6H19V7H20V6Z" fill="black"/>
<path d="M21 6H20V7H21V6Z" fill="black"/>
<path d="M22 6H21V7H22V6Z" fill="white"/>
<path d="M23 6H22V7H23V6Z" fill="white"/>
<path d="M24 6H23V7H24V6Z" fill="white"/>
<path d="M11 7H10V8H11V7Z" fill="white"/>
<path d="M12 7H11V8H12V7Z" fill="#1A94D5"/>
<path d="M13 7H12V8H13V7Z" fill="#1E9DDE"/>
<path d="M14 7H13V8H14V7Z" fill="white"/>
<path opacity="0.552941" d="M15 7H14V8H15V7Z" fill="white"/>
<path opacity="0.886275" d="M16 7H15V8H16V7Z" fill="white"/>
<path d="M17 7H16V8H17V7Z" fill="white"/>
<path d="M18 7H17V8H18V7Z" fill="black"/>
<path d="M19 7H18V8H19V7Z" fill="black"/>
<path d="M20 7H19V8H20V7Z" fill="black"/>
<path d="M21 7H20V8H21V7Z" fill="black"/>
<path d="M22 7H21V8H22V7Z" fill="white"/>
<path d="M23 7H22V8H23V7Z" fill="white"/>
<path d="M24 7H23V8H24V7Z" fill="white"/>
<path d="M11 8H10V9H11V8Z" fill="white"/>
<path d="M12 8H11V9H12V8Z" fill="#1B95D6"/>
<path d="M13 8H12V9H13V8Z" fill="#1F9EDF"/>
<path d="M14 8H13V9H14V8Z" fill="white"/>
<path opacity="0.666667" d="M15 8H14V9H15V8Z" fill="white"/>
<path d="M16 8H15V9H16V8Z" fill="white"/>
<path d="M17 8H16V9H17V8Z" fill="black"/>
<path d="M18 8H17V9H18V8Z" fill="black"/>
<path d="M19 8H18V9H19V8Z" fill="black"/>
<path d="M20 8H19V9H20V8Z" fill="black"/>
<path d="M21 8H20V9H21V8Z" fill="black"/>
<path d="M22 8H21V9H22V8Z" fill="black"/>
<path d="M23 8H22V9H23V8Z" fill="white"/>
<path d="M24 8H23V9H24V8Z" fill="white"/>
<path d="M11 9H10V10H11V9Z" fill="white"/>
<path d="M12 9H11V10H12V9Z" fill="#1B96D7"/>
<path d="M13 9H12V10H13V9Z" fill="#1F9FE0"/>
<path d="M14 9H13V10H14V9Z" fill="#23A8E9"/>
<path d="M15 9H14V10H15V9Z" fill="white"/>
<path d="M16 9H15V10H16V9Z" fill="white"/>
<path d="M17 9H16V10H17V9Z" fill="black"/>
<path d="M18 9H17V10H18V9Z" fill="black"/>
<path d="M19 9H18V10H19V9Z" fill="black"/>
<path d="M20 9H19V10H20V9Z" fill="black"/>
<path d="M21 9H20V10H21V9Z" fill="black"/>
<path d="M22 9H21V10H22V9Z" fill="black"/>
<path d="M23 9H22V10H23V9Z" fill="white"/>
<path d="M24 9H23V10H24V9Z" fill="white"/>
<path d="M1 10H0V11H1V10Z" fill="white"/>
<path d="M2 10H1V11H2V10Z" fill="white"/>
<path d="M3 10H2V11H3V10Z" fill="white"/>
<path d="M4 10H3V11H4V10Z" fill="white"/>
<path d="M5 10H4V11H5V10Z" fill="white"/>
<path d="M6 10H5V11H6V10Z" fill="white"/>
<path d="M7 10H6V11H7V10Z" fill="white"/>
<path d="M8 10H7V11H8V10Z" fill="white"/>
<path d="M9 10H8V11H9V10Z" fill="white"/>
<path d="M10 10H9V11H10V10Z" fill="white"/>
<path d="M11 10H10V11H11V10Z" fill="white"/>
<path d="M12 10H11V11H12V10Z" fill="#1B96D8"/>
<path d="M13 10H12V11H13V10Z" fill="#1FA0E1"/>
<path d="M14 10H13V11H14V10Z" fill="#23A9EA"/>
<path d="M15 10H14V11H15V10Z" fill="#27B3F3"/>
<path d="M16 10H15V11H16V10Z" fill="white"/>
<path d="M17 10H16V11H17V10Z" fill="black"/>
<path d="M18 10H17V11H18V10Z" fill="black"/>
<path d="M19 10H18V11H19V10Z" fill="black"/>
<path d="M20 10H19V11H20V10Z" fill="black"/>
<path d="M21 10H20V11H21V10Z" fill="black"/>
<path d="M22 10H21V11H22V10Z" fill="black"/>
<path d="M23 10H22V11H23V10Z" fill="white"/>
<path d="M24 10H23V11H24V10Z" fill="white"/>
<path d="M1 11H0V12H1V11Z" fill="white"/>
<path d="M2 11H1V12H2V11Z" fill="#01579B"/>
<path d="M3 11H2V12H3V11Z" fill="#01579B"/>
<path d="M4 11H3V12H4V11Z" fill="#01579B"/>
<path d="M5 11H4V12H5V11Z" fill="#01579B"/>
<path d="M6 11H5V12H6V11Z" fill="#045FA3"/>
<path d="M7 11H6V12H7V11Z" fill="#0868AC"/>
<path d="M8 11H7V12H8V11Z" fill="#0C72B5"/>
<path d="M9 11H8V12H9V11Z" fill="#107BBE"/>
<path d="M10 11H9V12H10V11Z" fill="#1485C7"/>
<path d="M11 11H10V12H11V11Z" fill="#188ED0"/>
<path d="M12 11H11V12H12V11Z" fill="#1C97D9"/>
<path d="M13 11H12V12H13V11Z" fill="#20A1E2"/>
<path d="M14 11H13V12H14V11Z" fill="#24AAEB"/>
<path d="M15 11H14V12H15V11Z" fill="#28B4F4"/>
<path d="M16 11H15V12H16V11Z" fill="#29B6F6"/>
<path d="M17 11H16V12H17V11Z" fill="white"/>
<path d="M18 11H17V12H18V11Z" fill="white"/>
<path d="M19 11H18V12H19V11Z" fill="black"/>
<path d="M20 11H19V12H20V11Z" fill="black"/>
<path d="M21 11H20V12H21V11Z" fill="black"/>
<path d="M22 11H21V12H22V11Z" fill="black"/>
<path d="M23 11H22V12H23V11Z" fill="white"/>
<path d="M24 11H23V12H24V11Z" fill="white"/>
<path d="M1 12H0V13H1V12Z" fill="white"/>
<path d="M2 12H1V13H2V12Z" fill="#01579B"/>
<path d="M3 12H2V13H3V12Z" fill="#01579B"/>
<path d="M4 12H3V13H4V12Z" fill="#01579B"/>
<path d="M5 12H4V13H5V12Z" fill="#01579B"/>
<path d="M6 12H5V13H6V12Z" fill="#0460A4"/>
<path d="M7 12H6V13H7V12Z" fill="#0869AD"/>
<path d="M8 12H7V13H8V12Z" fill="#0C73B6"/>
<path d="M9 12H8V13H9V12Z" fill="#107CBF"/>
<path d="M10 12H9V13H10V12Z" fill="#1486C8"/>
<path d="M11 12H10V13H11V12Z" fill="#188FD1"/>
<path d="M12 12H11V13H12V12Z" fill="#1C98DA"/>
<path d="M13 12H12V13H13V12Z" fill="#20A2E3"/>
<path d="M14 12H13V13H14V12Z" fill="#24ABEC"/>
<path d="M15 12H14V13H15V12Z" fill="#28B5F5"/>
<path d="M16 12H15V13H16V12Z" fill="#29B6F6"/>
<path d="M17 12H16V13H17V12Z" fill="#29B6F6"/>
<path d="M18 12H17V13H18V12Z" fill="#29B6F6"/>
<path d="M19 12H18V13H19V12Z" fill="white"/>
<path d="M20 12H19V13H20V12Z" fill="black"/>
<path d="M21 12H20V13H21V12Z" fill="black"/>
<path d="M22 12H21V13H22V12Z" fill="black"/>
<path d="M23 12H22V13H23V12Z" fill="white"/>
<path d="M24 12H23V13H24V12Z" fill="white"/>
<path d="M1 13H0V14H1V13Z" fill="white"/>
<path d="M2 13H1V14H2V13Z" fill="#01579B"/>
<path d="M3 13H2V14H3V13Z" fill="#01579B"/>
<path d="M4 13H3V14H4V13Z" fill="#01579B"/>
<path d="M5 13H4V14H5V13Z" fill="#01579B"/>
<path d="M6 13H5V14H6V13Z" fill="#0561A4"/>
<path d="M7 13H6V14H7V13Z" fill="#096AAD"/>
<path d="M8 13H7V14H8V13Z" fill="#0D74B6"/>
<path d="M9 13H8V14H9V13Z" fill="#117DBF"/>
<path d="M10 13H9V14H10V13Z" fill="#1586C8"/>
<path d="M11 13H10V14H11V13Z" fill="#1990D1"/>
<path d="M12 13H11V14H12V13Z" fill="#1D99DA"/>
<path d="M13 13H12V14H13V13Z" fill="#21A3E3"/>
<path d="M14 13H13V14H14V13Z" fill="#25ACEC"/>
<path d="M15 13H14V14H15V13Z" fill="#29B6F6"/>
<path d="M16 13H15V14H16V13Z" fill="#29B6F6"/>
<path d="M17 13H16V14H17V13Z" fill="#29B6F6"/>
<path d="M18 13H17V14H18V13Z" fill="#29B6F6"/>
<path d="M19 13H18V14H19V13Z" fill="white"/>
<path d="M20 13H19V14H20V13Z" fill="black"/>
<path d="M21 13H20V14H21V13Z" fill="black"/>
<path d="M22 13H21V14H22V13Z" fill="black"/>
<path d="M23 13H22V14H23V13Z" fill="white"/>
<path d="M24 13H23V14H24V13Z" fill="white"/>
<path d="M1 14H0V15H1V14Z" fill="white"/>
<path d="M2 14H1V15H2V14Z" fill="#01579B"/>
<path d="M3 14H2V15H3V14Z" fill="#01579B"/>
<path d="M4 14H3V15H4V14Z" fill="#01579B"/>
<path d="M5 14H4V15H5V14Z" fill="#01589C"/>
<path d="M6 14H5V15H6V14Z" fill="#0562A5"/>
<path d="M7 14H6V15H7V14Z" fill="#096BAE"/>
<path d="M8 14H7V15H8V14Z" fill="#0D75B7"/>
<path d="M9 14H8V15H9V14Z" fill="#117EC0"/>
<path d="M10 14H9V15H10V14Z" fill="#1587C9"/>
<path d="M11 14H10V15H11V14Z" fill="#1991D2"/>
<path d="M12 14H11V15H12V14Z" fill="#1D9ADB"/>
<path d="M13 14H12V15H13V14Z" fill="#21A4E4"/>
<path d="M14 14H13V15H14V14Z" fill="#25ADED"/>
<path d="M15 14H14V15H15V14Z" fill="#29B6F6"/>
<path d="M16 14H15V15H16V14Z" fill="#29B6F6"/>
<path d="M17 14H16V15H17V14Z" fill="white"/>
<path d="M18 14H17V15H18V14Z" fill="white"/>
<path d="M19 14H18V15H19V14Z" fill="black"/>
<path d="M20 14H19V15H20V14Z" fill="black"/>
<path d="M21 14H20V15H21V14Z" fill="black"/>
<path d="M22 14H21V15H22V14Z" fill="black"/>
<path d="M23 14H22V15H23V14Z" fill="white"/>
<path d="M24 14H23V15H24V14Z" fill="white"/>
<path d="M1 15H0V16H1V15Z" fill="white"/>
<path d="M2 15H1V16H2V15Z" fill="white"/>
<path d="M3 15H2V16H3V15Z" fill="white"/>
<path d="M4 15H3V16H4V15Z" fill="white"/>
<path d="M5 15H4V16H5V15Z" fill="white"/>
<path d="M6 15H5V16H6V15Z" fill="white"/>
<path d="M7 15H6V16H7V15Z" fill="white"/>
<path d="M8 15H7V16H8V15Z" fill="white"/>
<path d="M9 15H8V16H9V15Z" fill="white"/>
<path d="M10 15H9V16H10V15Z" fill="white"/>
<path d="M11 15H10V16H11V15Z" fill="white"/>
<path d="M12 15H11V16H12V15Z" fill="#1D9BDC"/>
<path d="M13 15H12V16H13V15Z" fill="#21A5E5"/>
<path d="M14 15H13V16H14V15Z" fill="#25AEEE"/>
<path d="M15 15H14V16H15V15Z" fill="#29B6F6"/>
<path d="M16 15H15V16H16V15Z" fill="white"/>
<path d="M17 15H16V16H17V15Z" fill="black"/>
<path d="M18 15H17V16H18V15Z" fill="black"/>
<path d="M19 15H18V16H19V15Z" fill="black"/>
<path d="M20 15H19V16H20V15Z" fill="black"/>
<path d="M21 15H20V16H21V15Z" fill="black"/>
<path d="M22 15H21V16H22V15Z" fill="black"/>
<path d="M23 15H22V16H23V15Z" fill="white"/>
<path d="M24 15H23V16H24V15Z" fill="white"/>
<path d="M11 16H10V17H11V16Z" fill="white"/>
<path d="M12 16H11V17H12V16Z" fill="#1E9CDD"/>
<path d="M13 16H12V17H13V16Z" fill="#22A6E6"/>
<path d="M14 16H13V17H14V16Z" fill="#26AFEF"/>
<path d="M15 16H14V17H15V16Z" fill="white"/>
<path d="M16 16H15V17H16V16Z" fill="white"/>
<path d="M17 16H16V17H17V16Z" fill="black"/>
<path d="M18 16H17V17H18V16Z" fill="black"/>
<path d="M19 16H18V17H19V16Z" fill="black"/>
<path d="M20 16H19V17H20V16Z" fill="black"/>
<path d="M21 16H20V17H21V16Z" fill="black"/>
<path d="M22 16H21V17H22V16Z" fill="black"/>
<path d="M23 16H22V17H23V16Z" fill="white"/>
<path d="M24 16H23V17H24V16Z" fill="white"/>
<path d="M11 17H10V18H11V17Z" fill="white"/>
<path d="M12 17H11V18H12V17Z" fill="#1E9DDE"/>
<path d="M13 17H12V18H13V17Z" fill="#22A6E7"/>
<path d="M14 17H13V18H14V17Z" fill="white"/>
<path opacity="0.552941" d="M15 17H14V18H15V17Z" fill="white"/>
<path opacity="0.886275" d="M16 17H15V18H16V17Z" fill="white"/>
<path d="M17 17H16V18H17V17Z" fill="white"/>
<path d="M18 17H17V18H18V17Z" fill="black"/>
<path d="M19 17H18V18H19V17Z" fill="black"/>
<path d="M20 17H19V18H20V17Z" fill="black"/>
<path d="M21 17H20V18H21V17Z" fill="black"/>
<path d="M22 17H21V18H22V17Z" fill="white"/>
<path d="M23 17H22V18H23V17Z" fill="white"/>
<path d="M24 17H23V18H24V17Z" fill="white"/>
<path d="M11 18H10V19H11V18Z" fill="white"/>
<path d="M12 18H11V19H12V18Z" fill="#1F9EDF"/>
<path d="M13 18H12V19H13V18Z" fill="#23A7E8"/>
<path d="M14 18H13V19H14V18Z" fill="white"/>
<path opacity="0.552941" d="M15 18H14V19H15V18Z" fill="white"/>
<path opacity="0.886275" d="M16 18H15V19H16V18Z" fill="white"/>
<path d="M17 18H16V19H17V18Z" fill="white"/>
<path d="M18 18H17V19H18V18Z" fill="black"/>
<path d="M19 18H18V19H19V18Z" fill="black"/>
<path d="M20 18H19V19H20V18Z" fill="black"/>
<path d="M21 18H20V19H21V18Z" fill="black"/>
<path d="M22 18H21V19H22V18Z" fill="white"/>
<path d="M23 18H22V19H23V18Z" fill="white"/>
<path d="M24 18H23V19H24V18Z" fill="white"/>
<path d="M11 19H10V20H11V19Z" fill="white"/>
<path d="M12 19H11V20H12V19Z" fill="white"/>
<path d="M13 19H12V20H13V19Z" fill="white"/>
<path opacity="0.443137" d="M14 19H13V20H14V19Z" fill="white"/>
<path opacity="0.443137" d="M15 19H14V20H15V19Z" fill="white"/>
<path opacity="0.776471" d="M16 19H15V20H16V19Z" fill="white"/>
<path d="M17 19H16V20H17V19Z" fill="white"/>
<path d="M18 19H17V20H18V19Z" fill="black"/>
<path d="M19 19H18V20H19V19Z" fill="black"/>
<path d="M20 19H19V20H20V19Z" fill="black"/>
<path d="M21 19H20V20H21V19Z" fill="black"/>
<path d="M22 19H21V20H22V19Z" fill="white"/>
<path d="M23 19H22V20H23V19Z" fill="white"/>
<path d="M24 19H23V20H24V19Z" fill="white"/>
<path opacity="0.333333" d="M14 20H13V21H14V20Z" fill="white"/>
<path opacity="0.333333" d="M15 20H14V21H15V20Z" fill="white"/>
<path opacity="0.666667" d="M16 20H15V21H16V20Z" fill="white"/>
<path d="M17 20H16V21H17V20Z" fill="white"/>
<path d="M18 20H17V21H18V20Z" fill="white"/>
<path d="M19 20H18V21H19V20Z" fill="white"/>
<path d="M20 20H19V21H20V20Z" fill="black"/>
<path d="M21 20H20V21H21V20Z" fill="white"/>
<path d="M22 20H21V21H22V20Z" fill="white"/>
<path d="M23 20H22V21H23V20Z" fill="white"/>
<path d="M24 20H23V21H24V20Z" fill="white"/>
<path opacity="0.333333" d="M14 21H13V22H14V21Z" fill="white"/>
<path opacity="0.333333" d="M15 21H14V22H15V21Z" fill="white"/>
<path opacity="0.666667" d="M16 21H15V22H16V21Z" fill="white"/>
<path d="M17 21H16V22H17V21Z" fill="white"/>
<path d="M18 21H17V22H18V21Z" fill="white"/>
<path d="M19 21H18V22H19V21Z" fill="white"/>
<path d="M20 21H19V22H20V21Z" fill="white"/>
<path d="M21 21H20V22H21V21Z" fill="white"/>
<path d="M22 21H21V22H22V21Z" fill="white"/>
<path d="M23 21H22V22H23V21Z" fill="white"/>
<path d="M24 21H23V22H24V21Z" fill="white"/>
<path opacity="0.219608" d="M14 22H13V23H14V22Z" fill="white"/>
<path opacity="0.219608" d="M15 22H14V23H15V22Z" fill="white"/>
<path opacity="0.552941" d="M16 22H15V23H16V22Z" fill="white"/>
<path opacity="0.886275" d="M17 22H16V23H17V22Z" fill="white"/>
<path opacity="0.886275" d="M18 22H17V23H18V22Z" fill="white"/>
<path d="M19 22H18V23H19V22Z" fill="white"/>
<path d="M20 22H19V23H20V22Z" fill="white"/>
<path d="M21 22H20V23H21V22Z" fill="white"/>
<path d="M22 22H21V23H22V22Z" fill="white"/>
<path opacity="0.886275" d="M23 22H22V23H23V22Z" fill="white"/>
<path opacity="0.886275" d="M24 22H23V23H24V22Z" fill="white"/>
<path opacity="0.109804" d="M14 23H13V24H14V23Z" fill="white"/>
<path opacity="0.109804" d="M15 23H14V24H15V23Z" fill="white"/>
<path opacity="0.443137" d="M16 23H15V24H16V23Z" fill="white"/>
<path opacity="0.776471" d="M17 23H16V24H17V23Z" fill="white"/>
<path opacity="0.776471" d="M18 23H17V24H18V23Z" fill="white"/>
<path d="M19 23H18V24H19V23Z" fill="white"/>
<path d="M20 23H19V24H20V23Z" fill="white"/>
<path d="M21 23H20V24H21V23Z" fill="white"/>
<path d="M22 23H21V24H22V23Z" fill="white"/>
<path opacity="0.776471" d="M23 23H22V24H23V23Z" fill="white"/>
<path opacity="0.776471" d="M24 23H23V24H24V23Z" fill="white"/>
</g>
<defs>
<clipPath id="clip0_861_487987">
<rect width="24" height="24" fill="white"/>
</clipPath>
</defs>
</svg>
