<svg width="12" height="17" viewBox="0 0 12 17" fill="none" xmlns="http://www.w3.org/2000/svg">
<path d="M4.457 0H3.08203V1.30766H4.457V0Z" fill="#C07153"/>
<path d="M5.83395 0H4.45898V1.30766H5.83395V0Z" fill="#C07153"/>
<path d="M7.207 0H5.83203V1.30766H7.207V0Z" fill="#C07153"/>
<path d="M8.582 0H7.20703V1.30766H8.582V0Z" fill="#C07153"/>
<path d="M3.082 1.30762H1.70703V2.61527H3.082V1.30762Z" fill="#C07153"/>
<path d="M4.457 1.30762H3.08203V2.61527H4.457V1.30762Z" fill="#F1CCB4"/>
<path d="M5.83395 1.30762H4.45898V2.61527H5.83395V1.30762Z" fill="#DC997A"/>
<path d="M7.207 1.30762H5.83203V2.61527H7.207V1.30762Z" fill="#DC997A"/>
<path d="M8.582 1.30762H7.20703V2.61527H8.582V1.30762Z" fill="#DC997A"/>
<path d="M9.957 1.30762H8.58203V2.61527H9.957V1.30762Z" fill="#C07153"/>
<path d="M1.707 2.61523H0.332031V3.92289H1.707V2.61523Z" fill="#C07153"/>
<path d="M3.082 2.61523H1.70703V3.92289H3.082V2.61523Z" fill="#F1CCB4"/>
<path d="M4.457 2.61523H3.08203V3.92289H4.457V2.61523Z" fill="#F1CCB4"/>
<path d="M5.83395 2.61523H4.45898V3.92289H5.83395V2.61523Z" fill="#984641"/>
<path d="M7.207 2.61523H5.83203V3.92289H7.207V2.61523Z" fill="#984641"/>
<path d="M8.582 2.61523H7.20703V3.92289H8.582V2.61523Z" fill="#DC997A"/>
<path d="M9.957 2.61523H8.58203V3.92289H9.957V2.61523Z" fill="#DC997A"/>
<path d="M11.334 2.61523H9.95898V3.92289H11.334V2.61523Z" fill="#C07153"/>
<path d="M1.707 3.92285H0.332031V5.23051H1.707V3.92285Z" fill="#C07153"/>
<path d="M3.082 3.92285H1.70703V5.23051H3.082V3.92285Z" fill="#DC997A"/>
<path d="M4.45895 3.92285H3.08398V5.23051H4.45895V3.92285Z" fill="#F1CCB4"/>
<path d="M5.83395 3.92285H4.45898V5.23051H5.83395V3.92285Z" fill="#F1CCB4"/>
<path d="M7.207 3.92285H5.83203V5.23051H7.207V3.92285Z" fill="#FBF2E8"/>
<path d="M8.582 3.92285H7.20703V5.23051H8.582V3.92285Z" fill="#984641"/>
<path d="M9.957 3.92285H8.58203V5.23051H9.957V3.92285Z" fill="#DC997A"/>
<path d="M11.334 3.92285H9.95898V5.23051H11.334V3.92285Z" fill="#C07153"/>
<path d="M1.707 5.23047H0.332031V6.53812H1.707V5.23047Z" fill="#C07153"/>
<path d="M3.082 5.23145H1.70703V6.5391H3.082V5.23145Z" fill="#DC997A"/>
<path d="M4.457 5.23145H3.08203V6.5391H4.457V5.23145Z" fill="#DC997A"/>
<path d="M5.83395 5.23047H4.45898V6.53812H5.83395V5.23047Z" fill="#984641"/>
<path d="M7.207 5.23047H5.83203V6.53812H7.207V5.23047Z" fill="#984641"/>
<path d="M8.582 5.23145H7.20703V6.5391H8.582V5.23145Z" fill="#FBF2E8"/>
<path d="M9.957 5.23145H8.58203V6.5391H9.957V5.23145Z" fill="#F1CCB4"/>
<path d="M11.334 5.23047H9.95898V6.53812H11.334V5.23047Z" fill="#C07153"/>
<path d="M1.707 6.53906H0.332031V7.84672H1.707V6.53906Z" fill="#C07153"/>
<path d="M3.082 6.53809H1.70703V7.84574H3.082V6.53809Z" fill="#DC997A"/>
<path d="M4.457 6.53809H3.08203V7.84574H4.457V6.53809Z" fill="#DC997A"/>
<path d="M5.83395 6.53906H4.45898V7.84672H5.83395V6.53906Z" fill="#DC997A"/>
<path d="M7.207 6.53906H5.83203V7.84672H7.207V6.53906Z" fill="#DC997A"/>
<path d="M8.582 6.53809H7.20703V7.84574H8.582V6.53809Z" fill="#984641"/>
<path d="M9.957 6.53809H8.58203V7.84574H9.957V6.53809Z" fill="#F1CCB4"/>
<path d="M11.334 6.53906H9.95898V7.84672H11.334V6.53906Z" fill="#C07153"/>
<path d="M3.082 7.84668H1.70703V9.15434H3.082V7.84668Z" fill="#984641"/>
<path d="M4.457 7.84668H3.08203V9.15434H4.457V7.84668Z" fill="#DC997A"/>
<path d="M5.83395 7.84668H4.45898V9.15434H5.83395V7.84668Z" fill="#984641"/>
<path d="M7.207 7.84668H5.83203V9.15434H7.207V7.84668Z" fill="#984641"/>
<path d="M8.582 7.84668H7.20703V9.15434H8.582V7.84668Z" fill="#DC997A"/>
<path d="M9.957 7.84668H8.58203V9.15434H9.957V7.84668Z" fill="#C07153"/>
<path d="M4.457 9.1543H3.08203V10.462H4.457V9.1543Z" fill="#984641"/>
<path d="M5.83395 9.1543H4.45898V10.462H5.83395V9.1543Z" fill="#DC997A"/>
<path d="M7.207 9.1543H5.83203V10.462H7.207V9.1543Z" fill="#DC997A"/>
<path d="M8.582 9.1543H7.20703V10.462H8.582V9.1543Z" fill="#C07153"/>
<path d="M5.83395 10.4619H4.45898V11.7696H5.83395V10.4619Z" fill="#984641"/>
<path d="M7.207 10.4619H5.83203V11.7696H7.207V10.4619Z" fill="#C07153"/>
<path d="M5.83395 11.7695H4.45898V13.0772H5.83395V11.7695Z" fill="#C07153"/>
<path d="M7.207 11.7695H5.83203V13.0772H7.207V11.7695Z" fill="#DC997A"/>
<path d="M4.457 13.0771H3.08203V14.3848H4.457V13.0771Z" fill="#C07153"/>
<path d="M5.83395 13.0771H4.45898V14.3848H5.83395V13.0771Z" fill="#984641"/>
<path d="M7.207 13.0771H5.83203V14.3848H7.207V13.0771Z" fill="#DC997A"/>
<path d="M8.582 13.0771H7.20703V14.3848H8.582V13.0771Z" fill="#C07153"/>
<path d="M3.082 14.3848H1.70703V15.6924H3.082V14.3848Z" fill="#C07153"/>
<path d="M4.457 14.3848H3.08203V15.6924H4.457V14.3848Z" fill="#984641"/>
<path d="M5.83395 14.3848H4.45898V15.6924H5.83395V14.3848Z" fill="#DC997A"/>
<path d="M7.207 14.3848H5.83203V15.6924H7.207V14.3848Z" fill="#DC997A"/>
<path d="M8.582 14.3848H7.20703V15.6924H8.582V14.3848Z" fill="#F1CCB4"/>
<path d="M9.957 14.3848H8.58203V15.6924H9.957V14.3848Z" fill="#C07153"/>
<path d="M1.707 15.6924H0.332031V17H1.707V15.6924Z" fill="#C07153"/>
<path d="M3.082 15.6924H1.70703V17H3.082V15.6924Z" fill="#984641"/>
<path d="M4.457 15.6924H3.08203V17H4.457V15.6924Z" fill="#C07153"/>
<path d="M5.83395 15.6924H4.45898V17H5.83395V15.6924Z" fill="#C07153"/>
<path d="M7.207 15.6924H5.83203V17H7.207V15.6924Z" fill="#C07153"/>
<path d="M8.582 15.6924H7.20703V17H8.582V15.6924Z" fill="#DC997A"/>
<path d="M9.957 15.6924H8.58203V17H9.957V15.6924Z" fill="#DC997A"/>
<path d="M11.334 15.6924H9.95898V17H11.334V15.6924Z" fill="#C07153"/>
</svg>
