<svg width="12" height="17" viewBox="0 0 12 17" fill="none" xmlns="http://www.w3.org/2000/svg">
<path d="M4.12692 0H2.75195V1.30766H4.12692V0Z" fill="#D79734"/>
<path d="M5.49997 0H4.125V1.30766H5.49997V0Z" fill="#D79734"/>
<path d="M6.87497 0H5.5V1.30766H6.87497V0Z" fill="#D79734"/>
<path d="M8.25192 0H6.87695V1.30766H8.25192V0Z" fill="#D79734"/>
<path d="M2.75192 1.30762H1.37695V2.61527H2.75192V1.30762Z" fill="#D79734"/>
<path d="M4.12692 1.30762H2.75195V2.61527H4.12692V1.30762Z" fill="#F1E39F"/>
<path d="M5.49997 1.30762H4.125V2.61527H5.49997V1.30762Z" fill="#EAC641"/>
<path d="M6.87497 1.30762H5.5V2.61527H6.87497V1.30762Z" fill="#EAC641"/>
<path d="M8.25192 1.30762H6.87695V2.61527H8.25192V1.30762Z" fill="#EAC641"/>
<path d="M9.62692 1.30762H8.25195V2.61527H9.62692V1.30762Z" fill="#D79734"/>
<path d="M1.37692 2.61621H0.00195312V3.92387H1.37692V2.61621Z" fill="#D79734"/>
<path d="M2.75192 2.61523H1.37695V3.92289H2.75192V2.61523Z" fill="#F1E39F"/>
<path d="M4.12692 2.61523H2.75195V3.92289H4.12692V2.61523Z" fill="#F1E39F"/>
<path d="M5.49997 2.61621H4.125V3.92387H5.49997V2.61621Z" fill="#FDFAD4"/>
<path d="M6.87497 2.61621H5.5V3.92387H6.87497V2.61621Z" fill="#B4642D"/>
<path d="M8.25192 2.61523H6.87695V3.92289H8.25192V2.61523Z" fill="#EAC641"/>
<path d="M9.62692 2.61523H8.25195V3.92289H9.62692V2.61523Z" fill="#EAC641"/>
<path d="M11.0019 2.61621H9.62695V3.92387H11.0019V2.61621Z" fill="#D79734"/>
<path d="M1.37692 3.92383H0.00195312V5.23148H1.37692V3.92383Z" fill="#D79734"/>
<path d="M2.75192 3.92383H1.37695V5.23148H2.75192V3.92383Z" fill="#EAC641"/>
<path d="M4.12692 3.92383H2.75195V5.23148H4.12692V3.92383Z" fill="#EAC641"/>
<path d="M5.49997 3.92383H4.125V5.23148H5.49997V3.92383Z" fill="#B4642D"/>
<path d="M6.87497 3.92383H5.5V5.23148H6.87497V3.92383Z" fill="#B4642D"/>
<path d="M8.25192 3.92383H6.87695V5.23148H8.25192V3.92383Z" fill="#FDFAD4"/>
<path d="M9.62692 3.92383H8.25195V5.23148H9.62692V3.92383Z" fill="#EAC641"/>
<path d="M11.0019 3.92383H9.62695V5.23148H11.0019V3.92383Z" fill="#D79734"/>
<path d="M1.37692 5.23047H0.00195312V6.53812H1.37692V5.23047Z" fill="#D79734"/>
<path d="M2.75192 5.23047H1.37695V6.53812H2.75192V5.23047Z" fill="#EAC641"/>
<path d="M4.12692 5.23047H2.75195V6.53812H4.12692V5.23047Z" fill="#EAC641"/>
<path d="M5.49997 5.23047H4.125V6.53812H5.49997V5.23047Z" fill="#EAC641"/>
<path d="M6.87497 5.23047H5.5V6.53812H6.87497V5.23047Z" fill="#B4642D"/>
<path d="M8.25192 5.23047H6.87695V6.53812H8.25192V5.23047Z" fill="#FDFAD4"/>
<path d="M9.62692 5.23047H8.25195V6.53812H9.62692V5.23047Z" fill="#F1E39F"/>
<path d="M11.0019 5.23047H9.62695V6.53812H11.0019V5.23047Z" fill="#D79734"/>
<path d="M1.37692 6.53906H0.00195312V7.84672H1.37692V6.53906Z" fill="#D79734"/>
<path d="M2.75192 6.53906H1.37695V7.84672H2.75192V6.53906Z" fill="#EAC641"/>
<path d="M4.12692 6.53906H2.75195V7.84672H4.12692V6.53906Z" fill="#EAC641"/>
<path d="M5.49997 6.53906H4.125V7.84672H5.49997V6.53906Z" fill="#EAC641"/>
<path d="M6.87497 6.53906H5.5V7.84672H6.87497V6.53906Z" fill="#B4642D"/>
<path d="M8.25192 6.53906H6.87695V7.84672H8.25192V6.53906Z" fill="#EAC641"/>
<path d="M9.62692 6.53906H8.25195V7.84672H9.62692V6.53906Z" fill="#F1E39F"/>
<path d="M11.0019 6.53906H9.62695V7.84672H11.0019V6.53906Z" fill="#D79734"/>
<path d="M2.75192 7.84668H1.37695V9.15434H2.75192V7.84668Z" fill="#B4642D"/>
<path d="M4.12692 7.84668H2.75195V9.15434H4.12692V7.84668Z" fill="#EAC641"/>
<path d="M5.49997 7.84668H4.125V9.15434H5.49997V7.84668Z" fill="#EAC641"/>
<path d="M6.87497 7.84668H5.5V9.15434H6.87497V7.84668Z" fill="#B4642D"/>
<path d="M8.25192 7.84668H6.87695V9.15434H8.25192V7.84668Z" fill="#EAC641"/>
<path d="M9.62692 7.84668H8.25195V9.15434H9.62692V7.84668Z" fill="#D79734"/>
<path d="M4.12692 9.1543H2.75195V10.462H4.12692V9.1543Z" fill="#B4642D"/>
<path d="M5.49997 9.1543H4.125V10.462H5.49997V9.1543Z" fill="#EAC641"/>
<path d="M6.87497 9.1543H5.5V10.462H6.87497V9.1543Z" fill="#EAC641"/>
<path d="M8.25192 9.1543H6.87695V10.462H8.25192V9.1543Z" fill="#D79734"/>
<path d="M5.49997 10.4619H4.125V11.7696H5.49997V10.4619Z" fill="#B4642D"/>
<path d="M6.87497 10.4619H5.5V11.7696H6.87497V10.4619Z" fill="#D79734"/>
<path d="M5.49997 11.7695H4.125V13.0772H5.49997V11.7695Z" fill="#D79734"/>
<path d="M6.87497 11.7695H5.5V13.0772H6.87497V11.7695Z" fill="#EAC641"/>
<path d="M4.12692 13.0771H2.75195V14.3848H4.12692V13.0771Z" fill="#D79734"/>
<path d="M5.49997 13.0771H4.125V14.3848H5.49997V13.0771Z" fill="#B4642D"/>
<path d="M6.87497 13.0771H5.5V14.3848H6.87497V13.0771Z" fill="#EAC641"/>
<path d="M8.25192 13.0771H6.87695V14.3848H8.25192V13.0771Z" fill="#D79734"/>
<path d="M2.75192 14.3848H1.37695V15.6924H2.75192V14.3848Z" fill="#D79734"/>
<path d="M4.12692 14.3848H2.75195V15.6924H4.12692V14.3848Z" fill="#B4642D"/>
<path d="M5.49997 14.3848H4.125V15.6924H5.49997V14.3848Z" fill="#EAC641"/>
<path d="M6.87497 14.3848H5.5V15.6924H6.87497V14.3848Z" fill="#EAC641"/>
<path d="M8.25192 14.3848H6.87695V15.6924H8.25192V14.3848Z" fill="#F1E39F"/>
<path d="M9.62692 14.3848H8.25195V15.6924H9.62692V14.3848Z" fill="#D79734"/>
<path d="M1.37692 15.6924H0.00195312V17H1.37692V15.6924Z" fill="#D79734"/>
<path d="M2.75192 15.6924H1.37695V17H2.75192V15.6924Z" fill="#B4642D"/>
<path d="M4.12692 15.6924H2.75195V17H4.12692V15.6924Z" fill="#D79734"/>
<path d="M5.49997 15.6924H4.125V17H5.49997V15.6924Z" fill="#D79734"/>
<path d="M6.87497 15.6924H5.5V17H6.87497V15.6924Z" fill="#D79734"/>
<path d="M8.25192 15.6924H6.87695V17H8.25192V15.6924Z" fill="#EAC641"/>
<path d="M9.62692 15.6924H8.25195V17H9.62692V15.6924Z" fill="#EAC641"/>
<path d="M11.0019 15.6924H9.62695V17H11.0019V15.6924Z" fill="#D79734"/>
</svg>
