<svg width="12" height="17" viewBox="0 0 12 17" fill="none" xmlns="http://www.w3.org/2000/svg">
<path d="M4.79099 0H3.41602V1.30766H4.79099V0Z" fill="#9AAFC3"/>
<path d="M6.16599 0H4.79102V1.30766H6.16599V0Z" fill="#9AAFC3"/>
<path d="M7.53903 0H6.16406V1.30766H7.53903V0Z" fill="#9AAFC3"/>
<path d="M8.91403 0H7.53906V1.30766H8.91403V0Z" fill="#9AAFC3"/>
<path d="M3.41403 1.30762H2.03906V2.61527H3.41403V1.30762Z" fill="#9AAFC3"/>
<path d="M4.79099 1.30762H3.41602V2.61527H4.79099V1.30762Z" fill="#E8EAF7"/>
<path d="M6.16599 1.30762H4.79102V2.61527H6.16599V1.30762Z" fill="#BBD2D5"/>
<path d="M7.53903 1.30762H6.16406V2.61527H7.53903V1.30762Z" fill="#BBD2D5"/>
<path d="M8.91403 1.30762H7.53906V2.61527H8.91403V1.30762Z" fill="#BBD2D5"/>
<path d="M10.289 1.30762H8.91406V2.61527H10.289V1.30762Z" fill="#9AAFC3"/>
<path d="M2.03903 2.61523H0.664062V3.92289H2.03903V2.61523Z" fill="#9AAFC3"/>
<path d="M3.41403 2.61523H2.03906V3.92289H3.41403V2.61523Z" fill="#E8EAF7"/>
<path d="M4.79099 2.61523H3.41602V3.92289H4.79099V2.61523Z" fill="#E8EAF7"/>
<path d="M6.16599 2.61523H4.79102V3.92289H6.16599V2.61523Z" fill="#7889A7"/>
<path d="M7.53903 2.61523H6.16406V3.92289H7.53903V2.61523Z" fill="#7889A7"/>
<path d="M8.91403 2.61523H7.53906V3.92289H8.91403V2.61523Z" fill="#BBD2D5"/>
<path d="M10.291 2.61523H8.91602V3.92289H10.291V2.61523Z" fill="#BBD2D5"/>
<path d="M11.6679 2.61523H10.293V3.92289H11.6679V2.61523Z" fill="#9AAFC3"/>
<path d="M2.03903 3.92285H0.664062V5.23051H2.03903V3.92285Z" fill="#9AAFC3"/>
<path d="M3.41403 3.92285H2.03906V5.23051H3.41403V3.92285Z" fill="#BBD2D5"/>
<path d="M4.79099 3.92285H3.41602V5.23051H4.79099V3.92285Z" fill="#BBD2D5"/>
<path d="M6.16599 3.92285H4.79102V5.23051H6.16599V3.92285Z" fill="#BBD2D5"/>
<path d="M7.53903 3.92285H6.16406V5.23051H7.53903V3.92285Z" fill="#7889A7"/>
<path d="M8.91403 3.92285H7.53906V5.23051H8.91403V3.92285Z" fill="#E8EAF7"/>
<path d="M10.289 3.92285H8.91406V5.23051H10.289V3.92285Z" fill="#BBD2D5"/>
<path d="M11.6679 3.92285H10.293V5.23051H11.6679V3.92285Z" fill="#9AAFC3"/>
<path d="M2.03903 5.23047H0.664062V6.53812H2.03903V5.23047Z" fill="#9AAFC3"/>
<path d="M3.41403 5.23047H2.03906V6.53812H3.41403V5.23047Z" fill="#BBD2D5"/>
<path d="M4.79099 5.23145H3.41602V6.5391H4.79099V5.23145Z" fill="#BBD2D5"/>
<path d="M6.16599 5.23047H4.79102V6.53812H6.16599V5.23047Z" fill="#7889A7"/>
<path d="M7.53903 5.23047H6.16406V6.53812H7.53903V5.23047Z" fill="#BBD2D5"/>
<path d="M8.91403 5.23047H7.53906V6.53812H8.91403V5.23047Z" fill="#E8EAF7"/>
<path d="M10.291 5.23145H8.91602V6.5391H10.291V5.23145Z" fill="#E8EAF7"/>
<path d="M11.6679 5.23047H10.293V6.53812H11.6679V5.23047Z" fill="#9AAFC3"/>
<path d="M2.03903 6.53906H0.664062V7.84672H2.03903V6.53906Z" fill="#9AAFC3"/>
<path d="M3.41403 6.53906H2.03906V7.84672H3.41403V6.53906Z" fill="#BBD2D5"/>
<path d="M4.79099 6.53906H3.41602V7.84672H4.79099V6.53906Z" fill="#BBD2D5"/>
<path d="M6.16599 6.53906H4.79102V7.84672H6.16599V6.53906Z" fill="#7889A7"/>
<path d="M7.53903 6.53906H6.16406V7.84672H7.53903V6.53906Z" fill="#BBD2D5"/>
<path d="M8.91403 6.53906H7.53906V7.84672H8.91403V6.53906Z" fill="#BBD2D5"/>
<path d="M10.289 6.53906H8.91406V7.84672H10.289V6.53906Z" fill="#E8EAF7"/>
<path d="M11.6679 6.53906H10.293V7.84672H11.6679V6.53906Z" fill="#9AAFC3"/>
<path d="M3.41403 7.84668H2.03906V9.15434H3.41403V7.84668Z" fill="#7889A7"/>
<path d="M4.79099 7.84668H3.41602V9.15433H4.79099V7.84668Z" fill="#BBD2D5"/>
<path d="M6.16599 7.84668H4.79102V9.15434H6.16599V7.84668Z" fill="#7889A7"/>
<path d="M7.53903 7.84668H6.16406V9.15434H7.53903V7.84668Z" fill="#7889A7"/>
<path d="M8.91403 7.84668H7.53906V9.15434H8.91403V7.84668Z" fill="#BBD2D5"/>
<path d="M10.291 7.84668H8.91602V9.15433H10.291V7.84668Z" fill="#9AAFC3"/>
<path d="M4.79099 9.1543H3.41602V10.462H4.79099V9.1543Z" fill="#7889A7"/>
<path d="M6.16599 9.1543H4.79102V10.462H6.16599V9.1543Z" fill="#BBD2D5"/>
<path d="M7.53903 9.1543H6.16406V10.462H7.53903V9.1543Z" fill="#BBD2D5"/>
<path d="M8.91403 9.1543H7.53906V10.462H8.91403V9.1543Z" fill="#9AAFC3"/>
<path d="M6.16599 10.4619H4.79102V11.7696H6.16599V10.4619Z" fill="#7889A7"/>
<path d="M7.53903 10.4619H6.16406V11.7696H7.53903V10.4619Z" fill="#9AAFC3"/>
<path d="M6.16599 11.7695H4.79102V13.0772H6.16599V11.7695Z" fill="#9AAFC3"/>
<path d="M7.53903 11.7695H6.16406V13.0772H7.53903V11.7695Z" fill="#BBD2D5"/>
<path d="M4.79099 13.0771H3.41602V14.3848H4.79099V13.0771Z" fill="#9AAFC3"/>
<path d="M6.16599 13.0771H4.79102V14.3848H6.16599V13.0771Z" fill="#7889A7"/>
<path d="M7.53903 13.0771H6.16406V14.3848H7.53903V13.0771Z" fill="#BBD2D5"/>
<path d="M8.91403 13.0771H7.53906V14.3848H8.91403V13.0771Z" fill="#9AAFC3"/>
<path d="M3.41403 14.3848H2.03906V15.6924H3.41403V14.3848Z" fill="#9AAFC3"/>
<path d="M4.79099 14.3848H3.41602V15.6924H4.79099V14.3848Z" fill="#7889A7"/>
<path d="M6.16599 14.3848H4.79102V15.6924H6.16599V14.3848Z" fill="#BBD2D5"/>
<path d="M7.53903 14.3848H6.16406V15.6924H7.53903V14.3848Z" fill="#BBD2D5"/>
<path d="M8.91403 14.3848H7.53906V15.6924H8.91403V14.3848Z" fill="#E8EAF7"/>
<path d="M10.291 14.3848H8.91602V15.6924H10.291V14.3848Z" fill="#9AAFC3"/>
<path d="M2.03903 15.6924H0.664062V17H2.03903V15.6924Z" fill="#9AAFC3"/>
<path d="M3.41403 15.6924H2.03906V17H3.41403V15.6924Z" fill="#7889A7"/>
<path d="M4.79099 15.6924H3.41602V17H4.79099V15.6924Z" fill="#9AAFC3"/>
<path d="M6.16599 15.6924H4.79102V17H6.16599V15.6924Z" fill="#9AAFC3"/>
<path d="M7.53903 15.6924H6.16406V17H7.53903V15.6924Z" fill="#9AAFC3"/>
<path d="M8.91403 15.6924H7.53906V17H8.91403V15.6924Z" fill="#BBD2D5"/>
<path d="M10.289 15.6924H8.91406V17H10.289V15.6924Z" fill="#BBD2D5"/>
<path d="M11.6679 15.6924H10.293V17H11.6679V15.6924Z" fill="#9AAFC3"/>
</svg>
