<svg width="32" height="32" viewBox="0 0 32 32" fill="none" xmlns="http://www.w3.org/2000/svg">
  <g clip-path="url(#clip0_510_4005)">
    <path d="M15.2017 4H13.6016V5.60017H15.2017V4Z" fill="#514B74" />
    <path d="M16.8013 4H15.2012V5.60017H16.8013V4Z" fill="#514B74" />
    <path d="M18.401 4H16.8008V5.60017H18.401V4Z" fill="#514B74" />
    <path d="M13.6002 5.6001H12V7.20027H13.6002V5.6001Z" fill="#514B74" />
    <path d="M15.2017 5.6001H13.6016V7.20027H15.2017V5.6001Z" fill="#BBC9E2" />
    <path d="M16.8013 5.6001H15.2012V7.20027H16.8013V5.6001Z" fill="#BBC9E2" />
    <path d="M18.401 5.6001H16.8008V7.20027H18.401V5.6001Z" fill="#768DBA" />
    <path d="M20.0006 5.6001H18.4004V7.20027H20.0006V5.6001Z" fill="#514B74" />
    <path d="M12.0006 7.19971H10.4004V8.79988H12.0006V7.19971Z" fill="#514B74" />
    <path d="M13.6002 7.19971H12V8.79988H13.6002V7.19971Z" fill="#BBC9E2" />
    <path d="M15.2017 7.19971H13.6016V8.79988H15.2017V7.19971Z" fill="#E7E7E7" />
    <path d="M16.8013 7.19971H15.2012V8.79988H16.8013V7.19971Z" fill="#BBC9E2" />
    <path d="M18.401 7.19971H16.8008V8.79988H18.401V7.19971Z" fill="#768DBA" />
    <path d="M20.0006 7.19971H18.4004V8.79988H20.0006V7.19971Z" fill="#768DBA" />
    <path d="M21.6002 7.19971H20V8.79988H21.6002V7.19971Z" fill="#514B74" />
    <path d="M12.0006 8.7998H10.4004V10.4H12.0006V8.7998Z" fill="#514B74" />
    <path d="M13.6002 8.7998H12V10.4H13.6002V8.7998Z" fill="#CF6481" />
    <path d="M15.2017 8.7998H13.6016V10.4H15.2017V8.7998Z" fill="#E5AFA7" />
    <path d="M16.8013 8.7998H15.2012V10.4H16.8013V8.7998Z" fill="#CF6481" />
    <path d="M18.401 8.7998H16.8008V10.4H18.401V8.7998Z" fill="#993328" />
    <path d="M20.0006 8.7998H18.4004V10.4H20.0006V8.7998Z" fill="#993328" />
    <path d="M21.6002 8.7998H20V10.4H21.6002V8.7998Z" fill="#514B74" />
    <path d="M12.0006 10.3999H10.4004V12.0001H12.0006V10.3999Z" fill="#514B74" />
    <path d="M13.6002 10.3999H12V12.0001H13.6002V10.3999Z" fill="#BBC9E2" />
    <path d="M15.2017 10.3999H13.6016V12.0001H15.2017V10.3999Z" fill="#E7E7E7" />
    <path d="M16.8013 10.3999H15.2012V12.0001H16.8013V10.3999Z" fill="#BBC9E2" />
    <path d="M18.401 10.3999H16.8008V12.0001H18.401V10.3999Z" fill="#768DBA" />
    <path d="M20.0006 10.3999H18.4004V12.0001H20.0006V10.3999Z" fill="#768DBA" />
    <path d="M21.6002 10.3999H20V12.0001H21.6002V10.3999Z" fill="#514B74" />
    <path d="M12.0006 12H10.4004V13.6002H12.0006V12Z" fill="#514B74" />
    <path d="M13.6002 12H12V13.6002H13.6002V12Z" fill="#BBC9E2" />
    <path d="M15.2017 12H13.6016V13.6002H15.2017V12Z" fill="#BBC9E2" />
    <path d="M16.8013 12H15.2012V13.6002H16.8013V12Z" fill="#E7E7E7" />
    <path d="M18.401 12H16.8008V13.6002H18.401V12Z" fill="#768DBA" />
    <path d="M20.0006 12H18.4004V13.6002H20.0006V12Z" fill="#768DBA" />
    <path d="M21.6002 12H20V13.6002H21.6002V12Z" fill="#514B74" />
    <path d="M12.0006 13.6001H10.4004V15.2003H12.0006V13.6001Z" fill="#514B74" />
    <path d="M13.6002 13.6001H12V15.2003H13.6002V13.6001Z" fill="#BBC9E2" />
    <path d="M15.2017 13.6001H13.6016V15.2003H15.2017V13.6001Z" fill="#E7E7E7" />
    <path d="M16.8013 13.6001H15.2012V15.2003H16.8013V13.6001Z" fill="#514B74" />
    <path d="M18.401 13.6001H16.8008V15.2003H18.401V13.6001Z" fill="#E7E7E7" />
    <path d="M20.0006 13.6001H18.4004V15.2003H20.0006V13.6001Z" fill="#768DBA" />
    <path d="M21.6002 13.6001H20V15.2003H21.6002V13.6001Z" fill="#514B74" />
    <path d="M10.401 15.1997H8.80078V16.7999H10.401V15.1997Z" fill="#514B74" />
    <path d="M12.0006 15.1997H10.4004V16.7999H12.0006V15.1997Z" fill="#514B74" />
    <path d="M13.6002 15.1997H12V16.7999H13.6002V15.1997Z" fill="#768DBA" />
    <path d="M15.2017 15.1997H13.6016V16.7999H15.2017V15.1997Z" fill="#E7E7E7" />
    <path d="M16.8013 15.1997H15.2012V16.7999H16.8013V15.1997Z" fill="#514B74" />
    <path d="M18.401 15.1997H16.8008V16.7999H18.401V15.1997Z" fill="#E7E7E7" />
    <path d="M20.0006 15.1997H18.4004V16.7999H20.0006V15.1997Z" fill="#768DBA" />
    <path d="M21.6002 15.1997H20V16.7999H21.6002V15.1997Z" fill="#514B74" />
    <path d="M23.2017 15.1997H21.6016V16.7999H23.2017V15.1997Z" fill="#514B74" />
    <path d="M8.80134 16.7998H7.20117V18.4H8.80134V16.7998Z" fill="#514B74" />
    <path d="M10.401 16.7998H8.80078V18.4H10.401V16.7998Z" fill="#BBC9E2" />
    <path d="M12.0006 16.7998H10.4004V18.4H12.0006V16.7998Z" fill="#514B74" />
    <path d="M13.6002 16.7998H12V18.4H13.6002V16.7998Z" fill="#768DBA" />
    <path d="M15.2017 16.7998H13.6016V18.4H15.2017V16.7998Z" fill="#768DBA" />
    <path d="M16.8013 16.7998H15.2012V18.4H16.8013V16.7998Z" fill="#E7E7E7" />
    <path d="M18.401 16.7998H16.8008V18.4H18.401V16.7998Z" fill="#768DBA" />
    <path d="M20.0006 16.7998H18.4004V18.4H20.0006V16.7998Z" fill="#768DBA" />
    <path d="M21.6002 16.7998H20V18.4H21.6002V16.7998Z" fill="#514B74" />
    <path d="M23.2017 16.7998H21.6016V18.4H23.2017V16.7998Z" fill="#BBC9E2" />
    <path d="M24.8013 16.7998H23.2012V18.4H24.8013V16.7998Z" fill="#514B74" />
    <path d="M8.80134 18.3999H7.20117V20.0001H8.80134V18.3999Z" fill="#514B74" />
    <path d="M10.401 18.3999H8.80078V20.0001H10.401V18.3999Z" fill="#768DBA" />
    <path d="M12.0006 18.3999H10.4004V20.0001H12.0006V18.3999Z" fill="#514B74" />
    <path d="M13.6002 18.3999H12V20.0001H13.6002V18.3999Z" fill="#768DBA" />
    <path d="M15.2017 18.3999H13.6016V20.0001H15.2017V18.3999Z" fill="#768DBA" />
    <path d="M16.8013 18.3999H15.2012V20.0001H16.8013V18.3999Z" fill="#768DBA" />
    <path d="M18.401 18.3999H16.8008V20.0001H18.401V18.3999Z" fill="#768DBA" />
    <path d="M20.0006 18.3999H18.4004V20.0001H20.0006V18.3999Z" fill="#768DBA" />
    <path d="M21.6002 18.3999H20V20.0001H21.6002V18.3999Z" fill="#514B74" />
    <path d="M23.2017 18.3999H21.6016V20.0001H23.2017V18.3999Z" fill="#768DBA" />
    <path d="M24.8013 18.3999H23.2012V20.0001H24.8013V18.3999Z" fill="#514B74" />
    <path d="M10.401 20H8.80078V21.6002H10.401V20Z" fill="#514B74" />
    <path d="M12.0006 20H10.4004V21.6002H12.0006V20Z" fill="#514B74" />
    <path d="M13.6002 20H12V21.6002H13.6002V20Z" fill="#514B74" />
    <path d="M15.2017 20H13.6016V21.6002H15.2017V20Z" fill="#514B74" />
    <path d="M16.8013 20H15.2012V21.6002H16.8013V20Z" fill="#514B74" />
    <path d="M18.401 20H16.8008V21.6002H18.401V20Z" fill="#514B74" />
    <path d="M20.0006 20H18.4004V21.6002H20.0006V20Z" fill="#514B74" />
    <path d="M21.6002 20H20V21.6002H21.6002V20Z" fill="#514B74" />
    <path d="M23.2017 20H21.6016V21.6002H23.2017V20Z" fill="#514B74" />
    <path d="M10.401 21.6001H8.80078V23.2003H10.401V21.6001Z" fill="#514B74" />
    <path d="M16.8013 21.6001H15.2012V23.2003H16.8013V21.6001Z" fill="#514B74" />
    <path d="M23.2017 21.6001H21.6016V23.2003H23.2017V21.6001Z" fill="#514B74" />
    <path d="M8.80134 23.1997H7.20117V24.7999H8.80134V23.1997Z" fill="#514B74" />
    <path d="M16.8013 23.1997H15.2012V24.7999H16.8013V23.1997Z" fill="#514B74" />
    <path d="M24.8013 23.1997H23.2012V24.7999H24.8013V23.1997Z" fill="#514B74" />
    <path d="M8.80134 24.7998H7.20117V26.4H8.80134V24.7998Z" fill="#514B74" />
    <path d="M16.8013 24.7998H15.2012V26.4H16.8013V24.7998Z" fill="#514B74" />
    <path d="M24.8013 24.7998H23.2012V26.4H24.8013V24.7998Z" fill="#514B74" />
    <path d="M5.60017 26.3999H4V28.0001H5.60017V26.3999Z" fill="#514B74" />
    <path d="M7.20173 26.3999H5.60156V28.0001H7.20173V26.3999Z" fill="#514B74" />
    <path d="M15.2017 26.3999H13.6016V28.0001H15.2017V26.3999Z" fill="#514B74" />
    <path d="M16.8013 26.3999H15.2012V28.0001H16.8013V26.3999Z" fill="#514B74" />
    <path d="M18.401 26.3999H16.8008V28.0001H18.401V26.3999Z" fill="#514B74" />
    <path d="M26.401 26.3999H24.8008V28.0001H26.401V26.3999Z" fill="#514B74" />
    <path d="M28.0006 26.3999H26.4004V28.0001H28.0006V26.3999Z" fill="#514B74" />
  </g>
  <defs>
    <clipPath id="clip0_510_4005">
      <rect width="24" height="24" fill="white" transform="translate(4 4)" />
    </clipPath>
  </defs>
</svg>