<svg width="32" height="32" viewBox="0 0 32 32" fill="none" xmlns="http://www.w3.org/2000/svg">
  <g clip-path="url(#clip0_510_132215)">
    <path d="M10.0001 4H8.5V5.50015H10.0001V4Z" fill="#514B74" />
    <path d="M8.50015 5.5H7V7.00015H8.50015V5.5Z" fill="#514B74" />
    <path d="M10.0001 5.5H8.5V7.00015H10.0001V5.5Z" fill="#BBC9E2" />
    <path d="M11.5001 5.5H10V7.00015H11.5001V5.5Z" fill="#514B74" />
    <path d="M20.5001 5.5H19V7.00015H20.5001V5.5Z" fill="#514B74" />
    <path d="M22.0001 5.5H20.5V7.00015H22.0001V5.5Z" fill="#514B74" />
    <path d="M26.5001 5.5H25V7.00015H26.5001V5.5Z" fill="#514B74" />
    <path d="M7.00015 7H5.5V8.50015H7.00015V7Z" fill="#514B74" />
    <path d="M8.50015 7H7V8.50015H8.50015V7Z" fill="#BBC9E2" />
    <path d="M10.0001 7H8.5V8.50015H10.0001V7Z" fill="#514B74" />
    <path d="M11.5001 7H10V8.50015H11.5001V7Z" fill="#67A1D2" />
    <path d="M13.0001 7H11.5V8.50015H13.0001V7Z" fill="#514B74" />
    <path d="M20.5001 7H19V8.50015H20.5001V7Z" fill="#514B74" />
    <path d="M22.0001 7H20.5V8.50015H22.0001V7Z" fill="#BBC9E2" />
    <path d="M23.5001 7H22V8.50015H23.5001V7Z" fill="#514B74" />
    <path d="M25.0001 7H23.5V8.50015H25.0001V7Z" fill="#514B74" />
    <path d="M5.50015 8.5H4V10.0001H5.50015V8.5Z" fill="#514B74" />
    <path d="M7.00015 8.5H5.5V10.0001H7.00015V8.5Z" fill="#BBC9E2" />
    <path d="M8.50015 8.5H7V10.0001H8.50015V8.5Z" fill="#514B74" />
    <path d="M10.0001 8.5H8.5V10.0001H10.0001V8.5Z" fill="#67A1D2" />
    <path d="M11.5001 8.5H10V10.0001H11.5001V8.5Z" fill="#514B74" />
    <path d="M13.0001 8.5H11.5V10.0001H13.0001V8.5Z" fill="#768DBA" />
    <path d="M14.5001 8.5H13V10.0001H14.5001V8.5Z" fill="#514B74" />
    <path d="M20.5001 8.5H19V10.0001H20.5001V8.5Z" fill="#514B74" />
    <path d="M22.0001 8.5H20.5V10.0001H22.0001V8.5Z" fill="#E7E7E7" />
    <path d="M23.5001 8.5H22V10.0001H23.5001V8.5Z" fill="#BBC9E2" />
    <path d="M25.0001 8.5H23.5V10.0001H25.0001V8.5Z" fill="#514B74" />
    <path d="M7.00015 10H5.5V11.5001H7.00015V10Z" fill="#514B74" />
    <path d="M8.50015 10H7V11.5001H8.50015V10Z" fill="#67A1D2" />
    <path d="M10.0001 10H8.5V11.5001H10.0001V10Z" fill="#514B74" />
    <path d="M11.5001 10H10V11.5001H11.5001V10Z" fill="#768DBA" />
    <path d="M13.0001 10H11.5V11.5001H13.0001V10Z" fill="#514B74" />
    <path d="M17.5001 10H16V11.5001H17.5001V10Z" fill="#514B74" />
    <path d="M19.0001 10H17.5V11.5001H19.0001V10Z" fill="#514B74" />
    <path d="M20.5001 10H19V11.5001H20.5001V10Z" fill="#67A1D2" />
    <path d="M22.0001 10H20.5V11.5001H22.0001V10Z" fill="#514B74" />
    <path d="M23.5001 10H22V11.5001H23.5001V10Z" fill="#768DBA" />
    <path d="M25.0001 10H23.5V11.5001H25.0001V10Z" fill="#768DBA" />
    <path d="M26.5001 10H25V11.5001H26.5001V10Z" fill="#514B74" />
    <path d="M8.50015 11.5H7V13.0001H8.50015V11.5Z" fill="#514B74" />
    <path d="M10.0001 11.5H8.5V13.0001H10.0001V11.5Z" fill="#768DBA" />
    <path d="M11.5001 11.5H10V13.0001H11.5001V11.5Z" fill="#514B74" />
    <path d="M16.0001 11.5H14.5V13.0001H16.0001V11.5Z" fill="#514B74" />
    <path d="M17.5001 11.5H16V13.0001H17.5001V11.5Z" fill="#ACDAE1" />
    <path d="M19.0001 11.5H17.5V13.0001H19.0001V11.5Z" fill="#E7E7E7" />
    <path d="M20.5001 11.5H19V13.0001H20.5001V11.5Z" fill="#514B74" />
    <path d="M22.0001 11.5H20.5V13.0001H22.0001V11.5Z" fill="#67A1D2" />
    <path d="M23.5001 11.5H22V13.0001H23.5001V11.5Z" fill="#514B74" />
    <path d="M25.0001 11.5H23.5V13.0001H25.0001V11.5Z" fill="#514B74" />
    <path d="M26.5001 11.5H25V13.0001H26.5001V11.5Z" fill="#514B74" />
    <path d="M10.0001 13H8.5V14.5001H10.0001V13Z" fill="#514B74" />
    <path d="M13.0001 13H11.5V14.5001H13.0001V13Z" fill="#514B74" />
    <path d="M14.5001 13H13V14.5001H14.5001V13Z" fill="#514B74" />
    <path d="M16.0001 13H14.5V14.5001H16.0001V13Z" fill="#BBC9E2" />
    <path d="M17.5001 13H16V14.5001H17.5001V13Z" fill="#514B74" />
    <path d="M19.0001 13H17.5V14.5001H19.0001V13Z" fill="#ACDAE1" />
    <path d="M20.5001 13H19V14.5001H20.5001V13Z" fill="#67A1D2" />
    <path d="M22.0001 13H20.5V14.5001H22.0001V13Z" fill="#514B74" />
    <path d="M13.0001 14.5H11.5V16.0001H13.0001V14.5Z" fill="#514B74" />
    <path d="M14.5001 14.5H13V16.0001H14.5001V14.5Z" fill="#BBC9E2" />
    <path d="M16.0001 14.5H14.5V16.0001H16.0001V14.5Z" fill="#BBC9E2" />
    <path d="M17.5001 14.5H16V16.0001H17.5001V14.5Z" fill="#BBC9E2" />
    <path d="M19.0001 14.5H17.5V16.0001H19.0001V14.5Z" fill="#514B74" />
    <path d="M20.5001 14.5H19V16.0001H20.5001V14.5Z" fill="#67A1D2" />
    <path d="M22.0001 14.5H20.5V16.0001H22.0001V14.5Z" fill="#514B74" />
    <path d="M11.5001 16H10V17.5001H11.5001V16Z" fill="#514B74" />
    <path d="M13.0001 16H11.5V17.5001H13.0001V16Z" fill="#BBC9E2" />
    <path d="M14.5001 16H13V17.5001H14.5001V16Z" fill="#E7E7E7" />
    <path d="M16.0001 16H14.5V17.5001H16.0001V16Z" fill="#BBC9E2" />
    <path d="M17.5001 16H16V17.5001H17.5001V16Z" fill="#768DBA" />
    <path d="M19.0001 16H17.5V17.5001H19.0001V16Z" fill="#768DBA" />
    <path d="M20.5001 16H19V17.5001H20.5001V16Z" fill="#514B74" />
    <path d="M10.0001 17.5H8.5V19.0001H10.0001V17.5Z" fill="#514B74" />
    <path d="M11.5001 17.5H10V19.0001H11.5001V17.5Z" fill="#BBC9E2" />
    <path d="M13.0001 17.5H11.5V19.0001H13.0001V17.5Z" fill="#E7E7E7" />
    <path d="M14.5001 17.5H13V19.0001H14.5001V17.5Z" fill="#BBC9E2" />
    <path d="M16.0001 17.5H14.5V19.0001H16.0001V17.5Z" fill="#768DBA" />
    <path d="M17.5001 17.5H16V19.0001H17.5001V17.5Z" fill="#768DBA" />
    <path d="M19.0001 17.5H17.5V19.0001H19.0001V17.5Z" fill="#514B74" />
    <path d="M23.5001 17.5H22V19.0001H23.5001V17.5Z" fill="#514B74" />
    <path d="M8.50015 19H7V20.5001H8.50015V19Z" fill="#514B74" />
    <path d="M10.0001 19H8.5V20.5001H10.0001V19Z" fill="#BBC9E2" />
    <path d="M11.5001 19H10V20.5001H11.5001V19Z" fill="#E7E7E7" />
    <path d="M13.0001 19H11.5V20.5001H13.0001V19Z" fill="#BBC9E2" />
    <path d="M14.5001 19H13V20.5001H14.5001V19Z" fill="#768DBA" />
    <path d="M16.0001 19H14.5V20.5001H16.0001V19Z" fill="#768DBA" />
    <path d="M17.5001 19H16V20.5001H17.5001V19Z" fill="#514B74" />
    <path d="M19.0001 19H17.5V20.5001H19.0001V19Z" fill="#514B74" />
    <path d="M22.0001 19H20.5V20.5001H22.0001V19Z" fill="#514B74" />
    <path d="M23.5001 19H22V20.5001H23.5001V19Z" fill="#768DBA" />
    <path d="M25.0001 19H23.5V20.5001H25.0001V19Z" fill="#514B74" />
    <path d="M7.00015 20.5H5.5V22.0001H7.00015V20.5Z" fill="#514B74" />
    <path d="M8.50015 20.5H7V22.0001H8.50015V20.5Z" fill="#67A1D2" />
    <path d="M10.0001 20.5H8.5V22.0001H10.0001V20.5Z" fill="#514B74" />
    <path d="M11.5001 20.5H10V22.0001H11.5001V20.5Z" fill="#BBC9E2" />
    <path d="M13.0001 20.5H11.5V22.0001H13.0001V20.5Z" fill="#768DBA" />
    <path d="M14.5001 20.5H13V22.0001H14.5001V20.5Z" fill="#768DBA" />
    <path d="M16.0001 20.5H14.5V22.0001H16.0001V20.5Z" fill="#514B74" />
    <path d="M20.5001 20.5H19V22.0001H20.5001V20.5Z" fill="#514B74" />
    <path d="M22.0001 20.5H20.5V22.0001H22.0001V20.5Z" fill="#768DBA" />
    <path d="M23.5001 20.5H22V22.0001H23.5001V20.5Z" fill="#514B74" />
    <path d="M25.0001 20.5H23.5V22.0001H25.0001V20.5Z" fill="#67A1D2" />
    <path d="M26.5001 20.5H25V22.0001H26.5001V20.5Z" fill="#514B74" />
    <path d="M7.00015 22H5.5V23.5001H7.00015V22Z" fill="#514B74" />
    <path d="M8.50015 22H7V23.5001H8.50015V22Z" fill="#67A1D2" />
    <path d="M10.0001 22H8.5V23.5001H10.0001V22Z" fill="#67A1D2" />
    <path d="M11.5001 22H10V23.5001H11.5001V22Z" fill="#514B74" />
    <path d="M13.0001 22H11.5V23.5001H13.0001V22Z" fill="#768DBA" />
    <path d="M14.5001 22H13V23.5001H14.5001V22Z" fill="#514B74" />
    <path d="M19.0001 22H17.5V23.5001H19.0001V22Z" fill="#514B74" />
    <path d="M20.5001 22H19V23.5001H20.5001V22Z" fill="#768DBA" />
    <path d="M22.0001 22H20.5V23.5001H22.0001V22Z" fill="#514B74" />
    <path d="M23.5001 22H22V23.5001H23.5001V22Z" fill="#67A1D2" />
    <path d="M25.0001 22H23.5V23.5001H25.0001V22Z" fill="#514B74" />
    <path d="M26.5001 22H25V23.5001H26.5001V22Z" fill="#BBC9E2" />
    <path d="M28.0001 22H26.5V23.5001H28.0001V22Z" fill="#514B74" />
    <path d="M8.50015 23.5H7V25.0001H8.50015V23.5Z" fill="#514B74" />
    <path d="M10.0001 23.5H8.5V25.0001H10.0001V23.5Z" fill="#67A1D2" />
    <path d="M11.5001 23.5H10V25.0001H11.5001V23.5Z" fill="#67A1D2" />
    <path d="M13.0001 23.5H11.5V25.0001H13.0001V23.5Z" fill="#514B74" />
    <path d="M20.5001 23.5H19V25.0001H20.5001V23.5Z" fill="#514B74" />
    <path d="M22.0001 23.5H20.5V25.0001H22.0001V23.5Z" fill="#67A1D2" />
    <path d="M23.5001 23.5H22V25.0001H23.5001V23.5Z" fill="#514B74" />
    <path d="M25.0001 23.5H23.5V25.0001H25.0001V23.5Z" fill="#BBC9E2" />
    <path d="M26.5001 23.5H25V25.0001H26.5001V23.5Z" fill="#514B74" />
    <path d="M10.0001 24.9995H8.5V26.4997H10.0001V24.9995Z" fill="#514B74" />
    <path d="M11.5001 24.9995H10V26.4997H11.5001V24.9995Z" fill="#514B74" />
    <path d="M22.0001 24.9995H20.5V26.4997H22.0001V24.9995Z" fill="#514B74" />
    <path d="M23.5001 24.9995H22V26.4997H23.5001V24.9995Z" fill="#BBC9E2" />
    <path d="M25.0001 24.9995H23.5V26.4997H25.0001V24.9995Z" fill="#514B74" />
    <path d="M23.5001 26.5H22V28.0001H23.5001V26.5Z" fill="#514B74" />
  </g>
  <defs>
    <clipPath id="clip0_510_132215">
      <rect width="24" height="24" fill="white" transform="translate(4 4)" />
    </clipPath>
  </defs>
</svg>