<svg width="32" height="32" viewBox="0 0 32 32" fill="none" xmlns="http://www.w3.org/2000/svg">
  <g clip-path="url(#clip0_510_19946)">
    <path d="M23.2184 4.35986H21.5039V6.07434H23.2184V4.35986Z" fill="#514B74" />
    <path d="M24.9332 4.35986H23.2188V6.07434H24.9332V4.35986Z" fill="#514B74" />
    <path d="M26.6461 4.35986H24.9316V6.07434H26.6461V4.35986Z" fill="#514B74" />
    <path d="M19.7887 6.07471H18.0742V7.78919H19.7887V6.07471Z" fill="#514B74" />
    <path d="M21.5035 6.07471H19.7891V7.78919H21.5035V6.07471Z" fill="#514B74" />
    <path d="M23.2184 6.07471H21.5039V7.78919H23.2184V6.07471Z" fill="#768DBA" />
    <path d="M24.9332 6.07471H23.2188V7.78919H24.9332V6.07471Z" fill="#768DBA" />
    <path d="M26.6461 6.07471H24.9316V7.78919H26.6461V6.07471Z" fill="#768DBA" />
    <path d="M28.361 6.07471H26.6465V7.78919H28.361V6.07471Z" fill="#514B74" />
    <path d="M16.361 7.78857H14.6465V9.50305H16.361V7.78857Z" fill="#514B74" />
    <path d="M18.0739 7.78857H16.3594V9.50305H18.0739V7.78857Z" fill="#514B74" />
    <path d="M19.7887 7.78857H18.0742V9.50305H19.7887V7.78857Z" fill="#768DBA" />
    <path d="M21.5035 7.78857H19.7891V9.50305H21.5035V7.78857Z" fill="#514B74" />
    <path d="M23.2184 7.78857H21.5039V9.50305H23.2184V7.78857Z" fill="#514B74" />
    <path d="M24.9332 7.78857H23.2188V9.50305H24.9332V7.78857Z" fill="#BBC9E2" />
    <path d="M26.6461 7.78857H24.9316V9.50305H26.6461V7.78857Z" fill="#768DBA" />
    <path d="M28.361 7.78857H26.6465V9.50305H28.361V7.78857Z" fill="#514B74" />
    <path d="M11.2184 9.50293H9.50391V11.2174H11.2184V9.50293Z" fill="#514B74" />
    <path d="M12.9313 9.50293H11.2168V11.2174H12.9313V9.50293Z" fill="#514B74" />
    <path d="M14.6461 9.50293H12.9316V11.2174H14.6461V9.50293Z" fill="#514B74" />
    <path d="M16.361 9.50293H14.6465V11.2174H16.361V9.50293Z" fill="#768DBA" />
    <path d="M18.0739 9.50293H16.3594V11.2174H18.0739V9.50293Z" fill="#768DBA" />
    <path d="M19.7887 9.50293H18.0742V11.2174H19.7887V9.50293Z" fill="#514B74" />
    <path d="M21.5035 9.50293H19.7891V11.2174H21.5035V9.50293Z" fill="#F4F9F2" />
    <path d="M23.2184 9.50293H21.5039V11.2174H23.2184V9.50293Z" fill="#ACDAE1" />
    <path d="M24.9332 9.50293H23.2188V11.2174H24.9332V9.50293Z" fill="#514B74" />
    <path d="M26.6461 9.50293H24.9316V11.2174H26.6461V9.50293Z" fill="#768DBA" />
    <path d="M28.361 9.50293H26.6465V11.2174H28.361V9.50293Z" fill="#514B74" />
    <path d="M9.50355 11.2168H7.78906V12.9313H9.50355V11.2168Z" fill="#514B74" />
    <path d="M11.2184 11.2168H9.50391V12.9313H11.2184V11.2168Z" fill="#BBC9E2" />
    <path d="M12.9313 11.2168H11.2168V12.9313H12.9313V11.2168Z" fill="#768DBA" />
    <path d="M14.6461 11.2168H12.9316V12.9313H14.6461V11.2168Z" fill="#514B74" />
    <path d="M16.361 11.2168H14.6465V12.9313H16.361V11.2168Z" fill="#768DBA" />
    <path d="M18.0739 11.2168H16.3594V12.9313H18.0739V11.2168Z" fill="#BBC9E2" />
    <path d="M19.7887 11.2168H18.0742V12.9313H19.7887V11.2168Z" fill="#514B74" />
    <path d="M21.5035 11.2168H19.7891V12.9313H21.5035V11.2168Z" fill="#ACDAE1" />
    <path d="M23.2184 11.2168H21.5039V12.9313H23.2184V11.2168Z" fill="#ACDAE1" />
    <path d="M24.9332 11.2168H23.2188V12.9313H24.9332V11.2168Z" fill="#514B74" />
    <path d="M26.6461 11.2168H24.9316V12.9313H26.6461V11.2168Z" fill="#514B74" />
    <path d="M7.7887 12.9316H6.07422V14.6461H7.7887V12.9316Z" fill="#514B74" />
    <path d="M9.50355 12.9316H7.78906V14.6461H9.50355V12.9316Z" fill="#514B74" />
    <path d="M11.2184 12.9316H9.50391V14.6461H11.2184V12.9316Z" fill="#514B74" />
    <path d="M12.9313 12.9316H11.2168V14.6461H12.9313V12.9316Z" fill="#514B74" />
    <path d="M14.6461 12.9316H12.9316V14.6461H14.6461V12.9316Z" fill="#768DBA" />
    <path d="M16.361 12.9316H14.6465V14.6461H16.361V12.9316Z" fill="#BBC9E2" />
    <path d="M18.0739 12.9316H16.3594V14.6461H18.0739V12.9316Z" fill="#514B74" />
    <path d="M19.7887 12.9316H18.0742V14.6461H19.7887V12.9316Z" fill="#BBC9E2" />
    <path d="M21.5035 12.9316H19.7891V14.6461H21.5035V12.9316Z" fill="#514B74" />
    <path d="M23.2184 12.9316H21.5039V14.6461H23.2184V12.9316Z" fill="#514B74" />
    <path d="M24.9332 12.9316H23.2188V14.6461H24.9332V12.9316Z" fill="#768DBA" />
    <path d="M26.6461 12.9316H24.9316V14.6461H26.6461V12.9316Z" fill="#514B74" />
    <path d="M12.9313 14.646H11.2168V16.3605H12.9313V14.646Z" fill="#514B74" />
    <path d="M14.6461 14.646H12.9316V16.3605H14.6461V14.646Z" fill="#768DBA" />
    <path d="M16.361 14.646H14.6465V16.3605H16.361V14.646Z" fill="#514B74" />
    <path d="M18.0739 14.646H16.3594V16.3605H18.0739V14.646Z" fill="#F4F9F2" />
    <path d="M19.7887 14.646H18.0742V16.3605H19.7887V14.646Z" fill="#514B74" />
    <path d="M21.5035 14.646H19.7891V16.3605H21.5035V14.646Z" fill="#BBC9E2" />
    <path d="M23.2184 14.646H21.5039V16.3605H23.2184V14.646Z" fill="#768DBA" />
    <path d="M24.9332 14.646H23.2188V16.3605H24.9332V14.646Z" fill="#514B74" />
    <path d="M11.2184 16.3599H9.50391V18.0743H11.2184V16.3599Z" fill="#514B74" />
    <path d="M12.9313 16.3599H11.2168V18.0743H12.9313V16.3599Z" fill="#768DBA" />
    <path d="M14.6461 16.3599H12.9316V18.0743H14.6461V16.3599Z" fill="#BBC9E2" />
    <path d="M16.361 16.3599H14.6465V18.0743H16.361V16.3599Z" fill="#BBC9E2" />
    <path d="M18.0739 16.3599H16.3594V18.0743H18.0739V16.3599Z" fill="#514B74" />
    <path d="M19.7887 16.3599H18.0742V18.0743H19.7887V16.3599Z" fill="#BBC9E2" />
    <path d="M21.5035 16.3599H19.7891V18.0743H21.5035V16.3599Z" fill="#768DBA" />
    <path d="M23.2184 16.3599H21.5039V18.0743H23.2184V16.3599Z" fill="#768DBA" />
    <path d="M24.9332 16.3599H23.2188V18.0743H24.9332V16.3599Z" fill="#514B74" />
    <path d="M12.9313 18.0742H11.2168V19.7887H12.9313V18.0742Z" fill="#514B74" />
    <path d="M14.6461 18.0742H12.9316V19.7887H14.6461V18.0742Z" fill="#768DBA" />
    <path d="M16.361 18.0742H14.6465V19.7887H16.361V18.0742Z" fill="#BBC9E2" />
    <path d="M18.0739 18.0742H16.3594V19.7887H18.0739V18.0742Z" fill="#768DBA" />
    <path d="M19.7887 18.0742H18.0742V19.7887H19.7887V18.0742Z" fill="#768DBA" />
    <path d="M21.5035 18.0742H19.7891V19.7887H21.5035V18.0742Z" fill="#514B74" />
    <path d="M23.2184 18.0742H21.5039V19.7887H23.2184V18.0742Z" fill="#514B74" />
    <path d="M11.2184 19.7886H9.50391V21.5031H11.2184V19.7886Z" fill="#514B74" />
    <path d="M14.6461 19.7886H12.9316V21.5031H14.6461V19.7886Z" fill="#514B74" />
    <path d="M16.361 19.7886H14.6465V21.5031H16.361V19.7886Z" fill="#768DBA" />
    <path d="M18.0739 19.7886H16.3594V21.5031H18.0739V19.7886Z" fill="#514B74" />
    <path d="M19.7887 19.7886H18.0742V21.5031H19.7887V19.7886Z" fill="#514B74" />
    <path d="M21.5035 19.7886H19.7891V21.5031H21.5035V19.7886Z" fill="#768DBA" />
    <path d="M23.2184 19.7886H21.5039V21.5031H23.2184V19.7886Z" fill="#514B74" />
    <path d="M7.7887 21.5029H6.07422V23.2174H7.7887V21.5029Z" fill="#CF6481" />
    <path d="M9.50355 21.5029H7.78906V23.2174H9.50355V21.5029Z" fill="#E5AFA7" />
    <path d="M12.9313 21.5029H11.2168V23.2174H12.9313V21.5029Z" fill="#514B74" />
    <path d="M16.361 21.5029H14.6465V23.2174H16.361V21.5029Z" fill="#514B74" />
    <path d="M19.7887 21.5029H18.0742V23.2174H19.7887V21.5029Z" fill="#514B74" />
    <path d="M21.5035 21.5029H19.7891V23.2174H21.5035V21.5029Z" fill="#BBC9E2" />
    <path d="M23.2184 21.5029H21.5039V23.2174H23.2184V21.5029Z" fill="#514B74" />
    <path d="M7.7887 23.2173H6.07422V24.9318H7.7887V23.2173Z" fill="#CF6481" />
    <path d="M9.50355 23.2173H7.78906V24.9318H9.50355V23.2173Z" fill="#E5AFA7" />
    <path d="M11.2184 23.2173H9.50391V24.9318H11.2184V23.2173Z" fill="#E5AFA7" />
    <path d="M19.7887 23.2173H18.0742V24.9318H19.7887V23.2173Z" fill="#514B74" />
    <path d="M21.5035 23.2173H19.7891V24.9318H21.5035V23.2173Z" fill="#514B74" />
    <path d="M6.07386 24.9316H4.35938V26.6461H6.07386V24.9316Z" fill="#993328" />
    <path d="M7.7887 24.9316H6.07422V26.6461H7.7887V24.9316Z" fill="#CF6481" />
    <path d="M9.50355 24.9316H7.78906V26.6461H9.50355V24.9316Z" fill="#CF6481" />
    <path d="M11.2184 24.9316H9.50391V26.6461H11.2184V24.9316Z" fill="#CF6481" />
    <path d="M19.7887 24.9316H18.0742V26.6461H19.7887V24.9316Z" fill="#514B74" />
    <path d="M6.07386 26.646H4.35938V28.3605H6.07386V26.646Z" fill="#993328" />
    <path d="M7.7887 26.646H6.07422V28.3605H7.7887V26.646Z" fill="#993328" />
  </g>
  <defs>
    <clipPath id="clip0_510_19946">
      <rect width="24" height="24" fill="white" transform="translate(4.35938 4.35986)" />
    </clipPath>
  </defs>
</svg>